<?xml version="1.0" encoding="UTF-8" standalone="no"?>
<!-- Created with Inkscape (http://www.inkscape.org/) -->

<svg
   width="14.287387mm"
   height="16.933205mm"
   viewBox="0 0 14.287387 16.933205"
   version="1.1"
   id="svg1"
   xml:space="preserve"
   xmlns="http://www.w3.org/2000/svg"
   xmlns:svg="http://www.w3.org/2000/svg"><defs
     id="defs1" /><g
     id="layer1"
     transform="translate(-97.856246,-140.03325)"><path
       id="path45"
       style="baseline-shift:baseline;display:inline;overflow:visible;vector-effect:none;stroke-width:0.999992;enable-background:accumulate;stop-color:#000000;stop-opacity:1"
       d="m 108.93754,140.03331 c -0.16855,-0.001 -0.33904,0.0109 -0.51005,0.0367 -1.36974,0.20634 -2.45502,1.27959 -2.68252,2.65303 l -0.0372,0.22376 -0.89659,0.008 -0.8971,0.008 -0.0103,-0.56637 c -0.009,-0.50814 -0.0162,-0.57882 -0.0703,-0.69659 -0.0867,-0.18857 -0.27649,-0.36659 -0.46664,-0.43769 -0.15124,-0.0565 -0.20747,-0.0599 -1.13895,-0.0599 h -0.97979 l -0.0594,-0.0765 c -0.14796,-0.19043 -0.29215,-0.32515 -0.4222,-0.39376 l -0.14108,-0.0739 h -1.061948 -1.061434 l -0.159164,0.0775 c -0.17986,0.0883 -0.310855,0.22347 -0.396875,0.40926 -0.0579,0.12529 -0.05891,0.15427 -0.05891,2.02621 v 1.89907 l 0.07803,0.15865 c 0.0846,0.17203 0.205634,0.29391 0.390674,0.39274 0.11625,0.0621 0.135146,0.0633 1.284676,0.0713 l 1.166341,0.008 v 1.11155 0.66248 h 0.55914 v -0.66403 -1.11052 l 0.971,-0.008 0.971,-0.008 0.14986,-0.0827 c 0.16333,-0.0904 0.31035,-0.25051 0.38757,-0.4222 0.0425,-0.0943 0.0506,-0.21692 0.0584,-0.88416 l 0.009,-0.77514 h 0.90175 0.90227 l 0.0186,0.1576 c 0.10016,0.85173 0.60945,1.67175 1.3653,2.19984 0.36692,0.25636 0.943,0.48018 1.37666,0.53433 l 0.15348,0.0191 v 0.72294 0.27853 h 0.55862 v -0.2775 -0.72087 l 0.2589,-0.046 c 1.43759,-0.25566 2.49951,-1.40377 2.6479,-2.86179 0.0608,-0.59717 -0.0534,-1.17884 -0.34313,-1.74716 -0.54904,-1.07739 -1.63602,-1.73595 -2.81585,-1.7456 z m -0.0284,0.55345 c 0.21794,0 0.49517,0.34374 0.67231,0.83301 0.0987,0.27274 0.16982,0.55212 0.14625,0.57567 -0.009,0.009 -0.38569,0.0155 -0.83819,0.0155 h -0.82321 l 0.0196,-0.10387 c 0.0648,-0.34501 0.27127,-0.8331 0.45372,-1.07278 0.10436,-0.1371 0.26925,-0.24753 0.36948,-0.24753 z m -1.00407,0.19844 -0.0408,0.0785 c -0.0911,0.17613 -0.21335,0.51842 -0.28164,0.78961 -0.0399,0.15817 -0.0773,0.30325 -0.0837,0.32245 -0.0166,0.0509 -0.90692,0.0504 -0.90692,-5.2e-4 0,-0.0491 0.17523,-0.31129 0.32763,-0.48988 0.21146,-0.24784 0.61025,-0.54362 0.88987,-0.66041 z m 2.02985,0.0165 c 0.0697,0.005 0.44089,0.22302 0.63976,0.3824 0.27048,0.2168 0.65577,0.68569 0.65577,0.79839 0,0.0182 -0.16423,0.0284 -0.45424,0.0284 h -0.45423 l -0.0889,-0.34984 c -0.049,-0.19228 -0.13499,-0.45287 -0.19068,-0.57929 -0.0558,-0.12641 -0.10869,-0.24695 -0.11782,-0.26819 -0.004,-0.009 4.3e-4,-0.0126 0.0103,-0.0119 z m -10.349237,0.39945 h 5.16e-4 0.926041 l 0.12661,0.14521 c 0.0697,0.0797 0.185,0.20525 0.2558,0.27905 l 0.12867,0.13435 h 1.05317 c 1.1424,0 1.17278,0.003 1.24075,0.15296 0.0459,0.10062 0.0477,2.9781 0.002,3.06748 -0.0172,0.0336 -0.0576,0.0825 -0.0904,0.10903 -0.0553,0.0448 -0.22102,0.0485 -2.33164,0.0491 -1.506114,4.3e-4 -2.290326,-0.009 -2.325956,-0.0279 v -5.1e-4 c -0.1386,-0.0741 -0.137976,-0.0678 -0.137976,-1.93991 0,-1.89715 -0.0029,-1.86497 0.152962,-1.93577 0.05218,-0.0237 0.341049,-0.0331 0.999423,-0.0331 z m 10.820007,1.33943 0.53072,0.008 0.5302,0.008 0.0377,0.15348 c 0.0506,0.20605 0.0549,0.77781 0.009,1.01232 l -0.0377,0.18862 h -0.53434 -0.53485 l -5.2e-4,-0.68573 z m -2.41018,0.001 h 0.9033 c 0.69192,0 0.90826,0.008 0.92552,0.0346 0.0298,0.0462 0.0477,0.92863 0.0233,1.15547 l -0.0191,0.17828 h -0.91674 -0.91622 l -0.0171,-0.0631 c -0.022,-0.0818 -0.022,-1.16093 0,-1.24279 z m -1.45056,0.003 h 5.1e-4 c 0.0812,-0.002 0.19141,6.1e-4 0.34262,0.004 l 0.51728,0.008 0.005,0.67695 0.005,0.67747 h -0.53589 -0.53536 l -0.0315,-0.14728 c -0.0529,-0.2427 -0.0658,-0.60638 -0.0305,-0.87072 0.0382,-0.28633 0.0195,-0.34209 0.26304,-0.3483 z m -6.819224,0.13694 -0.0739,0.0739 c -0.0563,0.0563 -0.07338,0.10139 -0.07338,0.19172 0,0.0903 0.01708,0.13486 0.07338,0.19119 l 0.0739,0.0739 h 1.237134 1.23713 l 0.0724,-0.0858 c 0.0463,-0.0549 0.0724,-0.11952 0.0724,-0.1793 0,-0.0598 -0.0259,-0.12487 -0.0724,-0.17984 l -0.0724,-0.0858 h -1.23713 z m 0,1.11722 -0.0739,0.0734 c -0.0563,0.0563 -0.07338,0.1014 -0.07338,0.19171 0,0.0903 0.01708,0.13539 0.07338,0.19172 l 0.0739,0.0739 h 1.237134 1.23713 l 0.0724,-0.0863 c 0.0463,-0.0549 0.0724,-0.11951 0.0724,-0.17932 0,-0.0598 -0.0259,-0.12431 -0.0724,-0.17931 l -0.0724,-0.0858 h -1.23713 z m 6.833694,0.67024 h 0.47335 0.47388 l 0.0341,0.17466 c 0.0479,0.24481 0.1882,0.6752 0.28216,0.86557 0.0525,0.10649 0.0675,0.16071 0.0439,0.16071 -0.0194,0 -0.14675,-0.0663 -0.28267,-0.14675 h -5.2e-4 c -0.37213,-0.22064 -0.74421,-0.58824 -0.96118,-0.94929 z m 2.35334,0 c 0.787,0 0.83927,0.003 0.82579,0.0491 -0.008,0.0268 -0.0345,0.12896 -0.0594,0.22686 -0.13457,0.53178 -0.39969,0.98544 -0.64027,1.09604 -0.13304,0.0612 -0.21526,0.0489 -0.34623,-0.0506 -0.20603,-0.1567 -0.42965,-0.57055 -0.54932,-1.01697 -0.0386,-0.14428 -0.0703,-0.27218 -0.0703,-0.2837 -3e-5,-0.0116 0.37767,-0.0207 0.83974,-0.0207 z m 1.40095,0 h 0.45837 c 0.25203,0 0.45785,0.0108 0.45785,0.0238 0,0.0508 -0.2216,0.36227 -0.37723,0.53019 -0.20435,0.2205 -0.44408,0.4066 -0.69815,0.54157 -0.10766,0.0572 -0.20441,0.10396 -0.21498,0.10437 -0.0105,4.2e-4 0.0164,-0.0776 0.06,-0.17362 0.1005,-0.22156 0.20819,-0.55075 0.26768,-0.81803 z m -1.68258,2.9636 v 3.08865 h -0.0222 -0.0909 c -0.0501,0 -0.25125,0.019 -0.447,0.0419 -1.23159,0.14398 -2.07935,0.52958 -2.37298,1.0795 -0.0632,0.11834 -0.065,0.14357 -0.0734,0.98029 l -0.008,0.85885 h -0.67799 -0.678 l -0.0481,-0.2713 c -0.1225,-0.69097 -0.44027,-1.2783 -0.95653,-1.76833 -0.46962,-0.44576 -1.00271,-0.71478 -1.64124,-0.82785 l -0.24856,-0.0444 v -3.09485 h -0.55914 v 3.25246 h -5.2e-4 v -0.15916 h -0.0212 l -0.22737,0.0351 c -0.652708,0.0999 -1.310532,0.44164 -1.790592,0.93068 -1.06305,1.08294 -1.212998,2.76214 -0.359668,4.02604 1.11409,1.65011 3.46647,1.88961 4.88601,0.49764 0.48929,-0.4798 0.83129,-1.13717 0.93121,-1.78953 l 0.0346,-0.22685 h 0.67851 0.67851 l 0.008,0.83043 c 0.008,0.8146 0.009,0.83355 0.076,0.97046 0.24216,0.49824 1.06617,0.89918 2.18488,1.06245 0.27932,0.0408 1.30386,0.0761 1.50534,0.0522 l 5.2e-4,-0.001 c 0.0537,-0.007 0.22354,-0.0246 0.37723,-0.0408 0.35394,-0.0373 0.84838,-0.14678 1.15756,-0.25579 0.59778,-0.21077 0.9582,-0.47182 1.15083,-0.83302 l 0.0667,-0.12454 v -1.95489 -1.95488 l -0.0956,-0.17622 c -0.28599,-0.52718 -1.14141,-0.91236 -2.33681,-1.05211 -0.19868,-0.0232 -0.40212,-0.0424 -0.45217,-0.0424 h -0.0687 v -3.08865 z m 0.25734,3.66225 c 0.63975,0 0.78621,0.008 1.07591,0.061 0.95824,0.17403 1.63452,0.52622 1.63452,0.85162 0,0.26849 -0.49666,0.57384 -1.24075,0.76273 -0.29415,0.0747 -0.37745,0.10721 -0.4284,0.16639 -0.14915,0.17332 -0.0194,0.43305 0.21601,0.43305 0.25519,0 0.87453,-0.19227 1.24644,-0.38706 l 0.2067,-0.10799 v 0.4506 c 0,0.432 -0.003,0.45452 -0.0687,0.55087 -0.21076,0.31 -0.94092,0.59308 -1.83141,0.7095 -0.44114,0.0576 -1.48252,0.0372 -1.90014,-0.0377 -0.7753,-0.1391 -1.39989,-0.41154 -1.56528,-0.68264 -0.0486,-0.0796 -0.0552,-0.14213 -0.0553,-0.54311 v -0.45319 l 0.1359,0.0801 c 0.31468,0.18544 1.04634,0.42065 1.30742,0.42065 0.2058,0 0.33572,-0.18247 0.25993,-0.36536 -0.0479,-0.11557 -0.11698,-0.15557 -0.36018,-0.20669 -0.72855,-0.15318 -1.34338,-0.50744 -1.34307,-0.7741 3.9e-4,-0.34429 0.6497,-0.68879 1.63452,-0.86764 0.2897,-0.0526 0.43617,-0.061 1.0759,-0.061 z m -7.83776,0.0331 c 0.45284,-8.4e-4 0.74828,0.0649 1.14567,0.2558 0.32698,0.15708 0.55648,0.32392 0.79065,0.57412 0.22125,0.23639 0.32065,0.38424 0.4687,0.69658 0.17996,0.3797 0.24408,0.67658 0.24236,1.12033 -0.002,0.43257 -0.0787,0.7784 -0.25528,1.14151 -0.0965,0.19854 -0.32128,0.54829 -0.35243,0.54829 -0.006,0 -0.064,-0.10173 -0.12868,-0.22583 -0.14869,-0.28565 -0.45812,-0.61971 -0.73949,-0.79787 -0.11406,-0.0722 -0.20774,-0.13305 -0.20774,-0.13539 0,-0.003 0.0561,-0.0654 0.12455,-0.14004 0.5207,-0.56684 0.49747,-1.46572 -0.0522,-2.00708 -0.21233,-0.20911 -0.45685,-0.33802 -0.76171,-0.40101 -0.19575,-0.0404 -0.26145,-0.0418 -0.45682,-0.0134 -0.55768,0.0813 -1.040002,0.48433 -1.200442,1.00354 -0.0828,0.26819 -0.07726,0.65774 0.01344,0.91466 0.0729,0.20637 0.210189,0.42639 0.348812,0.55913 l 0.0842,0.0806 -0.173626,0.10955 c -0.36574,0.23112 -0.591418,0.47254 -0.798918,0.85472 l -0.110587,0.20412 -0.113172,-0.14986 c -0.34754,-0.46007 -0.535224,-1.10292 -0.499194,-1.71098 0.0577,-0.97225 0.663193,-1.85381 1.548743,-2.25512 0.344504,-0.15613 0.674214,-0.22535 1.083134,-0.22635 z m 0.008,1.16374 c 0.13263,10e-4 0.26715,0.0273 0.3731,0.077 0.18692,0.0876 0.35609,0.25278 0.44649,0.43615 0.0535,0.10867 0.065,0.17689 0.0651,0.38343 2.1e-4,0.21816 -0.009,0.26999 -0.0734,0.39118 -0.24578,0.46507 -0.74914,0.6341 -1.21129,0.4067 -0.32075,-0.15782 -0.49455,-0.43954 -0.49455,-0.80149 0,-0.17763 0.0134,-0.2353 0.0884,-0.38757 0.0965,-0.19595 0.24116,-0.33741 0.44545,-0.43615 0.0982,-0.0474 0.2286,-0.0702 0.36122,-0.0687 z m 7.82485,0.64646 c -0.0931,0 -0.12762,0.017 -0.19689,0.0946 -0.073,0.0816 -0.0816,0.10927 -0.0682,0.20877 0.0275,0.20527 0.22531,0.30034 0.41289,0.19844 0.23646,-0.12845 0.12692,-0.50126 -0.14728,-0.50126 z m 2.71869,1.62572 -0.009,0.51934 -0.009,0.51882 -0.12505,0.12712 c -0.30305,0.30846 -1.03211,0.55975 -1.90066,0.65525 -0.33393,0.0367 -1.32603,0.0126 -1.6614,-0.0403 h -5.2e-4 c -0.81126,-0.12809 -1.45556,-0.39376 -1.65054,-0.68057 -0.0662,-0.0973 -0.0682,-0.11621 -0.0682,-0.5953 v -0.49505 l 0.20257,0.10904 c 0.41519,0.22357 1.1349,0.41026 1.83709,0.47696 0.42574,0.0404 1.32176,0.0178 1.71825,-0.0434 0.58659,-0.0906 1.13261,-0.25692 1.48983,-0.45422 z m -10.49083,0.0966 c 0.6497,0.0156 1.21385,0.41737 1.45056,1.04591 l 0.0708,0.18759 -0.0646,0.0501 c -0.21329,0.16464 -0.69246,0.36239 -1.04283,0.43045 -0.27424,0.0532 -0.8299,0.0323 -1.11259,-0.0419 -0.25591,-0.0672 -0.497573,-0.16937 -0.731743,-0.31005 -0.14879,-0.0894 -0.16662,-0.11001 -0.16123,-0.18293 0.0103,-0.14012 0.218947,-0.51872 0.374137,-0.67902 0.306986,-0.31704 0.649666,-0.47394 1.086756,-0.49815 0.044,-0.002 0.0874,-0.003 0.13074,-0.002 z" /></g></svg>
