<?xml version="1.0" encoding="UTF-8" standalone="no"?>
<!-- Created with Inkscape (http://www.inkscape.org/) -->

<svg
   width="16.919394mm"
   height="16.927059mm"
   viewBox="0 0 16.919394 16.927059"
   version="1.1"
   id="svg1"
   xml:space="preserve"
   xmlns="http://www.w3.org/2000/svg"
   xmlns:svg="http://www.w3.org/2000/svg"><defs
     id="defs1" /><g
     id="layer1"
     transform="translate(-16.686626,-69.990809)"><path
       style="fill:#000000;stroke-width:0.125062"
       d="m 19.945947,86.90685 c -0.06365,-0.0076 -0.264715,-0.02948 -0.446708,-0.04867 -0.419138,-0.04418 -1.004469,-0.173384 -1.370612,-0.302552 -0.707892,-0.24973 -1.135066,-0.559018 -1.36318,-0.986979 l -0.07882,-0.147868 v -2.31626 -2.316257 l 0.113316,-0.208879 c 0.338679,-0.624645 1.351884,-1.081056 2.76749,-1.246647 0.235284,-0.02752 0.47627,-0.05004 0.535536,-0.05004 h 0.107744 v -0.854321 -0.854329 l -0.306083,-0.05446 c -1.702404,-0.302921 -2.960316,-1.662845 -3.136039,-3.390375 -0.07195,-0.707555 0.0633,-1.397068 0.406278,-2.07042 0.74306,-1.458937 2.319193,-2.269122 3.939289,-2.024922 1.622064,0.244493 2.907428,1.516511 3.176837,3.14384 l 0.04386,0.264716 1.061945,0.0088 1.061944,0.0088 0.01185,-0.670516 c 0.01067,-0.602068 0.01897,-0.686377 0.08297,-0.825915 0.102648,-0.223436 0.32736,-0.434367 0.552522,-0.518613 0.179112,-0.06702 0.24575,-0.0705 1.348825,-0.0705 h 1.160397 l 0.07064,-0.091 c 0.175213,-0.225641 0.346064,-0.384927 0.50006,-0.466213 l 0.166773,-0.08803 h 1.257403 1.257391 l 0.188002,0.09232 c 0.212989,0.104592 0.36843,0.264911 0.470296,0.485061 0.06863,0.148434 0.0697,0.182684 0.0697,2.400662 v 2.25008 l -0.09233,0.188 c -0.100159,0.203828 -0.243724,0.348227 -0.462853,0.465312 -0.137662,0.07356 -0.159887,0.07479 -1.521182,0.0843 l -1.381493,0.0096 v 1.316485 1.316483 l 0.268948,0.04117 c 0.772942,0.118318 1.551798,0.523455 2.120286,1.102891 1.258884,1.283125 1.436562,3.272364 0.426036,4.769904 -1.319311,1.955132 -4.104711,2.239074 -5.785744,0.589798 -0.579428,-0.568491 -0.984568,-1.347349 -1.102886,-2.120288 l -0.04113,-0.268939 h -0.803582 -0.80357 l -0.0095,0.98441 c -0.0095,0.965193 -0.01067,0.98764 -0.09008,1.149857 -0.286762,0.590355 -1.262404,1.06487 -2.587192,1.258322 -0.330773,0.0483 -1.544366,0.0907 -1.78297,0.06229 z m 1.769043,-0.724781 c 0.960991,-0.151725 1.724356,-0.466571 1.955314,-0.806473 0.07835,-0.115236 0.08096,-0.137993 0.08096,-0.705632 v -0.586558 l -0.239896,0.129258 c -0.491667,0.264909 -1.344084,0.486472 -2.175628,0.565495 -0.504172,0.04791 -1.565477,0.021 -2.035002,-0.05159 -0.694652,-0.107401 -1.341074,-0.304722 -1.7641,-0.538494 l -0.208899,-0.115438 0.01067,0.614844 0.01067,0.614844 0.147939,0.150651 c 0.358877,0.365472 1.222507,0.663404 2.251049,0.776563 0.395598,0.04352 1.570859,0.01517 1.967583,-0.04746 z m 8.863525,-0.01356 c 0.303049,-0.07957 0.588673,-0.200771 0.865989,-0.367463 0.176197,-0.105907 0.197734,-0.130295 0.191357,-0.216712 -0.01221,-0.166011 -0.259311,-0.614589 -0.443094,-0.804507 -0.363535,-0.375653 -0.769326,-0.561861 -1.28694,-0.590535 -0.833725,-0.04619 -1.573798,0.442634 -1.872793,1.236994 l -0.0838,0.222574 0.07657,0.05917 c 0.252566,0.195073 0.819832,0.429382 1.234751,0.510014 0.324752,0.06311 0.983133,0.03836 1.317901,-0.04953 z M 27.559881,84.87218 c 0.17609,-0.338454 0.542885,-0.734232 0.8761,-0.945319 0.135066,-0.08556 0.245561,-0.157822 0.245561,-0.160593 0,-0.0027 -0.06638,-0.07733 -0.1475,-0.165704 -0.616623,-0.671625 -0.588745,-1.736978 0.06223,-2.378417 0.251452,-0.247764 0.540928,-0.400146 0.901939,-0.474781 0.231811,-0.04792 0.30952,-0.0503 0.540881,-0.01658 0.660409,0.09626 1.231634,0.574135 1.42164,1.189322 0.09814,0.317786 0.09127,0.779262 -0.01612,1.08367 -0.08629,0.244508 -0.248762,0.505212 -0.412928,0.662489 l -0.0998,0.09564 0.205758,0.130094 c 0.433113,0.273853 0.700129,0.559698 0.945844,1.012518 l 0.131261,0.241922 0.133917,-0.177362 c 0.411552,-0.545106 0.633656,-1.307081 0.590984,-2.027535 -0.06827,-1.151986 -0.785126,-2.196595 -1.833807,-2.67209 -0.407973,-0.184986 -0.798474,-0.266464 -1.282709,-0.267649 -0.536259,-0.0013 -0.885843,0.07677 -1.356436,0.302957 -0.387217,0.186117 -0.659164,0.383599 -0.936479,0.680041 -0.262001,0.280084 -0.37981,0.455233 -0.555129,0.82533 -0.213107,0.449885 -0.289228,0.801721 -0.287201,1.327487 0.0024,0.512522 0.09364,0.92217 0.30261,1.352423 0.114264,0.235232 0.380378,0.649485 0.417253,0.649485 0.0071,0 0.07562,-0.120303 0.152135,-0.267341 z m -5.727842,-0.819161 c 0.918119,-0.164813 1.658133,-0.487674 1.853982,-0.808867 0.05749,-0.09429 0.06496,-0.168268 0.06507,-0.643384 l 1.3e-4,-0.536844 -0.161179,0.09504 c -0.372638,0.219718 -1.238876,0.49886 -1.548052,0.49886 -0.243712,0 -0.397649,-0.216677 -0.307897,-0.433367 0.05666,-0.136931 0.138776,-0.183951 0.426771,-0.244531 0.862753,-0.181486 1.590594,-0.601301 1.590227,-0.917247 -4.62e-4,-0.407933 -0.769374,-0.816437 -1.935603,-1.02834 -0.343053,-0.06234 -0.516357,-0.07215 -1.273937,-0.07215 -0.757592,0 -0.930885,0.0098 -1.27395,0.07215 -1.134758,0.206186 -1.935721,0.62385 -1.935721,1.00939 0,0.31812 0.588116,0.67982 1.469277,0.903621 0.348328,0.08847 0.447029,0.126779 0.507361,0.196921 0.176623,0.205339 0.02311,0.513553 -0.255719,0.513553 -0.302195,0 -1.035797,-0.227979 -1.476211,-0.458762 L 17.33188,82.070834 v 0.533985 c 0,0.511875 0.0036,0.538914 0.08096,0.65306 0.249591,0.367304 1.114643,0.702445 2.169168,0.840382 0.522403,0.06833 1.75553,0.04355 2.250078,-0.04523 z m -1.45964,-1.312468 c -0.280018,-0.15219 -0.150298,-0.594115 0.174407,-0.594115 0.110234,0 0.151459,0.01968 0.233482,0.111478 0.08641,0.09671 0.0972,0.12949 0.08143,0.247368 -0.0326,0.24322 -0.267145,0.35599 -0.489273,0.235266 z m 9.914648,0.647373 c 0.379845,-0.186996 0.585745,-0.520836 0.585745,-0.94968 0,-0.210462 -0.01553,-0.278692 -0.104307,-0.459131 -0.114264,-0.232155 -0.285293,-0.399783 -0.527215,-0.516788 -0.232558,-0.112475 -0.619041,-0.108362 -0.869971,0.0092 -0.221357,0.103774 -0.421414,0.299343 -0.528472,0.516604 -0.06341,0.128777 -0.07728,0.209817 -0.07752,0.454524 -2.49e-4,0.258483 0.01067,0.319651 0.087,0.463251 0.291065,0.551026 0.88749,0.751363 1.434772,0.481939 z M 26.079154,82.46984 c 0.145058,-0.818667 0.52149,-1.51502 1.13285,-2.095632 0.556125,-0.528158 1.187208,-0.846587 1.943354,-0.980564 l 0.320331,-0.05676 V 78.0209 76.704916 l -1.149859,-0.0098 -1.149859,-0.0098 -0.177489,-0.09831 c -0.193419,-0.107129 -0.367067,-0.296426 -0.458526,-0.499849 -0.05026,-0.111763 -0.05986,-0.257453 -0.06922,-1.048037 l -0.01067,-0.91823 h -1.068523 -1.068512 l -0.02193,0.18692 c -0.118614,1.009174 -0.72112,1.980892 -1.616208,2.606607 -0.434512,0.303745 -1.116754,0.568499 -1.63029,0.632662 l -0.181945,0.02273 v 0.856511 0.856512 h 0.107745 c 0.05926,0 0.297406,0.02219 0.529218,0.04931 1.458455,0.170605 2.462544,0.627677 2.810256,1.279256 0.07479,0.140225 0.07704,0.170041 0.08688,1.161419 l 0.0095,1.017499 h 0.802931 0.80293 z m -5.278893,-5.658289 c 0.243984,-0.185668 0.50883,-0.676375 0.650535,-1.205311 0.04575,-0.170949 0.08333,-0.321984 0.08333,-0.335633 4.7e-5,-0.01365 -0.447621,-0.02482 -0.99482,-0.02482 -0.931964,0 -0.993837,0.0037 -0.977883,0.0579 0.0095,0.03185 0.04101,0.152807 0.07041,0.268797 0.159365,0.630088 0.473247,1.167811 0.758149,1.298851 0.157552,0.07246 0.255198,0.05823 0.410296,-0.0598 z m -1.54784,-0.349725 c -0.119017,-0.262511 -0.246628,-0.652573 -0.317083,-0.969257 l -0.05488,-0.24678 H 18.33781 c -0.298462,0 -0.54266,0.01258 -0.54266,0.02796 0,0.06018 0.262583,0.429399 0.446875,0.628367 0.241993,0.261258 0.526029,0.481638 0.826897,0.641562 0.127492,0.06776 0.242029,0.123606 0.254546,0.124084 0.01245,5e-4 -0.01944,-0.09219 -0.071,-0.205937 z m 2.860502,0.03309 c 0.440817,-0.261382 0.881978,-0.697129 1.139001,-1.12504 l 0.07456,-0.124086 h -0.560913 -0.560913 l -0.04042,0.20681 c -0.05666,0.290037 -0.222934,0.800205 -0.334199,1.025771 -0.06223,0.126165 -0.07977,0.190263 -0.05192,0.190263 0.02299,0 0.173743,-0.07817 0.334887,-0.173718 z m 10.673544,-0.489051 c 0.16413,-0.08784 0.163608,-0.08062 0.163608,-2.298732 0,-2.247846 0.0036,-2.209388 -0.181068,-2.293271 -0.06176,-0.02812 -0.403777,-0.03953 -1.18402,-0.03953 H 30.48772 l -0.150297,0.171904 c -0.08262,0.09454 -0.218916,0.243449 -0.302753,0.330894 l -0.152455,0.15899 h -1.24722 c -1.352844,0 -1.388629,0.0044 -1.469123,0.181067 -0.05429,0.119227 -0.05678,3.528751 -0.0024,3.634662 0.02039,0.03976 0.06875,0.098 0.107508,0.129447 0.06555,0.0531 0.261847,0.05723 2.761267,0.0579 1.783562,5.01e-4 2.712159,-0.01079 2.754357,-0.03333 z m -4.383236,-1.027328 c -0.05476,-0.06515 -0.0857,-0.141687 -0.0857,-0.212542 0,-0.07086 0.03082,-0.1474 0.0857,-0.212543 l 0.0857,-0.101807 h 1.465021 1.465022 l 0.08724,0.08724 c 0.06673,0.06674 0.08724,0.120101 0.08724,0.227114 0,0.10701 -0.02051,0.160374 -0.08724,0.227113 l -0.08724,0.08724 H 29.95395 28.488929 Z m 0,-1.323577 c -0.05476,-0.06514 -0.0857,-0.141686 -0.0857,-0.212541 0,-0.07086 0.03082,-0.1474 0.0857,-0.212544 l 0.0857,-0.101806 h 1.465021 1.465022 l 0.08724,0.08724 c 0.06673,0.06674 0.08724,0.120101 0.08724,0.227114 0,0.10701 -0.02051,0.160374 -0.08724,0.227113 l -0.08724,0.08724 H 29.95395 28.488929 Z m -9.631963,0.117666 v -0.811375 l -0.627943,0.009 -0.627955,0.009 -0.04469,0.181993 c -0.05986,0.244132 -0.06578,0.921618 -0.01067,1.199491 l 0.04445,0.223353 h 0.633217 0.633229 z m 2.874464,0.736925 c 0.02596,-0.09698 0.02596,-1.375495 0,-1.472478 l -0.01991,-0.07445 h -1.06959 c -0.819383,0 -1.075837,0.0097 -1.096283,0.04136 -0.03532,0.05473 -0.05642,1.100239 -0.02762,1.369029 l 0.02264,0.21099 h 1.08545 1.085461 z m 1.972454,-0.09927 c 0.0627,-0.287581 0.07776,-0.718526 0.03603,-1.031732 -0.06033,-0.45234 -0.0012,-0.418891 -0.717268,-0.408381 l -0.612616,0.009 -0.0059,0.802428 -0.0059,0.802428 0.634236,-1e-5 0.634225,-9e-6 z m -4.642049,-2.490622 c 0.05796,-0.227844 0.159448,-0.536817 0.225399,-0.686606 0.06602,-0.149788 0.128772,-0.292932 0.139582,-0.318099 0.03544,-0.08253 -0.500628,0.223295 -0.769777,0.439127 -0.320307,0.256855 -0.776213,0.812545 -0.776213,0.946093 0,0.02155 0.194332,0.03375 0.537764,0.03375 h 0.537764 z m 2.542328,0.290968 c -0.07669,-0.408775 -0.320935,-0.986779 -0.536994,-1.270757 -0.123592,-0.162445 -0.319086,-0.293509 -0.437795,-0.293509 -0.258078,0 -0.586611,0.407108 -0.796387,0.986822 -0.116872,0.323164 -0.200851,0.654182 -0.172937,0.682101 0.01067,0.01019 0.45708,0.01863 0.992936,0.01863 h 0.974314 z m 1.769505,0.08118 c 0,-0.0582 -0.207714,-0.368773 -0.388178,-0.58038 -0.250409,-0.293649 -0.72246,-0.64431 -1.053588,-0.782666 l -0.113316,-0.04736 0.04824,0.09333 c 0.107863,0.208699 0.252424,0.614415 0.333286,0.935724 0.04718,0.187413 0.09174,0.359363 0.09921,0.382112 0.01968,0.06033 1.07439,0.05959 1.07439,-7.5e-4 z"
       id="path4" /></g></svg>
