<?xml version="1.0" encoding="UTF-8" standalone="no"?>
<!-- Created with Inkscape (http://www.inkscape.org/) -->

<svg
   width="107.76386mm"
   height="16.526932mm"
   viewBox="0 0 107.76386 16.526932"
   version="1.1"
   id="svg1"
   xml:space="preserve"
   xmlns:inkscape="http://www.inkscape.org/namespaces/inkscape"
   xmlns:sodipodi="http://sodipodi.sourceforge.net/DTD/sodipodi-0.dtd"
   xmlns="http://www.w3.org/2000/svg"
   xmlns:svg="http://www.w3.org/2000/svg"><sodipodi:namedview
     id="namedview1"
     pagecolor="#ffffff"
     bordercolor="#000000"
     borderopacity="0.25"
     inkscape:showpageshadow="2"
     inkscape:pageopacity="0.0"
     inkscape:pagecheckerboard="0"
     inkscape:deskcolor="#d1d1d1"
     inkscape:document-units="mm"><inkscape:page
       x="0"
       y="0"
       width="107.76386"
       height="16.526932"
       id="page2"
       margin="0"
       bleed="0" /></sodipodi:namedview><defs
     id="defs1" /><g
     inkscape:label="Layer 1"
     inkscape:groupmode="layer"
     id="layer1"
     transform="translate(-33.85593,-359.05431)"><text
       xml:space="preserve"
       style="font-style:normal;font-variant:normal;font-weight:800;font-stretch:normal;font-size:22.5778px;line-height:0.8;font-family:'Elms Sans';-inkscape-font-specification:'Elms Sans Ultra-Bold';text-align:start;writing-mode:lr-tb;direction:ltr;text-anchor:start;opacity:1;fill:#34a853;fill-opacity:1;stroke-width:0.264999;stroke-linecap:round;stroke-linejoin:round;paint-order:stroke fill markers"
       x="32.185173"
       y="375.22"
       id="text4"><tspan
         sodipodi:role="line"
         id="tspan4"
         style="fill:#34a853;fill-opacity:1;stroke-width:0.265"
         x="32.185173"
         y="375.22"><tspan
   style="fill:#ffffff"
   id="tspan6">DIA</tspan>G<tspan
   style="fill:#ffffff"
   id="tspan5">RAM</tspan></tspan></text></g><g
     id="g6"
     transform="translate(-0.01290329,-326.10774)"><path
       style="opacity:1;fill:#137333;fill-opacity:1;stroke-width:0.0625984;stroke-linecap:round;stroke-linejoin:round;paint-order:stroke fill markers"
       d="m 177.5625,1294.9575 c -0.97078,-0.071 -2.41309,-0.2383 -3.21875,-0.3732 -9.40926,-1.5744 -17.48715,-7.3681 -21.94633,-15.7406 -2.01143,-3.7765 -3.12179,-7.4513 -3.55976,-11.7812 -0.19031,-1.8814 -0.17549,-5.4349 0.0284,-6.8007 l 0.0402,-0.2695 4.27916,4.3007 c 2.35354,2.3654 10.15823,10.1913 17.34375,17.3908 l 13.06459,13.0901 -0.25,0.044 c -0.84033,0.1464 -4.48825,0.2348 -5.78125,0.14 z"
       id="path4"
       transform="scale(0.26458333)" /><path
       style="opacity:1;fill:#82cc52;fill-opacity:1;stroke-width:0.0165625;stroke-linecap:round;stroke-linejoin:round;paint-order:stroke fill markers"
       d="m 40.992839,333.32349 c 0.256852,0.0188 0.638464,0.063 0.851628,0.0987 2.489533,0.41656 4.626808,1.94948 5.806633,4.16471 0.532191,0.99919 0.825973,1.97149 0.941853,3.1171 0.05035,0.49779 0.04643,1.43799 -0.0075,1.79936 l -0.01064,0.0713 -1.132195,-1.13789 c -0.622707,-0.62585 -2.687698,-2.69645 -4.588867,-4.60132 l -3.456673,-3.46342 0.06615,-0.0116 c 0.222337,-0.0387 1.187516,-0.0621 1.529623,-0.037 z"
       id="path4-8" /></g></svg>
