<?xml version="1.0" encoding="UTF-8" standalone="no"?>
<!-- Created with Inkscape (http://www.inkscape.org/) -->

<svg
   width="14.274217mm"
   height="16.927116mm"
   viewBox="0 0 14.274217 16.927116"
   version="1.1"
   id="svg1"
   xml:space="preserve"
   xmlns="http://www.w3.org/2000/svg"
   xmlns:svg="http://www.w3.org/2000/svg"><defs
     id="defs1" /><g
     id="layer1"
     transform="translate(-41.468753,-69.010666)"><path
       style="fill:#000000;stroke-width:0.125488"
       d="m 44.487805,85.893942 c -0.3291,-0.0887 -0.66291,-0.37012 -0.80576,-0.67922 -0.0715,-0.15466 -0.0718,-0.16563 -0.0808,-2.93591 l -0.009,-2.78068 h -0.81378 c -0.99057,0 -1.0872,-0.0263 -1.24681,-0.339 -0.0591,-0.1157 -0.0629,-0.2179 -0.0629,-1.68284 0,-1.02125 0.0122,-1.59193 0.0353,-1.65313 0.0388,-0.10273 0.17633,-0.26005 0.28011,-0.32044 0.0437,-0.0254 0.36205,-0.0443 0.92965,-0.0553 l 0.86326,-0.0166 0.0166,-2.77238 0.0166,-2.77237 0.0917,-0.18675 c 0.11316,-0.23042 0.36366,-0.46977 0.6149,-0.58753 l 0.18985,-0.089 4.27987,-0.009 c 3.78052,-0.008 4.30337,-0.003 4.48119,0.0427 0.37731,0.0967 0.68139,0.36082 0.82854,0.71976 l 0.0722,0.17616 0.009,3.70418 0.009,3.70419 0.15676,0.0759 c 1.33605,0.64683 1.812962,2.36268 1.00246,3.60669 -0.23655,0.36308 -0.7851,0.82994 -1.08816,0.92613 -0.0679,0.0216 -0.0688,0.0388 -0.0796,1.52264 -0.0105,1.44854 -0.0134,1.50697 -0.0826,1.67699 -0.0923,0.22667 -0.26499,0.43602 -0.4659,0.56495 -0.33398,0.21431 -0.124,0.20538 -4.77245,0.20291 -3.23207,-0.002 -4.25346,-0.0118 -4.36974,-0.0432 z m 8.68459,-0.52304 c 0.17324,-0.0481 0.39624,-0.2711 0.44433,-0.44434 0.023,-0.0827 0.0369,-0.48606 0.037,-1.07065 l 1.3e-4,-0.93796 h -4.76444 -4.76451 v 0.99738 c 0,0.93032 0.004,1.0061 0.0661,1.12695 0.0717,0.14048 0.2243,0.27059 0.38213,0.32577 0.14409,0.0504 8.4182,0.0531 8.59924,0.003 z m -4.99346,-0.4951 c -0.39134,-0.0814 -0.63367,-0.4519 -0.56197,-0.85934 0.0356,-0.20243 0.1627,-0.38043 0.35036,-0.49074 0.1567,-0.0921 0.16563,-0.0933 0.8059,-0.10447 0.81884,-0.0143 0.94897,0.0106 1.1598,0.22237 0.36789,0.36948 0.28375,0.93358 -0.17525,1.17486 -0.12629,0.0664 -0.19239,0.0731 -0.78534,0.0801 -0.35609,0.004 -0.71317,-0.006 -0.7935,-0.0228 z m 1.37006,-0.56577 c 0.10513,-0.0827 0.11374,-0.20375 0.0211,-0.29641 -0.0616,-0.0616 -0.11067,-0.0664 -0.68215,-0.0664 -0.60949,0 -0.61658,8.8e-4 -0.69725,0.0815 -0.0448,0.0448 -0.0815,0.10526 -0.0815,0.13432 0,0.029 0.0367,0.0895 0.0815,0.13431 0.0805,0.0805 0.0891,0.0815 0.67617,0.0815 0.55134,0 0.60104,-0.005 0.68215,-0.0688 z m 4.10494,-2.03122 v -0.10791 l -0.40673,-0.001 c -0.47506,-10e-4 -0.70574,-0.0537 -1.10671,-0.25038 -0.64138,-0.31458 -1.13312,-0.92096 -1.31107,-1.61673 -0.0812,-0.31744 -0.0866,-0.88974 -0.0113,-1.20065 0.0736,-0.30384 0.31285,-0.78104 0.50055,-0.99819 0.53075,-0.61401 1.14653,-0.90113 1.94534,-0.90708 l 0.39031,-0.003 -0.008,-2.85692 -0.008,-2.85691 -4.7562,-0.008 -4.75621,-0.008 v 1.99223 1.99224 h 1.33187 c 1.31778,0 1.33326,7.9e-4 1.46415,0.0743 0.0739,0.0415 0.16747,0.1344 0.21203,0.21043 l 0.0798,0.13608 v 1.58033 c 0,1.03879 -0.0121,1.61235 -0.0354,1.67379 -0.0854,0.22529 -0.32984,0.37568 -0.61071,0.37568 h -0.18393 v 0.44974 c 0,0.43323 -0.003,0.45273 -0.0815,0.53123 -0.15655,0.15655 -0.13819,0.16557 -1.16878,-0.57424 l -0.56659,-0.40673 h -0.22044 -0.22044 v 1.44429 1.44429 h 4.76451 4.7645 z m -5.67691,-5.11343 c -0.15528,-0.0802 -0.16835,-0.15413 -0.15887,-0.89915 0.009,-0.68218 0.01,-0.69283 0.0872,-0.75535 0.0729,-0.0589 0.14215,-0.0634 0.98536,-0.0634 h 0.90697 l 0.0688,0.0875 c 0.0647,0.0823 0.0688,0.12955 0.0688,0.79107 v 0.70358 l -0.0856,0.0805 c -0.0855,0.0804 -0.087,0.0805 -0.93796,0.0892 -0.64191,0.007 -0.87267,-0.002 -0.93469,-0.0339 z m 1.42704,-0.8555 v -0.36606 l -0.52293,0.009 -0.52294,0.009 -0.009,0.35692 -0.009,0.35692 h 0.53236 0.53236 z m 1.40626,0.87433 c -0.0392,-0.008 -0.099,-0.0445 -0.13281,-0.0819 -0.0544,-0.06 -0.0629,-0.14008 -0.0726,-0.68404 -0.0122,-0.68332 0.001,-0.81176 0.0959,-0.90625 0.0608,-0.0608 0.1175,-0.0645 0.97183,-0.0645 0.90543,0 0.90741,1.5e-4 0.97946,0.0768 0.0696,0.074 0.0722,0.10278 0.0711,0.78855 -10e-4,0.76616 -0.007,0.79477 -0.17812,0.85981 -0.0866,0.0329 -1.5749,0.0428 -1.73477,0.0115 z m 1.38272,-0.87433 v -0.36606 l -0.52294,0.009 -0.52293,0.009 -0.01,0.31293 c -0.005,0.17211 -0.002,0.33272 0.007,0.35692 0.013,0.0339 0.13507,0.044 0.53256,0.044 h 0.51567 z m -7.07461,-2.15474 -0.0971,-0.097 v -0.66824 c 0,-0.6955 0.0227,-0.82756 0.1509,-0.87674 0.0296,-0.0113 0.44914,-0.0206 0.93239,-0.0206 h 0.87865 l 0.0815,0.0815 c 0.0812,0.0812 0.0815,0.0837 0.0815,0.76209 0,0.72371 -0.0163,0.81622 -0.15464,0.87927 -0.0525,0.0239 -0.37804,0.0369 -0.92855,0.0369 h -0.84764 z m 1.49665,-0.7828 v -0.34862 h -0.53123 -0.53124 v 0.34862 0.34862 h 0.53124 0.53123 z m 1.30504,0.79979 -0.0932,-0.0801 -0.0103,-0.65662 c -0.0112,-0.71296 -0.004,-0.7791 0.0942,-0.8774 0.062,-0.062 0.11368,-0.0656 0.96352,-0.0656 h 0.89797 l 0.0815,0.0815 c 0.0813,0.0813 0.0815,0.0828 0.0815,0.77753 0,0.38282 -0.009,0.72023 -0.0206,0.74979 -0.0513,0.13375 -0.17119,0.15089 -1.05495,0.15089 h -0.84645 z m 1.48394,-0.79979 v -0.34862 h -0.53123 -0.53124 v 0.34862 0.34862 h 0.53124 0.53123 z m 1.30678,0.80129 -0.0949,-0.0816 -0.011,-0.62243 c -0.0122,-0.68978 10e-4,-0.81799 0.0959,-0.91259 0.0607,-0.0607 0.11741,-0.0646 0.96252,-0.0646 h 0.89796 l 0.0815,0.0815 c 0.0815,0.0815 0.0815,0.0818 0.0815,0.79318 0,0.65105 -0.005,0.71835 -0.0634,0.79006 l -0.0634,0.0784 -0.89583,0.01 -0.89584,0.01 z m 1.4822,-0.80129 v -0.34862 h -0.53124 -0.53123 v 0.34862 0.34862 h 0.53123 0.53124 z m 1.54352,8.21762 c 0.55581,-0.14215 1.03088,-0.52815 1.27425,-1.03533 0.16772,-0.34955 0.2177,-0.60636 0.19446,-0.99922 -0.0215,-0.36379 -0.10847,-0.63617 -0.29538,-0.92536 -0.28882,-0.44686 -0.75895,-0.76736 -1.28916,-0.87885 -0.63614,-0.13377 -1.38545,0.11665 -1.82513,0.60995 -0.33775,0.37895 -0.50979,0.83211 -0.50729,1.33619 0.003,0.51419 0.16724,0.93377 0.51702,1.31729 0.48975,0.53699 1.22486,0.75599 1.93123,0.57533 z m -1.0683,-0.72363 c -0.14083,-0.0755 -0.82887,-0.75205 -0.898,-0.88302 -0.0852,-0.16139 -0.0721,-0.41139 0.0306,-0.58669 0.11267,-0.19225 0.29564,-0.29692 0.51906,-0.29692 0.21813,0 0.32683,0.0434 0.47906,0.19132 l 0.1245,0.12096 0.4416,-0.43728 c 0.45418,-0.44973 0.58815,-0.53904 0.80855,-0.53904 0.43608,0 0.7518,0.51459 0.55612,0.90641 -0.0733,0.14684 -1.36276,1.44074 -1.51441,1.51965 -0.1527,0.0795 -0.40345,0.0816 -0.54706,0.005 z m 0.9639,-1.11601 c 0.34068,-0.35435 0.61941,-0.66858 0.61941,-0.69829 0,-0.0297 -0.0238,-0.0632 -0.053,-0.0743 -0.0376,-0.0144 -0.21003,0.13653 -0.59635,0.52232 -0.66683,0.66591 -0.6528,0.66148 -1.00825,0.31832 -0.20345,-0.19641 -0.24078,-0.21981 -0.30006,-0.18808 -0.0372,0.0199 -0.0677,0.0541 -0.0677,0.076 0,0.072 0.64142,0.68837 0.71636,0.68837 0.0477,0 0.26824,-0.20604 0.68956,-0.64427 z m -7.6707,-0.70352 c 0.0838,-0.0721 0.1233,-0.0799 0.40291,-0.0799 0.25206,0 0.31378,-0.01 0.33017,-0.0525 0.0111,-0.0289 0.0202,-0.68522 0.0202,-1.45852 0,-1.23392 -0.006,-1.41239 -0.0522,-1.45818 -0.0464,-0.0464 -0.30179,-0.0521 -2.31584,-0.0517 -1.24502,2.7e-4 -2.28251,0.0125 -2.30553,0.0271 -0.0329,0.0209 -0.04,0.34366 -0.0332,1.50188 l 0.009,1.47532 1.3656,0.0166 1.36559,0.0166 0.1783,0.12321 c 0.0981,0.0678 0.34266,0.24247 0.54353,0.38823 l 0.36522,0.26503 0.0169,-0.31664 c 0.0158,-0.29573 0.023,-0.3219 0.10976,-0.39653 z m -3.60837,-0.44754 c -0.12359,-0.0972 -0.12359,-0.29639 0,-0.3936 0.0862,-0.0678 0.11549,-0.0688 1.99468,-0.0688 h 1.9072 l 0.0971,0.097 c 0.0534,0.0534 0.097,0.11991 0.097,0.14784 0,0.0943 -0.0732,0.21238 -0.15463,0.24947 -0.0563,0.0256 -0.65554,0.0369 -1.96739,0.0369 -1.85822,0 -1.88779,-10e-4 -1.97396,-0.0688 z m 0.0785,-0.8844 c -0.1798,-0.0661 -0.22861,-0.30449 -0.0892,-0.43548 l 0.0768,-0.0722 h 1.91256 c 1.05191,0 1.93675,0.009 1.96631,0.0206 0.0605,0.0232 0.1509,0.18043 0.1509,0.2625 0,0.0297 -0.0437,0.0977 -0.097,0.15105 l -0.0971,0.097 -1.88678,-0.003 c -1.03772,-0.001 -1.90918,-0.0109 -1.93657,-0.0209 z m -0.0752,-0.98081 c -0.13471,-0.10229 -0.11915,-0.37988 0.0244,-0.43495 0.0309,-0.0119 0.91991,-0.0216 1.97554,-0.0216 1.8258,0 1.92306,0.003 1.99605,0.0621 0.0965,0.0781 0.10434,0.26927 0.0151,0.36785 -0.0607,0.0671 -0.088,0.0681 -2.00902,0.0681 -1.50666,0 -1.9598,-0.009 -2.00209,-0.0415 z m 11.29024,-6.1764 c 0.005,-0.21928 -0.007,-0.45229 -0.0283,-0.53066 -0.0486,-0.18033 -0.26803,-0.40286 -0.44604,-0.45228 -0.19076,-0.053 -8.42774,-0.0524 -8.58598,5.7e-4 -0.16914,0.0566 -0.32135,0.18292 -0.39539,0.32804 -0.0567,0.11116 -0.0661,0.19581 -0.0661,0.59583 v 0.46626 l 4.75621,-0.008 4.7562,-0.008 z m -5.65523,-0.13879 c -0.0893,-0.0893 -0.10138,-0.17056 -0.044,-0.29652 0.0653,-0.14333 0.16089,-0.1575 0.98931,-0.14669 0.76573,0.01 0.77259,0.0107 0.83549,0.0885 0.088,0.10883 0.0819,0.27447 -0.0134,0.36406 -0.0745,0.07 -0.10104,0.0722 -0.88136,0.0722 h -0.80452 z"
       id="path3" /></g></svg>
