<?xml version="1.0" encoding="UTF-8" standalone="no"?>
<!-- Created with Inkscape (http://www.inkscape.org/) -->

<svg
   width="14.287492mm"
   height="16.933277mm"
   viewBox="0 0 14.287492 16.933277"
   version="1.1"
   id="svg1"
   xml:space="preserve"
   xmlns:inkscape="http://www.inkscape.org/namespaces/inkscape"
   xmlns:sodipodi="http://sodipodi.sourceforge.net/DTD/sodipodi-0.dtd"
   xmlns="http://www.w3.org/2000/svg"
   xmlns:svg="http://www.w3.org/2000/svg"><sodipodi:namedview
     id="namedview1"
     pagecolor="#ffffff"
     bordercolor="#000000"
     borderopacity="0.25"
     inkscape:showpageshadow="2"
     inkscape:pageopacity="0.0"
     inkscape:pagecheckerboard="0"
     inkscape:deskcolor="#d1d1d1"
     inkscape:document-units="mm"><inkscape:page
       x="0"
       y="0"
       width="14.287492"
       height="16.933277"
       id="page2"
       margin="0"
       bleed="0" /></sodipodi:namedview><defs
     id="defs1" /><g
     inkscape:label="Layer 1"
     inkscape:groupmode="layer"
     id="layer1"
     transform="translate(-82.285843,-113.44972)"><path
       style="fill:#000000;stroke-width:0.125571"
       d="m 85.307617,130.33914 c -0.32941,-0.0887 -0.66355,-0.37026 -0.80653,-0.67947 -0.0715,-0.15472 -0.0718,-0.16569 -0.0808,-2.93699 l -0.009,-2.7817 h -0.81455 c -0.991512,0 -1.088232,-0.0263 -1.247992,-0.33912 -0.0591,-0.11575 -0.0629,-0.21798 -0.0629,-1.68346 0,-1.02163 0.0122,-1.59252 0.0353,-1.65374 0.0388,-0.10277 0.1765,-0.26014 0.28038,-0.32056 0.0437,-0.0254 0.362402,-0.0443 0.930532,-0.0553 l 0.86407,-0.0166 0.0166,-2.7734 0.0166,-2.77339 0.0917,-0.18682 c 0.11327,-0.2305 0.36401,-0.46994 0.61549,-0.58774 l 0.19003,-0.089 4.28392,-0.009 c 3.7841,-0.008 4.30744,-0.003 4.48544,0.0427 0.37766,0.0967 0.68202,0.36095 0.82932,0.72002 l 0.0722,0.17623 0.009,3.70554 0.009,3.70554 0.15691,0.0759 c 1.33731,0.64707 1.81466,2.36355 1.0034,3.60802 -0.23678,0.36321 -0.78584,0.83024 -1.08919,0.92647 -0.0679,0.0216 -0.0688,0.0388 -0.0797,1.5232 -0.0105,1.44907 -0.0134,1.50752 -0.0826,1.6776 -0.0924,0.22675 -0.26523,0.43618 -0.46634,0.56516 -0.33429,0.21439 -0.12411,0.20545 -4.77697,0.20298 -3.23512,-0.002 -4.25748,-0.0118 -4.37387,-0.0432 z m 8.69282,-0.52323 c 0.1734,-0.0481 0.39661,-0.2712 0.44474,-0.44451 0.023,-0.0827 0.0369,-0.48624 0.037,-1.07104 l 1.3e-4,-0.93831 h -4.76896 -4.76902 v 0.99775 c 0,0.93066 0.004,1.00647 0.0661,1.12736 0.0717,0.14054 0.22451,0.27069 0.38249,0.32589 0.14422,0.0504 8.42617,0.0531 8.60739,0.003 z m -4.9982,-0.49529 c -0.39171,-0.0814 -0.63427,-0.45206 -0.5625,-0.85965 0.0356,-0.20251 0.16286,-0.38057 0.35069,-0.49092 0.15685,-0.0921 0.1658,-0.0933 0.80666,-0.10451 0.81962,-0.0143 0.94987,0.0106 1.1609,0.22245 0.36824,0.36962 0.28403,0.93392 -0.17542,1.17529 -0.1264,0.0664 -0.19257,0.0731 -0.78608,0.0801 -0.35643,0.004 -0.71384,-0.006 -0.79425,-0.0228 z m 1.37137,-0.56597 c 0.10522,-0.0827 0.11384,-0.20383 0.0211,-0.29652 -0.0616,-0.0616 -0.11078,-0.0664 -0.6828,-0.0664 -0.61006,0 -0.61715,8.8e-4 -0.6979,0.0815 -0.0448,0.0448 -0.0815,0.1053 -0.0815,0.13437 0,0.029 0.0367,0.0895 0.0815,0.13436 0.0805,0.0805 0.0891,0.0815 0.67681,0.0815 0.55186,0 0.60161,-0.005 0.6828,-0.0688 z m 4.10882,-2.03197 v -0.10795 l -0.40712,-10e-4 c -0.47551,-0.001 -0.70641,-0.0537 -1.10776,-0.25047 -0.64198,-0.3147 -1.13419,-0.9213 -1.3123,-1.61733 -0.0813,-0.31755 -0.0866,-0.89006 -0.0113,-1.20109 0.0736,-0.30395 0.31316,-0.78132 0.50103,-0.99855 0.53125,-0.61424 1.14762,-0.90146 1.94718,-0.90742 l 0.39068,-0.003 -0.008,-2.85796 -0.008,-2.85796 -4.76071,-0.008 -4.76071,-0.008 v 1.99296 1.99297 h 1.33312 c 1.31903,0 1.33452,7.9e-4 1.46554,0.0743 0.0739,0.0415 0.16763,0.13445 0.21224,0.21051 l 0.0798,0.13613 v 1.58091 c 0,1.03917 -0.0121,1.61294 -0.0354,1.6744 -0.0854,0.22537 -0.33016,0.37582 -0.61129,0.37582 h -0.18411 v 0.4499 c 0,0.43339 -0.003,0.4529 -0.0815,0.53143 -0.15668,0.15661 -0.13831,0.16563 -1.16987,-0.57445 l -0.56713,-0.40688 h -0.22065 -0.22065 v 1.44482 1.44482 h 4.76901 4.76902 z m -5.68229,-5.11531 c -0.15543,-0.0802 -0.16851,-0.15418 -0.15902,-0.89948 0.009,-0.68243 0.01,-0.69308 0.0873,-0.75562 0.0729,-0.0589 0.14228,-0.0634 0.98629,-0.0634 h 0.90784 l 0.0688,0.0875 c 0.0647,0.0823 0.0688,0.1296 0.0688,0.79137 v 0.70383 l -0.0857,0.0805 c -0.0855,0.0804 -0.087,0.0805 -0.93886,0.0892 -0.6425,0.007 -0.8735,-0.002 -0.93557,-0.0339 z m 1.42839,-0.85581 v -0.3662 l -0.52343,0.009 -0.52342,0.009 -0.009,0.35705 -0.009,0.35705 h 0.53286 0.53286 z m 1.40759,0.87465 c -0.0392,-0.008 -0.099,-0.0445 -0.13293,-0.0819 -0.0544,-0.06 -0.0629,-0.14013 -0.0726,-0.68429 -0.0122,-0.68357 10e-4,-0.81206 0.096,-0.90658 0.0608,-0.0608 0.11761,-0.0645 0.97276,-0.0645 0.90628,0 0.90826,1.5e-4 0.98037,0.0768 0.0696,0.074 0.0722,0.10282 0.0711,0.78884 -10e-4,0.76644 -0.007,0.79506 -0.17828,0.86013 -0.0866,0.0329 -1.57639,0.0428 -1.73642,0.0115 z m 1.38404,-0.87465 v -0.3662 l -0.52345,0.009 -0.52341,0.009 -0.01,0.31305 c -0.005,0.17217 -0.002,0.33284 0.007,0.35705 0.013,0.0339 0.1352,0.044 0.53307,0.044 h 0.51616 z m -7.08131,-2.15553 -0.0972,-0.097 v -0.66848 c 0,-0.69576 0.0227,-0.82787 0.15106,-0.87706 0.0296,-0.0113 0.44956,-0.0206 0.93327,-0.0206 h 0.87947 l 0.0815,0.0815 c 0.0812,0.0812 0.0815,0.0837 0.0815,0.76237 0,0.72397 -0.0163,0.81652 -0.15479,0.87959 -0.0525,0.0239 -0.3784,0.0369 -0.92942,0.0369 h -0.84844 z m 1.49806,-0.78309 v -0.34875 h -0.53173 -0.53174 v 0.34875 0.34875 h 0.53174 0.53173 z m 1.30628,0.80008 -0.0933,-0.0801 -0.0103,-0.65687 c -0.0112,-0.71322 -0.004,-0.77938 0.0942,-0.87772 0.062,-0.062 0.1138,-0.0656 0.96444,-0.0656 h 0.89882 l 0.0815,0.0815 c 0.0813,0.0813 0.0815,0.0828 0.0815,0.77781 0,0.38296 -0.009,0.7205 -0.0206,0.75007 -0.0513,0.1338 -0.17134,0.15094 -1.05595,0.15094 h -0.84725 z m 1.48534,-0.80008 v -0.34875 h -0.53173 -0.53174 v 0.34875 0.34875 h 0.53174 0.53173 z m 1.30802,0.80159 -0.095,-0.0816 -0.011,-0.62266 c -0.0122,-0.69004 10e-4,-0.81829 0.0959,-0.91293 0.0607,-0.0607 0.11752,-0.0646 0.96343,-0.0646 h 0.89881 l 0.0815,0.0815 c 0.0815,0.0815 0.0815,0.0818 0.0815,0.79347 0,0.65129 -0.005,0.71861 -0.0634,0.79035 l -0.0634,0.0784 -0.89667,0.01 -0.89669,0.01 z m 1.48361,-0.80159 v -0.34875 h -0.53175 -0.53173 v 0.34875 0.34875 h 0.53173 0.53175 z m 1.54497,8.22064 c 0.55635,-0.1422 1.03186,-0.52835 1.27546,-1.03571 0.16787,-0.34968 0.21791,-0.60659 0.19465,-0.99959 -0.0215,-0.36392 -0.10858,-0.6364 -0.29567,-0.9257 -0.28908,-0.44702 -0.75966,-0.76764 -1.29037,-0.87917 -0.63675,-0.13382 -1.38676,0.11669 -1.82686,0.61017 -0.33807,0.37909 -0.51027,0.83242 -0.50777,1.33668 0.003,0.51438 0.1674,0.93412 0.5175,1.31778 0.49022,0.53718 1.22602,0.75626 1.93306,0.57554 z m -1.06931,-0.7239 c -0.14096,-0.0755 -0.82965,-0.75232 -0.89885,-0.88334 -0.0853,-0.16145 -0.0721,-0.41154 0.0306,-0.58691 0.11277,-0.19232 0.29592,-0.29703 0.51955,-0.29703 0.21834,0 0.32714,0.0434 0.47952,0.19139 l 0.12461,0.12101 0.44203,-0.43744 c 0.4546,-0.4499 0.5887,-0.53924 0.8093,-0.53924 0.4365,0 0.75252,0.51478 0.55666,0.90674 -0.0733,0.1469 -1.36405,1.44127 -1.51584,1.52021 -0.15285,0.0795 -0.40384,0.0816 -0.54759,0.005 z m 0.96481,-1.11642 c 0.34101,-0.35448 0.62001,-0.66882 0.62001,-0.69854 0,-0.0297 -0.0238,-0.0632 -0.053,-0.0743 -0.0376,-0.0144 -0.21023,0.13658 -0.59692,0.52251 -0.66746,0.66615 -0.65343,0.66172 -1.00921,0.31844 -0.20363,-0.19649 -0.241,-0.21989 -0.30034,-0.18815 -0.0372,0.0199 -0.0677,0.0541 -0.0677,0.076 0,0.072 0.64202,0.68862 0.71703,0.68862 0.0477,0 0.2685,-0.20612 0.69021,-0.64451 z m -7.67796,-0.70378 c 0.0839,-0.0721 0.12342,-0.0799 0.4033,-0.0799 0.25229,0 0.31407,-0.01 0.33048,-0.0525 0.0111,-0.0289 0.0202,-0.68548 0.0202,-1.45906 0,-1.23437 -0.006,-1.41291 -0.0522,-1.45872 -0.0464,-0.0464 -0.30207,-0.0521 -2.31803,-0.0517 -1.24621,2.7e-4 -2.28468,0.0125 -2.30772,0.0271 -0.0329,0.0209 -0.04,0.34378 -0.0332,1.50243 l 0.009,1.47586 1.36689,0.0166 1.36689,0.0166 0.17847,0.12326 c 0.0982,0.0678 0.34299,0.24255 0.54405,0.38837 l 0.36556,0.26513 0.0169,-0.31676 c 0.0158,-0.29584 0.023,-0.32202 0.10986,-0.39668 z m -3.6118,-0.4477 c -0.1237,-0.0972 -0.1237,-0.2965 0,-0.39374 0.0862,-0.0678 0.11561,-0.0688 1.99659,-0.0688 h 1.90901 l 0.0971,0.097 c 0.0534,0.0534 0.0971,0.11995 0.0971,0.14789 0,0.0943 -0.0732,0.21246 -0.15478,0.24956 -0.0563,0.0256 -0.65616,0.0369 -1.96925,0.0369 -1.85999,0 -1.88959,-0.001 -1.97585,-0.0688 z m 0.0785,-0.88473 c -0.17996,-0.0661 -0.22882,-0.3046 -0.0892,-0.43563 l 0.0768,-0.0722 h 1.91438 c 1.05291,0 1.93859,0.009 1.96817,0.0206 0.0605,0.0232 0.15105,0.18049 0.15105,0.26259 0,0.0297 -0.0437,0.0977 -0.0971,0.15111 l -0.0971,0.097 -1.88858,-0.003 c -1.03871,-0.001 -1.911,-0.0109 -1.93841,-0.0209 z m -0.0752,-0.98117 c -0.13484,-0.10232 -0.11927,-0.38001 0.0244,-0.4351 0.0309,-0.0119 0.92078,-0.0216 1.97743,-0.0216 1.82753,0 1.92488,0.003 1.99793,0.0621 0.0966,0.0781 0.10444,0.26937 0.0151,0.36799 -0.0607,0.0671 -0.0881,0.0681 -2.01092,0.0681 -1.5081,0 -1.96167,-0.009 -2.00399,-0.0415 z m 11.30093,-6.17866 c 0.005,-0.21936 -0.007,-0.45246 -0.0283,-0.53086 -0.0486,-0.18039 -0.26828,-0.403 -0.44645,-0.45244 -0.19095,-0.053 -8.43573,-0.0524 -8.59412,5.7e-4 -0.1693,0.0566 -0.32165,0.18298 -0.39576,0.32816 -0.0567,0.1112 -0.0661,0.19588 -0.0661,0.59605 v 0.46643 l 4.76071,-0.008 4.76072,-0.008 z m -5.66059,-0.13884 c -0.0893,-0.0893 -0.10147,-0.17063 -0.044,-0.29663 0.0653,-0.14338 0.16105,-0.15756 0.99025,-0.14675 0.76645,0.01 0.77332,0.0107 0.83628,0.0885 0.0881,0.10887 0.082,0.27457 -0.0134,0.36419 -0.0746,0.07 -0.10113,0.0722 -0.8822,0.0722 h -0.80531 z"
       id="path3" /></g></svg>
