<?xml version="1.0" encoding="UTF-8" standalone="no"?>
<!-- Created with Inkscape (http://www.inkscape.org/) -->

<svg
   width="130.64284mm"
   height="130.55705mm"
   viewBox="0 0 130.64284 130.55705"
   version="1.1"
   id="svg1"
   xml:space="preserve"
   xmlns:inkscape="http://www.inkscape.org/namespaces/inkscape"
   xmlns:sodipodi="http://sodipodi.sourceforge.net/DTD/sodipodi-0.dtd"
   xmlns="http://www.w3.org/2000/svg"
   xmlns:svg="http://www.w3.org/2000/svg"><sodipodi:namedview
     id="namedview1"
     pagecolor="#ffffff"
     bordercolor="#000000"
     borderopacity="0.25"
     inkscape:showpageshadow="2"
     inkscape:pageopacity="0.0"
     inkscape:pagecheckerboard="0"
     inkscape:deskcolor="#d1d1d1"
     inkscape:document-units="mm"><inkscape:page
       x="-3.0507072e-06"
       y="1.3112267e-05"
       width="130.64284"
       height="130.55705"
       id="page3"
       margin="0"
       bleed="0" /></sodipodi:namedview><defs
     id="defs1" /><g
     id="layer-MC1"
     inkscape:groupmode="layer"
     inkscape:label="OBJECTS"
     transform="matrix(0.26458333,0,0,0.26458334,-84.069407,-375.14763)"><path
       style="fill:#000000"
       d="m 538.61695,1909.9106 c -57.7676,-6.2872 -110.143,-32.0078 -150.974,-74.1406 -19.1277,-19.7374 -32.8037,-39.0894 -44.4335,-62.8744 -33.7768,-69.0796 -33.962,-147.2419 -0.512,-216 11.9126,-24.4868 24.8824,-43.0326 43.8856,-62.7529 39.6238,-41.119 87.0138,-65.5887 144.0983,-74.4048 15.9916,-2.4697 51.9201,-2.4775 68,-0.015 44.361,6.7943 84.8771,24.2336 119.3371,51.366 9.2313,7.2683 32.701,30.738 39.9693,39.9693 21.276,27.0219 37.953,60.6954 46.1305,93.1446 14.3773,57.0509 7.6243,118.1048 -18.8657,170.5645 -12.9205,25.5874 -25.7685,43.0815 -47.4673,64.6324 -21.59,21.4428 -39.5866,34.3284 -65.6039,46.9724 -41.9156,20.3705 -88.0184,28.4952 -133.5644,23.5382 z m 60.0644,-15.0139 c 24.0847,-3.7048 46.8623,-10.852 68.5961,-21.5243 68.9523,-33.8586 116.1371,-98.6913 128.0749,-175.9768 2.4666,-15.9687 2.4666,-50.0313 0,-66 -4.8201,-31.2054 -15.0056,-59.9985 -30.3395,-85.7658 -5.7295,-9.628 -19.7001,-28.6907 -27.159,-37.0581 l -3.8544,-4.324 -22.409,1.654 -22.4091,1.654 -19.5,19.3961 c -10.725,10.6679 -19.7379,19.6073 -20.0287,19.8654 -0.2908,0.258 -15.0777,0.9943 -32.8598,1.6362 -31.6445,1.1423 -32.3729,1.1253 -34.3015,-0.8033 -2.2457,-2.2458 -9.2636,-33.25 -8.2494,-36.4453 1.204,-3.7935 4.4984,-4.6643 22.4372,-5.9305 l 17.4977,-1.2352 9.2295,-8.0717 9.2295,-8.0718 8.1458,-20.2936 c 4.4802,-11.1615 7.9779,-20.4477 7.7728,-20.636 -0.888,-0.8151 -23.6626,-7.7724 -31.157,-9.518 -17.9004,-4.1696 -30.4964,-5.4888 -52.7161,-5.5211 -12.9244,-0.019 -25.0898,0.5007 -30.5,1.3024 -22.6279,3.3532 -47.1263,10.4532 -65.8384,19.0808 l -8.8383,4.0752 2.6573,4.7551 c 1.4616,2.6154 7.8847,13.8304 14.2736,24.9223 l 11.6161,20.1671 7.0649,0.7014 c 28.5483,2.8344 48.5648,24.252 48.5648,51.9644 0,17.0806 -6.4131,30.2744 -32.7101,67.2949 l -12.2851,17.2949 -0.6622,8.6149 c -0.918,11.942 -1.3528,12.2962 -15.0926,12.292 -5.9125,0 -17.95,-0.2734 -26.75,-0.6034 l -16,-0.6001 -15.5,-15.8273 -15.5,-15.8273 -21.4518,-1.5488 c -17.8489,-1.2888 -21.7455,-1.8462 -23.201,-3.3194 -0.9621,-0.9737 -5.0115,-12.0076 -8.9988,-24.5198 -3.9872,-12.5122 -7.5633,-22.4122 -7.9468,-22 -1.0898,1.1712 -7.7258,22.4172 -9.8492,31.5333 -4.2123,18.0838 -5.5002,30.4567 -5.4873,52.7161 0.018,30.557 3.3058,50.3375 12.9656,78 20.0019,57.2795 65.0242,106.7579 121.1701,133.1632 10.0635,4.7328 39.3207,15.1486 40.169,14.3004 0.2085,-0.2085 -2.7622,-4.7856 -6.6016,-10.1714 -24.9973,-35.0654 -31.6512,-52.8838 -26.7603,-71.6611 2.3652,-9.0806 6.5086,-16.5669 12.6535,-22.8625 l 5.6614,-5.8002 -11.9114,-33.0484 c -6.5513,-18.1766 -11.9114,-34.0585 -11.9114,-35.2931 0,-1.2345 0.5625,-2.9916 1.25,-3.9046 0.6875,-0.913 10.7,-5.9236 22.25,-11.1347 l 21,-9.4749 13.7563,-21.7346 c 7.566,-11.954 14.4982,-22.5543 15.405,-23.5563 1.4421,-1.5935 3.3654,-1.8218 15.349,-1.8218 h 13.7003 l 8.7482,-11.4741 c 7.166,-9.399 9.3199,-11.5814 11.9097,-12.0672 1.7389,-0.3262 11.0964,-0.4504 20.7944,-0.2759 22.3147,0.4014 21.8371,0.1078 21.8371,13.4252 v 9.298 l 3.7057,1.0232 c 2.7704,0.7649 3.9146,0.7137 4.5335,-0.203 2.6791,-3.9686 2.6982,-4.6189 0.2949,-10.0533 -7.6665,-17.3351 -7.7305,-38.8659 -0.1665,-55.9695 8.4424,-19.0898 26.8272,-34.5265 46.6324,-39.1548 9.3454,-2.184 24.9468,-1.9919 34.3905,0.4234 12.1668,3.1117 20.8533,8.215 30.6379,17.9996 9.6911,9.6911 14.5452,17.8956 18.0887,30.5735 2.7983,10.012 3.0178,24.9064 0.5076,34.4489 -3.9259,14.9238 -15.4105,36.071 -33.7245,62.0984 l -9.9736,14.1742 9.6822,17.5066 9.6821,17.5067 -4.2459,19.11 -4.246,19.1101 -11.9601,20.5 c -6.578,11.275 -12.8299,21.2448 -13.893,22.155 -1.0631,0.9103 -6.267,2.6999 -11.5642,3.9769 -10.8805,2.6231 -10.3835,2.083 -12.9196,14.0378 -2.4292,11.4503 -2.1852,11.3303 -23.0393,11.3303 -22.2466,0 -21.0092,0.9718 -22.5811,-17.7335 l -1.1486,-13.6683 -7.4595,-1.7586 c -8.4456,-1.991 -8.0233,-1.6315 -20.9563,-17.8396 l -8.7773,-11 -19.2057,-0.2714 -19.2057,-0.2715 -0.9831,3.7715 c -2.929,11.2354 -2.9643,10.3185 0.6943,18.0445 10.8157,22.8399 5.1325,42.2957 -24.2938,83.1666 -5.2721,7.3226 -9.4347,13.4649 -9.2501,13.6496 0.1846,0.1846 3.9151,0.7748 8.2899,1.3117 11.1134,1.3637 44.8281,0.5422 57.4542,-1.3999 z m -67.4357,-22.2085 c 11.8035,-16.7856 16.9027,-25.0241 21.8448,-35.2926 3.8552,-8.0103 4.0909,-9.0185 4.0909,-17.5 0,-7.6559 -0.3973,-9.8475 -2.6604,-14.6752 -13.3911,-28.5656 -52.2881,-28.5656 -65.6792,0 -2.2631,4.8277 -2.6604,7.0193 -2.6604,14.6752 0,8.3512 0.2727,9.5712 3.7835,16.9243 2.0809,4.3584 5.4176,10.6584 7.4149,14 4.5548,7.6207 23.5227,34.5757 24.3305,34.5757 0.3298,0 4.6208,-5.7183 9.5354,-12.7074 z m -16.6137,-25.6063 c -9.4293,-2.6432 -16.5702,-9.2788 -19.621,-18.2325 -2.0781,-6.0988 -1.3831,-16.4776 1.4788,-22.082 4.4335,-8.6824 15.3963,-15.3718 25.1916,-15.3718 9.7825,0 20.7609,6.6906 25.1747,15.3424 2.6029,5.1021 3.5015,15.1708 1.873,20.9871 -3.9026,13.939 -20.2725,23.2321 -34.0971,19.3568 z m 14.6352,-15.1506 c 5.9543,-3.9013 8.2989,-13.5365 4.7543,-19.5372 -2.5693,-4.3494 -8.6753,-7.3335 -13.8193,-6.7537 -7.6464,0.8618 -12.5208,6.3166 -12.5208,14.0116 0,11.2176 12.4218,18.2838 21.5858,12.2793 z m 147.8584,-14.2857 c 2.8224,-13.2974 2.9622,-13.4275 18.0558,-16.7988 4.4,-0.9828 8.7332,-2.4989 9.6294,-3.3691 0.8962,-0.8701 6.0142,-9.0071 11.3733,-18.0821 9.6604,-16.3586 9.7727,-16.6243 13.0958,-31 1.8435,-7.975 3.363,-15.4571 3.3767,-16.627 0.021,-1.8117 -10.7477,-22.4959 -12.7998,-24.585 -0.3846,-0.3915 -2.8354,2.3919 -5.4461,6.1854 -6.868,9.9796 -11.227,10.5657 -16.8689,2.2681 -1.7732,-2.6078 -8.4038,-11.9415 -14.7347,-20.7415 -6.3309,-8.8 -15.8763,-22.6315 -21.2119,-30.7367 l -9.7012,-14.7367 -1.619,2.4708 c -0.8904,1.359 -2.7618,2.7577 -4.1588,3.1083 -3.0174,0.7573 -21.1035,-4.0881 -23.6476,-6.3354 -1.3173,-1.1636 -1.7792,-3.5057 -2,-10.1417 l -0.2872,-8.6286 -12.2185,-0.2805 -12.2185,-0.2806 -6.7815,8.7226 c -3.7298,4.7975 -8.0547,10.1987 -9.6108,12.0029 l -2.8292,3.2802 -13.6197,0.2777 -13.6198,0.2777 -13.1856,20.8489 c -7.2521,11.4669 -13.8001,21.4385 -14.551,22.1591 -0.751,0.7205 -9.5779,5.0176 -19.6154,9.5491 -10.0375,4.5314 -18.25,8.6589 -18.25,9.1722 0,0.7407 16.6582,47.6645 19.5612,55.1013 0.4994,1.2793 1.3506,1.6553 2.8267,1.2486 13.563,-3.7368 25.9848,-2.6611 37.7898,3.2728 l 7.6776,3.8592 1.694,-6.9122 c 2.5681,-10.4794 1.6273,-10.1973 31.8849,-9.5605 13.9346,0.2933 26.0166,0.9221 26.849,1.3974 0.8324,0.4752 6.2811,6.8084 12.1084,14.0737 9.5127,11.8604 11.0297,13.3215 14.8516,14.3041 11.642,2.9932 14.7851,4.1706 15.7007,5.8814 0.842,1.5734 3.0527,19.9188 3.0553,25.3549 7e-4,1.5355 1.0916,1.75 8.9004,1.75 h 8.8996 z m 40.399,-132.5451 c 23.6868,-33.0776 35.9722,-53.8164 40.4038,-68.2049 4.5289,-14.7043 2.1489,-32.3886 -6.0703,-45.1053 -10.5541,-16.3293 -26.5984,-25.3937 -45.2772,-25.5801 -15.6348,-0.156 -27.7273,4.351 -38.3596,14.2969 -7.7697,7.2682 -11.9181,13.5462 -15.2807,23.1248 -3.4522,9.8339 -3.5864,24.1374 -0.3168,33.7637 4.8443,14.2623 15.541,32.7545 33.9196,58.6395 17.2858,24.346 18.1516,25.4702 19.1437,24.8569 0.5222,-0.3227 5.849,-7.4289 11.8375,-15.7915 z m -25.9507,-49.0118 c -10.1681,-4.2686 -16.2927,-10.0562 -20.7914,-19.6475 -2.2584,-4.8149 -2.6011,-6.8633 -2.6011,-15.5456 0,-9.041 0.2819,-10.5742 2.9396,-15.9872 3.7443,-7.6262 10.447,-14.3289 18.0732,-18.0732 5.413,-2.6577 6.9462,-2.9396 15.9872,-2.9396 8.7642,0 10.7088,0.3322 15.7358,2.6882 7.3283,3.4345 15.1415,11.2477 18.576,18.576 2.3572,5.0295 2.6882,6.9698 2.6882,15.7568 0,9.2849 -0.2387,10.506 -3.2499,16.6226 -3.8564,7.8334 -10.1384,13.9799 -18.075,17.6849 -8.2008,3.8284 -21.3012,4.2152 -29.2826,0.8646 z m 21.9882,-12.9036 c 4.551,-1.3877 11.0209,-7.387 13.2536,-12.2895 2.411,-5.2939 2.4014,-14.7239 -0.02,-20.0558 -2.1644,-4.7652 -8.9624,-10.9091 -13.8583,-12.5249 -1.8994,-0.6268 -6.3247,-0.9569 -9.8339,-0.7334 -7.5106,0.4782 -13.0328,3.7618 -17.8477,10.6126 -2.366,3.3664 -3.0657,5.5605 -3.3881,10.6232 -0.503,7.8996 1.0046,12.6766 5.6096,17.7737 7.0711,7.8268 15.2566,9.8961 26.0852,6.5941 z m -228.8809,23.4605 c -2e-4,-2.9682 -1.0949,-5.2094 -5.2507,-10.75 l -5.2505,-7 -11.9993,-2.0678 c -6.5996,-1.1372 -13.1243,-2.375 -14.4993,-2.7507 -1.375,-0.3756 -12.3395,-10.2451 -24.3655,-21.9322 l -21.8654,-21.2493 0.8654,-24.1451 c 0.7749,-21.6187 1.0648,-24.3654 2.7705,-26.25 1.0732,-1.1859 3.1285,-2.1049 4.7071,-2.1049 1.5412,0 9.6622,2.6843 18.0467,5.9651 8.3844,3.2807 15.2662,5.8682 15.2928,5.75 0.4182,-1.8588 5.7274,-10.9003 8.4611,-14.4092 3.4271,-4.3991 16.1988,-14.2891 18.4941,-14.3212 4.4899,-0.063 3.8399,-1.8182 -8.9353,-24.1282 -7.041,-12.2961 -13.1244,-22.7309 -13.5187,-23.1885 -0.3942,-0.4576 -4.4824,1.6112 -9.0848,4.5975 -31.5338,20.4603 -58.5215,49.0729 -76.8636,81.4913 l -5.2375,9.2569 8.7034,27.2431 c 4.7868,14.9838 9.0017,27.5388 9.3665,27.9002 0.3648,0.3613 8.0882,1.1647 17.1632,1.7854 26.1859,1.7908 22.3289,0.061 39.3204,17.638 l 14.8204,15.3314 6.6796,0.3482 c 3.6738,0.1916 12.4171,0.4364 19.4296,0.5441 l 12.75,0.1959 z m 15.6713,-29.5 c 16.2167,-22.7028 23.8899,-35.5584 27.378,-45.8685 3.1819,-9.4053 2.4721,-20.3493 -1.8954,-29.2209 -9.1559,-18.5982 -31.3601,-26.471 -49.9124,-17.6972 -10.6954,5.0581 -17.51,13.0794 -20.7818,24.4616 -3.3522,11.6618 -0.9701,22.2712 8.8533,39.4311 5.4849,9.5814 26.5714,40.1439 27.697,40.1439 0.344,0 4.2416,-5.0625 8.6613,-11.25 z m -17.8108,-30.3178 c -5.5932,-1.722 -14.0773,-9.052 -17.1529,-14.8196 -1.7903,-3.3574 -2.1931,-5.7654 -2.1931,-13.1126 0,-10.8454 1.7487,-14.8538 9.5331,-21.8527 14.3241,-12.8786 36.2597,-8.7275 44.8634,8.4901 8.2229,16.4554 -0.032,36.2574 -17.2446,41.3691 -6.1605,1.8295 -11.6975,1.8064 -17.8059,-0.074 z m 18.027,-15.352 c 8.5553,-6.0919 8.5741,-19.0551 0.036,-25.1345 -10.0533,-7.1585 -23.9238,0.1202 -23.9238,12.5543 0,12.4113 13.8678,19.7147 23.8873,12.5802 z m -43.5641,32.1897 c -11.2373,-17.4192 -17.3166,-32.9354 -17.3295,-44.23 l -0.01,-5.5399 -11.0479,-4.3624 c -6.0764,-2.3993 -11.2102,-4.1993 -11.4085,-4 -0.1982,0.1993 -0.6267,7.1124 -0.9521,15.3624 l -0.5917,15 18.4579,17.5 c 18.0557,17.1188 20.208,18.6966 25.7825,18.9003 l 2.7276,0.1 z m 164.49,-69.2202 22.3132,-0.8648 19.1868,-19.7073 19.1868,-19.7072 18.3885,-1.3571 c 10.1137,-0.7464 18.5801,-1.5486 18.8142,-1.7827 0.7925,-0.7924 -14.1402,-12.711 -25.2027,-20.1156 -6.05,-4.0496 -15.7866,-9.8841 -21.637,-12.9657 l -10.6369,-5.6028 -8.6641,21.7767 c -5.5736,14.0089 -9.4984,22.4902 -11.0029,23.7768 -1.2863,1.1 -6.8784,5.9759 -12.4269,10.8354 l -10.0883,8.8353 -14.7719,1.0301 c -8.1246,0.5665 -14.9567,1.2003 -15.1825,1.4085 -0.3683,0.3395 1.2827,9.1744 2.5491,13.6407 0.5747,2.027 -1.2211,1.9778 29.1746,0.7997 z"
       id="path796" /></g></svg>
