<?xml version="1.0" encoding="UTF-8" standalone="no"?>
<!-- Created with Inkscape (http://www.inkscape.org/) -->

<svg
   width="106.72417mm"
   height="135.39333mm"
   viewBox="0 0 106.72417 135.39333"
   version="1.1"
   id="svg1"
   xml:space="preserve"
   xmlns:inkscape="http://www.inkscape.org/namespaces/inkscape"
   xmlns:sodipodi="http://sodipodi.sourceforge.net/DTD/sodipodi-0.dtd"
   xmlns="http://www.w3.org/2000/svg"
   xmlns:svg="http://www.w3.org/2000/svg"><sodipodi:namedview
     id="namedview1"
     pagecolor="#ffffff"
     bordercolor="#000000"
     borderopacity="0.25"
     inkscape:showpageshadow="2"
     inkscape:pageopacity="0.0"
     inkscape:pagecheckerboard="0"
     inkscape:deskcolor="#d1d1d1"
     inkscape:document-units="mm"><inkscape:page
       x="-1.0739497e-05"
       y="2.9655844e-06"
       width="106.72417"
       height="135.39333"
       id="page3"
       margin="0"
       bleed="0" /></sodipodi:namedview><defs
     id="defs1" /><g
     id="layer-MC1"
     inkscape:groupmode="layer"
     inkscape:label="OBJECTS"
     transform="matrix(0.26458333,0,0,0.26458334,-255.59465,-445.21251)"><path
       style="fill:#000000"
       d="m 1039.733,2188.8999 c -37.4,-2.9697 -68.96281,-5.8935 -70.13951,-6.4972 -4.158,-2.1334 -4.329,-4.2827 -2.3083,-29.0174 1.0497,-12.8483 1.9174,-24.1686 1.9282,-25.1561 0.011,-0.9875 1.1684,-2.9443 2.5725,-4.3484 2.3193,-2.3193 3.1647,-2.521 9.2376,-2.2045 l 6.6846,0.3484 -0.2732,-14.5 c -0.1502,-7.975 -0.9806,-24.4 -1.8454,-36.5 -1.9314,-27.0261 -1.3998,-68.4836 1.0836,-84.5 3.5046,-22.6033 9.1825,-40.7815 18.05801,-57.8139 8.1977,-15.7318 16.7451,-26.4409 38.7432,-48.542 l 20.7587,-20.8559 0.024,-69.6441 c 0.015,-43.2846 0.4071,-71.3039 1.0354,-74.0295 2.8891,-12.5316 11.6395,-23.1583 23.8852,-29.0066 l 7.5549,-3.608 94.4722,-0.2748 c 62.8771,-0.1829 96.1536,0.075 99.5,0.7702 12.9593,2.6935 23.3194,10.7584 29.2619,22.7791 l 3.7659,7.6177 0.2909,49.5539 c 0.1599,27.2546 0.053,50.5094 -0.2373,51.6773 -0.7568,3.0428 -5.6749,4.9115 -8.7129,3.3106 -1.2874,-0.6784 -2.6713,-1.7286 -3.0754,-2.3337 -0.4041,-0.6052 -0.7416,-17.1878 -0.75,-36.8503 l -0.015,-35.75 h -116.6133 -116.6134 l 0.7306,140.75 c 0.4018,77.4125 0.8543,140.8889 1.0055,141.0588 0.1512,0.1698 7.1766,-9.9552 15.6119,-22.5 8.4354,-12.5449 17.2589,-24.6812 19.6079,-26.9696 13.6472,-13.2958 34.6687,-13.0269 48.3136,0.618 7.4318,7.4318 9.4592,12.6992 9.4464,24.5428 -0.012,10.9981 -1.1655,14.2146 -9.516,26.5307 -4.299,6.3406 -14.9732,23.8094 -14.9732,24.5044 0,0.2557 36.675,0.4649 81.5,0.4649 h 81.5 v -31.3451 c 0,-29.0965 0.1312,-31.4637 1.8287,-33 2.4273,-2.1966 7.4542,-2.1048 9.5163,0.1738 1.4878,1.644 1.655,6.3254 1.655,46.3435 0,41.228 -0.1412,44.925 -1.9121,50.0722 -2.3591,6.857 -4.2896,10.0239 -9.5149,15.609 -4.5919,4.9082 -9.8463,8.5286 -15.9372,10.9812 -3.7148,1.4958 -13.0916,1.7163 -92.108,2.1654 l -87.9722,0.5 -3.1757,8.5 c -1.7466,4.675 -2.9701,8.8375 -2.7188,9.25 0.2513,0.4125 2.2053,0.75 4.3422,0.75 2.6198,0 4.7618,0.754 6.5767,2.3151 3.1931,2.7466 3.2169,3.5609 0.9262,31.662 -0.8284,10.1625 -1.5062,19.5204 -1.5062,20.7955 0,3.9541 -4.2569,7.2445 -9.2045,7.1147 -2.3625,-0.062 -34.8955,-2.5424 -72.2955,-5.5121 z m 67.4073,-25.9817 c 0.6673,-8.0335 1.055,-14.7645 0.8617,-14.9579 -0.5748,-0.5748 -122.65651,-9.8814 -123.14991,-9.388 -0.5934,0.5933 -3.0046,28.9025 -2.5036,29.3936 0.2115,0.2073 21.30951,2.0127 46.88451,4.012 25.575,1.9992 50.55,4.0039 55.5,4.4549 4.95,0.451 11.7437,0.8811 15.0971,0.9559 l 6.097,0.136 z m -9.9858,-41.6435 c 4.982,-13.7894 11.3136,-28.2466 19.7684,-45.1381 9.7373,-19.4539 14.1028,-27.1537 27.8445,-49.1119 6.1956,-9.9 11.7772,-19.9125 12.4037,-22.25 1.4821,-5.5301 0.035,-11.0718 -4.1286,-15.8143 -7.7276,-8.8012 -18.7051,-9.462 -26.862,-1.6169 -2.1051,2.0246 -13.8119,18.5312 -26.015,36.6812 -12.2032,18.15 -22.8912,33.5625 -23.7512,34.25 -1.6679,1.3334 -5.9771,1.6493 -8.6273,0.6323 -4.0216,-1.5432 -4.0362,-1.8313 -4.554,-90.3823 l -0.5,-85.5 -11.5101,11.5123 c -31.8531,31.8592 -45.1604,59.4123 -49.9593,103.4419 -1.53311,14.0661 -1.29731,52.5411 0.463,75.5458 0.8207,10.725 1.4953,26.3625 1.4993,34.75 0.01,11.4917 0.3152,15.2673 1.2571,15.3203 0.6875,0.039 19.475,1.56 41.75,3.3808 22.275,1.8209 42.0929,3.3642 44.0398,3.4297 l 3.5397,0.1192 z m 197.5453,-24.2169 c 5.3009,-2.6282 11.3182,-8.7885 13.5618,-13.884 1.0049,-2.282 1.972,-6.8491 2.1492,-10.1491 l 0.3222,-6 -85.6138,-0.2556 -85.6137,-0.2556 -6.5409,12.7556 c -3.5975,7.0156 -7.239,14.4506 -8.0922,16.5223 l -1.5513,3.7667 83.7059,-0.2667 c 80.9368,-0.2579 83.8372,-0.3318 87.6728,-2.2336 z m -123.0122,-8.9877 c -1.35,-1.35 -2.4546,-3.3954 -2.4546,-4.5454 0,-1.15 1.1046,-3.1955 2.4546,-4.5455 2.4467,-2.4468 2.5196,-2.4545 23,-2.4545 19.2121,0 20.6752,0.1298 22.5454,2 2.8775,2.8775 2.5888,7.3916 -0.6349,9.9274 -2.4652,1.9391 -3.9166,2.0726 -22.5454,2.0726 -19.8063,0 -19.9235,-0.013 -22.3651,-2.4546 z m 139.0683,-364.2954 c -1.014,-8.2394 -4.046,-14.5302 -9.4308,-19.5671 -8.7487,-8.1834 -2.5471,-7.7581 -108.6605,-7.453 l -93.9316,0.2701 -5.1378,2.71 c -9.5004,5.0111 -15.3622,14.5382 -15.3622,24.9681 v 4.8219 h 116.6152 116.6153 z m -139.5229,-6.25 c -1.1,-1.1 -2,-3.125 -2,-4.5 0,-1.375 0.9,-3.4 2,-4.5 1.8751,-1.8751 3.3333,-2 23.345,-2 19.4087,0 21.4952,0.1659 23,1.8287 2.1967,2.4273 2.1049,7.4541 -0.1737,9.5163 -1.5805,1.4303 -4.7033,1.655 -23,1.655 -19.838,0 -21.2972,-0.126 -23.1713,-2 z m 73.5,262.0864 c -11.4084,-2.8592 -18.6265,-13.3912 -16.9302,-24.7031 l 0.6573,-4.3833 h -5.1457 c -6.2506,0 -10.495,-1.6683 -15.5611,-6.1164 -9.8745,-8.6699 -10.1029,-24.274 -0.4923,-33.6231 1.8315,-1.7817 4.1495,-3.4995 5.151,-3.8174 5.1458,-1.6332 -0.1627,-2.3597 -19.2691,-2.637 -20.786,-0.3017 -21.1177,-0.3402 -23,-2.6669 -2.4549,-3.0345 -2.4129,-5.2301 0.1627,-8.5044 l 2.0726,-2.6348 h 18.9274 c 13.1926,0 18.9274,-0.3361 18.9274,-1.1091 0,-0.61 -0.9903,-4.885 -2.2007,-9.5 l -2.2008,-8.3909 h -23.7992 c -22.466,0 -23.9113,-0.1121 -25.7993,-2 -2.5713,-2.5714 -2.5713,-7.4287 0,-10 1.8784,-1.8784 3.3333,-2 23.9279,-2 h 21.9278 l -2.4278,-9.0722 c -1.3354,-4.9897 -2.4279,-9.2647 -2.4279,-9.5 0,-0.2353 -9.5749,-0.4278 -21.2775,-0.4278 -24.108,0 -25.7225,-0.407 -25.7225,-6.4842 0,-2.4503 0.7194,-3.9366 2.6349,-5.4433 2.4548,-1.931 3.928,-2.0725 21.5674,-2.0725 17.5577,0 18.8956,-0.1271 18.4246,-1.75 -0.2793,-0.9625 -0.9543,-3.55 -1.5001,-5.75 -0.5457,-2.2 -1.4898,-5.9125 -2.098,-8.25 l -1.1059,-4.25 h -13.4614 c -12.1282,0 -13.6596,-0.1981 -15.4615,-2 -2.3975,-2.3975 -2.5666,-5.7461 -0.4433,-8.7775 1.5123,-2.1592 2.0789,-2.2225 19.8776,-2.2225 15.6771,0 18.5189,0.2343 19.6933,1.624 0.7548,0.8932 3.1949,8.4307 5.4223,16.75 l 4.0499,15.126 78.8424,0.5 78.8423,0.5 1.9383,2.5963 1.9383,2.5964 -10.8158,41.3889 c -6.9725,26.6814 -11.443,42.016 -12.5806,43.1537 -1.6474,1.6474 -5.7884,1.7647 -62.2968,1.7647 -64.5581,0 -65.8406,0.091 -68.3874,4.8496 -1.9682,3.6777 -1.2945,8.6636 1.5559,11.514 l 2.6363,2.6364 h 66.2288 c 65.4877,0 66.2583,0.023 68.8636,2.0725 3.2237,2.5358 3.5124,7.0499 0.6349,9.9275 -1.5388,1.5388 -3.3333,2 -7.7827,2 h -5.7827 l 0.3596,6.75 c 0.4579,8.5966 -2.2631,14.2985 -8.9982,18.8557 -9.0766,6.1414 -18.8852,5.2226 -26.874,-2.5176 -5.5043,-5.3328 -7.4716,-10.8871 -6.4866,-18.3128 l 0.6335,-4.7753 h -15.3483 -15.3482 l 0.4263,5.894 c 0.494,6.8285 -0.9238,11.9127 -4.5104,16.1752 -4.6497,5.5259 -14.0618,8.703 -20.7883,7.0172 z m 9.1109,-15.4282 c 1.9453,-1.6732 2.7224,-3.2885 2.7224,-5.6582 0,-3.432 -3.9068,-8 -6.842,-8 -5.5458,0 -9.6157,5.8711 -7.5414,10.8789 2.1467,5.1826 7.409,6.4368 11.661,2.7793 z m 71.7542,0.2692 c 5.9682,-4.6945 1.5359,-14.9258 -5.8493,-13.5026 -9.5316,1.8368 -8.1611,15.1287 1.5993,15.5118 0.8884,0.035 2.8009,-0.8693 4.25,-2.0092 z m -71.1755,-60.4504 c 0.2877,-0.2876 0.01,-3.1001 -0.623,-6.25 l -1.1459,-5.727 -13.6226,-0.2777 -13.6227,-0.2776 1.5084,5.7776 c 0.8295,3.1777 1.7166,6.1152 1.9713,6.5277 0.5163,0.8364 24.7101,1.0515 25.5345,0.227 z m 41.1674,-0.9649 c 0.314,-0.8183 0.8701,-3.7433 1.2358,-6.5 l 0.6649,-5.0121 h -15.2577 -15.2577 l 0.6649,5.0121 c 1.1193,8.4371 0.2985,7.9879 14.5928,7.9879 10.3964,0 12.8927,-0.2781 13.357,-1.4879 z m 41.2501,-2.5121 c 0.612,-1.925 1.4094,-4.7375 1.7719,-6.25 l 0.6591,-2.75 h -13.46 c -7.403,0 -13.7005,0.389 -13.9944,0.8646 -0.2939,0.4755 -0.8341,3.4145 -1.2004,6.5309 l -0.6659,5.6663 12.8885,-0.2809 12.8884,-0.2809 z m -86.9197,-24.3722 c -0.2896,-0.7547 -0.8388,-3.4547 -1.2205,-6 l -0.694,-4.6278 h -14.7818 -14.7817 l 1.6076,6 1.6076,6 h 14.3947 c 11.7883,0 14.2993,-0.2485 13.8681,-1.3722 z m 50.6252,0 c 0.2896,-0.7547 0.8388,-3.4547 1.2205,-6 l 0.694,-4.6278 h -20.2014 -20.2015 l 0.661,4.25 c 1.3122,8.4376 -0.4158,7.75 19.4752,7.75 14.1843,0 17.9332,-0.2803 18.3522,-1.3722 z m 43.9527,-4.6278 1.5114,-6 h -14.7504 -14.7504 l -0.9663,6 -0.9663,6 h 14.2053 14.2053 z m -99.5886,-22.25 c -0.2971,-1.2375 -0.8459,-3.9375 -1.2197,-6 l -0.6796,-3.75 h -15.3887 c -8.7451,0 -15.3887,0.3987 -15.3887,0.9237 0,0.508 0.5273,3.208 1.1718,6 l 1.1717,5.0763 h 15.4367 15.4366 z m 60.7439,-0.75 c 0.3187,-1.65 0.8402,-4.35 1.1589,-6 l 0.5794,-3 h -25.1589 -25.1589 l 0.5795,3 c 0.3187,1.65 0.8402,4.35 1.1589,6 l 0.5794,3 h 22.8411 22.8411 z m 45.7624,-3 1.6076,-6 h -15.784 -15.784 l -0.6796,3.75 c -0.3737,2.0625 -0.9226,4.7625 -1.2197,6 l -0.5401,2.25 h 15.3961 15.3961 z m -216.2389,24.1558 c -1.5402,-1.2472 -2.2774,-2.9162 -2.2774,-5.1558 0,-4.2365 3.2458,-7 8.2216,-7 5.4533,0 8.1117,2.2941 8.1117,7 0,2.8826 -0.5741,4.2887 -2.2225,5.4433 -3.0247,2.1186 -9.0426,1.9724 -11.8334,-0.2875 z"
       id="path797" /></g></svg>
