<?xml version="1.0" encoding="UTF-8" standalone="no"?>
<!-- Created with Inkscape (http://www.inkscape.org/) -->

<svg
   width="119.97141mm"
   height="135.41821mm"
   viewBox="0 0 119.9714 135.41821"
   version="1.1"
   id="svg1"
   xml:space="preserve"
   xmlns:inkscape="http://www.inkscape.org/namespaces/inkscape"
   xmlns:sodipodi="http://sodipodi.sourceforge.net/DTD/sodipodi-0.dtd"
   xmlns="http://www.w3.org/2000/svg"
   xmlns:svg="http://www.w3.org/2000/svg"><sodipodi:namedview
     id="namedview1"
     pagecolor="#ffffff"
     bordercolor="#000000"
     borderopacity="0.25"
     inkscape:showpageshadow="2"
     inkscape:pageopacity="0.0"
     inkscape:pagecheckerboard="0"
     inkscape:deskcolor="#d1d1d1"
     inkscape:document-units="mm"><inkscape:page
       x="-6.1407482e-06"
       y="1.4079932e-05"
       width="119.9714"
       height="135.41821"
       id="page3"
       margin="0"
       bleed="0" /></sodipodi:namedview><defs
     id="defs1" /><g
     id="layer-MC1"
     inkscape:groupmode="layer"
     inkscape:label="OBJECTS"
     transform="matrix(0.26458333,0,0,0.26458334,71.880414,-300.99462)"><path
       style="fill:#000000"
       d="m -247.74799,1648.138 c -8.93294,-2.4093 -17.17776,-9.5719 -21.31323,-18.5156 -2.13358,-4.6144 -2.13733,-4.7819 -2.13733,-95.6225 v -91 l 2.71674,-8 c 4.9584,-14.601 15.75602,-28.2364 28.17008,-35.5736 2.81225,-1.6621 21.98818,-12.1397 42.61318,-23.2835 l 37.5,-20.2615 0.29948,-6.2586 0.29948,-6.2586 -12.40028,-13.2494 c -19.8381,-21.1966 -20.69868,-23.4445 -20.69868,-54.0683 v -21.0905 l -16.25,-2.243 c -50.34617,-6.9491 -68.32642,-15.5287 -61.24443,-29.2237 3.16178,-6.1142 14.80773,-10.4039 37.81012,-13.9269 13.97112,-2.1399 16.478,-1.833 19.22039,2.3524 2.07186,3.162 1.14787,8.1084 -1.87298,10.0265 -1.1897,0.7554 -7.1131,2.124 -13.1631,3.0413 -6.05,0.9173 -13.02187,2.165 -15.49304,2.7726 l -4.49305,1.1047 2.99305,0.8537 c 33.14697,9.4545 107.97731,15.2161 167.149046,12.8699 31.07411,-1.2322 55.0017,-3.1784 75.84399,-6.1691 15.65208,-2.246 31.80681,-5.427 34.11207,-6.7171 1.84639,-1.0333 -4.97679,-2.6842 -21.55848,-5.2163 -9.37875005,-1.4321 -11.7722,-2.1502 -13.25,-3.9752 -2.56136,-3.1631 -2.2868,-7.6134 0.65096,-10.5512 2.97184995,-2.9719 3.7676,-2.989 19.51476,-0.4197 22.92031,3.7398 35.88751,8.0672 39.46108,13.1692 2.42819,3.4668 2.02536,10.0121 -0.80409,13.0652 -7.01008,7.564 -31.99078,13.9899 -71.3763,18.3606 l -16.25,1.8033 v 10.9482 10.9481 l 9.5,18.2989 c 5.225,10.0644 9.5,19.3904 9.5,20.7245 0,3.8617 -3.13304,6.7277 -10.57452,9.6732 l -6.92548,2.7413 -0.5,12.8663 c -0.44359,11.4147 -0.76275,13.2347 -2.82884,16.1314 -4.5758,6.4154 -9.70151,7.6786 -23.30968,5.7443 -12.78192,-1.8167 -13.86148,-1.8333 -13.86148,-0.2128 0,0.8089 9.12178,4.2741 24.25,9.212 13.3375,4.3535 28.075,9.8251 32.75,12.1592 16.37673,8.1763 27.71679,19.7871 35.97333,36.8322 5.33905,11.0222 6.76489,16.1712 8.42474,30.4237 l 1.11526,9.5763 5.40196,-9.3958 c 10.6739,-18.5656 13.78431,-20.4133 33.99771,-20.1957 7.47285,0.081 33.087094,0.7895 56.920534,1.5756 38.23105,1.2611 43.69407,1.6406 46.39547,3.2227 5.11172,2.9937 7.27628,6.7709 7.23018,12.6166 -0.0394,4.9892 -1.60753,7.856 -43.31041,79.1766 -23.79827,40.7 -44.479904,75.2788 -45.959184,76.8416 -5.54695,5.8604 -9.55831,7.1437 -21.68959,6.9388 -10.49806,-0.1773 -11.10267,-0.3046 -13.25,-2.7889 -2.45603,-2.8413 -2.88468,-7.082 -0.9682,-9.5781 2.41227,-3.1419 5.43899,-3.9526 12.4233,-3.3276 3.84784,0.3443 7.93138,0.1644 9.41524,-0.4148 2.08321,-0.8132 11.2399,-15.7968 44.670514,-73.0969 23.1276,-39.6407 41.97345,-72.1332 41.87966,-72.2055 -0.0938,-0.072 -23.34551,-0.9058 -51.67051,-1.8523 -39.943014,-1.3346 -52.027854,-1.4551 -53.852214,-0.537 -2.53586,1.2762 -59.56865005,97.7662 -58.11688,98.3241 0.43421,0.1669 5.77239,-2.1956 11.86262,-5.25 12.8122,-6.4255 17.79388,-7.091 24.60647,-3.2869 7.00115,3.9094 8.20713,7.9206 9.47366,31.5109 1.19224,22.2064 0.77001,25.8978 -3.48457,30.4642 -4.9234,5.2842 -37.03956,25.7015 -50.98909,32.4155 -10.3378,4.9755 -11.24875,5.0932 -60.5,7.8131 -52.755616,2.9135 -168.610276,8.5806 -172.996866,8.4624 -1.37672,-0.037 -4.55038,-0.6197 -7.05257,-1.2945 z m 83.54944,-18.1444 c 66.108836,-3.1943 123.438106,-6.3459 135.856986,-7.4685 9.42841,-0.8523 10.29798,-1.1384 20,-6.5785 5.57865,-3.1282 17.0339,-10.2003 25.45609,-15.7159 l 15.31308,-10.0283 -0.59202,-11.6012 c -1.12278,-22.0022 -1.60776,-26.1013 -3.08811,-26.1013 -0.76083,0 -11.78089,5.175 -24.48902,11.5 -12.70813,6.325 -23.94714,11.5 -24.97559,11.5 -1.02844,0 -3.1073,-1.0643 -4.61968,-2.3652 -2.41016,-2.0732 -2.79567,-3.2157 -3.12122,-9.25 -0.20429,-3.7866 -0.54532,-7.4276 -0.75786,-8.0911 -0.257,-0.8024 -5.15939,0.8723 -14.63703,5.0001 l -14.2506,6.2066 -6.24253,9.9998 c -3.43339,5.4999 -7.27977,10.7754 -8.54751,11.7234 -2.06864,1.5468 -8.35465,1.8649 -61.304986,3.1021 -41.33725,0.9659 -59.69603,1.0652 -61.325,0.3318 -4.26349,-1.9196 -5.175,-5.4613 -5.175,-20.1078 v -13.5497 h -27.5 -27.5 v 30.8428 c 0,30.2669 0.043,30.924 2.30274,35.1972 1.57377,2.9761 3.71058,5.113 6.75,6.7504 5.10466,2.75 -4.39802,2.8995 82.44726,-1.2967 z m 24.5,-53.9723 c 20.625,-0.311 42.155976,-0.8448 47.846616,-1.1863 l 10.34661,-0.6209 5.97849,-9.322 c 3.47554,-5.4192 7.30769,-10.1279 9.15338,-11.2472 5.71164,-3.4635 36.31478,-16.145 38.96159,-16.145 1.42071,0 3.73741,0.4389 5.14821,0.9753 l 2.5651,0.9752 v -14.9752 -14.9753 h -3.8601 -3.86009 l -0.58938,5.75 c -0.4638,4.525 -1.14467,6.2294 -3.19566,8 -3.24742,2.8035 -6.4482,2.8611 -9.85991,0.1775 -2.31703,-1.8226 -2.63486,-2.7876 -2.63486,-8 v -5.9275 h -57.876166 -57.87617 l -0.47015,5.6695 c -0.38124,4.5972 -0.98259,6.1102 -3.1796,8 -3.49136,3.0031 -7.05985,2.9595 -10.14336,-0.124 -2.0159,-2.0159 -2.45455,-3.4456 -2.45455,-8 v -5.5455 h -4.5 -4.5 v 33.3334 c 0,18.3333 0.30532,33.6386 0.67849,34.0118 0.37318,0.3732 2.06068,0.4677 3.75,0.2101 1.68933,-0.2577 19.94651,-0.7229 40.57151,-1.0339 z m -60.80413,-55.4957 c 0.38041,-27.4859 -0.25748,-26.359 15.20524,-26.8631 l 10.35013,-0.3375 -0.41531,-11.1625 c -1.04828,-28.175 -3.8674,-47.4083 -9.36107,-63.8655 -3.23386,-9.6875 -10.64539,-25.1083 -11.83056,-24.6152 -0.42065,0.175 -9.05283,4.8181 -19.18264,10.3181 -20.81365,11.3009 -28.60254,17.5967 -33.77448,27.3002 -6.03346,11.32 -6.18718,12.9203 -6.18718,64.4099 v 46.7899 h 27.44587 27.44588 z m 207.253886,-15.5257 8.72582,-15 -0.43784,-21.5 c -0.49016,-24.0697 -1.31786,-28.6022 -7.4871,-41 -4.49523,-9.0336 -16.75255,-21.9731 -25.46996,-26.8874 -5.34228,-3.0117 -25.7108,-10.5158 -26.47333,-9.7532 -0.18937,0.1893 1.23979,4.446 3.17591,9.4592 7.47436,19.3536 10.65308,37.5163 12.67652,72.4314 l 1.20252,20.75 h 8.36851 c 8.71051,0 13.47077,1.477 14.64801,4.5448 0.34165,0.8904 0.62118,6.622 0.62118,12.737 0,6.2933 0.37407,10.706 0.86197,10.1682 0.47409,-0.5225 4.78859,-7.7 9.58779,-15.95 z m -50.85233,-26.25 c -1.40649,-29.976 -4.22649,-49.8283 -9.23565,-65.0173 -3.39939,-10.3079 -11.55762,-27.4285 -14.44681,-30.3177 l -2.32012,-2.3201 -1.24667,8.6357 c -2.08915,14.4714 -8.5239,23.8208 -19.12458,27.787 -14.791496,5.5342 -33.635386,-0.3342 -48.336326,-15.0529 -6.09685,-6.1042 -8.604,-9.6021 -12.59092,-17.5661 -2.738,-5.4692 -5.17579,-10.5369 -5.41729,-11.2614 -0.30827,-0.9248 -4.07201,0.6692 -12.63159,5.3496 l -12.19249,6.667 3.85694,7.6731 c 11.26221,22.4054 16.66718,47.1628 17.7761,81.4231 l 0.6069,18.75 h 57.99729 57.997296 z m -49.49531,-77.5231 c 5.69992,-3.8132 6.80287,-8.9082 6.85411,-31.6624 0.0592,-26.2999 -0.25321,-25.9971 23.30035,-22.5771 5.63388,0.8181 11.70592,1.7385 13.49342,2.0453 l 3.25,0.558 0.0147,-13.2953 c 0.019,-17.1729 0.23321,-17.6258 10.30423,-21.7906 l 4.81897,-1.9928 -8.06897,-15.3805 -8.06897,-15.3805 v -12.2791 -12.2792 l -12.157,0.6537 c -6.68635,0.3595 -14.06249,0.6536 -16.39142,0.6536 -4.03522,0 -4.31288,0.1961 -5.90221,4.1683 -0.91729,2.2925 -4.1493,9.6766 -7.18225,16.4092 -4.59018,10.1892 -6.00494,12.4441 -8.44079,13.4531 -4.767486,1.9747 -8.158746,-0.1058 -12.000086,-7.3622 -1.79597,-3.3926 -4.33002,-7.8722 -5.63124,-9.9546 -4.56324,-7.3029 -12.50671,-9.7113 -18.99067,-5.7578 -6.21474,3.7894 -6.5502,5.076 -7.92551,30.3962 -0.69152,12.7313 -1.27709,32.1478 -1.30125,43.1478 l -0.0439,20 3.24689,8.0042 c 3.76841,9.2899 10.25637,18.9853 15.55265,23.2415 10.98894,8.831 24.12122,11.7629 31.268936,6.9812 z m -64.648046,-104.3262 c 0.78216,-12.0453 1.96423,-23.4757 2.62682,-25.4007 0.6626,-1.925 2.70961,-5.6303 4.54891,-8.2342 4.02376,-5.6962 4.75848,-5.352 -13.3798,-6.2678 l -12.25,-0.6184 0.022,20.3102 c 0.0196,18.0921 0.23868,20.7879 2.00629,24.6835 1.86708,4.1148 13.79101,18.6408 14.62065,17.8112 0.21069,-0.2107 1.02302,-10.2384 1.80517,-22.2838 z m 59.510486,-36.1507 c 0.0227,-0.8001 -1.422506,-1.25 -4.015446,-1.25 h -4.05089 l 2.72607,3.5741 2.72607,3.5741 1.28938,-2.3241 c 0.709166,-1.2782 1.305336,-2.8866 1.324816,-3.5741 z m 202.108024,143.1152 c -2.9254,-3.719 -2.61808,-7.0532 0.95802,-10.3937 6.9075,-6.4526 22.95884,-8.3492 34.19664,-4.0406 9.16973,3.5157 12.02042,8.942 7.62991,14.5236 -1.85971,2.3643 -2.68553,2.6627 -6.25,2.2586 -2.25893,-0.2561 -6.13215,-1.2377 -8.60715,-2.1813 -5.02405,-1.9154 -11.12693,-1.5517 -15.96757,0.9515 -4.68072,2.4205 -9.53324,1.9668 -11.95985,-1.1181 z m -15.618034,-19.8197 c -3.26962,-3.2696 -3.24797,-7.8429 0.0528,-11.1437 5.85078,-5.8508 25.322714,-12.4018 36.862564,-12.4018 12.14558,0 33.27337,7.1885 37.7117,12.8309 2.66178,3.3839 2.4441,7.7344 -0.53612,10.7146 -3.29496,3.295 -4.96665,3.1219 -14.17551,-1.4679 -16.39453,-8.171 -30.21486,-8.0402 -46.59281,0.441 -7.976914,4.1308 -10.058224,4.2913 -13.322584,1.0269 z m -16.28024,-20.8599 c -2.4163,-2.572 -2.86847,-7.4158 -0.92431,-9.9015 3.95294,-5.0542 21.42235,-13.3997 34.439474,-16.4524 11.55685,-2.7102 31.07358,-2.4812 42.31053,0.4966 9.79641,2.596 25.59475,10.0566 29.99012,14.1625 5.59341,5.225 2.93891,14.0092 -4.23346,14.0092 -1.57641,0 -5.84685,-1.7977 -9.48985,-3.9949 -25.16176,-15.1757 -56.7813,-14.4177 -80.766814,1.9363 -4.03917,2.754 -8.59477,2.6511 -11.32569,-0.2558 z M -156.69855,1233.842 c -16.85092,-0.8823 -33.83763,-2.746 -36.23551,-3.9756 -1.51572,-0.7773 -3.05052,-2.621 -3.44194,-4.1346 -0.82521,-3.1912 14.69786,-66.1571 17.93067,-72.7319 2.7245,-5.5409 6.38148,-9.2267 12.24678,-12.3432 l 5,-2.6568 50.87332,-0.2851 c 56.799736,-0.3183 57.747166,-0.2274 65.332606,6.2654 2.28373,1.9548 5.13004,5.1363 6.32513,7.07 2.36926,3.8335 18.94057,66.8459 18.95832,72.089 0.0254,7.5061 -3.20132,8.4745 -34.35031,10.3089 -15.60619,0.9191 -87.350106,1.1944 -102.639066,0.3939 z m 103.963326,-16.3986 c 7.95483,-0.5702 14.6522,-1.2256 14.88303,-1.4565 0.66716,-0.6671 -12.74648,-53.3931 -14.39379,-56.5787 -3.0778,-5.9518 -2.66214,-5.9083 -56.417586,-5.9083 h -49.06435 l -3.51999,3.25 c -3.39493,3.1346 -3.76927,4.24 -10.53678,31.1152 -3.85923,15.3259 -6.83475,28.0473 -6.61225,28.2698 2.08044,2.0804 100.584116,3.1061 125.661716,1.3085 z"
       id="path779" /></g></svg>
