<?xml version="1.0" encoding="UTF-8" standalone="no"?>
<!-- Created with Inkscape (http://www.inkscape.org/) -->

<svg
   width="282.28729mm"
   height="188.07985mm"
   viewBox="0 0 282.28729 188.07985"
   version="1.1"
   id="svg1"
   xml:space="preserve"
   xmlns="http://www.w3.org/2000/svg"
   xmlns:svg="http://www.w3.org/2000/svg"><defs
     id="defs1" /><g
     id="layer1"
     transform="translate(378.79077,-88.291853)"><path
       style="fill:none;stroke:#ffdb33;stroke-width:0.264583;stroke-dasharray:none;stroke-opacity:1"
       d="m -324.4393,276.27821 c 0.5226,-1.77619 1.9355,-3.12812 2.0919,-5.02708 0.424,-5.14698 -1.7599,-10.25695 -1.2531,-15.34584 0.3178,-3.1901 1.1358,-6.62409 1.7053,-9.78958 0.2898,-1.61035 0.9543,-3.10673 0.5504,-4.7625 -1.0321,-4.23185 -2.7527,-9.70907 -4.9129,-13.49375 -1.385,-2.42641 -3.6552,-4.34538 -4.8224,-6.87917 -0.9573,-2.07814 -1.059,-4.43247 -1.6746,-6.61458 -1.4123,-5.00542 -3.0519,-10.1955 -4.8332,-15.08125 -0.8121,-2.22757 -2.3157,-4.12349 -3.1109,-6.35 -0.7439,-2.08316 -0.8802,-4.29377 -1.7353,-6.35 -0.8961,-2.15512 -2.3581,-4.00622 -2.7844,-6.35 -0.668,-3.67207 -0.2357,-7.40911 -0.3979,-11.11251 -0.3406,-7.77867 -1.0865,-14.96419 -3.1246,-22.48958 -1.0173,-3.75635 -2.6433,-9.28543 -5.3807,-12.14593 -1.7523,-1.83109 -4.4377,-2.2957 -6.8301,-2.69197 -2.1085,-0.34924 -4.4742,-0.90946 -6.6146,-0.74762 -3.6787,0.27818 -7.0646,1.5626 -10.8479,1.5626 m 67.2041,143.66876 c -0.531,-6.72889 -2.8044,-13.86561 -1.7359,-20.6375 0.9411,-5.96438 5.939,-9.26002 3.845,-15.875 -1.1606,-3.66659 -3.424,-6.6371 -5.8345,-9.525 -2.6089,-3.12559 -5.2864,-6.1348 -8.1808,-8.99482 -2.6914,-2.65937 -6.276,-5.37108 -8.4083,-8.46768 -2.3457,-3.40648 -1.8213,-8.27412 -2.9014,-12.17084 -0.7783,-2.80762 -2.798,-4.77558 -3.7438,-7.40833 -0.8738,-2.43237 -0.7404,-5.16532 -1.3209,-7.67292 -0.5708,-2.466 -1.8494,-4.6857 -2.4378,-7.14375 -2.3149,-9.67007 0.4468,-19.84596 -0.5475,-29.63333 -0.5335,-5.25119 -4.5846,-8.6643 -5.6159,-13.49375 -0.523,-2.44936 -1.4067,-4.92327 -1.7024,-7.40834 -0.2941,-2.47115 0.061,-5.76646 -1.3664,-7.92586 -0.9974,-1.50887 -6.903,-3.83059 -8.7327,-3.66293 -1.6596,0.15205 -3.1036,1.3296 -4.7625,1.39947 -2.3279,0.098 -4.1023,-2.26027 -6.35,-2.61132 -2.4183,-0.3777 -5.1144,1.4091 -7.4083,1.95272 m 96.30831,159.27918 c -0.029,-3.54941 0.1004,-7.67193 -0.8358,-11.1125 -0.81871,-3.00849 -2.58011,-5.68229 -3.39391,-8.73125 -0.6137,-2.29946 -0.3018,-4.95989 -1.0897,-7.14375 -1.1574,-3.20798 -2.8831,-6.31964 -4.1517,-9.525 -0.507,-1.28098 -1.3396,-3.10894 -0.9936,-4.49792 0.4623,-1.85601 2.5126,-2.5366 4.1147,-3.175 4.1926,-1.67062 8.81121,-1.95808 12.96461,-3.9473 2.0103,-0.96283 2.5438,-2.70738 2.6458,-4.78395 0.065,-1.31834 0.121,-3.44809 1.602,-3.98651 2.5647,-0.93242 5.4578,2.73178 7.6584,3.46163 1.5191,0.50381 3.549,-0.6185 5.0271,-0.0715 2.0113,0.74442 3.0897,2.82583 4.7625,4.12063 2.5548,1.9775 5.7024,3.03066 8.4667,4.64511 1.0823,0.63214 2.0286,1.41563 2.8063,2.41413 1.6443,2.1111 2.0472,6.4556 1.1273,8.99563 -0.4968,1.37194 -1.6488,2.47196 -1.7873,3.96875 -0.1771,1.91161 1.2702,3.12155 1.9641,4.7625 1.0178,2.40698 2.18,5.13702 2.7953,7.67292 0.4133,1.70349 0.1514,3.56378 1.4007,4.97808 1.5545,1.75986 4.1499,1.85254 6.2457,2.5213 5.104,1.62876 10.7583,4.74976 15.5998,0.82724 0.8942,-0.72454 1.5603,-1.6692 1.9194,-2.77037 0.8618,-2.64243 0.5605,-7.12347 4.9587,-5.39661 1.6183,0.63538 1.5656,2.64112 1.603,4.07369 0.1098,4.20724 1.2926,8.0445 1.8482,12.17083 m -61.6479,0.52917 c -1.6031,-2.81692 -3.1922,-6.52284 -3.4159,-9.78958 -0.1895,-2.76805 0.9086,-4.89049 -0.045,-7.67292 -1.1788,-3.44149 -4.7502,-8.42804 -3.5341,-12.17083 0.7557,-2.32583 3.3599,-3.6255 4.7474,-5.55626 2.2054,-3.0688 3.2471,-12.28364 9.1263,-7.58206 3.1088,2.48617 8.4458,6.06399 8.6585,10.49248 0.1369,2.84836 -1.5544,5.23437 -0.909,8.20209 0.7304,3.35887 3.0375,6.16162 3.8297,9.525 1.2324,5.23246 -0.01,11.18765 5.3541,14.2875 m 0.2646,0.26458 -0.2646,-0.26458 m 97.8958,0.26458 c -2.3719,-2.98884 -3.5467,-6.51869 -5.7248,-9.52398 -1.9625,-2.70775 -5.5326,-3.85883 -4.3293,-7.93852 2.0468,1.4418 3.0443,3.11723 5.2916,4.28091 2.1325,1.10418 4.4425,1.34799 6.6146,2.23138 1.243,0.5055 2.1921,1.5113 3.4396,2.01665 2.9808,1.20746 6.6347,0.37089 8.9958,-1.69877 3.5484,-3.11021 2.8052,-6.99392 4.3342,-11.0635 0.3047,-0.81087 -0.066,-3.50825 0.7772,-3.75276 1.7956,-0.52047 2.8077,2.2996 4.4147,2.45699 5.0849,0.49803 9.9434,-2.33391 15.0802,-1.49828 2.426,0.39464 3.3655,2.42155 5.2917,3.65985 1.087696,0.69928 2.506496,0.79903 3.704096,1.25086 M -364.6565,276.01358 c 1.0802,-1.16303 1.9033,-2.2816 3.4396,-2.87246 1.9336,-0.74365 4.1334,-0.41534 6.0854,-1.15774 3.3299,-1.26644 6.0202,-3.73537 9.525,-4.65981 3.309,-0.87278 7.1945,-0.12795 10.3187,-1.504 1.1896,-0.52394 2.2489,-1.32569 3.1512,-2.25202 1.4485,-1.4871 2.8374,-3.43111 3.2427,-5.54564 0.5534,-2.88666 -1.0169,-5.89275 -1.3208,-8.73125 -0.3796,-3.54504 0.586,-7.37822 -0.3526,-10.84792 -0.4859,-1.796 -1.6251,-4.09027 -3.6621,-4.43647 -4.79,-0.8141 -6.599,5.09147 -10.3188,6.55172 -4.1354,1.6234 -8.4906,-3.65232 -11.3771,-5.77857 -1.3205,-0.97273 -2.8215,-1.71153 -3.5833,-3.21686 -0.6074,-1.20038 -0.5199,-3.17277 -0.2993,-4.4969 0.271,-1.62537 1.0908,-3.09752 1.2129,-4.7625 0.2246,-3.06105 -0.9568,-7.66244 0.9536,-10.31488 1.6226,-2.25282 4.6485,-2.72297 6.7393,-4.37726 2.5549,-2.02144 3.9812,-6.2331 4.3353,-9.38495 0.6553,-5.83359 -5.1271,-8.76334 -8.1601,-12.7 -1.3641,-1.77061 -1.807,-4.00765 -3.0649,-5.82063 -1.0753,-1.54967 -2.6078,-2.34463 -3.5497,-3.96895 -1.5724,-2.71187 -1.9549,-6.15045 -5.9606,-6.07644 -2.245,0.0415 -2.7733,2.76014 -5.0273,3.06843 -2.2179,0.30336 -3.9591,-0.56432 -6.0854,0.62676 m 29.3687,102.65834 c 2.805,-0.94893 6.1707,-1.28433 8.7313,-2.74097 2.0747,-1.18023 3.7558,-3.3492 5.8208,-4.57448 2.3522,-1.39573 5.3054,-1.97002 6.9721,-4.32724 2.1892,-3.09627 0.4565,-6.52647 -0.014,-9.78856 -1.0178,-7.06261 1.9648,-17.79872 -3.8114,-23.51934 -1.9976,-1.97835 -4.6303,-1.20618 -7.116,-1.09733 -5.1764,0.22666 -10.7599,-0.55241 -12.4921,-6.33959 -1.9972,-6.6723 1.458,-13.64508 4.4681,-19.31458 0.8829,-1.66309 2.5389,-2.71371 2.7077,-4.7625 0.3574,-4.33924 -2.5031,-11.74048 -5.1055,-15.08125 -1.5446,-1.9828 -3.859,-3.72908 -4.9463,-6.08542 -1.172,-2.5401 0.02,-5.30062 -0.1126,-7.9375 -0.071,-1.40428 -1.1313,-2.84369 -1.4804,-4.23333 -0.6699,-2.66653 -0.1813,-6.68911 -1.8229,-8.95766 -1.126,-1.55616 -4.2403,-1.27785 -5.447,0.0222 -0.5971,0.64327 -0.8301,1.79223 -1.7267,2.11279 -2.0003,0.71512 -3.0177,-2.47099 -4.9985,-2.29918 -2.9548,0.25628 -6.5769,4.57924 -8.9959,6.21138 m 48.6834,112.71255 c 1.5814,-3.01564 4.4286,-6.30082 5.3843,-9.525 0.7067,-2.38415 -1.033,-5.17241 -0.8627,-7.67291 0.4098,-6.01879 1.755,-12.52697 0.6473,-18.52084 -0.7942,-4.29794 -3.4533,-9.16539 -5.5697,-12.96437 -2.4442,-4.38755 -7.917,-5.48315 -9.9376,-10.58355 -1.286,-3.24618 -1.7226,-7.38718 -1.2239,-10.84791 0.2674,-1.85545 1.407,-3.64535 1.1169,-5.55625 -1.0601,-6.98302 -5.0747,-12.91256 -7.0067,-19.57917 -0.6469,-2.23199 -0.6812,-4.61225 -1.1811,-6.87917 -0.5471,-2.48143 -1.6296,-4.887 -1.9623,-7.40833 -0.555,-4.20655 -0.492,-7.81449 -1.8031,-11.90625 -1.0121,-3.15897 -1.8615,-6.68379 -4.3282,-8.96808 -6.7322,-6.23434 -14.3387,2.18026 -21.9566,0.76599 m 78.5813,129.64584 c -1.8952,-5.02345 -0.053,-9.47162 -0.275,-14.55208 -0.1733,-3.95716 -1.594,-7.51653 -2.0575,-11.37708 -0.3434,-2.86036 0.077,-5.90239 -0.4362,-8.73125 -0.3955,-2.1777 -1.6999,-4.05123 -2.5558,-6.08542 -0.7968,-1.89356 -0.9023,-4.00562 -1.9115,-5.82083 -1.3841,-2.48936 -3.8703,-3.95101 -5.9921,-5.71896 -1.0325,-0.86026 -1.7274,-1.80894 -2.6573,-2.73729 -2.2905,-2.28644 -5.1776,-3.84718 -7.6625,-5.94742 -0.6866,-0.5803 -2.9785,-2.33635 -2.3386,-3.42835 0.3785,-0.64593 1.5223,-0.37056 2.074,-0.13617 2.0366,0.86522 3.4204,2.66871 5.2917,3.82175 2.0827,1.28335 4.4909,1.86062 6.6145,3.04435 3.8513,2.14678 7.0575,5.33882 11.6417,5.99558 1.0451,0.14972 2.2953,0.24508 3.175,0.22357 0.6521,-0.0159 1.1838,-0.0939 1.8521,-0.22724 2.5448,-0.50758 4.9202,-2.60768 7.4083,-3.42284 2.7143,-0.88921 5.89451,0.0466 8.17351,-2.10687 2.3806,-2.24949 0.1317,-4.05597 0.6523,-6.55702 0.3764,-1.80871 3.6169,-3.00147 5.1971,-3.3375 0.6741,-0.14334 1.1963,-0.10204 1.8521,-0.1031 0.8283,-0.001 1.7377,-0.0684 2.6459,0.14006 2.8041,0.64351 4.929,2.96783 7.6729,3.74907 2.0704,0.5895 4.3905,-0.0798 6.35,0.89992 2.2841,1.14207 3.436,3.35313 5.8208,4.34479 2.5881,1.07622 5.5584,1.07689 7.9375,2.81447 2.1414,1.56392 2.8869,4.37636 4.8495,5.84696 1.1392,0.85365 2.9358,0.0797 4.0594,0.92197 1.8169,1.36209 3.5885,6.15959 4.5887,8.27027 1.4202,2.99677 -1.3461,5.58856 -3.1921,7.67291 -0.8592,0.97011 -2.5531,2.34164 -1.2654,3.60087 0.833,0.81453 2.1194,1.22421 3.1307,1.77246 2.1792,1.18139 6.8361,5.78704 9.0879,2.81324 1.4625,-1.93136 0.3555,-5.80835 2.0638,-7.27808 3.3906,-2.91702 6.9741,0.8228 10.015,1.54585 1.7999,0.42798 3.5634,-0.47642 5.2907,0.64861 3.439,2.23993 2.8717,7.52562 3.985,10.91997 0.7608,2.3193 3.0726,3.27748 4.1323,5.55625 2.0444,4.39627 2.0355,8.7952 4.8483,12.96458 m -100.01251,0 c -0.4598,-3.55963 -0.7157,-7.35079 -1.4989,-10.84791 -0.58,-2.5893 -1.6738,-5.04052 -2.0891,-7.67292 -0.4617,-2.92574 0.1275,-6.18037 -0.7375,-8.99583 -0.9833,-3.20076 -2.0513,-6.41651 -3.2946,-9.525 -0.6929,-1.73242 -1.7148,-3.91031 -1.1833,-5.81982 0.4631,-1.66345 2.2066,-2.23704 3.5117,-3.10947 4.07,-2.72072 9.0718,-3.38429 13.49371,-5.55828 1.7253,-0.84823 4.5772,-1.70019 5.5089,-3.50819 1.1887,-2.30665 -0.3031,-5.39984 2.6934,-6.78709 2.2474,-1.04045 5.7729,2.58939 7.9373,3.33077 2.7086,0.92776 5.294,-0.1836 7.9375,0.42546 2.8838,0.66441 4.6096,3.41823 7.1438,4.7433 2.0278,1.06035 4.5479,0.69761 6.3261,2.31695 1.4005,1.27546 2.2043,3.01844 3.54,4.36563 2.2327,2.25181 5.0427,3.96728 5.3899,7.48407 0.2607,2.6412 -2.2295,4.40516 -2.6969,6.87917 -0.7765,4.11035 1.8593,7.68791 3.6376,11.1125 0.7871,1.51562 1.2553,3.25403 2.6134,4.39359 2.2834,1.91597 5.3706,0.41054 7.9128,0.15046 1.2425,-0.12711 2.4627,0.21896 3.7042,0.21641 1.2152,-0.002 2.2113,-0.21946 2.8867,-1.33251 2.0062,-3.30611 -1.3554,-7.88116 3.9924,-9.10875 5.4665,-1.25483 5.0662,3.19072 6.8288,6.73913 2.0793,4.18607 4.6351,7.98995 6.2173,12.43542 0.8409,2.36274 0.8163,4.81041 1.506,7.14375 m -73.5542,0.52916 c -4.587,-7.88876 -4.8108,-16.70991 -7.415,-25.13541 -1.2445,-4.02634 -3.1291,-9.31035 -0.33,-13.20059 2.103,-2.92258 7.1941,-1.9801 9.5132,-4.13329 1.7052,-1.58322 1.6523,-7.81335 4.3221,-8.05061 4.2471,-0.37741 5.3094,3.32977 8.2077,5.28432 2.3996,1.61833 5.7142,1.7674 8.1878,3.45918 3.0122,2.06022 3.1445,8.55911 2.5627,11.87849 -0.245,1.39765 -0.9579,2.50654 -0.9702,3.96875 -0.034,4.13314 3.8328,7.17987 4.7879,11.1125 0.5346,2.20148 -0.9024,4.88739 0.094,6.87916 2.3004,4.59699 7.5148,2.91977 11.5208,3.84421 2.469,0.56977 4.5687,2.70158 6.6145,4.09329 m -35.1895,0 c -1.9836,-8.65244 -6.026,-17.99725 -5.3144,-26.9875 0.3117,-3.93774 3.8863,-10.06725 8.197,-5.79225 3.3958,3.3676 0.7265,6.58287 1.4252,10.29017 0.4393,2.33101 1.9453,4.07732 2.0081,6.61458 0.069,2.7833 -1.3734,5.68648 -0.6459,8.46667 0.3042,1.16274 1.2246,2.03439 1.9886,2.91042 1.1481,1.31633 1.6564,2.65308 2.3956,4.23333 m -6.35,0.26458 c -1.0372,-3.06271 -1.0994,-6.38533 -1.8223,-9.525 -0.996,-4.32528 -2.6232,-8.27086 -3.3132,-12.7 -0.251,-1.61103 -0.5995,-3.69052 -0.2528,-5.29065 0.2047,-0.94451 0.8656,-2.00401 1.8895,-1.21104 1.9159,1.48386 1.8989,5.87429 2.2103,8.08919 0.9092,6.46508 0.2438,14.98961 3.9343,20.6375 m 34.3958,0 c 2.3567,-1.53941 6.0656,-1.5864 8.4667,0 m 32.5437,0 c -4.8266,-3.25616 -10.986,-7.20879 -13.5476,-12.7 -2.2959,-4.9215 -0.8783,-10.03703 -4.788,-14.55106 -3.3162,-3.82871 -8.8245,-7.22006 -13.6789,-8.81944 -2.5656,-0.84525 -6.5545,-0.8183 -8.7199,-2.43004 -1.5935,-1.18612 -1.9477,-3.39267 -2.5758,-5.15571 -0.8212,-2.30519 -1.9735,-4.81122 -3.6004,-6.60315 -2.8137,-3.09912 -9.139,-3.30875 -12.6206,-5.75836 -1.9508,-1.37252 -3.3676,-2.90419 -4.7931,-4.83641 -1.2808,-1.73598 -2.3896,-3.69841 -4.4673,-4.59386 -4.1941,-1.80757 -9.8266,-1.75915 -14.2875,-2.72669 -6.5143,-1.41288 -13.8253,-7.15584 -20.6375,-3.41712 -4.66981,2.56291 -1.99801,10.46688 -6.87921,11.81499 -2.6358,0.72796 -5.5357,0.0502 -8.2021,-0.0151 -2.5426,-0.0623 -5.4514,0.4298 -7.9375,-0.14393 -1.5917,-0.36732 -2.7274,-1.56551 -4.2333,-2.05624 -1.1562,-0.37676 -2.3636,0.20985 -3.3832,-0.27723 -0.8954,-0.4277 -1.0546,-1.48412 -1.6349,-2.25101 -0.8692,-1.14861 -2.1349,-1.86983 -3.2289,-2.89204 -1.8802,-1.7567 -5.0099,-2.51617 -7.0741,-4.04979 -1.1589,-0.86097 -1.6057,-2.3719 -2.6983,-3.31077 -1.4576,-1.2524 -3.5364,-1.32312 -4.9889,-2.57254 -5.465,-4.70067 -1.8715,-12.12952 -3.7212,-18.16908 -0.6554,-2.14007 -0.9469,-4.62363 -1.9086,-6.61458 -0.7932,-1.64222 -1.8127,-3.07 -2.0085,-5.02709 -0.3832,-3.83026 0.7375,-7.34644 0.9896,-11.1125 0.2868,-4.28496 -0.389,-9.79266 -1.1572,-14.02291 -0.963,-5.30372 -5.8798,-8.51053 -6.8985,-14.02292 -0.5984,-3.23795 0.1534,-6.32473 -0.1678,-9.525 -0.2923,-2.91135 -2.0566,-5.30858 -3.1628,-7.9375 -1.6888,-4.01358 -1.9291,-7.58444 -5.788,-10.37549 -3.2696,-2.364924 -8.2162,-3.479154 -12.1708,-2.462514 -3.5583,0.914744 -6.2312,2.964424 -10.0542,2.254684 m 203.99381,174.36041 c -2.1806,-2.96503 -6.0003,-4.30964 -7.8809,-7.40833 -1.2781,-2.10577 -1.1336,-4.72157 -2.3103,-6.87917 -1.5407,-2.82538 -4.0685,-5.0225 -5.4482,-7.9375 -1.2344,-2.6079 -1.62,-5.84058 -3.6866,-7.92689 -2.6532,-2.67854 -6.4109,-3.92069 -9.5136,-6.02887 -2.7688,-1.88129 -5.3859,-4.46424 -8.4667,-5.94516 -2.6212,-1.26003 -6.1413,-1.52865 -8.455,-3.28667 -1.6686,-1.26786 -1.6248,-3.51965 -2.1008,-5.38741 -0.4684,-1.83826 -1.4409,-3.39493 -2.698,-4.7625 -0.946,-1.02896 -1.8442,-2.21458 -3.1503,-2.71402 -1.8722,-0.7159 -4.2252,-0.007 -6.0854,-0.786 -3.1738,-1.32943 -4.7961,-6.25907 -7.1477,-8.67081 -1.0002,-1.02581 -2.6203,-2.22783 -2.9563,-3.70397 -0.432,-1.89739 2.8434,-3.05611 4.0185,-3.97304 3.319,-2.58975 6.5615,-6.43909 7.8455,-10.57925 1.2482,-4.02513 -0.9211,-9.97 1.3429,-13.49375 3.1568,-4.91342 11.2166,-6.31678 13.2659,-11.90625 1.829,-4.98883 -3.2019,-11.24715 -0.8503,-16.40315 0.8041,-1.76307 3.0056,-2.75657 4.2391,-4.23435 1.885,-2.25845 3.1973,-4.97232 4.7671,-7.40833 1.4226,-2.20756 3.3298,-4.3405 4.2236,-6.87917 2.704,-7.68102 2.0376,-14.53221 1.6892,-22.48958 -0.082,-1.87907 0,-5.94362 2.9,-5.2688 2.3689,0.55178 5.0684,3.67047 5.468,6.06255 0.3423,2.04911 -0.6452,4.33134 -0.9354,6.35 -0.5162,3.59005 -0.5355,7.51065 -0.1103,11.1125 1.6693,14.13909 2.6687,28.86132 11.6905,40.74583 2.2728,2.99396 5.3638,5.04625 7.9632,7.67292 1.9791,1.99985 3.3959,4.70684 5.8219,6.32223 3.249,2.16345 8.0421,3.26121 10.4433,6.37777 2.0102,2.60908 1.3748,5.75451 2.2567,8.73125 1.0972,-0.52426 2.3386,-2.26594 3.5682,-0.9732 1.6684,1.75415 -0.1433,5.65675 0.1923,7.85237 0.2184,1.42901 1.3766,2.53428 1.5372,3.96875 0.1067,0.95225 -0.4463,1.86301 -0.9225,2.64583 -0.7711,1.26746 -2.5572,4.1926 -4.3752,3.73704 -1.9869,-0.49786 -2.6219,-2.82549 -5.0271,-2.16465 -1.6695,0.45872 -2.9179,1.81875 -4.2333,2.87266 -2.9078,2.32965 -6.7632,4.47433 -8.6353,7.72579 -1.2183,2.11586 -1.1308,4.49951 -0.9095,6.87916 0.2815,3.02823 0.9481,6.0929 2.5208,8.73125 1.8186,3.05054 4.5013,5.48675 6.0234,8.73125 1.2542,2.67335 1.0333,5.8947 0.9995,8.73125 -0.011,0.88563 -0.1737,1.51353 -0.1737,2.38125 0,0.78936 0.1381,1.36841 0.1748,2.11667 0.076,1.55031 0.5899,3.4998 1.065,5.02708 0.6025,1.9368 1.3958,4.22625 2.5432,5.82063 1.8396,2.55635 4.8237,4.11293 6.7105,6.61479 m 8.2021,0 c -1.8046,-2.36707 -1.7073,-5.34355 -3.4512,-7.67292 -1.2236,-1.63441 -2.8462,-3.36798 -4.0339,-5.02708 -1.4565,-2.0346 -6.493,-9.99524 -0.1878,-8.25883 0.6315,0.17391 1.2541,0.43671 1.8521,0.70207 2.6332,1.16865 3.4048,3.47481 5.5668,4.98973 2.1041,1.4744 8.6465,3.6029 11.1019,2.54336 2.8159,-1.21511 4.8489,-4.60465 6.7016,-6.8555 0.7422,-0.90167 1.9486,-1.73618 2.283,-2.91041 0.7154,-2.51201 -1.3643,-4.54126 1.3832,-6.76321 1.4801,-1.19703 2.4582,0.5058 3.4354,1.41499 1.047,0.97403 2.4817,1.49366 3.9239,1.32944 3.0079,-0.34254 3.7833,-3.41405 6.35,-4.28416 1.4551,-0.49328 2.8173,0.97653 4.2333,1.07813 1.6502,0.11842 3.1256,-1.26621 4.7625,-1.08875 1.1808,0.12801 2.0088,1.12238 2.9104,1.75593 1.6345,1.14848 3.603496,2.17346 5.291696,3.38263 m -44.979196,25.66458 c -0.9945,-1.09035 -3.8305,-4.32987 -2.0019,-5.88901 3.087,-2.63206 7.6149,3.85333 11.2623,2.03337 2.461,-1.22795 6.4326,-4.68418 7.549,-7.25686 0.7535,-1.73628 0.3896,-4.26151 1.4493,-5.76428 0.6317,-0.89568 1.7584,-1.09376 2.6434,-1.64221 2.7999,-1.7351 6.6237,-3.18464 10.0542,-3.31587 4.8918,-0.18713 7.3532,6.90418 9.4443,10.19319 1.0554,1.65996 2.034996,2.83635 3.520296,3.96875 m -25.929196,7.67292 c 1.6202,-1.81759 1.6161,-4.35054 2.4507,-6.61458 0.5318,-1.44266 1.7071,-2.45425 2.1415,-3.96875 0.4266,-1.48712 0.6238,-4.58818 1.8715,-5.59382 2.1139,-1.70377 4.8313,0.38884 6.1914,1.88965 1.4288,1.57663 2.9274,3.25266 3.657,5.29167 1.2304,3.43856 0.7975,6.20217 3.5317,8.99583 m -15.6105,0 c 1.3996,-2.62527 1.7241,-6.10798 3.4674,-8.43789 0.8694,-1.16199 2.1654,-1.24353 3.4118,-0.53427 0.6951,0.39552 1.2484,0.93426 1.7488,1.56484 0.5566,0.70143 0.9703,1.51013 1.2175,2.38024 0.4651,1.63619 0.2154,3.37474 0.7379,5.02708 m -7.4084,0 c 0.6094,-1.16107 0.7377,-2.94472 1.7351,-3.84238 1.9131,-1.72186 3.1152,2.64523 3.292,3.84238 m -41.0104,-0.26458 c -1.9183,-2.90832 -5.0474,-5.50039 -6.6187,-8.46667 -1.7125,-3.23293 -3.3827,-7.27058 -4.2562,-10.84792 -1.3948,-5.71286 -1.7318,-11.83233 -3.2777,-17.4625 -0.8228,-2.99696 -3.506,-4.55303 -4.9932,-7.14375 -2.0445,-3.56196 0.1739,-7.84258 2.2033,-10.84383 1.0038,-1.4845 5.4174,-4.61222 7.1529,-4.72738 2.6482,-0.17574 4.1391,1.45957 6.6146,-0.44384 3.1345,-2.41008 5.2634,-6.41453 4.6831,-10.44328 -0.2948,-2.04646 -1.7718,-4.26722 -1.4679,-6.34877 0.2179,-1.49253 1.9011,-2.00807 3.107,-1.1645 1.302,0.91074 1.6562,2.75403 2.3835,4.07369 0.835,1.51484 2.0686,2.7027 2.1269,4.49791 0.065,2.00028 -0.9681,4.16313 -1.5654,6.08542 -1.3542,4.35763 -2.479,8.74631 -5.1688,12.43154 -0.8747,1.19841 -2.1544,1.84104 -2.8618,3.17908 -1.5528,2.9367 -2.9049,6.03207 -4.4696,8.99563 -2.035,3.85446 -4.6338,13.33102 0.5874,16.02158 1.736,0.89459 3.6148,-0.3081 5.2912,0.31542 1.6687,0.62064 2.2208,2.59527 3.7083,3.5043 1.4472,0.8844 2.9466,0.18012 4.494,0.43464 2.8534,0.46934 4.6616,3.50851 7.4073,1.10549 1.9728,-1.72653 4.3361,-4.5347 5.0841,-7.09393 0.7753,-2.65291 -0.1,-5.50097 2.5901,-7.14233 1.461,-0.8916 3.1618,-1.01993 4.4873,0.0721 1.4079,1.16001 2.4276,2.77808 4.5083,2.5117 2.9606,-0.37903 3.6628,-3.99528 6.0856,-5.18265 1.7259,-0.84583 3.3109,0.87594 5.0269,0.83377 1.6536,-0.0406 2.8296,-1.64958 4.4979,-1.76777 2.6019,-0.18434 5.850296,2.28903 8.202096,3.26687 m -39.952096,31.75001 c 3.9366,-0.76344 8.2771,-0.2033 11.0082,-3.70519 1.0636,-1.36372 1.0006,-3.23278 1.7649,-4.76148 0.841,-1.68205 2.4516,-2.9303 3.3428,-4.49792 1.1217,-1.97302 0.7449,-3.68942 3.4633,-4.31785 2.5148,-0.58138 4.468,0.43681 6.6146,1.59015 1.2176,0.65425 2.64,1.08438 3.6582,2.02113 4.1842,3.84926 5.1505,9.88048 10.364696,13.14199 m -76.464596,-62.17708 c 1.0265,-1.93465 2.9242,-6.0144 5.2919,-6.82935 2.1611,-0.74386 9.1066,3.63237 9.4999,-0.84378 0.3692,-4.20244 -1.4609,-7.57851 -2.1935,-11.64146 -0.4398,-2.43956 -0.3311,-4.76946 -2.5482,-6.40594 -3.6799,-2.71609 -8.8206,-2.52665 -12.4275,-5.37578 -3.2851,-2.59493 -4.8672,-6.79669 -7.5351,-9.9037 -2.2266,-2.59307 -4.9416,-3.83363 -6.7524,-6.88958 -4.2037,-7.09453 -7.6204,-15.06837 -8.9784,-23.28334 -0.6131,-3.70835 -0.6494,-7.39869 -1.0663,-11.1125 -0.1836,-1.6352 -0.03,-3.57139 -0.8071,-5.02708 -2.128,1.8306 -0.7445,4.70238 -2.1191,6.85549 -0.5186,0.81222 -1.3844,1.32059 -1.8872,2.14422 -1.6751,2.74413 -2.3734,6.08086 -4.2339,8.72737 -1.4884,2.11715 -4.5229,4.9196 -5.1427,7.40834 -0.7813,3.13768 0.4641,6.39233 0.8709,9.525 0.3563,2.74287 -0.041,6.03828 -0.6293,8.73125 -0.8663,3.96347 -4.2358,4.86143 -7.2277,6.90693 -1.084,0.74109 -1.6482,1.92939 -2.6744,2.71096 -1.0317,0.78572 -2.425,0.95076 -2.9539,2.29245 -1.1407,2.89347 1.2633,6.27217 0.7756,9.25633 -0.4226,2.58519 -2.4998,5.26295 -4.2234,7.12007 -0.8557,0.92207 -1.9272,1.6129 -2.1967,2.9341 -0.4706,2.30733 1.5717,5.04949 2.7177,6.87916 1.2979,2.07216 1.8031,4.65204 3.2038,6.61459 1.3164,1.84433 3.338,3.0284 4.501,5.02708 1.2936,2.22326 0.2981,6.45509 2.2298,8.0161 0.8953,0.72356 2.1279,0.6797 3.1145,1.2833 1.6303,0.99729 2.8283,2.45095 4.498,3.41244 1.4143,0.81446 3.0591,1.13295 4.4979,1.92313 2.8032,1.53949 5.1122,3.88095 7.9375,5.38782 2.4118,1.28639 5.5958,1.78482 7.649,3.6121 3.4787,3.09592 3.7974,7.44294 5.7982,11.29011 0.9605,1.84688 2.5164,3.27075 3.6353,5.02708 2.0399,3.20186 3.9525,6.89769 6.3237,9.78959 0.9616,1.17274 4.3126,6.23545 5.9349,6.03887 1.3381,-0.16213 1.3558,-2.15358 1.3493,-3.12846 -0.022,-3.31793 -1.7971,-6.07361 -2.3578,-9.26041 -0.5923,-3.36719 1.3248,-7.15548 0.3342,-10.31875 -0.9717,-3.10324 -4.2957,-5.43047 -5.7022,-8.46667 -1.4383,-3.10501 -1.136,-6.98301 -1.6089,-10.31875 -0.3166,-2.23273 -1.3241,-4.3794 -1.4881,-6.61458 -0.276,-3.76177 0.06,-7.24294 1.9109,-10.58334 1.0443,-1.88488 2.6247,-3.49928 4.6798,-2.91041 m -205.31671,45.50833 c 1.2578,2.91883 4.5372,9.7396 7.9375,10.45697 3.3461,0.70593 5.0421,-6.36917 7.9386,-7.36057 1.9773,-0.67681 4.4936,0.32765 6.6135,-0.19742 2.7753,-0.68737 5.0728,-3.02601 7.9375,-3.37915 2.845,-0.35071 4.8158,2.35546 7.4084,2.11156 3.5172,-0.33087 2.7879,-4.7765 3.3101,-7.18764 0.2757,-1.27311 1.0006,-2.64391 0.856,-3.96875 -0.1564,-1.43291 -1.5605,-3.07255 -3.1039,-2.3298 -1.7736,0.85347 -2.311,3.10175 -4.2372,3.87912 -5.1993,2.09828 -11.8608,0.65324 -17.198,-0.11514 -2.6019,-0.37459 -5.0277,-1.28879 -6.2034,-3.81543 -1.0196,-2.19134 -0.6431,-4.81457 -1.0632,-7.14375 -0.4518,-2.50484 -1.436,-4.8426 -1.6843,-7.40833 -0.5484,-5.66741 1.508,-14.14297 5.5152,-18.25625 1.071,-1.09931 2.1663,-2.16311 3.4357,-3.05885 3.3603,-2.37112 8.8541,-4.48566 10.3267,-8.58282 1.2829,-3.56899 -1.229,-7.98232 -3.9767,-10.01293 -1.6035,-1.18504 -3.5748,-2.04012 -4.9985,-3.50552 -1.4864,-1.53 -1.2807,-4.76073 -3.7329,-5.20654 -3.6405,-0.66185 -4.3627,3.08873 -7.4082,3.96405 -2.5191,0.72405 -5.0845,-0.93484 -7.6729,-0.32031 m 51.3292,34.39583 c -0.6952,2.56154 2.2598,4.67662 3.5192,6.61459 1.4912,2.29451 2.1658,6.57101 2.9792,9.26041 1.9985,6.60704 -0.8692,12.74092 -0.6735,19.31459 0.042,1.40101 2.1186,7.66699 3.941,7.42915 0.97,-0.12659 1.5722,-1.61076 1.8474,-2.40207 0.9411,-2.70621 0.6618,-5.90486 1.1528,-8.73125 0.5659,-3.25683 2.4552,-7.56193 1.9597,-10.84792 -0.3049,-2.02245 -1.8474,-3.53425 -2.7509,-5.29166 -0.8472,-1.64777 -1.2287,-3.49711 -2.2511,-5.02607 -0.9049,-1.35341 -2.2338,-2.08384 -3.3499,-3.1999 -2.1847,-2.18466 -3.9282,-5.24815 -6.3739,-7.11987 m -51.3292,25.66459 c 2.9115,3.24563 1.6767,10.08835 6.0854,12.73777 4.0181,2.41468 9.3972,0.0284 13.4938,-1.21228 1.592,-0.48214 4.2876,-1.76569 3.5066,-3.84849 -1.1426,-3.04689 -7.3794,-0.96328 -9.8566,-1.56505 -3.9563,-0.96111 -6.5015,-4.73021 -8.1202,-8.22862 -1.1746,-2.53861 -1.8875,-5.79311 -5.109,-6.08542 m 96.10591,19.7523 c 1.7152,0.5853 1.0983,-2.94727 0.9184,-3.61271 -1.4889,-5.50952 -2.2799,-10.76312 -1.163,-16.40417 0.2663,-1.34491 3.762,-4.89744 2.0007,-5.66119 -1.78,-0.77182 -9.13561,1.1714 -9.19961,3.28402 -0.059,1.94688 1.6799,3.60573 2.4419,5.28759 1.4128,3.11833 2.0428,6.79821 3.1678,10.05416 0.46601,1.34848 0.3833,6.55737 1.83381,7.0523 m -35.25171,-0.7023 c 1.0543,-1.72103 0.8953,-3.8719 1.2713,-5.82083 0.5631,-2.91949 1.642,-5.98725 1.3468,-8.99583 -0.2912,-2.96715 -2.701,-7.72872 -4.2056,-10.31875 -0.9505,3.21685 1.2261,6.36355 1.5424,9.525 0.3898,3.89654 -0.7611,7.58924 -1.4197,11.37708 -0.3003,1.72725 0.2917,3.17421 1.4648,4.23333 m 139.42091,-1.59279 c 1.1306,0.10109 1.2883,-1.30643 1.1257,-2.11137 -0.4833,-2.3927 -1.4939,-4.78939 -2.1695,-7.14375 -0.8521,-2.96945 -2.0058,-6.18414 -2.3353,-9.26042 -0.3394,-3.16793 0.1614,-6.3557 -0.3116,-9.525 -0.7326,-4.90864 -2.5369,-8.66259 -1.1246,-13.75833 1.2624,-4.55524 4.4398,-3.49965 7.1249,-6.37859 2.0717,-2.22125 2.7612,-5.2904 5.6424,-6.72973 2.583,-1.2903 6.1528,4.14421 6.7826,-0.9146 0.45,-3.61443 -1.1393,-10.50892 -4.6661,-12.28782 -2.69,-1.35682 -6.1243,-0.57727 -8.4428,-2.61602 -1.883,-1.65583 -3.3052,-3.91401 -5.0557,-5.73366 -1.4816,-1.54019 -3.5776,-3.20642 -4.8821,-4.78619 -1.1859,-1.43607 -1.3734,-3.29239 -2.6085,-4.7284 -3.1597,-3.67373 -7.3703,-5.89412 -10.1723,-10.06458 -2.536,-3.77435 -1.8639,-8.25124 -1.9123,-12.43542 -0.015,-1.32771 -0.1696,-3.59439 -1.8552,-3.85687 -2.3109,-0.35986 -6.266,3.97295 -6.7642,5.97354 -1.0056,4.03773 0.836,9.41533 0.8737,13.49375 0.012,1.27646 -0.8495,2.45343 -1.0854,3.70416 -0.6974,3.69629 -1.3225,6.92006 -3.1436,10.31774 -2.0011,3.7337 -8.2878,2.16964 -9.7824,6.35102 -1.1899,3.32863 -0.044,7.4642 -0.9771,10.84792 -0.88,3.19135 -3.7896,4.12499 -3.0703,7.9375 0.4973,2.63553 2.1872,6.56432 3.7493,8.73023 0.8979,1.24501 2.4273,2.03393 3.1509,3.4408 1.6413,3.19075 0.5289,7.01884 3.6054,9.64852 3.1485,2.69127 8.8446,3.45226 12.654,5.13528 2.4385,1.07734 3.2752,3.37043 5.3021,4.89112 2.5236,1.89328 6.0226,2.53094 8.4457,4.50609 3.3443,2.72614 5.1853,8.45126 6.785,12.33129 0.7748,1.87913 2.834,4.81763 5.1173,5.02179 m -19.0355,-168.005124 c 0,2.84308 1.2003,4.0605 2.0883,6.61458 0.4208,1.21049 0.3932,2.52532 0.9305,3.70417 0.8615,1.889904 2.2583,3.411004 2.4915,5.556244 0.4624,4.25221 -0.9207,8.52814 -0.4544,12.7 0.1881,1.68359 2.0577,2.52554 1.9966,4.23333 -0.3006,8.40944 -2.779,16.5675 0.3732,24.87084 1.9382,5.10563 7.4626,7.51711 10.2775,11.90625 0.8518,1.32809 1.6694,2.93475 2.0036,4.49791 0.2244,1.04976 0.021,2.01016 0.7502,2.86143 1.3212,1.543 3.7308,2.003 4.9959,3.75724 1.5329,2.12558 1.5618,5.32387 3.6762,7.05556 1.7669,1.44709 4.1098,-0.15464 6.0605,1.46644 2.3432,1.94718 4.2715,5.2753 6.0789,7.87809 1.8208,2.62213 4.7907,3.24448 6.7824,5.58095 1.5887,1.86382 1.5886,4.53716 2.8085,6.58988 1.2469,2.09804 5.0817,2.76858 5.7118,4.7676 0.336,1.06577 0.091,2.60805 -0.1949,3.69907 -0.8175,3.11353 -3.1072,5.81702 -3.6381,8.99583 -0.4731,2.83314 0.4573,7.03706 -1.1467,9.5105 -1.0651,1.64244 -4.0032,1.15792 -4.9407,2.93942 -1.1822,2.24649 -0.2115,5.30124 -1.5481,7.65842 -1.1879,2.09483 -3.505,3.60002 -5.1465,5.29166 -1.8088,1.8641 -3.1284,4.49349 -1.9797,7.14375 0.3349,0.77279 0.8367,1.49085 1.4711,2.05624 1.5828,1.41053 3.6867,0.42869 5.5316,1.21574 1.7292,0.73774 3.0238,2.22867 4.7625,2.95145 3.4728,1.44364 8.6633,0.91732 10.8732,-2.25489 1.4143,-2.03002 2.3787,-4.68933 2.769,-7.14354 0.2589,-1.62835 0.1312,-3.26614 1.7087,-4.20985 1.9907,-1.1909 6.0382,-1.92764 8.1929,-0.81725 1.3168,0.67861 2.0902,4.12108 3.7054,3.2277 4.1545,-2.29796 1.5737,-9.13002 6.3529,-10.55537 2.914,-0.86908 6.5457,-0.0165 8.6151,2.11259 1.608,1.65435 2.6872,3.89286 4.3733,5.3927 1.357896,1.20775 2.542496,1.67816 4.209496,0.88073 m -180.133496,9.43355 c 1.0721,0.34838 1.2678,-1.36371 1.2607,-2.02521 -0.049,-4.57682 3.3208,-5.41929 5.6226,-8.73227 0.4629,-0.66629 1.4441,-3.10729 0.1286,-3.50533 -1.1493,-0.34773 -3.1276,1.43719 -3.9296,2.05808 -3.465,2.6827 -5.2717,3.01542 -4.6763,7.79827 0.1334,1.07156 0.3474,4.00137 1.594,4.40646 m 83.0314,-161.568964 c -0.9264,4.99014 1.4193,7.58429 3.3232,11.906254 0.8362,1.89808 1.0429,4.01008 2.0914,5.82082 1.3126,2.26706 3.1879,4.06652 4.0153,6.61459 1.4343,4.4173 -0.1207,9.69193 0.7459,14.2875 0.3182,1.68713 0.6497,3.86144 1.6384,5.29166 1.4309,2.06992 3.6564,3.28023 4.3917,5.82084 1.3018,4.49797 1.1095,9.42315 2.428,14.02291 0.8217,2.86653 3.0847,4.90734 3.9124,7.67292 0.3266,1.09101 0.2538,2.38399 0.6678,3.43958 0.4537,1.15669 1.4124,1.73296 1.8517,2.91042 0.5582,1.49614 0.3786,3.4439 1.5034,4.70595 2.1518,2.41434 6.2582,0.66604 8.885,2.32123 2.9857,1.8814 3.8338,5.7284 6.3614,7.99773 2.07,1.85847 5.2687,2.19314 7.3969,3.86382 1.2164,0.95489 2.0595,2.02728 2.8563,3.33627 1.6357,2.68704 2.7661,5.68612 3.5272,8.73126 1.3514,5.40692 1.9812,12.44179 -0.1533,17.72708 -1.158,2.86719 -3.3685,5.10288 -4.5227,7.9375 -1.0635,2.61208 -0.9208,5.73763 -2.3336,8.20208 -1.0996,1.91797 -3.108,3.10471 -4.2209,5.02709 -2.1786,3.76322 -2.4695,9.54189 1.672,12.04406 2.8454,1.71915 6.6176,1.06176 8.5063,-1.72552 1.3466,-1.98735 1.3785,-4.75212 3.0116,-6.55783 1.238,-1.36871 3.2726,-1.14506 4.5727,-2.46658 1.9755,-2.00803 2.7056,-4.17061 5.6052,-5.19756 1.4345,-0.50803 2.5753,0.33467 3.9688,0.0535 2.1118,-0.42609 3.6469,-2.2633 5.8208,-2.68238 4.0058,-0.77221 8.545,-0.012 12.4354,-1.08386 2.6995,-0.74376 4.968796,-2.68369 6.879196,-4.55467 m -48.671696,19.64633 c 3.6367,1.42567 5.5704,-4.47536 6.6744,-6.68174 1.4057,-2.80912 5.3911,-4.39008 6.3418,-7.14397 0.5302,-1.53567 -1.2473,-2.73195 -1.347,-4.23312 -0.169,-2.54731 0.8821,-5.17005 1.2072,-7.67292 0.3217,-2.47687 0.3463,-5.17369 0.3411,-7.67291 0,-0.84656 0.143,-2.09907 -0.8319,-2.48108 -0.7803,-0.30578 -1.4684,0.1676 -1.7002,0.90909 -0.6914,2.21139 -0.6223,4.6064 -1.3456,6.86365 -1.4506,4.5274 -2.8085,9.78726 -4.925,14.02292 -1.4661,2.93414 -3.4963,5.42969 -5.183,8.20209 -0.9761,1.60429 -1.4604,5.01434 0.7682,5.88799 m -18.0033,-1.91924 c 1.0968,-0.91056 1.0962,-2.07788 1.6767,-3.43959 1.2576,-2.94988 2.2978,-6.18886 3.8438,-8.99583 1.712,-3.10824 4.8079,-5.31788 5.8862,-8.73125 0.6169,-1.953 1.4877,-3.68438 2.2371,-5.55625 0.2039,-0.50932 0.3623,-1.2836 -0.237,-1.60834 -0.7466,-0.40449 -1.3036,0.5825 -1.6022,1.0806 -0.9054,1.51036 -1.5241,2.75364 -3.3379,3.22441 -1.658,0.43032 -3.1193,1.28461 -4.7625,1.66119 -1.0892,0.2496 -2.3786,-0.055 -3.4282,0.22417 -1.2233,0.32534 -1.4676,1.65078 -2.2314,2.53415 -1.7365,2.00837 -4.5696,3.09048 -4.8709,6.11298 -0.3176,3.18668 3.5153,5.62889 5.071,7.93751 1.0832,1.60741 1.0736,3.94326 1.7553,5.55625 m 27.6029,-24.23502 c -0.4155,1.44473 -1.0638,3.44416 -1.5606,5.18501 -0.8661,3.03485 -1.4812,6.12163 -2.8437,8.99584 -1.1741,2.47696 -3.2874,5.5909 -2.5611,8.46667 l 2.2539,-4.7625 4.633,-6.6148 0.4226,-6.61437 1.1562,-5.02709 0.2655,-2.38125 m -244.47501,24.34167 h 0.2646 m 172.77301,-82.81459 c -0.5527,1.86974 -0.1312,3.89385 -0.2893,5.82084 -0.1335,1.62688 -1.1986,2.91659 -1.4759,4.49791 -0.2743,1.56486 0.1701,3.22032 -0.2548,4.7625 -1.4484,5.25807 -6.0002,8.62874 -7.7457,13.49376 -1.762,4.91068 -0.2599,9.16409 -0.8667,14.02292 -0.2501,2.00273 -1.8528,3.5547 -2.0397,5.55625 -0.2317,2.48225 1.1485,4.71206 1.2672,7.14375 0.082,1.69148 -0.6865,3.48937 0.2642,5.02708 0.8827,1.42789 2.0323,2.05151 3.1795,3.19868 1.7166,1.71661 3.1829,3.92553 5.5799,4.87663 1.988,0.78883 4.1455,-0.007 6.0854,1.00729 3.4306,1.79451 6.5502,4.97039 9.0304,7.85073 0.8109,0.94179 2.1104,3.22054 3.6408,2.73525 1.8239,-0.57834 1.0202,-4.73209 0.8226,-6.17483 -0.8211,-5.99248 -0.8891,-13.17927 1.6808,-18.78542 0.6941,-1.51424 1.8696,-1.97566 2.8806,-3.20256 1.4206,-1.72416 2.3521,-3.86879 3.954,-5.45213 1.9862,-1.96314 4.6458,-3.08037 6.8304,-4.75209 1.6699,-1.27785 5.4624,0.33795 5.8796,-2.20486 0.2243,-1.36679 -0.6307,-2.79475 -1.6577,-3.58821 -2.5888,-2.00018 -6.5423,-0.55746 -9.2253,-3.07414 -0.7512,-0.70464 -1.3014,-1.58738 -2.1442,-2.1965 -0.9752,-0.70475 -2.1732,-0.71037 -3.0842,-1.563 -1.9041,-1.78206 -3.3027,-4.32957 -5.1377,-6.24159 -1.1376,-1.1853 -2.6989,-1.86551 -3.8963,-3.00066 -1.0877,-1.03124 -1.6376,-2.45789 -2.5699,-3.6076 -1.4353,-1.76999 -3.1717,-3.20491 -4.6235,-5.0375 -2.2737,-2.87027 -2.7406,-9.46778 -6.0845,-11.1125 m 42.3284,77.19078 c 1.2042,0.38899 2.0292,-1.51277 2.5568,-2.31369 1.8922,-2.87198 2.3978,-5.91835 4.8526,-8.46666 0.4297,-0.44613 2.0816,-1.9811 0.9664,-2.55907 -0.7667,-0.39734 -2.071,0.29564 -2.8147,0.51631 -2.6536,0.78744 -4.4061,1.7386 -6.4623,3.59841 -1.253,1.13344 -3.5216,1.65755 -4.338,3.21828 -1.2233,2.33837 3.416,5.41743 5.2392,6.00642 m 4.2382,-11.04494 -7.9375,5.55625 c 1.0161,1.28201 3.5671,2.28733 4.9124,0.9436 0.7537,-0.75286 0.589,-1.89629 1.1449,-2.79568 0.8053,-1.30312 2.1883,-2.03197 1.8802,-3.70417 m -218.81041,5.29167 c 1.9798,-0.0863 4.4609,-0.62461 5.6283,-2.38534 1.859,-2.80381 0.6785,-7.39889 1.9821,-10.57924 1.962,-4.7862 8.0523,-8.51207 8.5045,-14.02292 0.3423,-4.17278 0.062,-6.93973 -3.9441,-8.80903 -1.0278,-0.47955 -2.2902,-1.23185 -3.4289,-0.66473 -1.1446,0.57003 -1.7054,1.95021 -2.6671,2.75893 -2.009,1.6894 -4.4613,3.05903 -6.604,4.59816 M -189.23859,88.424026 c -0.4566,0.59457 -0.9181,1.18874 -1.2733,1.85248 -2.2968,4.29201 2.6204,5.23568 4.4565,7.94771 1.1719,1.73107 1.3883,4.055924 2.5182,5.810224 1.5588,2.42012 3.7902,3.743 5.467,6.08541 3.2145,4.49033 1.3248,11.03239 2.8315,16.13959 1.3965,4.73388 6.3161,7.00467 8.3899,11.1125 1.5344,3.03952 0.2674,6.35739 0.6894,9.525 0.2038,1.5293 1.537,2.3873 2.1695,3.70416 2.5622,5.33416 -3.0275,11.98989 1.2374,16.66774 3.8193,4.18914 12.0588,6.69135 17.4347,8.16288 2.8139,0.77021 5.7588,0.83842 8.1983,2.63011 1.8449,1.35502 2.9576,3.57932 3.8909,5.61219 2.0961,4.5655 5.6026,11.30965 5.3627,16.40417 -0.2237,4.75215 -2.9994,8.78579 -2.6589,13.75834 0.1052,1.53492 0.4746,3.24454 0.1513,4.7625 -0.3924,1.84254 -2.6258,4.76584 -0.8372,6.49984 2.2707,2.20147 7.9625,-0.76536 10.4992,-1.29678 3.9973,-0.83741 8.0165,1.37586 11.9062,0.43668 2.0261,-0.48921 3.4059,-2.3464 5.0271,-3.42712 2.0573,-1.37138 4.654096,-1.94119 7.143796,-1.94804 m -99.737296,6.12197 c 1.9618,0.80608 3.6808,-1.50772 4.0829,-3.21155 0.636,-2.69505 -0.057,-5.50525 0.4955,-8.20208 0.2381,-1.16181 1.2129,-1.83762 1.6015,-2.91042 0.4154,-1.14656 -0.071,-2.30986 0.8034,-3.32342 0.767,-0.88957 1.8864,-1.4294 2.672,-2.28162 1.083,-1.17493 1.5804,-2.65972 2.6419,-3.87484 0.7434,-0.85093 1.8298,-1.4218 2.3574,-2.45005 1.2063,-2.35083 0.8904,-8.32087 -0.9634,-10.24607 -1.5039,-1.56181 -3.7665,-2.18911 -5.4997,-3.43265 -1.5098,-1.0832 -2.708,-2.71167 -4.2334,-3.81686 -1.4164,-1.02628 -3.1371,-1.78415 -4.4938,-2.7969 -1.5254,-1.13867 -2.5682,-3.0749 -3.361,-4.81926 -0.3515,-0.77353 -0.5872,-2.23296 -1.4648,-2.59929 -1.7012,-0.71013 -3.5619,3.84112 -4.0616,4.98054 -1.2154,2.77125 -3.2275,4.94784 -4.3787,7.67292 -1.2209,2.89009 -1.5297,6.24112 -2.3855,9.26042 -0.7793,2.7492 -0.3983,4.91511 -0.5196,7.67291 -0.248,5.63877 -1.052,13.46133 3.9973,17.32144 2.1455,1.64015 4.4388,-0.64358 6.6136,0.81131 2.2842,1.52808 3.7195,5.26901 6.096,6.24547 m -1.0544,-6.14483 c 1.6215,0.74351 2.4587,-2.07978 2.7799,-3.15214 0.5715,-1.90759 0.084,-3.70681 0.4541,-5.55625 0.3863,-1.93144 1.8496,-4.82607 2.8473,-6.61458 1.0129,-1.81585 2.8404,-2.58617 3.8622,-4.24477 4.5895,-7.44987 -5.1228,-8.99494 -9.1526,-12.97703 -1.7509,-1.73005 -2.1838,-5.80434 -4.7856,-6.68502 -2.1576,-0.73029 -3.3566,1.72557 -3.9745,3.26932 -0.5046,1.26069 -1.3863,2.36721 -1.6949,3.70417 -0.5993,2.59707 -0.1934,5.33254 -0.8937,7.9375 -0.5189,1.93008 -0.8765,3.85566 -0.6448,5.82083 0.09,0.76354 0.075,1.36875 0.076,2.11667 0,0.6728 -2e-4,1.20985 0,1.85208 0,1.19168 -0.084,2.74872 1.0871,3.54043 1.2021,0.81244 2.2265,-0.45476 3.4108,-0.59571 1.4733,-0.17535 2.7328,1.26344 3.4925,2.34695 1.3575,1.93609 1.6098,4.09429 1.9115,6.35 0.1361,1.01789 0.1314,2.38607 1.2251,2.88755 m 15.3314,-130.416724 c -1.438,1.09947 -2.7761,2.56418 -1.8048,4.4977 0.7085,1.4102 2.2668,2.07916 3.2522,3.22115 0.998,1.15652 1.3804,2.49209 2.3804,3.63435 0.9979,1.139694 2.5248,2.164764 3.8451,2.983514 2.6882,1.66699 5.8669,3.17144 7.7288,5.77162 1.8615,2.5996 1.2932,6.06912 1.6428,8.99583 0.1,0.83456 0.023,1.3225 0.01,2.11667 -0.013,0.71444 0.1082,1.24206 0.134,1.85208 0.04,0.93935 -0.027,2.21174 0.3035,3.175 1.1698,3.41003 5.3534,3.96814 6.2582,7.67292 0.7155,2.92965 0.059,6.05696 0.3738,8.99583 0.3496,3.2638 1.5415,6.3387 0.8907,9.78959 -0.6276,3.32797 -3.579,8.54559 -1.0536,11.59573 2.5237,3.04819 6.554,1.37068 9.9065,1.37089 2.7943,1.8e-4 4.8015,1.7132 7.4084,2.27591 2.5005,0.53974 5.1459,-0.17415 7.6729,0.46833 1.522,0.38697 2.6031,1.61768 3.5812,2.80997 1.9025,2.31895 3.3409,4.8307 5.2652,7.14375 1.545,1.85721 3.285,3.59142 4.3001,5.82084 2.9014,6.37244 1.0741,17.3991 -1.2043,23.8125 -0.7968,2.24281 -5.5082,7.06682 -3.1718,9.14956 1.2151,1.0832 3.0004,0.96744 4.4587,1.46134 2.1007,0.71143 4.036,2.22555 6.35,2.06337 2.3482,-0.16457 4.233,-2.08505 6.0855,-3.31995 3.364,-2.24248 7.1276,-4.06431 10.583296,-6.17932 m -281.781206,7.67291 c 2.7824,-4.43577 8.4062,-8.17321 9.941,-13.22916 0.6045,-1.99109 -0.9068,-3.21333 -2.7973,-2.70239 -2.7296,0.73772 -4.9176,2.6092 -6.8791,4.55447 m 242.44591,11.48238 c 0,0 0.6564,-2.57163 0.905,-3.05195 0.9493,-1.83449 0.8595,0.30496 0.8595,0.30496 m 37.306196,-21.43539 c -3.279196,-2.61727 -6.767696,2.2819 -10.258496,-1.6122 -2.0944,-2.33636 -1.307,-6.6369 -2.1097,-9.5003 -1.3677,-4.87835 -4.1347,-8.93067 -7.3643,-12.7 -1.189,-1.38778 -3.7501,-4.98676 -5.9176,-4.64981 -3.3849,0.52623 -0.3185,7.06181 0.6413,8.35397 1.5022,2.02242 3.4007,3.81426 4.5363,6.08542 2.3007,4.60147 2.9187,12.12573 2.436,17.19792 -0.347,3.64534 -0.7989,7.30961 -1.8072,10.84792 -0.4725,1.65787 -1.0704,4.0142 0.1727,5.49582 1.1781,1.40408 3.5977,0.99018 5.1189,0.49446 4.4024,-1.43461 9.1402,-3.93943 12.964596,-6.51945 m -98.679996,3.34813 c 1.8086,0.0272 2.7904,-5.20016 3.5127,-6.52313 0.727,-1.33157 2.1534,-2.5439 2.6209,-3.96875 0.608,-1.85287 -1.4188,-5.19202 -2.9692,-6.00131 -1.3684,-0.71433 -3.1798,-0.13258 -4.4691,-1.03751 -1.6118,-1.13129 -1.4818,-4.14654 -3.9914,-3.96711 -1.8476,0.13209 -1.1169,2.40574 -1.5138,3.5976 -0.5427,1.62967 -1.8178,2.65415 -1.6365,4.49791 0.2046,2.08054 2.0451,2.30639 3.3504,3.54268 1.1313,1.07158 2.2251,3.33719 3.04,4.65941 0.6831,1.10837 0.4668,5.17635 2.056,5.20021 M -378.4141,97.155276 c 1.2269,1.38784 2.141,1.51897 3.9687,1.15654 2.6586,-0.52721 5.3084,-2.86788 7.9375,-2.9137 1.7158,-0.0299 3.6986,0.90846 5.2917,1.47931 5.4584,1.956 10.275,4.870004 13.1465,10.067434 3.1781,5.75262 3.4069,13.74811 5.0791,20.10833 1.2666,4.81744 3.8606,9.05258 5.4095,13.75834 1.4737,4.47722 2.0459,10.12165 2.5135,14.81666 0.2315,2.324 -0.9514,4.33568 -0.9989,6.61459 -0.054,2.58051 1.1717,5.11938 1.4977,7.67291 0.5487,4.29938 0.079,9.09688 1.5434,13.22917 1.0994,3.1032 4.1825,5.17521 6.1493,7.67292 2.1202,2.69255 3.549,7.00418 6.1658,9.14956 1.4617,1.19837 3.8412,1.36342 5.5316,2.27489 4.4954,2.42405 8.6637,3.99296 13.4937,5.59708 2.176,0.72269 4.5722,1.90942 6.8792,2.01785 4.899,0.23026 5.2684,-4.51375 8.7315,-6.60172 2.1184,-1.27729 5.29841,-0.52107 7.67271,-1.27311 1.5661,-0.49607 2.6009,-1.86853 3.9687,-2.70033 1.4911,-0.9068 3.3304,-1.06323 5.0271,-1.24391 5.5469,-0.59066 7.8034,5.44075 12.7,6.43758 4.3833,0.89234 4.9112,-3.07705 7.4198,-5.40681 3.6555,-3.39492 8.2833,-4.79316 11.3848,-9.04483 3.6057,-4.94286 -0.078,-11.78205 3.1911,-16.93334 3.3481,-5.27589 12.4772,-4.64578 13.9833,-11.64166 0.6705,-3.11419 -1.4078,-5.3812 -2.2083,-8.20209 -0.3626,-1.27783 -0.1313,-2.66274 -0.4438,-3.96875 -0.3427,-1.43181 -1.515,-3.03914 -0.7756,-4.49404 0.978,-1.92428 3.7813,-2.05364 5.2276,-3.50001 2.24,-2.24026 2.9933,-6.34693 5.0846,-8.93827 2.462,-3.05067 6.3424,-3.70134 7.2313,-7.93851 0.8017,-3.82086 1.2376,-8.57209 0.5423,-12.43542 -1.0486,-5.82636 -4.3638,-11.34103 -3.4617,-17.462504 0.3221,-2.18485 1.5559,-4.16525 2.5663,-6.08541 M -97.426594,200.60736 c 0.4918,-0.92658 0.7954,-2.23544 -0.3251,-2.90205 -1.5506,-0.9226 -3.966296,1.04824 -5.759096,0.72476 -2.751,-0.49637 -3.1583,-6.88405 -7.3704,-4.38993 -1.2284,0.72742 -0.6699,2.25595 -0.592,3.39222 0.1634,2.38733 0.042,4.7562 0.2684,7.14375 0.1007,1.05897 0.1978,2.33386 1.3572,2.7765 1.2238,0.46718 2.4168,-0.81216 3.4251,-1.36028 2.0484,-1.11347 5.1224,-1.93284 7.408396,-2.47455 m -279.664606,2.64583 0.2646,-0.26458 m 180.79331,-1.35905 c 2.0143,1.06764 2.3665,-4.18891 2.2734,-5.25553 -0.2393,-2.74309 -2.7263,-1.95144 -4.0159,-3.73296 -0.6653,-0.91908 -0.5884,-2.54373 -1.7972,-3.02291 -1.4472,-0.57372 -1.7023,1.90598 -1.486,2.78712 0.591,2.40735 3.4062,3.76332 4.107,6.35 0.2126,0.78503 0.1061,2.44357 0.9187,2.87428 M -377.6204,88.424026 c 0.012,1.46875 -0.01,4.39454 1.8562,4.8111 1.0288,0.22966 2.1877,-0.74118 3.1709,-0.96689 1.6538,-0.37963 3.5974,-0.40463 5.2917,-0.40463 3.6524,0 6.0422,1.42372 9.2604,2.90309 4.2019,1.93154 8.7277,3.42568 10.765,7.944834 3.7059,8.22046 5.4387,16.56436 7.9975,25.13541 0.5003,1.67556 1.5982,3.08502 2.132,4.7625 1.572,4.93988 2.4144,10.25143 3.3349,15.34584 1.5019,8.31235 0.08,17.96137 2.903,25.92916 0.7348,2.0738 2.2989,3.58862 3.5862,5.29167 1.4611,1.93308 2.6088,4.12381 4.0684,6.08542 5.5924,7.51584 13.149,11.39312 21.8338,14.2875 2.7668,0.92208 6.2997,2.51223 9.2604,2.32491 2.2882,-0.14478 4.365,-1.53253 6.6146,-1.93742 2.55391,-0.45966 5.19771,-0.075 7.67291,-1.03936 3.2077,-1.24969 6.1146,-3.15403 9.525,-3.84503 3.6116,-0.73175 6.3202,1.5514 9.7896,1.53892 3.075,-0.0111 4.8819,-2.65004 7.4083,-3.92139 1.8259,-0.91881 3.8933,-0.7314 5.5324,-2.0395 1.9897,-1.58793 2.8866,-4.54451 3.5749,-6.95613 0.7122,-2.49488 2.2197,-4.6663 2.8255,-7.14375 0.7208,-2.94749 0.6939,-7.17793 2.3172,-9.77917 0.9687,-1.55239 2.9747,-3.55731 4.5355,-4.50691 1.618,-0.98446 3.1869,-0.82238 3.8515,-2.91204 1.3217,-4.15581 2.1855,-9.8444 -1.2304,-13.20121 -1.3316,-1.30857 -3.6614,-1.45866 -4.8297,-2.77771 -1.2579,-1.42021 -0.4163,-3.66011 -1.6315,-5.1312 -0.7153,-0.86583 -1.9229,-1.19969 -2.7286,-1.96477 -1.9417,-1.8438 -2.6325,-3.66606 -5.3376,-4.68882 -1.8207,-0.68839 -4.1308,-0.33338 -5.8206,-1.15978 -1.4457,-0.70703 -2.1878,-2.26842 -3.4408,-3.25135 -1.8484,-1.45001 -5.572,-2.39972 -7.9365,-2.61176 -2.288,-0.20515 -2.5916,2.45216 -3.8083,3.77399 -1.2597,1.36862 -3.3607,1.44207 -4.923,2.31307 -0.8236,0.45925 -1.6437,1.32726 -2.6458,1.3272 -1.8864,-1.1e-4 -3.6193,-2.69528 -5.0271,-3.71865 -2.2031,-1.60152 -4.7245,-2.10827 -7.40831,-2.39474 -2.1803,-0.2327 -3.7974,1.37305 -5.8208,1.86149 -5.1575,1.24491 -12.5458,2.38601 -17.7271,0.99708 -6.2777,-1.68285 -10.0697,-10.03689 -9.181,-16.20389 0.4208,-2.92016 2.3041,-5.52523 2.5417,-8.46667 0.4296,-5.319274 -1.1432,-9.965344 0.8184,-15.081254 m -64.0291,109.802094 0.2646,-0.26458 m 86.2541,-1.97479 c 4.3885,0.38403 8.0974,-2.00667 12.17091,-3.08292 4.214,-1.11338 8.6989,-2.87643 12.9645,-3.58739 2.1715,-0.36192 4.4317,0.12166 6.6146,-0.16272 4.2549,-0.55429 10.4788,-3.39558 13.0883,-6.8028 2.4262,-3.16778 3.6854,-7.19245 4.0647,-11.1123 0.2574,-2.65925 0.018,-6.27041 1.1018,-8.72738 1.1051,-2.50661 4.0152,-2.12557 6.0828,-3.28932 1.5555,-0.87548 1.6252,-2.40724 2.3229,-3.8583 1.1025,-2.29327 3.4,-3.61266 1.6514,-6.34592 -1.2049,-1.88333 -3.37,-0.90753 -4.5486,-2.42453 -1.5909,-2.04782 -1.948,-4.82685 -3.5704,-6.82935 -1.5941,-1.9675 -4.0124,-1.49265 -5.9054,-2.74731 -2.091,-1.38596 -3.2994,-3.26372 -5.2916,-4.79619 -1.5843,-1.21865 -3.5205,-1.51347 -5.2917,-2.34225 -1.1578,-0.54174 -2.3583,-1.74771 -3.7042,-1.6814 -1.7349,0.0855 -3.2545,1.82447 -4.4979,2.8455 -1.8541,1.52256 -4.1232,2.70842 -6.6146,2.59805 -3.5038,-0.15523 -7.7482,-1.46309 -11.1125,-2.46964 -1.96031,-0.58651 -3.71841,-1.54609 -5.82081,-1.46092 -2.5967,0.10517 -4.9104,1.43932 -7.4083,1.96905 -3.7527,0.7958 -11.2419,1.02616 -14.8167,-0.37278 -2.8307,-1.10775 -6.3672,-3.47239 -7.935,-6.10481 -0.8762,-1.47109 -0.6398,-3.40559 -1.0343,-5.02709 -0.5794,-2.38144 -1.6091,-4.45118 -2.1473,-6.87917 -0.5434,-2.45153 -2.5362,-4.25035 -4.1547,-6.0844 -0.5612,-0.63591 -1.233,-1.62362 -2.1914,-1.62362 -2.1782,0 -4.296,4.46852 -5.6012,5.84533 -1.2675,1.33706 -4.4268,1.51848 -5.0869,3.19725 -0.5292,1.34587 0.048,3.14137 0.3167,4.48628 0.4553,2.2771 0.7394,4.75694 1.7261,6.87917 0.7473,1.60729 2.144,2.85413 2.7875,4.49791 1.071,2.73594 0.5489,5.9039 1.4511,8.73125 1.4358,4.49925 3.1285,8.70486 3.3382,13.49375 0.2009,4.59006 -1.0895,9.53168 0.2086,14.02292 0.6728,2.32784 2.3861,4.19323 3.4373,6.35 1.1488,2.35698 1.863,5.15184 3.6319,7.09782 1.8618,2.0481 4.6421,2.79797 6.7451,4.63 1.899,1.65439 2.987,4.06509 5.0414,5.56585 1.4584,1.06541 3.3673,1.41936 5.0231,2.07481 4.4309,1.75392 8.1892,3.10967 12.9646,3.52757 m -6.35,-6.34061 c 3.0849,0.44193 6.411,0.11331 9.525,0.11331 1.6721,0 3.6797,0.2953 5.2915,-0.21273 1.67861,-0.52909 1.83561,-2.4638 3.44491,-2.88163 2.2368,-0.58076 4.7704,0.53586 6.873,-0.27703 1.4976,-0.57898 2.0869,-2.24887 3.7052,-2.69851 3.247,-0.90213 7.0748,0.23496 10.3188,-0.34032 3.0282,-0.53704 7.0801,-4.31309 9.2489,-6.33857 3.368,-3.14532 3.8922,-10.80582 4.566,-15.03246 0.3512,-2.20392 2.3935,-2.93795 2.9679,-5.02708 1.6133,-5.86735 0.2,-11.90141 -3.8419,-16.13571 -2.9566,-3.09721 -7.4063,-6.00723 -10.8243,-8.59447 -1.0928,-0.82724 -2.5546,-1.4348 -3.9685,-1.08794 -1.8275,0.44836 -2.7106,2.35036 -3.9794,3.56841 -1.5649,1.50239 -3.6651,2.23192 -5.8104,2.38228 -3.8401,0.26914 -8.0113,-0.70188 -11.6417,-1.92253 -2.00401,-0.67381 -3.92181,-1.90025 -6.08541,-1.99458 -2.0949,-0.0913 -3.7863,1.62991 -5.8208,2.01949 -5.936,1.13667 -11.9278,1.22224 -17.7271,-0.65716 -4.4193,-1.43219 -9.4458,-4.48177 -11.4024,-8.79863 -1.2946,-2.8563 -0.776,-9.93035 -5.0018,-10.5178 -2.8984,-0.40292 -3.9059,3.93256 -4.2543,6.01989 -0.6044,3.62083 1.4963,6.48881 2.5721,9.78958 0.8583,2.63335 0.8119,5.48728 1.2682,8.20208 0.6134,3.64955 0.9477,7.53389 1.8635,11.1125 0.619,2.41862 2.0221,4.68231 2.4331,7.14375 0.6174,3.69706 -0.3619,7.55915 1.2272,11.1125 2.8267,6.32081 8.2164,11.09289 13.6756,15.11187 3.432,2.52648 7.0671,5.32406 11.3771,5.94149 M -177.85999,88.424026 c -0.3635,0.51107 -0.7171,1.0061 -0.9623,1.58874 -1.7686,4.20068 3.4228,4.12189 5.7248,5.72671 1.9468,1.35717 3.7555,3.8336 5.8209,5.060564 3.291,1.95508 6.7279,1.99246 9.5211,4.82292 0.8729,0.8845 1.5724,1.73442 2.0217,2.9094 1.4602,3.81866 1.8139,8.02969 3.1924,11.90625 1.808,5.08462 4.9461,10.04039 4.5557,15.61042 -0.4292,6.12331 -4.8298,12.1071 -2.3823,18.25625 0.3549,0.89178 0.2052,2.03565 0.9334,2.73872 1.5518,1.49827 4.5228,1.08683 6.4996,1.27494 4.9762,0.47356 8.9254,3.78554 14.0229,3.05067 2.9471,-0.42484 4.9068,-4.28021 7.673,-3.82809 1.4569,0.23814 2.6122,1.49784 3.7041,2.43331 3.5571,3.04751 4.651,6.34379 7.0019,10.20545 1.2258,2.01351 2.8994,3.46888 3.5394,5.82083 0.8314,3.05542 -0.1252,9.78933 2.7128,11.70986 2.0925,1.41599 5.247796,-0.89681 7.383396,-1.39111 m -193.410406,0.91706 c 2.0233,0.42634 2.7613,-1.64954 4.4979,-2.12524 1.7698,-0.48476 3.81031,0.003 5.55631,-0.56428 2.4351,-0.79071 4.8397,-2.56642 7.1437,-3.71846 1.3823,-0.69113 2.8503,-1.65013 4.2334,-1.86107 0.7849,-0.11972 1.5223,-0.0563 2.3812,-0.0563 3.3818,0 8.1263,-0.81229 10.8232,-3.05129 2.6922,-2.23512 4.2401,-7.20485 5.433,-10.44246 1.1946,-3.24252 0.8849,-7.4307 1.2522,-10.84792 0.2966,-2.75852 1.288,-5.16059 0.2307,-7.9375 -0.8971,-2.35637 -3.1182,-3.89909 -4.6557,-5.82083 -1.5179,-1.89734 -3.5909,-5.5927 -6.2042,-5.96558 -2.6847,-0.38307 -5.106,4.43537 -6.8906,5.85473 -2.5716,2.04521 -6.4216,0.58095 -9.248,2.04316 -1.4851,0.7683 -2.1838,2.80604 -3.9698,3.0227 -1.5601,0.18928 -2.7995,-1.26308 -3.96871,-2.01703 -1.892,-1.2201 -4.0795,-1.22139 -6.0844,-2.13627 -1.0413,-0.47515 -1.5934,-1.74772 -2.6744,-2.04032 -1.7331,-0.46908 -4.2989,0.36337 -6.0579,0.59715 -4.2505,0.56494 -11.3179,1.85456 -15.3458,0.14413 -2.5894,-1.09957 -7.5603,-3.63734 -9.1481,-5.8633 -0.5411,-0.75848 -1.931,-3.17358 -3.1728,-2.58867 -1.6662,0.78484 -0.7588,4.77455 -0.3726,6.03888 0.8213,2.68843 -0.3895,4.51259 -0.2425,7.14375 0.1296,2.31943 1.5594,4.68141 2.2616,6.87917 0.8209,2.56932 2.1296,5.05974 2.7634,7.67291 0.5888,2.42732 0.2996,4.85975 1.5349,7.14375 2.5055,4.63281 7.1596,8.19183 10.874,11.90626 2.4689,2.46891 4.9301,5.82112 8.2021,7.22725 2.1308,0.91571 2.7794,-1.15737 4.7625,-1.03731 2.2205,0.13444 3.9529,1.95069 6.0854,2.40003 m -88.3708,-0.12331 h 0.2646 m 88.1062,-4.40217 c 2.5329,0.728 3.8963,-0.78842 6.0854,-1.58075 1.55511,-0.56287 3.30631,-0.6028 4.76251,-1.44808 3.8028,-2.2073 6.6728,-5.42263 10.8479,-7.30319 2.337,-1.0526 5.7948,0.18295 7.6615,-1.25555 1.3645,-1.05145 1.6174,-2.82699 2.7606,-4.03163 1.2905,-1.35989 3.4036,-1.79012 3.9786,-3.79113 0.5591,-1.94621 -0.1453,-4.37921 -0.3328,-6.35 -0.2081,-2.1865 0.3792,-4.47513 0.1233,-6.61458 -0.2784,-2.32776 -1.6586,-4.33704 -2.1259,-6.61459 -0.2986,-1.45543 -0.9464,-5.92246 -2.8163,-6.183 -0.9479,-0.13208 -1.7852,1.10198 -2.3698,1.68509 -1.7077,1.70346 -3.1977,3.38504 -5.0281,4.99176 -2.1305,1.87018 -4.416,-0.0751 -6.6136,0.72434 -2.2629,0.82329 -3.0972,3.14566 -5.5562,3.7944 -4.86751,1.28417 -9.15221,-3.08258 -13.75831,-3.64088 -2.5399,-0.30784 -4.8909,0.88873 -7.4084,0.99913 -2.1226,0.0931 -4.5785,-0.83691 -6.6146,-0.37687 -2.71,0.61233 -3.8678,2.55183 -6.8791,1.7988 -4.2344,-1.05886 -5.6022,-3.36417 -7.3163,-6.96267 -0.3628,-0.76161 -1.2425,-1.58207 -2.1256,-1.05098 -1.0937,0.65768 -0.8751,2.61247 -0.8769,3.69172 -0.01,3.63026 1.8387,6.26799 2.3466,9.78958 0.4797,3.32619 1.3219,8.35218 3.3446,11.10841 1.8179,2.47709 4.7825,3.62553 6.5603,6.35409 2.0667,3.17197 4.1673,7.47778 7.5923,9.28166 2.2638,1.19234 4.7812,-0.24783 7.1437,0.096 2.5814,0.37561 4.2221,2.20132 6.6146,2.88898 m -2.3812,-4.70698 c 7.8317,1.12148 8.8011,-7.76541 10.64921,-13.11586 0.5268,-1.52509 1.7939,-2.50362 1.7717,-4.23333 -0.099,-7.67007 -8.23991,-11.1458 -14.80221,-12.09142 -5.7278,-0.82538 -10.6202,4.26318 -16.1396,3.57575 -1.6949,-0.21109 -4.9339,-3.28168 -6.3026,-0.97014 -1.0056,1.69838 -0.7048,7.2308 0.5422,8.68144 1.3414,1.56045 3.445,2.28275 4.8873,3.76358 2.5026,2.56961 2.8491,6.39943 5.1934,8.89824 2.0987,2.23698 4.8485,2.35798 7.586,3.19848 2.2936,0.70424 4.1873,1.94569 6.6146,2.29326 m 13.02501,-3.18357 c 0.9882,0.27951 2.3388,-1.27868 3.1145,-1.7496 2.7084,-1.64414 5.4826,-2.49074 8.0498,-4.3199 1.1345,-0.80829 2.6484,-0.0887 3.8563,-0.69514 0.985,-0.49452 1.5468,-1.51199 2.4264,-2.14158 1.8142,-1.29866 4.0986,-1.82553 4.9736,-4.20107 0.9171,-2.49017 -0.3882,-6.74118 -0.9573,-9.26042 -0.6082,-2.69223 -0.5528,-5.19812 -0.6255,-7.9375 -0.022,-0.81848 -0.086,-2.19932 -1.0896,-2.44698 -1.6754,-0.41329 -4.3912,4.57715 -5.7857,5.47683 -2.4574,1.58532 -4.5684,0.0212 -6.8792,0.87174 -0.7203,0.26508 -1.244,0.84268 -1.8521,1.28351 -0.8475,0.61437 -2.0074,0.85523 -2.6231,1.75062 -2.0856,3.0327 -0.5591,7.6679 -1.4385,11.05595 -0.8069,3.10852 -1.6694,6.00862 -1.9789,9.26042 -0.079,0.82763 -0.2759,2.74619 0.8093,3.05312 m -11.43751,-23.95521 c -1.6328,3.11167 3.3489,7.95034 3.9085,11.1125 0.2452,1.38541 0.2304,3.10282 -0.5835,4.23334 -1.0885,1.51191 -1.9857,2.61825 -2.5207,4.49791 -0.3753,1.31895 -0.4605,3.6428 1.3164,4.03449 1.7543,0.38672 2.513,-2.3156 2.9061,-3.50532 1.2665,-3.83263 5.02511,-9.18233 3.75631,-13.22917 -1.2285,-3.91832 -5.95851,-4.82886 -8.78311,-7.14375 m -87.5771,22.75417 0.2646,-0.26458 m 82.2854,-1.72756 c 3.7029,0.84383 3.9519,-2.31703 5.3521,-4.61203 0.7899,-1.29478 2.5027,-2.05273 2.6526,-3.71458 0.1235,-1.37041 -1.0814,-2.48582 -1.8362,-3.43958 -1.783,-2.25314 -1.5701,-6.39823 -4.8456,-7.2197 -4.573,-1.14685 -9.1809,3.33061 -13.4938,3.43877 -1.0946,0.0274 -1.9507,-0.69769 -2.9104,-1.10692 -1.0962,-0.4675 -2.7822,-0.72274 -3.2748,0.66921 -0.8082,2.28407 3.2697,3.43738 4.5739,4.46403 1.6883,1.32903 2.621,3.33485 4.2582,4.7427 1.1183,0.96165 2.5851,1.11583 3.6582,2.18342 1.7951,1.78579 3.2328,3.99469 5.8658,4.59468 m 7.9375,-0.38911 c 1.1895,-0.67503 1.8161,-2.63721 2.4488,-3.96875 1.1909,-2.50627 2.57581,-6.019 1.2766,-8.73023 -0.7787,-1.62493 -2.42,-2.56632 -3.4608,-3.96977 -0.6932,2.35048 2.1699,5.77338 2.0439,8.46667 -0.1249,2.67275 -2.8909,5.79061 -2.3085,8.20208 m 11.75151,-0.81662 c 1.1324,0.63302 3.5159,-3.11702 4.6526,-3.74213 2.2312,-1.22695 4.3586,-2.67206 6.6146,-3.83953 1.1911,-0.61637 2.6943,-1.18374 3.5325,-2.23405 1.5501,-1.94226 1.0753,-4.29465 0.9759,-6.56559 -0.055,-1.25304 0.3222,-4.53913 -0.8883,-5.27921 -1.3141,-0.80339 -4.4978,1.98975 -5.7367,2.62194 -1.5869,0.80976 -3.531,0.0786 -5.0269,0.76763 -4.0796,1.87906 -2.7887,6.64441 -3.8204,10.09173 -0.5557,1.85727 -2.8803,6.73862 -0.3033,8.17921 m -20.21821,-4.91317 c 5.026,1.48953 5.1534,-8.02628 1.3189,-9.15997 -2.7829,-0.82275 -2.986,1.13897 -5.0506,2.03399 -0.7291,0.31604 -2.7146,0.11354 -2.7146,1.25309 0,1.75129 4.8455,5.39846 6.4463,5.87289 m 24.87211,-2.93736 c 3.3406,1.19941 7.6573,-3.47483 7.6714,-6.4141 0.01,-1.12611 0.2904,-3.31899 -1.0934,-3.79481 -1.2534,-0.43098 -6.4879,0.89615 -6.8965,2.21241 -0.3552,1.14415 0.9611,2.00775 0.7468,3.13458 -0.2659,1.39833 -4.2083,3.50477 -0.4283,4.86192 m 107.155,-74.147434 c 0.081,2.55958 1.9913,3.66426 3.7042,5.30209 2.6202,2.50551 5.5472,5.32945 6.6744,8.985414 1.07,3.47057 -0.1054,7.44846 1.0644,10.84791 0.7008,2.0363 2.5294,3.42773 3.5553,5.29167 1.3672,2.48387 1.7909,5.32845 2.8486,7.9375 0.8076,1.99203 2.0944,3.71984 2.6612,5.82083 1.8491,6.85488 0.039,13.34852 8.0669,16.70142 6.2435,2.60749 12.2224,-2.90338 18.5208,-1.61915 3.0658,0.6251 5.3085,2.80117 8.2021,3.85239 4.2383,1.53977 8.7465,0.2886 12.699996,-1.47216 m -11.377096,-3.81768 c 2.5123,0.34762 5.792,-1.8518 4.0063,-4.63449 -0.5686,-0.88607 -1.6161,-1.28297 -2.4188,-1.91517 -1.8454,-1.45345 -3.9466,-3.75332 -6.0854,-4.67309 -2.676,-1.15076 -4.7819,2.84664 -7.4083,2.53336 -0.9869,-0.11771 -1.702,-0.89248 -2.6459,-1.13754 -1.2612,-0.3275 -2.5053,0.0149 -3.7041,-0.66656 -1.3798,-0.78437 -2.2324,-2.23443 -3.7042,-2.89471 -2.7656,-1.24071 -6.1265,-1.31954 -8.9948,-2.55927 -2.1158,-0.91446 -2.6089,-4.75709 -3.6472,-6.69318 -0.3727,-0.69489 -1.0972,-2.30314 -2.0934,-2.1375 -1.0691,0.17778 0.8418,5.23579 1.0761,6.10625 0.9286,3.45082 3.7855,5.74288 5.0048,8.99583 0.9198,2.45363 0.8202,6.50959 2.8902,8.31907 2.479,2.16695 6.9195,0.0606 9.7331,-0.30501 3.5583,-0.4624 8.6516,-0.68007 12.1708,0.0237 1.9926,0.39848 3.7657,1.35397 5.8208,1.63834 m -162.7187,-7.03024 c -1.7715,-0.94537 -3.6435,-0.10459 -5.5563,-0.37788 -3.6629,-0.52335 -6.8945,-1.73799 -10.31871,-2.91552 -1.1806,-0.40597 -2.8894,-0.41976 -3.3994,0.94093 -1.1531,3.07656 3.2074,3.7633 5.2515,4.55468 1.29701,0.50215 2.57321,2.08716 3.96871,2.08707 1.6252,-1.1e-4 2.3999,-1.88787 3.7146,-2.5505 2.0476,-1.03202 4.3693,-0.42203 6.3396,-1.73878 m 142.3458,2.79691 c 1.9924,0.27582 3.8455,-0.62708 5.8208,-0.66595 2.7279,-0.0537 6.0661,0.76103 8.7264,0.12515 1.3824,-0.33045 1.74,-1.9277 0.8762,-2.97596 -1.647,-1.99888 -3.5717,0.78314 -5.1046,1.16492 -3.2136,0.80029 -7.3422,-0.53256 -10.3149,-1.6998 -1.8151,-0.7127 -2.0577,-3.56962 -3.9767,-3.92914 -0.9637,-0.18055 -3.7896,0.16312 -3.7967,1.49502 -0.01,1.04806 1.3543,2.30835 1.8987,3.15969 1.452,2.27097 3.2913,2.96897 5.8708,3.32607 m -150.2833,-2.00316 c -2.2036,-1.076 -7.49341,-3.1078 -9.52501,-2.11666 1.529,1.62194 8.01391,4.71224 9.52501,2.11666 m 122.5021,-51.593734 c 0.01,2.0837 0.023,2.07947 0.3438,4.23334 0.367,2.46469 1.4276,5.04093 2.2138,7.408324 1.1598,3.49202 1.6065,8.65978 3.7395,11.63778 1.6735,2.3365 4.7948,3.12466 6.3677,5.56114 1.5819,2.45026 1.7569,5.71198 3.7957,7.91158 2.2475,2.42492 5.6752,1.47755 8.4103,2.84508 3.4533,1.72667 5.6365,7.02034 9.7896,6.95491 3.855,-0.0607 7.2454,-4.29607 11.1125,-3.54859 3.0175,0.58325 4.5442,3.689 6.6185,5.65587 1.9714,1.86941 4.599296,2.60404 7.139796,3.46347 M -311.21,88.953306 c 0,2.57831 0.861,4.88193 1.0028,7.40832 0.1511,2.69133 -0.354,6.384504 -0.8254,8.995834 -0.3731,2.06752 -2.0719,2.95466 -2.9671,4.7625 -1.1063,2.23416 -0.7236,7.58364 0.4074,9.78958 2.1931,4.27724 7.9588,4.12439 11.9073,2.90368 1.607,-0.49682 3.5944,-1.60944 5.2917,-1.44377 1.2612,0.1231 2.1692,1.4283 3.175,2.04785 1.14,0.70225 2.686,0.52408 3.9687,0.24417 2.4488,-0.53433 2.6879,-4.69175 5.2917,-4.15493 1.55311,0.32019 2.85701,2.00907 3.96881,3.02434 2.4427,2.23069 6.3246,5.91335 9.7895,5.50316 1.5714,-0.186 3.3996,-0.67945 4.0372,-2.30469 0.5451,-1.38969 0.093,-2.98964 1.1047,-4.19699 0.8664,-1.03413 2.2857,-1.17346 3.5894,-1.27229 0.64,-0.0485 1.2158,0.0739 1.8521,0.13373 0.9622,0.0904 1.5745,0.0183 2.6458,0.20762 5.545,0.97979 7.4894,5.37708 12.1708,7.65882 2.7536,1.34207 5.969,-0.13027 8.3912,2.09198 3.3066,3.03377 5.9505,11.04411 11.7172,9.75037 1.1096,-0.24892 2.2259,-0.72895 3.1748,-1.33107 2.7508,-1.7457 3.2884,-4.801 4.855,-7.4849 1.1731,-2.00982 2.8702,-2.99885 4.3184,-4.7625 1.6997,-2.06986 3.595,-6.60625 3.9996,-9.26041 1.2333,-8.08952 -4.5112,-14.38408 -4.1719,-22.224994 0.079,-1.83168 1.5056,-2.14592 2.4548,-3.46429 0.6463,-0.89778 0.7743,-2.09174 0.9797,-3.15029 M -378.6787,132.60954 h 0.2646 m 75.1416,-43.656234 c 0,4.80885 1.5804,9.4047 0.7066,14.287484 -0.2775,1.55107 -1.473,2.55478 -2.0281,3.96875 -0.7619,1.94106 -0.5411,5.64471 0.566,7.40731 3.7157,5.91605 9.5089,0.2721 14.2493,0.56959 2.4555,0.15411 3.2524,2.39411 6.0852,1.67264 1.97321,-0.50255 2.31571,-3.73795 4.49811,-3.21135 3.9806,0.96052 6.5144,6.86221 10.8479,6.75688 1.5527,-0.0377 3.3788,-0.5 3.997,-2.0838 0.3839,-0.98372 0.082,-2.19697 0.9015,-3.00106 1.5346,-1.50627 4.8734,-0.87621 6.7432,-0.53897 4.4806,0.80814 6.2004,4.50249 10.0542,6.16545 2.5262,1.09013 5.2262,-0.0485 7.4081,1.9025 3.9061,3.49275 6.4339,9.82455 12.4346,5.9115 2.2897,-1.49315 2.7169,-3.90551 3.923,-6.20486 1.0143,-1.9336 2.8942,-3.13534 3.9929,-5.02708 2.0478,-3.52609 2.7459,-8.17248 2.359,-12.17083 -0.5059,-5.22744 -6.3483,-12.780394 -1.0135,-16.933324 m 81.4917,0.26459 c -1.3194,2.2606 -4.2143,6.5576 -2.8631,9.2604 1.1818,2.363784 4.1894,3.494204 5.0326,6.085414 1.4904,4.58013 -0.6596,10.44235 1.5346,14.81667 2.2743,4.53386 6.5029,5.42899 10.848,6.73095 2.3316,0.69863 4.1442,2.28888 6.6146,2.67789 5.976,0.94106 12.3077,0.0229 18.256196,1.43907 M -133.14539,88.688726 c -1.2807,2.19424 -3.8403,6.10224 -2.7655,8.73124 0.949,2.32117 3.322,3.566244 3.9084,6.085404 1.0912,4.68786 -0.7502,10.23106 1.7357,14.55209 2.854,4.96093 6.4569,3.84616 11.1443,4.8658 2.2593,0.49144 3.9999,2.32852 6.35,2.72096 5.5972,0.93465 10.5356,-1.62539 15.610396,-3.35343 M -130.23499,88.688726 c -1.4127,2.00149 -3.5132,5.63636 -2.7755,8.20207 0.6641,2.30921 2.5286,3.839114 2.924,6.349994 0.8167,5.18663 -1.1596,10.88617 2.4341,15.32112 2.5778,3.18133 6.4705,0.9795 9.8528,1.39663 2.606,0.32137 4.5878,2.5318 7.1438,3.15255 3.2699,0.79413 7.9644,-0.77428 10.2624,-3.22912 1.435196,-1.53324 1.996196,-3.46363 3.495896,-4.99951 M -295.5996,88.424136 c 0.642,3.1019 1.2813,6.30529 0.7344,9.52499 -0.5394,3.175074 -3.1313,6.234544 0.087,9.201004 3.4274,3.15907 7.4617,-0.91332 11.0847,-0.36565 1.97271,0.29823 3.32471,2.19519 5.54201,1.28699 1.0762,-0.44083 1.4052,-1.94951 2.6613,-1.95558 0.9936,-0.005 1.9141,1.04509 2.6446,1.64323 1.629,1.33383 3.9611,3.82131 6.0854,4.15636 4.1285,0.65119 3.4754,-3.7309 7.4084,-3.3379 4.5175,0.45139 6.5698,3.27052 10.0541,5.47581 1.5488,0.98024 3.3049,0.71648 5.0271,1.18756 4.9395,1.35111 6.2993,9.45793 12.4314,5.42723 1.6111,-1.05904 2.3211,-3.34682 3.3428,-4.99197 0.7853,-1.26462 1.913,-2.20862 2.7179,-3.43959 1.8163,-2.77812 2.417,-7.04837 2.1005,-10.31874 -0.3641,-3.762194 -3.9473,-10.448174 -0.4843,-13.493744 m 96.8375,0 c -1.0338,1.96483 -2.4384,4.13245 -2.8234,6.35 -0.4247,2.44611 1.3438,4.30133 1.6855,6.614584 0.6992,4.73361 -2.029,13.58522 2.9941,16.66628 3.1218,1.91484 6.9511,-1.42746 10.3147,-0.65125 2.3909,0.55177 4.2837,2.49289 6.6146,3.27178 4.0502,1.35345 7.4619,-2.14278 10.054096,-4.73474 M -149.54979,88.424136 c -4.0871,0.33698 -3.4831,4.45045 -2.3639,7.40833 1.3123,3.46776 2.3949,7.716164 4.3397,10.847904 1.4963,2.40935 3.9554,4.21082 5.5122,6.61459 1.1058,1.70745 2.2257,3.6926 3.0439,5.55603 0.3095,0.70481 0.6057,1.89503 1.6286,1.35212 2.1823,-1.15833 0.3743,-7.06785 0.031,-9.02482 -0.3843,-2.18798 -0.778,-4.85491 -1.7011,-6.87917 -0.5636,-1.23596 -1.7186,-2.12056 -2.0964,-3.43957 -1.0838,-3.783364 -0.5666,-8.795534 1.396,-12.170824 m 41.274996,27.252064 1.8521,-8.46667 M -282.37019,88.688726 c 0.2473,3.12883 1.46,6.08102 1.349,9.2604 -0.069,1.98581 -1.1917,3.806584 0.5625,5.482544 2.2545,2.1541 5.3845,-0.80335 7.8781,-0.68165 1.1946,0.0583 2.2115,0.86408 3.4395,0.71207 1.1587,-0.14342 1.9714,-1.4182 3.175,-1.03709 2.4134,0.76412 3.7691,3.67185 6.35,4.1245 1.6871,0.29588 1.743,-1.00916 2.9829,-1.56177 0.98,-0.43675 2.41,-0.0106 3.3671,0.30337 2.3056,0.75622 3.7823,2.7182 5.8209,3.79176 1.4742,0.77637 3.3283,0.43109 4.7625,1.39171 2.347,1.57206 4.3001,4.58157 7.4073,2.52702 1.6778,-1.10944 2.1004,-2.79794 2.9972,-4.46913 3.6093,-6.7266 1.5017,-12.761944 1.5017,-20.108324 m 115.8875,0 c -2.2561,4.76912 -7.3635,9.14821 -7.1331,14.816654 0.2204,5.42257 7.2035,8.30201 11.8954,6.17729 2.4269,-1.09902 3.1305,-4.62579 4.8423,-6.41309 1.5275,-1.5948 3.7744,-0.89626 5.448096,-2.07623 1.5742,-1.109834 2.2459,-3.984644 3.2036,-5.625464 M -369.9473,88.424136 c 5.0066,0.0414 9.0348,2.09262 13.7584,3.2738 2.2764,0.56925 5.2101,0.94072 6.7758,2.82305 1.9746,2.37388 4.2573,6.172294 5.574,8.984384 0.7964,1.70079 1.0607,4.00547 2.7428,5.13202 3.4679,2.32247 7.793,-3.59297 10.8365,-4.54446 1.8536,-0.57948 3.8214,-0.54128 5.2917,0.76414 0.99,0.87896 2.3952,2.95303 3.9677,2.7622 1.9594,-0.23776 2.2423,-3.14855 2.5411,-4.64305 0.9574,-4.787234 -0.214,-9.874914 0.8995,-14.552084 m 46.56671,0 c 0.1881,2.36297 1.0385,4.5769 1.5317,6.87916 0.1855,0.86568 0.2186,2.12335 0.9641,2.7034 1.1163,0.86857 3.2029,-0.53123 4.3834,-0.83682 1.3413,-0.34723 3.636,0.0736 5.027,0.19925 1.7108,0.15454 3.029,2.26234 4.498,3.052114 1.0763,0.57866 2.3221,0.26371 3.4395,0.80374 2.7435,1.32584 4.485,3.14428 7.4084,4.16085 1.7474,0.60767 3.3631,2.35665 5.2906,1.26983 5.9188,-3.33726 2.2553,-12.960654 3.9698,-18.231524 m -57.41461,0.26459 c 0.084,1.95143 0.9786,3.86786 0.8003,5.82083 -0.3099,3.39419 -2.2944,7.552484 -0.5357,10.847904 5.9799,-4.21234 7.7604,-10.031464 5.8208,-16.933324 m 140.22921,0 c -1.1163,0.70141 -3.2643,1.00952 -3.9214,2.15196 -0.5518,0.95938 -0.4062,2.42756 0.027,3.40429 0.6712,1.51539 1.8905,2.23261 2.5936,3.70416 1.0827,2.26638 1.0082,4.930934 3.1535,6.614574 0.6899,-2.35582 -1.0765,-3.85868 -1.2951,-6.085404 -0.3611,-3.67786 0.7588,-6.32949 1.5597,-9.78958 m -59.5312,0 c -1.1212,2.67454 -5.05,5.95022 -3.7714,9.25531 0.8362,2.16146 3.8958,1.00184 5.6234,1.54074 1.1443,0.35693 1.9132,1.227004 2.9105,1.833104 0.5647,0.34323 1.4113,0.6928 1.8708,-0.0174 0.5511,-0.85163 -0.3501,-2.521874 -0.6602,-3.351394 -1.1616,-3.10722 -1.2508,-6.09667 -2.0044,-9.26042 m -62.9708,0 c 0.6087,1.86774 1.3983,4.53376 3.1854,5.61932 2.0259,1.23065 2.6656,-2.9433 5.2812,-1.85473 3.3547,1.39613 4.2557,5.27906 6.6422,7.56267 1.5464,1.479744 4.1663,1.978654 6.0301,0.580834 2.599,-1.949234 0.1929,-4.884324 0.3305,-7.410184 0.099,-1.82536 1.7927,-3.17211 2.8722,-4.49791 m -40.7458,0 c 0,2.27298 0.3412,4.37668 0.5053,6.61459 0.08,1.09449 -0.2177,2.42586 0.2958,3.43856 0.7519,1.48271 2.8367,2.531864 4.09,1.02016 2.2188,-2.67628 -0.5484,-7.86532 -0.9223,-10.80873 m -82.81461,-0.26458 c 3.6209,2.21652 7.7512,3.13044 11.1125,5.65547 2.09,1.57006 3.8905,4.77653 6.35,5.5489 2.2815,0.716484 4.3752,-0.66438 6.6146,-0.78619 2.2332,-0.12149 5.0059,1.01121 7.1437,0.19333 2.5992,-0.99443 2.3631,-3.45187 3.1732,-5.58443 0.6917,-1.821 1.5723,-2.99694 1.5893,-5.02708 m 117.21041,9.26042 c 0.6249,-0.4418 1.3255,-1.07532 2.1167,-1.13693 0.7265,-0.0566 1.3489,0.55441 2.0323,0.12433 1.4756,-0.92855 -0.6274,-4.08519 -0.7868,-5.33741 -0.06,-0.47275 0.1688,-1.73937 -0.5242,-1.84226 -1.0655,-0.1582 -1.1242,1.74344 -1.3413,2.36757 -0.7122,2.04742 -3.1548,3.49275 -1.4967,5.8247 m -71.9666,-8.99584 0.5291,8.73126 c 1.737,-1.99741 0.4417,-6.35366 0,-8.73126 m 17.1979,-0.26458 c 1.6843,0.64471 3.7385,0.41521 5.2917,1.2088 2.445,1.24923 3.5033,3.51941 5.3164,5.39518 0.7739,0.80066 2.3971,2.41593 3.5982,1.59851 1.1899,-0.80982 0.3142,-6.14287 0.3458,-7.67333 m -25.4,-0.52916 c 0.4766,2.00186 -0.1152,5.59612 1.6265,7.02493 1.1558,0.94815 2.4902,0.0434 3.2289,-0.95095 1.411,-1.89928 1.2279,-3.96398 0.4363,-6.07398 m 157.1625,0.26458 c -0.5593,0.84876 -1.0505,1.69741 -1.4246,2.64583 -1.6551,4.19665 1.5275,5.95996 4.864,3.11867 2.048,-1.74402 2.4382,-3.47342 2.1168,-6.02908 m -254.00001,0 c 8.3907,4.4732 23.2662,9.76202 30.1625,0 m 57.41461,0 c 0.1193,1.51135 0.1639,3.16222 1.3229,4.23333 l 0.7938,-4.23333 m -85.19581,0 c 4.5585,2.78997 14.3974,5.95648 17.727,0 m 81.49171,0 3.4396,2.64583 0.2646,-2.64583 m -97.36671,0 c 2.9814,1.14154 5.523,1.54334 8.4667,0"
       id="path7" /></g><style
     type="text/css"
     id="style1">
	.st0{display:none;}
	.st1{display:inline;fill:#0D3252;}
	.st2{display:none;opacity:0.5;}
	.st3{display:inline;fill:#7DC242;}
	.st4{fill:none;stroke:#7DC242;stroke-width:8;stroke-linecap:round;stroke-linejoin:round;stroke-miterlimit:10;}
	.st5{fill:none;stroke:#0D3252;stroke-width:8;stroke-linecap:round;stroke-linejoin:round;stroke-miterlimit:10;}
	.st6{fill:#7DC242;stroke:#0D3252;stroke-width:8;stroke-linecap:round;stroke-linejoin:round;stroke-miterlimit:10;}
	.st7{fill:#0D3252;}
	.st8{display:inline;}
	.st9{fill:#FFFFFF;}
	.st10{fill:none;stroke:#7DC242;stroke-width:8;stroke-linejoin:bevel;stroke-miterlimit:10;}
	.st11{fill:#7DC242;}
</style></svg>
