<?xml version="1.0" encoding="UTF-8" standalone="no"?>
<!-- Created with Inkscape (http://www.inkscape.org/) -->

<svg
   width="188.07986mm"
   height="282.28732mm"
   viewBox="0 0 188.07986 282.28732"
   version="1.1"
   id="svg1"
   xml:space="preserve"
   xmlns="http://www.w3.org/2000/svg"
   xmlns:svg="http://www.w3.org/2000/svg"><defs
     id="defs1" /><g
     id="layer1"
     transform="translate(-10.960072,-61.816419)"><path
       style="opacity:0.5;fill:none;stroke:#ffdb33;stroke-width:0.264583;stroke-dasharray:none;stroke-opacity:1"
       d="m 11.05357,116.16788 c 1.77619,0.5226 3.12812,1.9355 5.02708,2.0919 5.14698,0.424 10.25695,-1.7599 15.34584,-1.2531 3.1901,0.3178 6.62409,1.1358 9.78958,1.7053 1.61035,0.2898 3.10673,0.9543 4.7625,0.5504 4.23185,-1.0321 9.70907,-2.7527 13.49375,-4.9129 2.42641,-1.385 4.34538,-3.6552 6.87917,-4.8224 2.07814,-0.9573 4.43247,-1.059 6.61458,-1.6746 5.00542,-1.4123 10.1955,-3.0519 15.08125,-4.8332 2.22757,-0.8121 4.12349,-2.3157 6.35,-3.110897 2.08316,-0.7439 4.29377,-0.8802 6.35001,-1.7353 2.15512,-0.8961 4.00622,-2.3581 6.35,-2.7844 3.67207,-0.668 7.40911,-0.2357 11.11251,-0.3979 7.77867,-0.3406 14.96419,-1.0865 22.48958,-3.1246 3.75635,-1.0173 9.28543,-2.6433 12.14593,-5.380701 1.83108,-1.7523 2.29569,-4.4377 2.69196,-6.830099 0.34924,-2.1085 0.90946,-4.4742 0.74762,-6.6146 -0.27818,-3.6787 -1.5626,-7.0646 -1.5626,-10.8479 M 11.05357,129.39698 c 6.72889,-0.531 13.86561,-2.8044 20.6375,-1.7359 5.96438,0.9411 9.26002,5.939 15.875,3.845 3.66659,-1.1606 6.6371,-3.424 9.525,-5.8345 3.12559,-2.6089 6.1348,-5.2864 8.99482,-8.1808 2.65937,-2.6914 5.37108,-6.276 8.46768,-8.4083 3.40648,-2.3457 8.27412,-1.8213 12.17084,-2.9014 2.80762,-0.7783 4.77558,-2.798 7.40833,-3.7438 2.43237,-0.8738 5.16533,-0.7404 7.67293,-1.3209 2.466,-0.5708 4.6857,-1.849397 7.14375,-2.437797 9.67007,-2.3149 19.84596,0.4468 29.63333,-0.5475 5.25119,-0.5335 8.6643,-4.5846 13.49375,-5.6159 2.44935,-0.523 4.92326,-1.4067 7.40833,-1.7024 2.47115,-0.2941 5.76646,0.061 7.92586,-1.3664 1.50887,-0.9974 3.83059,-6.903001 3.66293,-8.7327 -0.15205,-1.6596 -1.3296,-3.1036 -1.39947,-4.7625 -0.098,-2.3279 2.26027,-4.1023 2.61132,-6.35 0.3777,-2.4183 -1.4091,-5.1144 -1.95272,-7.4083 M 11.05357,158.50119 c 3.54941,-0.029 7.67193,0.1004 11.1125,-0.8358 3.00849,-0.81871 5.68229,-2.58011 8.73125,-3.39391 2.29946,-0.6137 4.95989,-0.3018 7.14375,-1.0897 3.20798,-1.1574 6.31964,-2.8831 9.525,-4.1517 1.28098,-0.507 3.10894,-1.3396 4.49792,-0.9936 1.85601,0.4623 2.5366,2.5126 3.175,4.1147 1.67062,4.1926 1.95808,8.81121 3.9473,12.96461 0.96283,2.0103 2.70738,2.5438 4.78395,2.6458 1.31834,0.065 3.44809,0.121 3.98651,1.602 0.93242,2.5647 -2.73178,5.4578 -3.46163,7.6584 -0.50381,1.5191 0.6185,3.549 0.0715,5.0271 -0.74442,2.0113 -2.82583,3.0897 -4.12063,4.7625 -1.9775,2.5548 -3.03066,5.7024 -4.64511,8.4667 -0.63214,1.0823 -1.41563,2.0286 -2.41413,2.8063 -2.1111,1.6443 -6.4556,2.0472 -8.99563,1.1273 -1.37194,-0.4968 -2.47196,-1.6488 -3.96875,-1.7873 -1.91161,-0.1771 -3.12155,1.2702 -4.7625,1.9641 -2.40698,1.0178 -5.13702,2.18 -7.67292,2.7953 -1.70349,0.4133 -3.56378,0.1514 -4.97808,1.4007 -1.75986,1.5545 -1.85254,4.1499 -2.5213,6.2457 -1.62876,5.104 -4.74976,10.7583 -0.82724,15.5998 0.72454,0.8942 1.6692,1.5603 2.77037,1.9194 2.64243,0.8618 7.12347,0.5605 5.39661,4.9587 -0.63538,1.6183 -2.64112,1.5656 -4.07369,1.603 -4.20724,0.1098 -8.0445,1.2926 -12.17083,1.8482 m -0.52917,-61.6479 c 2.81692,-1.6031 6.52284,-3.1922 9.78958,-3.4159 2.76805,-0.1895 4.89049,0.9086 7.67292,-0.045 3.44149,-1.1788 8.42804,-4.7502 12.17083,-3.5341 2.32583,0.7557 3.6255,3.3599 5.55626,4.7474 3.0688,2.2054 12.28364,3.2471 7.58206,9.1263 -2.48617,3.1088 -6.06399,8.4458 -10.49248,8.6585 -2.84836,0.1369 -5.23437,-1.5544 -8.20209,-0.909 -3.35887,0.7304 -6.16162,3.0375 -9.525,3.8297 -5.23246,1.2324 -11.18765,-0.01 -14.2875,5.3541 m -0.26458,0.2646 0.26458,-0.2646 m -0.26458,97.8958 c 2.98884,-2.3719 6.51869,-3.5467 9.52398,-5.7248 2.70775,-1.9625 3.85883,-5.5326 7.93852,-4.3293 -1.4418,2.0468 -3.11723,3.0443 -4.28091,5.2916 -1.10418,2.1325 -1.34799,4.4425 -2.23138,6.6146 -0.5055,1.243 -1.5113,2.1921 -2.01665,3.4396 -1.20746,2.9808 -0.37089,6.6347 1.69877,8.9958 3.11021,3.5484 6.99392,2.8052 11.0635,4.3342 0.81087,0.3047 3.50825,-0.066 3.75276,0.7772 0.52047,1.7956 -2.2996,2.8077 -2.45699,4.4147 -0.49803,5.0849 2.33391,9.9434 1.49828,15.0802 -0.39464,2.426 -2.42155,3.3655 -3.65985,5.2917 -0.69928,1.0877 -0.79903,2.5065 -1.25086,3.7041 M 11.3182,75.950683 c 1.16303,1.0802 2.2816,1.9033 2.87246,3.4396 0.74365,1.933599 0.41534,4.133399 1.15774,6.085399 1.26644,3.329901 3.73537,6.020201 4.65981,9.525001 0.87278,3.309 0.12795,7.194497 1.504,10.318697 0.52394,1.1896 1.32569,2.2489 2.25202,3.1512 1.4871,1.4485 3.43111,2.8374 5.54564,3.2427 2.88666,0.5534 5.89275,-1.0169 8.73125,-1.3208 3.54504,-0.3796 7.37822,0.586 10.84792,-0.3526 1.796,-0.4859 4.09027,-1.6251 4.43647,-3.6621 0.8141,-4.79 -5.09147,-6.598997 -6.55172,-10.318797 -1.6234,-4.1354 3.65232,-8.490601 5.77857,-11.377101 0.97273,-1.3205 1.71153,-2.8215 3.21686,-3.5833 1.20038,-0.607399 3.17277,-0.519899 4.4969,-0.299299 1.62537,0.270999 3.09752,1.090799 4.7625,1.212899 3.06105,0.2246 7.66244,-0.9568 10.31488,0.9536 2.25282,1.6226 2.72297,4.6485 4.37726,6.739301 2.02144,2.5549 6.2331,3.9812 9.38495,4.3353 5.83359,0.6553 8.76334,-5.1271 12.70001,-8.160101 1.77061,-1.3641 4.00765,-1.807 5.82063,-3.0649 1.54967,-1.0753 2.34463,-2.607799 3.96895,-3.549699 2.71187,-1.5724 6.15045,-1.9549 6.07644,-5.9606 -0.0415,-2.245 -2.76014,-2.7733 -3.06843,-5.0273 -0.30336,-2.2179 0.56432,-3.9591 -0.62676,-6.0854 M 11.3182,91.561083 c 0.94893,2.805 1.28433,6.1707 2.74097,8.731297 1.18023,2.0747 3.3492,3.7558 4.57448,5.8208 1.39573,2.3522 1.97002,5.3054 4.32724,6.9721 3.09627,2.1892 6.52647,0.4565 9.78856,-0.014 7.06261,-1.0178 17.79872,1.9648 23.51934,-3.8114 1.97835,-1.9976 1.20618,-4.6303 1.09733,-7.116 -0.22666,-5.176397 0.55241,-10.759897 6.33959,-12.492097 6.6723,-1.997201 13.64508,1.458 19.31458,4.4681 1.66309,0.8829 2.71371,2.5389 4.7625,2.7077 4.33924,0.3574 11.74049,-2.5031 15.08126,-5.1055 1.9828,-1.5446 3.72908,-3.859001 6.08542,-4.946301 2.5401,-1.172 5.30062,0.02 7.9375,-0.1126 1.40428,-0.071 2.84369,-1.1313 4.23333,-1.4804 2.66653,-0.6699 6.68911,-0.1813 8.95766,-1.8229 1.55616,-1.126 1.27785,-4.240299 -0.0222,-5.446999 -0.64327,-0.5971 -1.79223,-0.8301 -2.11279,-1.7267 -0.71512,-2.0003 2.47099,-3.0177 2.29918,-4.9985 -0.25628,-2.9548 -4.57924,-6.5769 -6.21138,-8.9959 M 11.31821,110.87518 c 3.01564,1.5814 6.30082,4.4286 9.525,5.3843 2.38415,0.7067 5.17241,-1.033 7.67291,-0.8627 6.01879,0.4098 12.52697,1.755 18.52084,0.6473 4.29794,-0.7942 9.16539,-3.4533 12.96437,-5.5697 4.38755,-2.4442 5.48315,-7.917 10.58355,-9.9376 3.24618,-1.285997 7.38718,-1.722597 10.84791,-1.223897 1.85545,0.2674 3.64535,1.406997 5.55625,1.116897 6.98302,-1.060097 12.91257,-5.074697 19.57918,-7.006697 2.23199,-0.6469 4.61225,-0.6812 6.87917,-1.1811 2.48143,-0.5471 4.887,-1.6296 7.40833,-1.9623 4.20655,-0.555 7.81449,-0.492 11.90625,-1.8031 3.15897,-1.012101 6.68379,-1.861501 8.96808,-4.328201 6.23434,-6.732199 -2.18026,-14.338699 -0.76599,-21.956599 M 11.31821,140.77308 c 5.02345,-1.8952 9.47162,-0.053 14.55208,-0.275 3.95716,-0.1733 7.51653,-1.594 11.37708,-2.0575 2.86036,-0.3434 5.90239,0.077 8.73125,-0.4362 2.1777,-0.3955 4.05123,-1.6999 6.08542,-2.5558 1.89356,-0.7968 4.00562,-0.9023 5.82083,-1.9115 2.48936,-1.3841 3.95101,-3.8703 5.71896,-5.9921 0.86026,-1.0325 1.80894,-1.7274 2.73729,-2.6573 2.28644,-2.2905 3.84718,-5.1776 5.94742,-7.6625 0.5803,-0.6866 2.33635,-2.9785 3.42835,-2.3386 0.64593,0.3785 0.37056,1.5223 0.13617,2.074 -0.86522,2.0366 -2.66871,3.4204 -3.82175,5.2917 -1.28335,2.0827 -1.86062,4.4909 -3.04435,6.6145 -2.14678,3.8513 -5.33882,7.0575 -5.99558,11.6417 -0.14972,1.0451 -0.24508,2.2953 -0.22357,3.175 0.0159,0.6521 0.0939,1.1838 0.22724,1.8521 0.50758,2.5448 2.60768,4.9202 3.42284,7.4083 0.88921,2.7143 -0.0466,5.89451 2.10687,8.17351 2.24949,2.3806 4.05597,0.1317 6.55702,0.6523 1.80871,0.3764 3.00147,3.6169 3.3375,5.1971 0.14334,0.6741 0.10204,1.1963 0.1031,1.8521 0.001,0.8283 0.0684,1.7377 -0.14006,2.6459 -0.64351,2.8041 -2.96783,4.929 -3.74907,7.6729 -0.5895,2.0704 0.0798,4.3905 -0.89992,6.35 -1.14207,2.2841 -3.35313,3.436 -4.34479,5.8208 -1.07622,2.5881 -1.07689,5.5584 -2.81447,7.9375 -1.56392,2.1414 -4.37636,2.8869 -5.84696,4.8495 -0.85365,1.1392 -0.0797,2.9358 -0.92197,4.0594 -1.36209,1.8169 -6.15959,3.5885 -8.27027,4.5887 -2.99677,1.4202 -5.58856,-1.3461 -7.67291,-3.1921 -0.97011,-0.8592 -2.34164,-2.5531 -3.60087,-1.2654 -0.81453,0.833 -1.22421,2.1194 -1.77246,3.1307 -1.18139,2.1792 -5.78704,6.8361 -2.81324,9.0879 1.93136,1.4625 5.80835,0.3555 7.27808,2.0638 2.91702,3.3906 -0.8228,6.9741 -1.54585,10.015 -0.42798,1.7999 0.47642,3.5634 -0.64861,5.2907 -2.23993,3.439 -7.52562,2.8717 -10.91997,3.985 -2.3193,0.7608 -3.27748,3.0726 -5.55625,4.1323 -4.39627,2.0444 -8.7952,2.0355 -12.96458,4.8483 m 0,-100.01251 c 3.55963,-0.4598 7.35079,-0.7157 10.84791,-1.4989 2.5893,-0.58 5.04052,-1.6738 7.67292,-2.0891 2.92574,-0.4617 6.18037,0.1275 8.99583,-0.7375 3.20076,-0.9833 6.41651,-2.0513 9.525,-3.2946 1.73242,-0.6929 3.91031,-1.7148 5.81982,-1.1833 1.66345,0.4631 2.23704,2.2066 3.10947,3.5117 2.72072,4.07 3.38429,9.0718 5.55828,13.49371 0.84823,1.7253 1.70019,4.5772 3.50819,5.5089 2.30665,1.1887 5.39984,-0.3031 6.78709,2.6934 1.04045,2.2474 -2.58939,5.7729 -3.33077,7.9373 -0.92776,2.7086 0.1836,5.294 -0.42546,7.9375 -0.66441,2.8838 -3.41823,4.6096 -4.7433,7.1438 -1.06035,2.0278 -0.69761,4.5479 -2.31695,6.3261 -1.27546,1.4005 -3.01844,2.2043 -4.36563,3.54 -2.25181,2.2327 -3.96728,5.0427 -7.48407,5.3899 -2.6412,0.2607 -4.40516,-2.2295 -6.87917,-2.6969 -4.11035,-0.7765 -7.68791,1.8593 -11.1125,3.6376 -1.51562,0.7871 -3.25403,1.2553 -4.39359,2.6134 -1.91597,2.2834 -0.41054,5.3706 -0.15046,7.9128 0.12711,1.2425 -0.21896,2.4627 -0.21641,3.7042 0.002,1.2152 0.21946,2.2113 1.33251,2.8867 3.30611,2.0062 7.88116,-1.3554 9.10875,3.9924 1.25483,5.4665 -3.19072,5.0662 -6.73913,6.8288 -4.18607,2.0793 -7.98995,4.6351 -12.43542,6.2173 -2.36274,0.8409 -4.81041,0.8163 -7.14375,1.506 m -0.52916,-73.5542 c 7.88876,-4.587 16.70991,-4.8108 25.13541,-7.415 4.02634,-1.2445 9.31035,-3.1291 13.20059,-0.33 2.92258,2.103 1.9801,7.1941 4.13329,9.5132 1.58322,1.7052 7.81335,1.6523 8.05061,4.3221 0.37741,4.2471 -3.32977,5.3094 -5.28432,8.2077 -1.61833,2.3996 -1.7674,5.7142 -3.45918,8.1878 -2.06022,3.0122 -8.55911,3.1445 -11.87849,2.5627 -1.39765,-0.245 -2.50654,-0.9579 -3.96875,-0.9702 -4.13314,-0.034 -7.17987,3.8328 -11.1125,4.7879 -2.20148,0.5346 -4.88739,-0.9024 -6.87916,0.094 -4.59699,2.3004 -2.91977,7.5148 -3.84421,11.5208 -0.56977,2.469 -2.70158,4.5687 -4.09329,6.6145 m 0,-35.1895 c 8.65244,-1.9836 17.99725,-6.026 26.9875,-5.3144 3.93774,0.3117 10.06725,3.8863 5.79225,8.197 -3.3676,3.3958 -6.58287,0.7265 -10.29017,1.4252 -2.33101,0.4393 -4.07732,1.9453 -6.61458,2.0081 -2.7833,0.069 -5.68648,-1.3734 -8.46667,-0.6459 -1.16274,0.3042 -2.03439,1.2246 -2.91042,1.9886 -1.31633,1.1481 -2.65308,1.6564 -4.23333,2.3956 m -0.26458,-6.35 c 3.06271,-1.0372 6.38533,-1.0994 9.525,-1.8223 4.32528,-0.996 8.27086,-2.6232 12.7,-3.3132 1.61103,-0.251 3.69052,-0.5995 5.29065,-0.2528 0.94451,0.2047 2.00401,0.8656 1.21104,1.8895 -1.48386,1.9159 -5.87429,1.8989 -8.08919,2.2103 -6.46508,0.9092 -14.98961,0.2438 -20.6375,3.9343 m 0,34.3958 c 1.53941,2.3567 1.5864,6.0656 0,8.4667 m 0,32.5437 c 3.25616,-4.8266 7.20879,-10.986 12.7,-13.5476 4.9215,-2.2959 10.03703,-0.8783 14.55106,-4.788 3.82871,-3.3162 7.22006,-8.8245 8.81944,-13.6789 0.84525,-2.5656 0.8183,-6.5545 2.43004,-8.7199 1.18612,-1.5935 3.39267,-1.9477 5.15571,-2.5758 2.30519,-0.8212 4.81122,-1.9735 6.60315,-3.6004 3.09912,-2.8137 3.30875,-9.139 5.75836,-12.6206 1.37252,-1.9508 2.90419,-3.3676 4.83641,-4.7931 1.73598,-1.2808 3.69841,-2.3896 4.59386,-4.4673 1.80757,-4.1941 1.75915,-9.8266 2.72669,-14.2875 1.41288,-6.5143 7.15584,-13.8253 3.41712,-20.6375 -2.56291,-4.66981 -10.46688,-1.99801 -11.81499,-6.87921 -0.72796,-2.6358 -0.0502,-5.5357 0.0151,-8.2021 0.0623,-2.5426 -0.4298,-5.4514 0.14393,-7.9375 0.36732,-1.5917 1.56551,-2.7274 2.05624,-4.2333 0.37676,-1.1562 -0.20985,-2.3636 0.27723,-3.3832 0.4277,-0.8954 1.48412,-1.0546 2.25101,-1.6349 1.14861,-0.8692 1.86983,-2.1349 2.89204,-3.2289 1.7567,-1.8802 2.51617,-5.0099 4.04979,-7.0741 0.86097,-1.1589 2.3719,-1.6057 3.31077,-2.6983 1.2524,-1.4576 1.32312,-3.5364 2.57254,-4.9889 4.70067,-5.465 12.12953,-1.8715 18.16909,-3.7212 2.14007,-0.6554 4.62363,-0.9469 6.61458,-1.9086 1.64222,-0.7932 3.07,-1.8127 5.02709,-2.0085 3.83026,-0.3832 7.34644,0.7375 11.1125,0.9896 4.28496,0.2868 9.79266,-0.389 14.02291,-1.1572 5.30372,-0.962997 8.51053,-5.879797 14.02291,-6.898497 3.23795,-0.5984 6.32473,0.1534 9.525,-0.1678 2.91135,-0.2923 5.30858,-2.0566 7.9375,-3.1628 4.01358,-1.6888 7.58444,-1.9291 10.37549,-5.788001 2.36492,-3.2696 3.47915,-8.216199 2.46251,-12.170799 -0.91474,-3.5583 -2.96442,-6.2312 -2.25468,-10.0542 M 11.3182,266.18529 c 2.96503,-2.1806 4.30964,-6.0003 7.40833,-7.8809 2.10577,-1.2781 4.72157,-1.1336 6.87917,-2.3103 2.82538,-1.5407 5.0225,-4.0685 7.9375,-5.4482 2.6079,-1.2344 5.84058,-1.62 7.92689,-3.6866 2.67854,-2.6532 3.92069,-6.4109 6.02887,-9.5136 1.88129,-2.7688 4.46424,-5.3859 5.94516,-8.4667 1.26003,-2.6212 1.52865,-6.1413 3.28667,-8.455 1.26786,-1.6686 3.51965,-1.6248 5.38741,-2.1008 1.83826,-0.4684 3.39493,-1.4409 4.7625,-2.698 1.02896,-0.946 2.21458,-1.8442 2.71402,-3.1503 0.7159,-1.8722 0.007,-4.2252 0.786,-6.0854 1.32943,-3.1738 6.25907,-4.7961 8.67081,-7.1477 1.02581,-1.0002 2.22783,-2.6203 3.70397,-2.9563 1.89739,-0.432 3.05611,2.8434 3.97304,4.0185 2.58975,3.319 6.43909,6.5615 10.57925,7.8455 4.02514,1.2482 9.97001,-0.9211 13.49376,1.3429 4.91342,3.1568 6.31678,11.2166 11.90625,13.2659 4.98883,1.829 11.24715,-3.2019 16.40315,-0.8503 1.76307,0.8041 2.75657,3.0056 4.23435,4.2391 2.25845,1.885 4.97232,3.1973 7.40833,4.7671 2.20756,1.4226 4.34049,3.3298 6.87916,4.2236 7.68102,2.704 14.53221,2.0376 22.48958,1.6892 1.87907,-0.082 5.94362,0 5.2688,2.9 -0.55178,2.3689 -3.67047,5.0684 -6.06255,5.468 -2.04911,0.3423 -4.33134,-0.6452 -6.35,-0.9354 -3.59005,-0.5162 -7.51065,-0.5355 -11.1125,-0.1103 -14.13908,1.6693 -28.86131,2.6687 -40.74582,11.6905 -2.99396,2.2728 -5.04625,5.3638 -7.67292,7.9632 -1.99985,1.9791 -4.70684,3.3959 -6.32223,5.8219 -2.16345,3.249 -3.26121,8.0421 -6.37777,10.4433 -2.60909,2.0102 -5.75452,1.3748 -8.73126,2.2567 0.52426,1.0972 2.26594,2.3386 0.9732,3.5682 -1.75415,1.6684 -5.65675,-0.1433 -7.85237,0.1923 -1.42901,0.2184 -2.53428,1.3766 -3.96875,1.5372 -0.95225,0.1067 -1.86301,-0.4463 -2.64583,-0.9225 -1.26746,-0.7711 -4.1926,-2.5572 -3.73704,-4.3752 0.49786,-1.9869 2.82549,-2.6219 2.16465,-5.0271 -0.45872,-1.6695 -1.81875,-2.9179 -2.87266,-4.2333 -2.32965,-2.9078 -4.47433,-6.7632 -7.72579,-8.6353 -2.11586,-1.2183 -4.49951,-1.1308 -6.87916,-0.9095 -3.02823,0.2815 -6.0929,0.9481 -8.73125,2.5208 -3.05054,1.8186 -5.48675,4.5013 -8.73125,6.0234 -2.67335,1.2542 -5.8947,1.0333 -8.73125,0.9995 -0.88563,-0.011 -1.51353,-0.1737 -2.38125,-0.1737 -0.78936,0 -1.36841,0.1381 -2.11667,0.1748 -1.55031,0.076 -3.4998,0.5899 -5.02708,1.065 -1.9368,0.6025 -4.22625,1.3958 -5.82063,2.5432 -2.55635,1.8396 -4.11293,4.8237 -6.61479,6.7105 m 0,8.2021 c 2.36707,-1.8046 5.34355,-1.7073 7.67292,-3.4512 1.63441,-1.2236 3.36798,-2.8462 5.02708,-4.0339 2.0346,-1.4565 9.99524,-6.493 8.25883,-0.1878 -0.17391,0.6315 -0.43671,1.2541 -0.70207,1.8521 -1.16865,2.6332 -3.47481,3.4048 -4.98973,5.5668 -1.4744,2.1041 -3.6029,8.6465 -2.54336,11.1019 1.21511,2.8159 4.60465,4.8489 6.8555,6.7016 0.90167,0.7422 1.73618,1.9486 2.91041,2.283 2.51201,0.7154 4.54126,-1.3643 6.76321,1.3832 1.19703,1.4801 -0.5058,2.4582 -1.41499,3.4354 -0.97403,1.047 -1.49366,2.4817 -1.32944,3.9239 0.34254,3.0079 3.41405,3.7833 4.28416,6.35 0.49328,1.4551 -0.97653,2.8173 -1.07813,4.2333 -0.11842,1.6502 1.26621,3.1256 1.08875,4.7625 -0.12801,1.1808 -1.12238,2.0088 -1.75593,2.9104 -1.14848,1.6345 -2.17346,3.6035 -3.38263,5.2917 M 11.3182,298.72899 c 1.09035,-0.9945 4.32987,-3.8305 5.88901,-2.0019 2.63206,3.087 -3.85333,7.6149 -2.03337,11.2623 1.22795,2.461 4.68418,6.4326 7.25686,7.549 1.73628,0.7535 4.26151,0.3896 5.76428,1.4493 0.89568,0.6317 1.09376,1.7584 1.64221,2.6434 1.7351,2.7999 3.18464,6.6237 3.31587,10.0542 0.18713,4.8918 -6.90418,7.3532 -10.19319,9.4443 -1.65996,1.0554 -2.83635,2.035 -3.96875,3.5203 m -7.67292,-25.9292 c 1.81759,1.6202 4.35054,1.6161 6.61458,2.4507 1.44266,0.5318 2.45425,1.7071 3.96875,2.1415 1.48712,0.4266 4.58818,0.6238 5.59382,1.8715 1.70377,2.1139 -0.38884,4.8313 -1.88965,6.1914 -1.57663,1.4288 -3.25266,2.9274 -5.29167,3.657 -3.43856,1.2304 -6.20217,0.7975 -8.99583,3.5317 m 0,-15.6105 c 2.62527,1.3996 6.10798,1.7241 8.43789,3.4674 1.16199,0.8694 1.24353,2.1654 0.53427,3.4118 -0.39552,0.6951 -0.93426,1.2484 -1.56484,1.7488 -0.70143,0.5566 -1.51013,0.9703 -2.38024,1.2175 -1.63619,0.4651 -3.37474,0.2154 -5.02708,0.7379 m 0,-7.4084 c 1.16107,0.6094 2.94472,0.7377 3.84238,1.7351 1.72186,1.9131 -2.64523,3.1152 -3.84238,3.292 m 0.26458,-41.0104 c 2.90832,-1.9183 5.50039,-5.0474 8.46667,-6.6187 3.23293,-1.7125 7.27058,-3.3827 10.84792,-4.2562 5.71286,-1.3948 11.83233,-1.7318 17.4625,-3.2777 2.99696,-0.8228 4.55303,-3.506 7.14375,-4.9932 3.56196,-2.0445 7.84258,0.1739 10.84383,2.2033 1.4845,1.0038 4.61222,5.4174 4.72738,7.1529 0.17574,2.6482 -1.45957,4.1391 0.44384,6.6146 2.41008,3.1345 6.41453,5.2634 10.44328,4.6831 2.04646,-0.2948 4.26722,-1.7718 6.34877,-1.4679 1.49253,0.2179 2.00807,1.9011 1.1645,3.107 -0.91074,1.302 -2.75403,1.6562 -4.07369,2.3835 -1.51484,0.835 -2.7027,2.0686 -4.49791,2.1269 -2.00028,0.065 -4.16313,-0.9681 -6.08542,-1.5654 -4.35763,-1.3542 -8.74631,-2.479 -12.43154,-5.1688 -1.19841,-0.8747 -1.84104,-2.1544 -3.17908,-2.8618 -2.9367,-1.5528 -6.03207,-2.9049 -8.99563,-4.4696 -3.85446,-2.035 -13.33102,-4.6338 -16.02158,0.5874 -0.89459,1.736 0.3081,3.6148 -0.31542,5.2912 -0.62064,1.6687 -2.59527,2.2208 -3.5043,3.7083 -0.8844,1.4472 -0.18012,2.9466 -0.43464,4.494 -0.46934,2.8534 -3.50851,4.6616 -1.10549,7.4073 1.72653,1.9728 4.5347,4.3361 7.09393,5.0841 2.65291,0.7753 5.50097,-0.1 7.14233,2.5901 0.8916,1.461 1.01993,3.1618 -0.0721,4.4873 -1.16001,1.4079 -2.77808,2.4276 -2.5117,4.5083 0.37903,2.9606 3.99528,3.6628 5.18265,6.0856 0.84583,1.7259 -0.87594,3.3109 -0.83377,5.0269 0.0406,1.6536 1.64958,2.8296 1.76777,4.4979 0.18434,2.6019 -2.28903,5.8503 -3.26687,8.2021 m -31.75001,-39.9521 c 0.76344,3.9366 0.2033,8.2771 3.70519,11.0082 1.36372,1.0636 3.23278,1.0006 4.76148,1.7649 1.68205,0.841 2.9303,2.4516 4.49792,3.3428 1.97302,1.1217 3.68942,0.7449 4.31785,3.4633 0.58138,2.5148 -0.43681,4.468 -1.59015,6.6146 -0.65425,1.2176 -1.08438,2.64 -2.02113,3.6582 -3.84926,4.1842 -9.88048,5.1505 -13.14199,10.3647 M 74.289,267.50819 c 1.93465,1.0265 6.0144,2.9242 6.82935,5.2919 0.74386,2.1611 -3.63237,9.1066 0.84378,9.4999 4.20244,0.3692 7.57851,-1.4609 11.64146,-2.1935 2.43956,-0.4398 4.76946,-0.3311 6.40595,-2.5482 2.71609,-3.6799 2.52665,-8.8206 5.37578,-12.4275 2.59493,-3.2851 6.79669,-4.8672 9.9037,-7.5351 2.59307,-2.2266 3.83363,-4.9416 6.88958,-6.7524 7.09453,-4.2037 15.06837,-7.6204 23.28334,-8.9784 3.70835,-0.6131 7.39869,-0.6494 11.11249,-1.0663 1.6352,-0.1836 3.57139,-0.03 5.02708,-0.8071 -1.8306,-2.128 -4.70238,-0.7445 -6.85549,-2.1191 -0.81222,-0.5186 -1.32058,-1.3844 -2.14421,-1.8872 -2.74413,-1.6751 -6.08086,-2.3734 -8.72737,-4.2339 -2.11715,-1.4884 -4.9196,-4.5229 -7.40834,-5.1427 -3.13768,-0.7813 -6.39233,0.4641 -9.525,0.8709 -2.74287,0.3563 -6.03828,-0.041 -8.73125,-0.6293 -3.96347,-0.8663 -4.86143,-4.2358 -6.90693,-7.2277 -0.74109,-1.084 -1.92939,-1.6482 -2.71096,-2.6744 -0.78572,-1.0317 -0.95076,-2.425 -2.29245,-2.9539 -2.89347,-1.1407 -6.27217,1.2633 -9.25634,0.7756 -2.58519,-0.4226 -5.26295,-2.4998 -7.12007,-4.2234 -0.92207,-0.8557 -1.6129,-1.9272 -2.9341,-2.1967 -2.30733,-0.4706 -5.04949,1.5717 -6.87916,2.7177 -2.07216,1.2979 -4.65204,1.8031 -6.61459,3.2038 -1.84433,1.3164 -3.0284,3.338 -5.02708,4.501 -2.22326,1.2936 -6.45509,0.2981 -8.0161,2.2298 -0.72356,0.8953 -0.6797,2.1279 -1.2833,3.1145 -0.99729,1.6303 -2.45095,2.8283 -3.41244,4.498 -0.81446,1.4143 -1.13295,3.0591 -1.92313,4.4979 -1.53949,2.8032 -3.88095,5.1122 -5.38782,7.9375 -1.28639,2.4118 -1.78482,5.5958 -3.6121,7.649 -3.09592,3.4787 -7.44294,3.7974 -11.29011,5.7982 -1.84688,0.9605 -3.27075,2.5164 -5.02708,3.6353 -3.20186,2.0399 -6.89769,3.9525 -9.78959,6.3237 -1.17274,0.9616 -6.23545,4.3126 -6.03887,5.9349 0.16213,1.3381 2.15358,1.3558 3.12846,1.3493 3.31793,-0.022 6.07361,-1.7971 9.26041,-2.3578 3.36719,-0.5923 7.15548,1.3248 10.31875,0.3342 3.10324,-0.9717 5.43047,-4.2957 8.46667,-5.7022 3.10501,-1.4383 6.98301,-1.136 10.31875,-1.6089 2.23273,-0.3166 4.3794,-1.3241 6.61458,-1.4881 3.76177,-0.276 7.24294,0.06 10.58334,1.9109 1.88488,1.0443 3.49928,2.6247 2.91041,4.6798 M 28.78067,62.191483 c -2.91883,1.2578 -9.7396,4.5372 -10.45697,7.9375 -0.70593,3.3461 6.36917,5.0421 7.36057,7.9386 0.67681,1.9773 -0.32765,4.493599 0.19742,6.613499 0.68737,2.7753 3.02601,5.072801 3.37915,7.937501 0.35071,2.845 -2.35546,4.8158 -2.11156,7.408397 0.33087,3.5172 4.7765,2.7879 7.18764,3.3101 1.27311,0.2757 2.64391,1.0006 3.96875,0.856 1.43291,-0.1564 3.07255,-1.5605 2.3298,-3.1039 -0.85347,-1.773597 -3.10175,-2.310997 -3.87912,-4.237197 -2.09828,-5.1993 -0.65324,-11.860801 0.11514,-17.198 0.37459,-2.6019 1.28879,-5.0277 3.81543,-6.2034 2.19134,-1.0196 4.81457,-0.6431 7.14375,-1.0632 2.50484,-0.4518 4.8426,-1.436 7.40833,-1.6843 5.66741,-0.5484 14.14297,1.508 18.25625,5.5152 1.09931,1.071 2.16311,2.1663 3.05885,3.4357 2.37112,3.360299 4.48566,8.8541 8.58282,10.3267 3.56899,1.2829 7.98232,-1.229 10.01293,-3.976701 1.18504,-1.6035 2.04012,-3.5748 3.50552,-4.998499 1.53001,-1.4864 4.76074,-1.2807 5.20655,-3.7329 0.66185,-3.6405 -3.08873,-4.3627 -3.96405,-7.4082 -0.72405,-2.5191 0.93484,-5.0845 0.32031,-7.6729 M 65.82234,113.52068 c -2.56154,-0.6952 -4.67662,2.2598 -6.61459,3.5192 -2.29451,1.4912 -6.57101,2.1658 -9.26041,2.9792 -6.60704,1.9985 -12.74092,-0.8692 -19.31459,-0.6735 -1.40101,0.042 -7.66699,2.1186 -7.42915,3.941 0.12659,0.97 1.61076,1.5722 2.40207,1.8474 2.70621,0.9411 5.90486,0.6618 8.73125,1.1528 3.25683,0.5659 7.56193,2.4552 10.84792,1.9597 2.02245,-0.3049 3.53425,-1.8474 5.29166,-2.7509 1.64777,-0.8472 3.49711,-1.2287 5.02607,-2.2511 1.35341,-0.9049 2.08384,-2.2338 3.1999,-3.3499 2.18466,-2.1847 5.24815,-3.9282 7.11987,-6.3739 M 40.15775,62.191483 c -3.24563,2.9115 -10.08835,1.6767 -12.73777,6.0854 -2.41468,4.0181 -0.0284,9.3972 1.21228,13.493799 0.48214,1.592 1.76569,4.2876 3.84849,3.5066 3.04689,-1.1426 0.96328,-7.379399 1.56505,-9.856599 0.96111,-3.9563 4.73021,-6.5015 8.22862,-8.1202 2.53861,-1.1746 5.79311,-1.8875 6.08542,-5.109 m -19.7523,96.105907 c -0.5853,1.7152 2.94727,1.0983 3.61271,0.9184 5.50952,-1.4889 10.76312,-2.2799 16.40417,-1.163 1.34491,0.2663 4.89744,3.762 5.66119,2.0007 0.77182,-1.78 -1.1714,-9.13561 -3.28402,-9.19961 -1.94688,-0.059 -3.60573,1.6799 -5.28759,2.4419 -3.11833,1.4128 -6.79821,2.0428 -10.05416,3.1678 -1.34848,0.46601 -6.55737,0.3833 -7.0523,1.83381 m 0.7023,-35.25171 c 1.72103,1.0543 3.8719,0.8953 5.82083,1.2713 2.91949,0.5631 5.98725,1.642 8.99583,1.3468 2.96715,-0.2912 7.72872,-2.701 10.31875,-4.2056 -3.21685,-0.9505 -6.36355,1.2261 -9.525,1.5424 -3.89654,0.3898 -7.58924,-0.7611 -11.37708,-1.4197 -1.72725,-0.3003 -3.17421,0.2917 -4.23333,1.4648 m 1.59279,139.42091 c -0.10109,1.1306 1.30643,1.2883 2.11137,1.1257 2.3927,-0.4833 4.78939,-1.4939 7.14375,-2.1695 2.96945,-0.8521 6.18414,-2.0058 9.26042,-2.3353 3.16793,-0.3394 6.3557,0.1614 9.525,-0.3116 4.90864,-0.7326 8.66259,-2.5369 13.75833,-1.1246 4.55524,1.2624 3.49965,4.4398 6.37859,7.1249 2.22125,2.0717 5.2904,2.7612 6.72973,5.6424 1.2903,2.583 -4.14421,6.1528 0.9146,6.7826 3.61443,0.45 10.50892,-1.1393 12.28782,-4.6661 1.35683,-2.69 0.57728,-6.1243 2.61603,-8.4428 1.65583,-1.883 3.91401,-3.3052 5.73366,-5.0557 1.54019,-1.4816 3.20642,-3.5776 4.78619,-4.8821 1.43607,-1.1859 3.29239,-1.3734 4.7284,-2.6085 3.67373,-3.1597 5.89412,-7.3703 10.06458,-10.1723 3.77435,-2.536 8.25124,-1.8639 12.43542,-1.9123 1.32771,-0.015 3.59439,-0.1696 3.85687,-1.8552 0.35986,-2.3109 -3.97295,-6.266 -5.97354,-6.7642 -4.03773,-1.0056 -9.41533,0.836 -13.49375,0.8737 -1.27646,0.012 -2.45343,-0.8495 -3.70416,-1.0854 -3.69629,-0.6974 -6.92006,-1.3225 -10.31774,-3.1436 -3.7337,-2.0011 -2.16964,-8.2878 -6.35102,-9.7824 -3.32863,-1.1899 -7.46421,-0.044 -10.84793,-0.9771 -3.19135,-0.88 -4.12499,-3.7896 -7.9375,-3.0703 -2.63553,0.4973 -6.56432,2.1872 -8.73023,3.7493 -1.24501,0.8979 -2.03393,2.4273 -3.4408,3.1509 -3.19075,1.6413 -7.01884,0.5289 -9.64852,3.6054 -2.69127,3.1485 -3.45226,8.8446 -5.13528,12.654 -1.07734,2.4385 -3.37043,3.2752 -4.89112,5.3021 -1.89328,2.5236 -2.53094,6.0226 -4.50609,8.4457 -2.72614,3.3443 -8.45126,5.1853 -12.33129,6.785 -1.87913,0.7748 -4.81763,2.834 -5.02179,5.1173 m 168.00512,-19.0355 c -2.84308,0 -4.0605,1.2003 -6.61458,2.0883 -1.21049,0.4208 -2.52532,0.3932 -3.70417,0.9305 -1.8899,0.8615 -3.411,2.2583 -5.55624,2.4915 -4.25221,0.4624 -8.52814,-0.9207 -12.7,-0.4544 -1.68359,0.1881 -2.52554,2.0577 -4.23333,1.9966 -8.40944,-0.3006 -16.56749,-2.779 -24.87083,0.3732 -5.10563,1.9382 -7.51711,7.4626 -11.90625,10.2775 -1.32809,0.8518 -2.93475,1.6694 -4.49791,2.0036 -1.04976,0.2244 -2.01016,0.021 -2.86143,0.7502 -1.543,1.3212 -2.003,3.7308 -3.75724,4.9959 -2.12558,1.5329 -5.32387,1.5618 -7.05556,3.6762 -1.44709,1.7669 0.15464,4.1098 -1.46644,6.0605 -1.94718,2.3432 -5.2753,4.2715 -7.87809,6.0789 -2.62213,1.8208 -3.24449,4.7907 -5.58096,6.7824 -1.86382,1.5887 -4.53716,1.5886 -6.58988,2.8085 -2.09804,1.2469 -2.76858,5.0817 -4.7676,5.7118 -1.06577,0.336 -2.60805,0.091 -3.69907,-0.1949 -3.11353,-0.8175 -5.81702,-3.1072 -8.99583,-3.6381 -2.83314,-0.4731 -7.03706,0.4573 -9.5105,-1.1467 -1.64244,-1.0651 -1.15792,-4.0032 -2.93942,-4.9407 -2.24649,-1.1822 -5.30124,-0.2115 -7.65842,-1.5481 -2.09483,-1.1879 -3.60002,-3.505 -5.29166,-5.1465 -1.8641,-1.8088 -4.49349,-3.1284 -7.14375,-1.9797 -0.77279,0.3349 -1.49085,0.8367 -2.05624,1.4711 -1.41053,1.5828 -0.42869,3.6867 -1.21574,5.5316 -0.73774,1.7292 -2.22867,3.0238 -2.95145,4.7625 -1.44364,3.4728 -0.91732,8.6633 2.25489,10.8732 2.03002,1.4143 4.68933,2.3787 7.14354,2.769 1.62835,0.2589 3.26614,0.1312 4.20985,1.7087 1.1909,1.9907 1.92764,6.0382 0.81725,8.1929 -0.67861,1.3168 -4.12108,2.0902 -3.2277,3.7054 2.29796,4.1545 9.13002,1.5737 10.55537,6.3529 0.86908,2.914 0.0165,6.5457 -2.11259,8.6151 -1.65435,1.608 -3.89286,2.6872 -5.3927,4.3733 -1.20775,1.3579 -1.67816,2.5425 -0.88073,4.2095 m -9.43355,-180.1335 c -0.34838,1.0721 1.36371,1.2678 2.02521,1.2607 4.57682,-0.049 5.41929,3.3208 8.73227,5.6226 0.66629,0.4629 3.10729,1.4441 3.50533,0.1286 0.34773,-1.1493 -1.43719,-3.1276 -2.05808,-3.9296 -2.6827,-3.465 -3.01542,-5.2717 -7.79827,-4.6763 -1.07156,0.1334 -4.00137,0.3474 -4.40646,1.594 m 161.56896,83.0314 c -4.99014,-0.9264 -7.58429,1.4193 -11.90625,3.3232 -1.89808,0.8362 -4.01008,1.0429 -5.82082,2.0914 -2.26706,1.3126 -4.06652,3.1879 -6.61459,4.0153 -4.4173,1.4343 -9.69193,-0.1207 -14.2875,0.7459 -1.68713,0.3182 -3.86144,0.6497 -5.29166,1.6384 -2.06991,1.4309 -3.28022,3.6564 -5.82083,4.3917 -4.49797,1.3018 -9.42315,1.1095 -14.02291,2.428 -2.86653,0.8217 -4.90734,3.0847 -7.67292,3.9124 -1.09101,0.3266 -2.38399,0.2538 -3.43958,0.6678 -1.15669,0.4537 -1.73296,1.4124 -2.91042,1.8517 -1.49614,0.5582 -3.4439,0.3786 -4.70595,1.5034 -2.41434,2.1518 -0.66604,6.2582 -2.32123,8.885 -1.8814,2.9857 -5.7284,3.8338 -7.99773,6.3614 -1.85847,2.07 -2.19314,5.2687 -3.86382,7.3969 -0.95489,1.2164 -2.02728,2.0595 -3.33628,2.8563 -2.68704,1.6357 -5.68612,2.7661 -8.73126,3.5272 -5.40692,1.3514 -12.44179,1.9812 -17.72708,-0.1533 -2.86719,-1.158 -5.10288,-3.3685 -7.9375,-4.5227 -2.61208,-1.0635 -5.73763,-0.9208 -8.20208,-2.3336 -1.91797,-1.0996 -3.10471,-3.108 -5.02709,-4.2209 -3.76322,-2.1786 -9.54189,-2.4695 -12.04406,1.672 -1.71915,2.8454 -1.06176,6.6176 1.72552,8.5063 1.98735,1.3466 4.75212,1.3785 6.55783,3.0116 1.36871,1.238 1.14506,3.2726 2.46658,4.5727 2.00803,1.9755 4.17061,2.7056 5.19756,5.6052 0.50803,1.4345 -0.33467,2.5753 -0.0535,3.9688 0.42609,2.1118 2.2633,3.6469 2.68238,5.8208 0.77221,4.0058 0.012,8.545 1.08386,12.4354 0.74376,2.6995 2.68369,4.9688 4.55467,6.8792 m -19.64633,-48.6717 c -1.42567,3.6367 4.47536,5.5704 6.68174,6.6744 2.80912,1.4057 4.39008,5.3911 7.14397,6.3418 1.53567,0.5302 2.73195,-1.2473 4.23312,-1.347 2.54731,-0.169 5.17005,0.8821 7.67292,1.2072 2.47687,0.3217 5.17369,0.3463 7.67291,0.3411 0.84656,0 2.09907,0.143 2.48108,-0.8319 0.30578,-0.7803 -0.1676,-1.4684 -0.90909,-1.7002 -2.21139,-0.6914 -4.6064,-0.6223 -6.86365,-1.3456 -4.5274,-1.4506 -9.78726,-2.8085 -14.02292,-4.925 -2.93414,-1.4661 -5.42969,-3.4963 -8.20209,-5.183 -1.60429,-0.9761 -5.01434,-1.4604 -5.88799,0.7682 m 1.91924,-18.0033 c 0.91056,1.0968 2.07788,1.0962 3.43959,1.6767 2.94988,1.2576 6.18886,2.2978 8.99583,3.8438 3.10824,1.712 5.31788,4.8079 8.73125,5.8862 1.953,0.6169 3.68438,1.4877 5.55625,2.2371 0.50932,0.2039 1.2836,0.3623 1.60834,-0.237 0.40449,-0.7466 -0.5825,-1.3036 -1.0806,-1.6022 -1.51036,-0.9054 -2.75364,-1.5241 -3.22441,-3.3379 -0.43032,-1.658 -1.28461,-3.1193 -1.66119,-4.7625 -0.2496,-1.0892 0.055,-2.3786 -0.22417,-3.4282 -0.32534,-1.2233 -1.65078,-1.4676 -2.53415,-2.2314 -2.00837,-1.7365 -3.09048,-4.5696 -6.11298,-4.8709 -3.18668,-0.3176 -5.62889,3.5153 -7.93751,5.071 -1.60741,1.0832 -3.94326,1.0736 -5.55625,1.7553 m 24.23502,27.6029 c -1.44473,-0.4155 -3.44416,-1.0638 -5.18501,-1.5606 -3.03485,-0.8661 -6.12163,-1.4812 -8.99584,-2.8437 -2.47696,-1.1741 -5.5909,-3.2874 -8.46667,-2.5611 l 4.7625,2.2539 6.6148,4.633 6.61437,0.4226 5.02709,1.1562 2.38125,0.2655 M 48.35984,61.926883 v 0.2646 m 82.8146,172.773007 c -1.86974,-0.5527 -3.89385,-0.1312 -5.82084,-0.2893 -1.62688,-0.1335 -2.91659,-1.1986 -4.49791,-1.4759 -1.56486,-0.2743 -3.22032,0.1701 -4.7625,-0.2548 -5.25807,-1.4484 -8.62874,-6.0002 -13.49376,-7.7457 -4.91069,-1.762 -9.1641,-0.2599 -14.02293,-0.8667 -2.00273,-0.2501 -3.5547,-1.8528 -5.55625,-2.0397 -2.48225,-0.2317 -4.71206,1.1485 -7.14375,1.2672 -1.69148,0.082 -3.48937,-0.6865 -5.02708,0.2642 -1.42789,0.8827 -2.05151,2.0323 -3.19868,3.1795 -1.71661,1.7166 -3.92553,3.1829 -4.87663,5.5799 -0.78883,1.988 0.007,4.1455 -1.00729,6.0854 -1.79451,3.4306 -4.97039,6.5502 -7.85073,9.0304 -0.94179,0.8109 -3.22054,2.1104 -2.73525,3.6408 0.57834,1.8239 4.73209,1.0202 6.17483,0.8226 5.99248,-0.8211 13.17927,-0.8891 18.78542,1.6808 1.51424,0.6941 1.97566,1.8696 3.20256,2.8806 1.72416,1.4206 3.86879,2.3521 5.45213,3.954 1.96314,1.9862 3.08037,4.6458 4.75209,6.8304 1.27785,1.6699 -0.33795,5.4624 2.20486,5.8796 1.36679,0.2243 2.79475,-0.6307 3.58821,-1.6577 2.00018,-2.5888 0.55746,-6.5423 3.07414,-9.2253 0.70465,-0.7512 1.58739,-1.3014 2.19651,-2.1442 0.70475,-0.9752 0.71037,-2.1732 1.563,-3.0842 1.78206,-1.9041 4.32957,-3.3027 6.24159,-5.1377 1.1853,-1.1376 1.86551,-2.6989 3.00066,-3.8963 1.03124,-1.0877 2.45789,-1.6376 3.6076,-2.5699 1.76999,-1.4353 3.20491,-3.1717 5.0375,-4.6235 2.87027,-2.2737 9.46778,-2.7406 11.1125,-6.0845 m -77.19079,42.3284 c -0.38899,1.2042 1.51277,2.0292 2.31369,2.5568 2.87198,1.8922 5.91835,2.3978 8.46666,4.8526 0.44613,0.4297 1.9811,2.0816 2.55907,0.9664 0.39734,-0.7667 -0.29564,-2.071 -0.51631,-2.8147 -0.78744,-2.6536 -1.7386,-4.4061 -3.59841,-6.4623 -1.13344,-1.253 -1.65755,-3.5216 -3.21828,-4.338 -2.33837,-1.2233 -5.41743,3.416 -6.00642,5.2392 m 11.04494,4.2382 -5.55625,-7.9375 c -1.28201,1.0161 -2.28733,3.5671 -0.9436,4.9124 0.75286,0.7537 1.89629,0.589 2.79568,1.1449 1.30312,0.8053 2.03197,2.1883 3.70417,1.8802 M 59.73692,62.720683 c 0.0863,1.9798 0.62461,4.4609 2.38534,5.6283 2.80381,1.859 7.39889,0.6785 10.57924,1.9821 4.7862,1.962 8.51207,8.0523 14.02292,8.5045 4.17278,0.3423 6.93973,0.062 8.80903,-3.9441 0.47955,-1.0278 1.23185,-2.2902 0.66473,-3.4289 -0.57003,-1.1446 -1.95021,-1.7054 -2.75893,-2.6671 -1.6894,-2.009 -3.05903,-4.4613 -4.59816,-6.604 M 198.90775,251.36859 c -0.59457,-0.4566 -1.18874,-0.9181 -1.85248,-1.2733 -4.29201,-2.2968 -5.23568,2.6204 -7.94771,4.4565 -1.73107,1.1719 -4.05592,1.3883 -5.81022,2.5182 -2.42012,1.5588 -3.743,3.7902 -6.08541,5.467 -4.49033,3.2145 -11.03239,1.3248 -16.13959,2.8315 -4.73388,1.3965 -7.00467,6.3161 -11.11249,8.3899 -3.03952,1.5344 -6.35739,0.2674 -9.525,0.6894 -1.5293,0.2038 -2.3873,1.537 -3.70416,2.1695 -5.33416,2.5622 -11.98989,-3.0275 -16.66774,1.2374 -4.18914,3.8193 -6.69135,12.0588 -8.16288,17.4347 -0.77021,2.8139 -0.83842,5.7588 -2.63011,8.1983 -1.35502,1.8449 -3.57932,2.9576 -5.61219,3.8909 -4.5655,2.0961 -11.30966,5.6026 -16.40418,5.3627 -4.75215,-0.2237 -8.78579,-2.9994 -13.75834,-2.6589 -1.53492,0.1052 -3.24454,0.4746 -4.7625,0.1513 -1.84254,-0.3924 -4.76584,-2.6258 -6.49984,-0.8372 -2.20147,2.2707 0.76536,7.9625 1.29678,10.4992 0.83741,3.9973 -1.37586,8.0165 -0.43668,11.9062 0.48921,2.0261 2.3464,3.4059 3.42712,5.0271 1.37138,2.0573 1.94119,4.6541 1.94804,7.1438 m -6.12197,-99.7373 c -0.80608,1.9618 1.50772,3.6808 3.21155,4.0829 2.69505,0.636 5.50525,-0.057 8.20208,0.4955 1.16181,0.2381 1.83762,1.2129 2.91042,1.6015 1.14656,0.4154 2.30986,-0.071 3.32342,0.8034 0.88957,0.767 1.4294,1.8864 2.28162,2.672 1.17493,1.083 2.65972,1.5804 3.87484,2.6419 0.85093,0.7434 1.4218,1.8298 2.45005,2.3574 2.35083,1.2063 8.32087,0.8904 10.24607,-0.9634 1.56182,-1.5039 2.18912,-3.7665 3.43266,-5.4997 1.0832,-1.5098 2.71167,-2.708 3.81686,-4.2334 1.02628,-1.4164 1.78415,-3.1371 2.7969,-4.4938 1.13867,-1.5254 3.0749,-2.5682 4.81926,-3.361 0.77353,-0.3515 2.23296,-0.5872 2.59929,-1.4648 0.71013,-1.7012 -3.84112,-3.5619 -4.98054,-4.0616 -2.77125,-1.2154 -4.94784,-3.2275 -7.67292,-4.3787 -2.89009,-1.2209 -6.24113,-1.5297 -9.26043,-2.3855 -2.7492,-0.7793 -4.91511,-0.3983 -7.67291,-0.5196 -5.63877,-0.248 -13.46133,-1.052 -17.32144,3.9973 -1.64015,2.1455 0.64358,4.4388 -0.81131,6.6136 -1.52808,2.2842 -5.26901,3.7195 -6.24547,6.096 m 6.14483,-1.0544 c -0.74351,1.6215 2.07978,2.4587 3.15214,2.7799 1.90759,0.5715 3.70681,0.084 5.55625,0.4541 1.93144,0.3863 4.82607,1.8496 6.61458,2.8473 1.81585,1.0129 2.58617,2.8404 4.24477,3.8622 7.44987,4.5895 8.99494,-5.1228 12.97704,-9.1526 1.73005,-1.7509 5.80434,-2.1838 6.68502,-4.7856 0.73029,-2.1576 -1.72557,-3.3566 -3.26932,-3.9745 -1.26069,-0.5046 -2.36721,-1.3863 -3.70417,-1.6949 -2.59708,-0.5993 -5.33255,-0.1934 -7.93751,-0.8937 -1.93008,-0.5189 -3.85566,-0.8765 -5.82083,-0.6448 -0.76354,0.09 -1.36875,0.075 -2.11667,0.076 -0.6728,0 -1.20985,-2e-4 -1.85208,0 -1.19168,0 -2.74872,-0.084 -3.54043,1.0871 -0.81244,1.2021 0.45476,2.2265 0.59571,3.4108 0.17535,1.4733 -1.26344,2.7328 -2.34695,3.4925 -1.93609,1.3575 -4.09429,1.6098 -6.35,1.9115 -1.01789,0.1361 -2.38607,0.1314 -2.88755,1.2251 m 130.41672,15.3314 c -1.09947,-1.438 -2.56418,-2.7761 -4.4977,-1.8048 -1.4102,0.7085 -2.07916,2.2668 -3.22115,3.2522 -1.15652,0.998 -2.49209,1.3804 -3.63435,2.3804 -1.13969,0.9979 -2.16476,2.5248 -2.98351,3.8451 -1.66699,2.6882 -3.17144,5.8669 -5.77162,7.7288 -2.5996,1.8615 -6.06912,1.2932 -8.99583,1.6428 -0.83456,0.1 -1.3225,0.023 -2.11667,0.01 -0.71444,-0.013 -1.24206,0.1082 -1.85208,0.134 -0.93935,0.04 -2.21174,-0.027 -3.175,0.3035 -3.41003,1.1698 -3.96814,5.3534 -7.67292,6.2582 -2.92964,0.7155 -6.05695,0.059 -8.99582,0.3738 -3.2638,0.3496 -6.3387,1.5415 -9.78959,0.8907 -3.32797,-0.6276 -8.54559,-3.579 -11.59573,-1.0536 -3.04819,2.5237 -1.37068,6.554 -1.37089,9.9065 -1.8e-4,2.7943 -1.7132,4.8015 -2.27591,7.4084 -0.53974,2.5005 0.17415,5.1459 -0.46833,7.6729 -0.38697,1.522 -1.61768,2.6031 -2.80997,3.5812 -2.31895,1.9025 -4.8307,3.3409 -7.14375,5.2652 -1.85721,1.545 -3.59142,3.285 -5.82084,4.3001 -6.37245,2.9014 -17.39911,1.0741 -23.81251,-1.2043 -2.24281,-0.7968 -7.06682,-5.5082 -9.14956,-3.1718 -1.0832,1.2151 -0.96744,3.0004 -1.46134,4.4587 -0.71143,2.1007 -2.22555,4.036 -2.06337,6.35 0.16457,2.3482 2.08505,4.233 3.31995,6.0855 2.24248,3.364 4.06431,7.1276 6.17932,10.5833 M 70.05567,61.928483 c 4.43577,2.7824 8.17321,8.4062 13.22916,9.941 1.99109,0.6045 3.21333,-0.9068 2.70239,-2.7973 -0.73772,-2.7296 -2.6092,-4.9176 -4.55447,-6.8791 M 69.95037,304.63899 c 0,0 2.57163,0.6564 3.05195,0.905 1.83449,0.9493 -0.30496,0.8595 -0.30496,0.8595 m 21.43539,37.3062 c 2.61727,-3.2792 -2.2819,-6.7677 1.6122,-10.2585 2.33636,-2.0944 6.63691,-1.307 9.50031,-2.1097 4.87835,-1.3677 8.93067,-4.1347 12.7,-7.3643 1.38778,-1.189 4.98676,-3.7501 4.64981,-5.9176 -0.52623,-3.3849 -7.06181,-0.3185 -8.35397,0.6413 -2.02242,1.5022 -3.81426,3.4007 -6.08542,4.5363 -4.60147,2.3007 -12.12574,2.9187 -17.19793,2.436 -3.64534,-0.347 -7.30961,-0.7989 -10.84792,-1.8072 -1.65787,-0.4725 -4.0142,-1.0704 -5.49582,0.1727 -1.40408,1.1781 -0.99018,3.5977 -0.49446,5.1189 1.43461,4.4024 3.93943,9.1402 6.51945,12.9646 m -3.34813,-98.68 c -0.0272,1.8086 5.20016,2.7904 6.52313,3.5127 1.33157,0.727 2.5439,2.1534 3.96875,2.6209 1.85287,0.608 5.19202,-1.4188 6.00131,-2.9692 0.71433,-1.3684 0.13258,-3.1798 1.03751,-4.4691 1.13129,-1.6118 4.14654,-1.4818 3.96711,-3.9914 -0.13209,-1.8476 -2.40574,-1.1169 -3.5976,-1.5138 -1.62967,-0.5427 -2.65415,-1.8178 -4.49791,-1.6365 -2.08054,0.2046 -2.30639,2.0451 -3.54268,3.3504 -1.07158,1.1313 -3.33719,2.2251 -4.65941,3.04 -1.10837,0.6831 -5.17635,0.4668 -5.20021,2.056 M 190.1765,62.193083 c -1.38784,1.2269 -1.51897,2.141 -1.15654,3.9687 0.52721,2.6586 2.86788,5.3084 2.9137,7.9375 0.0299,1.7158 -0.90846,3.6986 -1.47931,5.2917 -1.956,5.458399 -4.87,10.275 -10.06743,13.1465 -5.75262,3.1781 -13.74811,3.4069 -20.10833,5.0791 -4.81744,1.2666 -9.05257,3.860597 -13.75833,5.409497 -4.47722,1.4737 -10.12165,2.0459 -14.81666,2.5135 -2.324,0.2315 -4.33568,-0.9514 -6.61459,-0.9989 -2.58051,-0.054 -5.11938,1.1717 -7.67291,1.4977 -4.29938,0.5487 -9.09688,0.079 -13.22917,1.5434 -3.1032,1.0994 -5.17522,4.1825 -7.67293,6.1493 -2.69255,2.1202 -7.00418,3.549 -9.14956,6.1658 -1.19837,1.4617 -1.36342,3.8412 -2.27489,5.5316 -2.42405,4.4954 -3.99296,8.6637 -5.59708,13.4937 -0.72269,2.176 -1.90942,4.5722 -2.01785,6.8792 -0.23026,4.899 4.51375,5.2684 6.60172,8.7315 1.27729,2.1184 0.52107,5.29841 1.27311,7.67271 0.49607,1.5661 1.86853,2.6009 2.70033,3.9687 0.9068,1.4911 1.06323,3.3304 1.24391,5.0271 0.59066,5.5469 -5.44075,7.8034 -6.43758,12.7 -0.89234,4.3833 3.07705,4.9112 5.40681,7.4198 3.39492,3.6555 4.79316,8.2833 9.04483,11.3848 4.94287,3.6057 11.78206,-0.078 16.93335,3.1911 5.27589,3.3481 4.64578,12.4772 11.64166,13.9833 3.11419,0.6705 5.3812,-1.4078 8.20209,-2.2083 1.27783,-0.3626 2.66274,-0.1313 3.96875,-0.4438 1.43181,-0.3427 3.03914,-1.515 4.49404,-0.7756 1.92428,0.978 2.05364,3.7813 3.50001,5.2276 2.24026,2.24 6.34693,2.9933 8.93826,5.0846 3.05067,2.462 3.70134,6.3424 7.93851,7.2313 3.82086,0.8017 8.57209,1.2376 12.43542,0.5423 5.82636,-1.0486 11.34103,-4.3638 17.4625,-3.4617 2.18485,0.3221 4.16525,1.5559 6.08541,2.5663 M 86.72442,343.18059 c 0.92658,0.4918 2.23544,0.7954 2.90205,-0.3251 0.9226,-1.5506 -1.04824,-3.9663 -0.72476,-5.7591 0.49637,-2.751 6.88405,-3.1583 4.38993,-7.3704 -0.72742,-1.2284 -2.25595,-0.6699 -3.39222,-0.592 -2.38733,0.1634 -4.7562,0.042 -7.14375,0.2684 -1.05897,0.1007 -2.33386,0.1978 -2.7765,1.3572 -0.46718,1.2238 0.81216,2.4168 1.36028,3.4251 1.11347,2.0484 1.93284,5.1224 2.47455,7.4084 m -2.64583,-279.664607 0.26458,0.2646 M 82.7918,242.98639 c -1.06764,2.0143 4.18891,2.3665 5.25553,2.2734 2.74309,-0.2393 1.95144,-2.7263 3.73296,-4.0159 0.91908,-0.6653 2.54373,-0.5884 3.02291,-1.7972 0.57372,-1.4472 -1.90598,-1.7023 -2.78712,-1.486 -2.40735,0.591 -3.76332,3.4062 -6.35,4.107 -0.78503,0.2126 -2.44357,0.1061 -2.87428,0.9187 M 198.90775,62.986783 c -1.46875,0.012 -4.39454,-0.01 -4.8111,1.8562 -0.22966,1.0288 0.74118,2.1877 0.96689,3.1709 0.37963,1.6538 0.40463,3.5974 0.40463,5.2917 0,3.6524 -1.42372,6.0422 -2.90309,9.260399 -1.93154,4.2019 -3.42568,8.727701 -7.94483,10.765001 -8.22046,3.7059 -16.56436,5.4387 -25.13541,7.997497 -1.67556,0.5003 -3.08502,1.5982 -4.7625,2.132 -4.93987,1.572 -10.25142,2.4144 -15.34583,3.3349 -8.31235,1.5019 -17.96137,0.08 -25.92916,2.903 -2.0738,0.7348 -3.58862,2.2989 -5.29167,3.5862 -1.93308,1.4611 -4.12381,2.6088 -6.08542,4.0684 -7.51585,5.5924 -11.39313,13.149 -14.28751,21.8338 -0.92208,2.7668 -2.51223,6.2997 -2.32491,9.2604 0.14478,2.2882 1.53253,4.365 1.93742,6.6146 0.45966,2.55391 0.075,5.19771 1.03936,7.67291 1.24969,3.2077 3.15403,6.1146 3.84503,9.525 0.73175,3.6116 -1.5514,6.3202 -1.53892,9.7896 0.0111,3.075 2.65004,4.8819 3.92139,7.4083 0.91881,1.8259 0.7314,3.8933 2.0395,5.5324 1.58793,1.9897 4.54452,2.8866 6.95614,3.5749 2.49488,0.7122 4.6663,2.2197 7.14375,2.8255 2.94749,0.7208 7.17793,0.6939 9.77917,2.3172 1.55239,0.9687 3.55731,2.9747 4.50691,4.5355 0.98446,1.618 0.82238,3.1869 2.91204,3.8515 4.15581,1.3217 9.8444,2.1855 13.20121,-1.2304 1.30857,-1.3316 1.45866,-3.6614 2.77771,-4.8297 1.42021,-1.2579 3.66011,-0.4163 5.1312,-1.6315 0.86583,-0.7153 1.19969,-1.9229 1.96477,-2.7286 1.8438,-1.9417 3.66605,-2.6325 4.68881,-5.3376 0.68839,-1.8207 0.33338,-4.1308 1.15978,-5.8206 0.70703,-1.4457 2.26842,-2.1878 3.25135,-3.4408 1.45001,-1.8484 2.39972,-5.572 2.61176,-7.9365 0.20515,-2.288 -2.45216,-2.5916 -3.77399,-3.8083 -1.36862,-1.2597 -1.44207,-3.3607 -2.31307,-4.923 -0.45925,-0.8236 -1.32726,-1.6437 -1.3272,-2.6458 1.1e-4,-1.8864 2.69528,-3.6193 3.71865,-5.0271 1.60152,-2.2031 2.10827,-4.7245 2.39474,-7.40831 0.2327,-2.1803 -1.37305,-3.7974 -1.86149,-5.8208 -1.24491,-5.1575 -2.38601,-12.5458 -0.99708,-17.7271 1.68285,-6.2777 10.03689,-10.0697 16.20389,-9.181 2.92016,0.4208 5.52523,2.3041 8.46667,2.5417 5.31927,0.4296 9.96534,-1.1432 15.08125,0.8184 M 88.5765,61.928483 l 0.26458,0.2646 m 1.97479,86.254097 c -0.38403,4.3885 2.00667,8.0974 3.08292,12.17091 1.11338,4.214 2.87643,8.6989 3.58739,12.9645 0.36192,2.1715 -0.12166,4.4317 0.16272,6.6146 0.55429,4.2549 3.39559,10.4788 6.80281,13.0883 3.16778,2.4262 7.19245,3.6854 11.1123,4.0647 2.65925,0.2574 6.27041,0.018 8.72738,1.1018 2.50661,1.1051 2.12557,4.0152 3.28932,6.0828 0.87548,1.5555 2.40724,1.6252 3.8583,2.3229 2.29327,1.1025 3.61266,3.4 6.34592,1.6514 1.88333,-1.2049 0.90753,-3.37 2.42453,-4.5486 2.04782,-1.5909 4.82685,-1.948 6.82935,-3.5704 1.9675,-1.5941 1.49265,-4.0124 2.74731,-5.9054 1.38596,-2.091 3.26372,-3.2994 4.79618,-5.2916 1.21865,-1.5843 1.51347,-3.5205 2.34225,-5.2917 0.54174,-1.1578 1.74771,-2.3583 1.6814,-3.7042 -0.0855,-1.7349 -1.82447,-3.2545 -2.8455,-4.4979 -1.52256,-1.8541 -2.70841,-4.1232 -2.59804,-6.6146 0.15523,-3.5038 1.46308,-7.7482 2.46963,-11.1125 0.58651,-1.96031 1.54609,-3.71841 1.46092,-5.82081 -0.10517,-2.5967 -1.43932,-4.9104 -1.96905,-7.4083 -0.7958,-3.7527 -1.02616,-11.2419 0.37278,-14.8167 1.10775,-2.8307 3.47239,-6.3672 6.10481,-7.935 1.47109,-0.8762 3.40559,-0.6398 5.02709,-1.0343 2.38144,-0.5794 4.45118,-1.6091 6.87917,-2.1473 2.45153,-0.5434 4.25035,-2.5362 6.0844,-4.1547 0.63591,-0.5612 1.62362,-1.233 1.62362,-2.1914 0,-2.1782 -4.46852,-4.296 -5.84533,-5.6012 -1.33706,-1.2675 -1.51848,-4.4268 -3.19725,-5.0869 -1.34587,-0.5292 -3.14137,0.048 -4.48628,0.3167 -2.2771,0.4553 -4.75694,0.7394 -6.87917,1.7261 -1.60729,0.7473 -2.85413,2.144 -4.49791,2.7875 -2.73594,1.071 -5.90389,0.5489 -8.73124,1.4511 -4.49925,1.4358 -8.70486,3.1285 -13.49375,3.3382 -4.59006,0.2009 -9.53168,-1.0895 -14.02292,0.2086 -2.32784,0.6728 -4.19323,2.3861 -6.35,3.4373 -2.35698,1.1488 -5.15184,1.863 -7.09782,3.6319 -2.0481,1.8618 -2.79797,4.6421 -4.63,6.7451 -1.65439,1.899 -4.0651,2.987 -5.56586,5.0414 -1.06541,1.4584 -1.41936,3.3673 -2.07481,5.0231 -1.75392,4.4309 -3.10967,8.1892 -3.52757,12.9646 m 6.34061,-6.35 c -0.44193,3.0849 -0.11331,6.411 -0.11331,9.525 0,1.6721 -0.2953,3.6797 0.21273,5.2915 0.52909,1.67861 2.46381,1.83561 2.88164,3.44491 0.58076,2.2368 -0.53586,4.7704 0.27703,6.873 0.57898,1.4976 2.24887,2.0869 2.69851,3.7052 0.90213,3.247 -0.23496,7.0748 0.34032,10.3188 0.53704,3.0282 4.31309,7.0801 6.33857,9.2489 3.14532,3.368 10.80582,3.8922 15.03246,4.566 2.20392,0.3512 2.93795,2.3935 5.02708,2.9679 5.86735,1.6133 11.90141,0.2 16.13571,-3.8419 3.09721,-2.9566 6.00723,-7.4063 8.59446,-10.8243 0.82724,-1.0928 1.4348,-2.5546 1.08794,-3.9685 -0.44836,-1.8275 -2.35035,-2.7106 -3.5684,-3.9794 -1.50239,-1.5649 -2.23192,-3.6651 -2.38228,-5.8104 -0.26914,-3.8401 0.70188,-8.0113 1.92253,-11.6417 0.67381,-2.00401 1.90024,-3.92181 1.99457,-6.08541 0.0913,-2.0949 -1.6299,-3.7863 -2.01948,-5.8208 -1.13667,-5.936 -1.22224,-11.9278 0.65716,-17.7271 1.43218,-4.4193 4.48176,-9.4458 8.79862,-11.4024 2.8563,-1.2946 9.93035,-0.776 10.5178,-5.0018 0.40292,-2.8984 -3.93256,-3.9059 -6.01989,-4.2543 -3.62083,-0.6044 -6.48881,1.4963 -9.78958,2.5721 -2.63334,0.8583 -5.48727,0.8119 -8.20207,1.2682 -3.64955,0.6134 -7.53389,0.9477 -11.1125,1.8635 -2.41862,0.619 -4.68231,2.0221 -7.14375,2.4331 -3.69706,0.6174 -7.55915,-0.3619 -11.1125,1.2272 -6.32081,2.8267 -11.09289,8.2164 -15.11187,13.6756 -2.52648,3.432 -5.32407,7.0671 -5.9415,11.3771 m 101.75127,120.65001 c -0.51107,-0.3635 -1.0061,-0.7171 -1.58874,-0.9623 -4.20068,-1.7686 -4.12189,3.4228 -5.72671,5.7248 -1.35717,1.9468 -3.8336,3.7555 -5.06056,5.8209 -1.95508,3.291 -1.99246,6.7279 -4.82292,9.5211 -0.8845,0.8729 -1.73442,1.5724 -2.9094,2.0217 -3.81866,1.4602 -8.02969,1.8139 -11.90625,3.1924 -5.08462,1.808 -10.04039,4.9461 -15.61041,4.5557 -6.12331,-0.4292 -12.1071,-4.8298 -18.25625,-2.3823 -0.89178,0.3549 -2.03565,0.2052 -2.73872,0.9334 -1.49827,1.5518 -1.08683,4.5228 -1.27494,6.4996 -0.47356,4.9762 -3.78554,8.9254 -3.05067,14.0229 0.42484,2.9471 4.28021,4.9068 3.82809,7.673 -0.23814,1.4569 -1.49784,2.6122 -2.43331,3.7041 -3.04751,3.5571 -6.34379,4.651 -10.20545,7.0019 -2.01351,1.2258 -3.46888,2.8994 -5.82083,3.5394 -3.05542,0.8314 -9.78933,-0.1252 -11.70986,2.7128 -1.416,2.0925 0.89681,5.2478 1.39111,7.3834 m -0.91706,-193.41041 c -0.42634,2.0233 1.64954,2.7613 2.12524,4.4979 0.48476,1.7698 -0.003,3.81031 0.56428,5.55631 0.79071,2.4351 2.56642,4.8397 3.71846,7.1437 0.69113,1.3823 1.65013,2.8503 1.86107,4.2334 0.11972,0.7849 0.0563,1.5223 0.0563,2.3812 0,3.3818 0.81229,8.1263 3.05129,10.8232 2.23512,2.6922 7.20485,4.2401 10.44246,5.433 3.24252,1.1946 7.4307,0.8849 10.84792,1.2522 2.75852,0.2966 5.16059,1.288 7.9375,0.2307 2.35637,-0.8971 3.89909,-3.1182 5.82083,-4.6557 1.89734,-1.5179 5.5927,-3.5909 5.96558,-6.2042 0.38307,-2.6847 -4.43537,-5.106 -5.85473,-6.8906 -2.04521,-2.5716 -0.58095,-6.4216 -2.04316,-9.248 -0.7683,-1.4851 -2.80604,-2.1838 -3.0227,-3.9698 -0.18928,-1.5601 1.26308,-2.7995 2.01703,-3.96871 1.2201,-1.892 1.22139,-4.0795 2.13627,-6.0844 0.47515,-1.0413 1.74772,-1.5934 2.04032,-2.6744 0.46908,-1.7331 -0.36337,-4.2989 -0.59715,-6.0579 -0.56494,-4.2505 -1.85456,-11.3179 -0.14413,-15.3458 1.09957,-2.5894 3.63734,-7.5603 5.8633,-9.1481 0.75847,-0.5411 3.17357,-1.931 2.58866,-3.1728 -0.78484,-1.6662 -4.77454,-0.7588 -6.03887,-0.3726 -2.68843,0.8213 -4.51259,-0.3895 -7.14375,-0.2425 -2.31943,0.1296 -4.68141,1.5594 -6.87917,2.2616 -2.56932,0.8209 -5.05974,2.1296 -7.67291,2.7634 -2.42732,0.5888 -4.85975,0.2996 -7.14375,1.5349 -4.63281,2.5055 -8.19183,7.1596 -11.90626,10.874 -2.46891,2.4689 -5.82112,4.9301 -7.22725,8.2021 -0.91571,2.1308 1.15737,2.7794 1.03731,4.7625 -0.13444,2.2205 -1.95069,3.9529 -2.40003,6.0854 m 0.12331,-88.370797 v 0.2646 m 4.40217,88.106197 c -0.728,2.5329 0.78842,3.8963 1.58075,6.0854 0.56287,1.55511 0.6028,3.30631 1.44808,4.76251 2.2073,3.8028 5.42263,6.6728 7.30319,10.8479 1.0526,2.337 -0.18295,5.7948 1.25555,7.6615 1.05145,1.3645 2.82699,1.6174 4.03163,2.7606 1.35989,1.2905 1.79012,3.4036 3.79113,3.9786 1.94621,0.5591 4.37921,-0.1453 6.35,-0.3328 2.1865,-0.2081 4.47513,0.3792 6.61458,0.1233 2.32776,-0.2784 4.33704,-1.6586 6.61459,-2.1259 1.45543,-0.2986 5.92246,-0.9464 6.183,-2.8163 0.13208,-0.9479 -1.10198,-1.7852 -1.68509,-2.3698 -1.70346,-1.7077 -3.38504,-3.1977 -4.99176,-5.0281 -1.87018,-2.1305 0.0751,-4.416 -0.72434,-6.6136 -0.82329,-2.2629 -3.14566,-3.0972 -3.7944,-5.5562 -1.28417,-4.86751 3.08258,-9.15221 3.64088,-13.75831 0.30784,-2.5399 -0.88873,-4.8909 -0.99913,-7.4084 -0.0931,-2.1226 0.83691,-4.5785 0.37687,-6.6146 -0.61233,-2.71 -2.55183,-3.8678 -1.7988,-6.8791 1.05886,-4.2344 3.36417,-5.6022 6.96267,-7.3163 0.76161,-0.3628 1.58207,-1.2425 1.05098,-2.1256 -0.65768,-1.0937 -2.61247,-0.8751 -3.69172,-0.8769 -3.63026,-0.01 -6.26799,1.8387 -9.78958,2.3466 -3.32619,0.4797 -8.35218,1.3219 -11.10841,3.3446 -2.47709,1.8179 -3.62553,4.7825 -6.35409,6.5603 -3.17197,2.0667 -7.47778,4.1673 -9.28166,7.5923 -1.19234,2.2638 0.24783,4.7812 -0.096,7.1437 -0.37561,2.5814 -2.20132,4.2221 -2.88898,6.6146 m 4.70698,-2.3812 c -1.12148,7.8317 7.76541,8.8011 13.11586,10.64921 1.52509,0.5268 2.50362,1.7939 4.23333,1.7717 7.67007,-0.099 11.1458,-8.23991 12.09142,-14.80221 0.82538,-5.7278 -4.26318,-10.6202 -3.57575,-16.1396 0.21109,-1.6949 3.28168,-4.9339 0.97014,-6.3026 -1.69838,-1.0056 -7.2308,-0.7048 -8.68144,0.5422 -1.56045,1.3414 -2.28275,3.445 -3.76358,4.8873 -2.56961,2.5026 -6.39943,2.8491 -8.89824,5.1934 -2.23698,2.0987 -2.35798,4.8485 -3.19848,7.586 -0.70424,2.2936 -1.94569,4.1873 -2.29326,6.6146 m 3.18357,13.02501 c -0.27951,0.9882 1.27868,2.3388 1.7496,3.1145 1.64414,2.7084 2.49074,5.4826 4.3199,8.0498 0.80829,1.1345 0.0887,2.6484 0.69514,3.8563 0.49452,0.985 1.51199,1.5468 2.14158,2.4264 1.29866,1.8142 1.82553,4.0986 4.20107,4.9736 2.49017,0.9171 6.74118,-0.3882 9.26042,-0.9573 2.69223,-0.6082 5.19812,-0.5528 7.9375,-0.6255 0.81848,-0.022 2.19932,-0.086 2.44698,-1.0896 0.41329,-1.6754 -4.57715,-4.3912 -5.47683,-5.7857 -1.58532,-2.4574 -0.0212,-4.5684 -0.87174,-6.8792 -0.26508,-0.7203 -0.84268,-1.244 -1.28351,-1.8521 -0.61437,-0.8475 -0.85523,-2.0074 -1.75062,-2.6231 -3.0327,-2.0856 -7.6679,-0.5591 -11.05595,-1.4385 -3.10852,-0.8069 -6.00862,-1.6694 -9.26042,-1.9789 -0.82763,-0.079 -2.74619,-0.2759 -3.05312,0.8093 m 23.95521,-11.43751 c -3.11167,-1.6328 -7.95034,3.3489 -11.1125,3.9085 -1.38541,0.2452 -3.10282,0.2304 -4.23334,-0.5835 -1.51191,-1.0885 -2.61825,-1.9857 -4.49791,-2.5207 -1.31895,-0.3753 -3.6428,-0.4605 -4.03449,1.3164 -0.38672,1.7543 2.3156,2.513 3.50532,2.9061 3.83263,1.2665 9.18233,5.02511 13.22917,3.75631 3.91832,-1.2285 4.82886,-5.95851 7.14375,-8.78311 m -22.75417,-87.577097 0.26458,0.2646 m 1.72756,82.285397 c -0.84383,3.7029 2.31703,3.9519 4.61203,5.3521 1.29478,0.7899 2.05273,2.5027 3.71458,2.6526 1.37041,0.1235 2.48582,-1.0814 3.43958,-1.8362 2.25314,-1.783 6.39823,-1.5701 7.2197,-4.8456 1.14685,-4.573 -3.33061,-9.1809 -3.43877,-13.4938 -0.0274,-1.0946 0.69769,-1.9507 1.10692,-2.9104 0.4675,-1.0962 0.72274,-2.7822 -0.66921,-3.2748 -2.28407,-0.8082 -3.43738,3.2697 -4.46403,4.5739 -1.32903,1.6883 -3.33485,2.621 -4.7427,4.2582 -0.96165,1.1183 -1.11583,2.5851 -2.18342,3.6582 -1.78579,1.7951 -3.99469,3.2328 -4.59468,5.8658 m 0.38911,7.9375 c 0.67503,1.1895 2.63721,1.8161 3.96875,2.4488 2.50627,1.1909 6.019,2.57581 8.73023,1.2766 1.62493,-0.7787 2.56632,-2.42 3.96977,-3.4608 -2.35048,-0.6932 -5.77338,2.1699 -8.46667,2.0439 -2.67275,-0.1249 -5.79061,-2.8909 -8.20208,-2.3085 m 0.81662,11.75151 c -0.63302,1.1324 3.11702,3.5159 3.74213,4.6526 1.22695,2.2312 2.67206,4.3586 3.83953,6.6146 0.61637,1.1911 1.18374,2.6943 2.23405,3.5325 1.94226,1.5501 4.29465,1.0753 6.56559,0.9759 1.25304,-0.055 4.53913,0.3222 5.27921,-0.8883 0.80339,-1.3141 -1.98975,-4.4978 -2.62194,-5.7367 -0.80976,-1.5869 -0.0786,-3.531 -0.76763,-5.0269 -1.87906,-4.0796 -6.64441,-2.7887 -10.09173,-3.8204 -1.85727,-0.5557 -6.73862,-2.8803 -8.17921,-0.3033 m 4.91317,-20.21821 c -1.48953,5.026 8.02628,5.1534 9.15997,1.3189 0.82275,-2.7829 -1.13897,-2.986 -2.03399,-5.0506 -0.31604,-0.7291 -0.11354,-2.7146 -1.25309,-2.7146 -1.75129,0 -5.39846,4.8455 -5.87289,6.4463 m 2.93736,24.87211 c -1.19941,3.3406 3.47483,7.6573 6.4141,7.6714 1.12611,0.01 3.31899,0.2904 3.79481,-1.0934 0.43098,-1.2534 -0.89615,-6.4879 -2.21241,-6.8965 -1.14415,-0.3552 -2.00775,0.9611 -3.13458,0.7468 -1.39833,-0.2659 -3.50477,-4.2083 -4.86192,-0.4283 m 74.14742,107.155 c -2.55958,0.081 -3.66426,1.9913 -5.30209,3.7042 -2.50551,2.6202 -5.32945,5.5472 -8.98541,6.6744 -3.47057,1.07 -7.44846,-0.1054 -10.84791,1.0644 -2.0363,0.7008 -3.42773,2.5294 -5.29167,3.5553 -2.48387,1.3672 -5.32845,1.7909 -7.9375,2.8486 -1.99203,0.8076 -3.71984,2.0944 -5.82083,2.6612 -6.85487,1.8491 -13.34851,0.039 -16.70141,8.0669 -2.60749,6.2435 2.90338,12.2224 1.61915,18.5208 -0.6251,3.0658 -2.80117,5.3085 -3.85239,8.2021 -1.53977,4.2383 -0.2886,8.7465 1.47216,12.7 m 3.81768,-11.3771 c -0.34762,2.5123 1.8518,5.792 4.63449,4.0063 0.88607,-0.5686 1.28297,-1.6161 1.91517,-2.4188 1.45345,-1.8454 3.75332,-3.9466 4.67309,-6.0854 1.15076,-2.676 -2.84664,-4.7819 -2.53336,-7.4083 0.11771,-0.9869 0.89248,-1.702 1.13754,-2.6459 0.3275,-1.2612 -0.0149,-2.5053 0.66656,-3.7041 0.78437,-1.3798 2.23442,-2.2324 2.8947,-3.7042 1.24071,-2.7656 1.31954,-6.1265 2.55927,-8.9948 0.91446,-2.1158 4.75709,-2.6089 6.69318,-3.6472 0.69489,-0.3727 2.30314,-1.0972 2.1375,-2.0934 -0.17778,-1.0691 -5.23579,0.8418 -6.10625,1.0761 -3.45082,0.9286 -5.74288,3.7855 -8.99582,5.0048 -2.45363,0.9198 -6.50959,0.8202 -8.31907,2.8902 -2.16695,2.479 -0.0606,6.9195 0.30501,9.7331 0.4624,3.5583 0.68007,8.6516 -0.0237,12.1708 -0.39848,1.9926 -1.35397,3.7657 -1.63834,5.8208 m 7.03024,-162.7187 c 0.94537,-1.7715 0.10459,-3.6435 0.37788,-5.5563 0.52335,-3.6629 1.73799,-6.8945 2.91552,-10.31871 0.40597,-1.1806 0.41976,-2.8894 -0.94093,-3.3994 -3.07656,-1.1531 -3.7633,3.2074 -4.55468,5.2515 -0.50215,1.29701 -2.08716,2.57321 -2.08707,3.96871 1.1e-4,1.6252 1.88787,2.3999 2.5505,3.7146 1.03202,2.0476 0.42203,4.3693 1.73878,6.3396 m -2.79691,142.3458 c -0.27582,1.9924 0.62708,3.8455 0.66595,5.8208 0.0537,2.7279 -0.76103,6.0661 -0.12515,8.7264 0.33045,1.3824 1.9277,1.74 2.97596,0.8762 1.99888,-1.647 -0.78314,-3.5717 -1.16492,-5.1046 -0.80029,-3.2136 0.53256,-7.3422 1.6998,-10.3149 0.7127,-1.8151 3.56962,-2.0577 3.92914,-3.9767 0.18055,-0.9637 -0.16312,-3.7896 -1.49502,-3.7967 -1.04806,-0.01 -2.30835,1.3543 -3.15969,1.8987 -2.27097,1.452 -2.96897,3.2913 -3.32607,5.8708 m 2.00316,-150.2833 c 1.076,-2.2036 3.1078,-7.49341 2.11666,-9.52501 -1.62194,1.529 -4.71224,8.01391 -2.11666,9.52501 m 51.59372,122.5021 c -2.0837,0.01 -2.07947,0.023 -4.23334,0.3438 -2.46469,0.367 -5.04093,1.4276 -7.40832,2.2138 -3.49202,1.1598 -8.65978,1.6065 -11.63778,3.7395 -2.3365,1.6735 -3.12466,4.7948 -5.56114,6.3677 -2.45026,1.5819 -5.71198,1.7569 -7.91158,3.7957 -2.42492,2.2475 -1.47755,5.6752 -2.84508,8.4103 -1.72667,3.4533 -7.02033,5.6365 -6.9549,9.7896 0.0607,3.855 4.29606,7.2454 3.54858,11.1125 -0.58325,3.0175 -3.68899,4.5442 -5.65586,6.6185 -1.86941,1.9714 -2.60404,4.5993 -3.46347,7.1398 m 51.59374,-214.57711 c -2.57831,0 -4.88193,0.861 -7.40832,1.0028 -2.69133,0.1511 -6.3845,-0.354 -8.99583,-0.8254 -2.06752,-0.3731 -2.95466,-2.0719 -4.7625,-2.9671 -2.23416,-1.1063 -7.58364,-0.7236 -9.78958,0.4074 -4.27724,2.1931 -4.12439,7.9588 -2.90368,11.9073 0.49682,1.607 1.60944,3.5944 1.44377,5.2917 -0.1231,1.2612 -1.4283,2.1692 -2.04785,3.175 -0.70225,1.14 -0.52408,2.686 -0.24417,3.9687 0.53433,2.4488 4.69175,2.6879 4.15493,5.2917 -0.32019,1.55311 -2.00907,2.85701 -3.02434,3.96881 -2.23069,2.4427 -5.91335,6.3246 -5.50316,9.7895 0.186,1.5714 0.67945,3.3996 2.30469,4.0372 1.38969,0.5451 2.98964,0.093 4.19699,1.1047 1.03413,0.8664 1.17346,2.2857 1.27229,3.5894 0.0485,0.64 -0.0739,1.2158 -0.13373,1.8521 -0.0904,0.9622 -0.0183,1.5745 -0.20762,2.6458 -0.97979,5.545 -5.37708,7.4894 -7.65882,12.1708 -1.34207,2.7536 0.13027,5.969 -2.09198,8.3912 -3.03377,3.3066 -11.0441,5.9505 -9.75036,11.7172 0.24892,1.1096 0.72895,2.2259 1.33107,3.1748 1.7457,2.7508 4.801,3.2884 7.48489,4.855 2.00982,1.1731 2.99885,2.8702 4.7625,4.3184 2.06986,1.6997 6.60625,3.595 9.26041,3.9996 8.08952,1.2333 14.38408,-4.5112 22.22499,-4.1719 1.83168,0.079 2.14592,1.5056 3.46429,2.4548 0.89778,0.6463 2.09174,0.7743 3.15029,0.9797 M 154.72224,61.928483 v 0.2646 m 43.65623,75.141597 c -4.80885,0 -9.4047,1.5804 -14.28748,0.7066 -1.55107,-0.2775 -2.55478,-1.473 -3.96875,-2.0281 -1.94106,-0.7619 -5.64471,-0.5411 -7.40731,0.566 -5.91605,3.7157 -0.2721,9.5089 -0.56959,14.2493 -0.15411,2.4555 -2.39411,3.2524 -1.67264,6.0852 0.50255,1.97321 3.73795,2.31571 3.21135,4.49811 -0.96052,3.9806 -6.86221,6.5144 -6.75688,10.8479 0.0377,1.5527 0.5,3.3788 2.0838,3.997 0.98372,0.3839 2.19697,0.082 3.00106,0.9015 1.50627,1.5346 0.87621,4.8734 0.53897,6.7432 -0.80814,4.4806 -4.50249,6.2004 -6.16545,10.0542 -1.09013,2.5262 0.0485,5.2262 -1.9025,7.4081 -3.49275,3.9061 -9.82455,6.4339 -5.9115,12.4346 1.49315,2.2897 3.90551,2.7169 6.20486,3.923 1.9336,1.0143 3.13534,2.8942 5.02708,3.9929 3.52609,2.0478 8.17248,2.7459 12.17083,2.359 5.22744,-0.5059 12.78039,-6.3483 16.93332,-1.0135 m -0.26459,81.4917 c -2.2606,-1.3194 -6.5576,-4.2143 -9.2604,-2.8631 -2.36378,1.1818 -3.4942,4.1894 -6.08541,5.0326 -4.58013,1.4904 -10.44235,-0.6596 -14.81667,1.5346 -4.53386,2.2743 -5.42899,6.5029 -6.73095,10.848 -0.69863,2.3316 -2.28888,4.1442 -2.67789,6.6146 -0.94106,5.976 -0.0229,12.3077 -1.43907,18.2562 m 41.01039,-36.5125 c -2.19424,-1.2807 -6.10224,-3.8403 -8.73124,-2.7655 -2.32117,0.949 -3.56624,3.322 -6.0854,3.9084 -4.68786,1.0912 -10.23106,-0.7502 -14.55209,1.7357 -4.96093,2.854 -3.84616,6.4569 -4.8658,11.1443 -0.49144,2.2593 -2.32852,3.9999 -2.72096,6.35 -0.93465,5.5972 1.62539,10.5356 3.35343,15.6104 m 33.60206,-33.0729 c -2.00149,-1.4127 -5.63636,-3.5132 -8.20207,-2.7755 -2.30921,0.6641 -3.83911,2.5286 -6.34999,2.924 -5.18663,0.8167 -10.88617,-1.1596 -15.32112,2.4341 -3.18133,2.5778 -0.9795,6.4705 -1.39663,9.8528 -0.32137,2.606 -2.5318,4.5878 -3.15255,7.1438 -0.79413,3.2699 0.77428,7.9644 3.22912,10.2624 1.53324,1.4352 3.46363,1.9962 4.99951,3.4959 m 26.45832,-198.70211 c -3.1019,0.642 -6.30529,1.2813 -9.52499,0.7344 -3.17507,-0.5394 -6.23454,-3.1313 -9.201,0.087 -3.15907,3.4274 0.91332,7.4617 0.36565,11.0847 -0.29823,1.97271 -2.19519,3.32471 -1.28699,5.54201 0.44083,1.0762 1.94951,1.4052 1.95558,2.6613 0.005,0.9936 -1.04509,1.9141 -1.64323,2.6446 -1.33383,1.629 -3.82131,3.9611 -4.15636,6.0854 -0.65119,4.1285 3.7309,3.4754 3.3379,7.4084 -0.45139,4.5175 -3.27052,6.5698 -5.47581,10.0541 -0.98024,1.5488 -0.71648,3.3049 -1.18756,5.0271 -1.35111,4.9395 -9.45793,6.2993 -5.42723,12.4314 1.05904,1.6111 3.34682,2.3211 4.99197,3.3428 1.26462,0.7853 2.20862,1.913 3.43959,2.7179 2.77812,1.8163 7.04837,2.417 10.31874,2.1005 3.76219,-0.3641 10.44817,-3.9473 13.49374,-0.4843 m 0,96.8375 c -1.96483,-1.0338 -4.13245,-2.4384 -6.35,-2.8234 -2.44611,-0.4247 -4.30133,1.3438 -6.61458,1.6855 -4.73361,0.6992 -13.58522,-2.029 -16.66628,2.9941 -1.91484,3.1218 1.42746,6.9511 0.65125,10.3147 -0.55177,2.3909 -2.49289,4.2837 -3.27178,6.6146 -1.35345,4.0502 2.14278,7.4619 4.73474,10.0541 m 27.51665,-51.0646 c -0.33698,-4.0871 -4.45045,-3.4831 -7.40833,-2.3639 -3.46776,1.3123 -7.71616,2.3949 -10.8479,4.3397 -2.40935,1.4963 -4.21082,3.9554 -6.61459,5.5122 -1.70745,1.1058 -3.6926,2.2257 -5.55603,3.0439 -0.70481,0.3095 -1.89503,0.6057 -1.35212,1.6286 1.15833,2.1823 7.06785,0.3743 9.02482,0.031 2.18798,-0.3843 4.85491,-0.778 6.87917,-1.7011 1.23596,-0.5636 2.12056,-1.7186 3.43957,-2.0964 3.78336,-1.0838 8.79553,-0.5666 12.17082,1.396 m -27.25206,41.275 8.46667,1.8521 m 18.78539,-185.7375 c -3.12883,0.2473 -6.08102,1.46 -9.2604,1.349 -1.98581,-0.069 -3.80658,-1.1917 -5.48254,0.5625 -2.1541,2.2545 0.80335,5.3845 0.68165,7.8781 -0.0583,1.1946 -0.86408,2.2115 -0.71207,3.4395 0.14342,1.1587 1.4182,1.9714 1.03709,3.175 -0.76412,2.4134 -3.67185,3.7691 -4.1245,6.35 -0.29588,1.6871 1.00916,1.743 1.56177,2.9829 0.43675,0.98 0.0106,2.41 -0.30337,3.3671 -0.75622,2.3056 -2.7182,3.7823 -3.79176,5.8209 -0.77637,1.4742 -0.43109,3.3283 -1.39171,4.7625 -1.57206,2.347 -4.58157,4.3001 -2.52702,7.4073 1.10944,1.6778 2.79794,2.1004 4.46913,2.9972 6.7266,3.6093 12.76194,1.5017 20.10832,1.5017 m 0,115.8875 c -4.76912,-2.2561 -9.14821,-7.3635 -14.81665,-7.1331 -5.42257,0.2204 -8.30201,7.2035 -6.17729,11.8954 1.09902,2.4269 4.62579,3.1305 6.41309,4.8423 1.5948,1.5275 0.89626,3.7744 2.07623,5.4481 1.10983,1.5742 3.98464,2.2459 5.62546,3.2036 m 6.87916,-273.314607 c -0.0414,5.0066 -2.09262,9.0348 -3.2738,13.758399 -0.56925,2.2764 -0.94072,5.210101 -2.82305,6.775801 -2.37388,1.9746 -6.17229,4.2573 -8.98438,5.574 -1.70079,0.7964 -4.00547,1.0607 -5.13202,2.7428 -2.32247,3.467897 3.59297,7.792997 4.54446,10.836497 0.57948,1.8536 0.54128,3.8214 -0.76414,5.2917 -0.87896,0.99 -2.95303,2.3952 -2.7622,3.9677 0.23776,1.9594 3.14855,2.2423 4.64305,2.5411 4.78723,0.9574 9.87491,-0.214 14.55208,0.8995 m 0,46.56671 c -2.36297,0.1881 -4.5769,1.0385 -6.87916,1.5317 -0.86568,0.1855 -2.12335,0.2186 -2.7034,0.9641 -0.86857,1.1163 0.53123,3.2029 0.83682,4.3834 0.34723,1.3413 -0.0736,3.636 -0.19925,5.027 -0.15454,1.7108 -2.26234,3.029 -3.05211,4.498 -0.57866,1.0763 -0.26371,2.3221 -0.80374,3.4395 -1.32584,2.7435 -3.14428,4.485 -4.16085,7.4084 -0.60767,1.7474 -2.35665,3.3631 -1.26983,5.2906 3.33726,5.9188 12.96065,2.2553 18.23152,3.9698 m -0.26459,-57.41461 c -1.95143,0.084 -3.86786,0.9786 -5.82083,0.8003 -3.39419,-0.3099 -7.55248,-2.2944 -10.8479,-0.5357 4.21234,5.9799 10.03146,7.7604 16.93332,5.8208 m 0,140.22921 c -0.70141,-1.1163 -1.00952,-3.2643 -2.15196,-3.9214 -0.95938,-0.5518 -2.42756,-0.4062 -3.40429,0.027 -1.51539,0.6712 -2.23261,1.8905 -3.70416,2.5936 -2.26638,1.0827 -4.93093,1.0082 -6.61457,3.1535 2.35582,0.6899 3.85868,-1.0765 6.0854,-1.2951 3.67786,-0.3611 6.32949,0.7588 9.78958,1.5597 m 0,-59.5312 c -2.67454,-1.1212 -5.95022,-5.05 -9.25531,-3.7714 -2.16146,0.8362 -1.00184,3.8958 -1.54074,5.6234 -0.35693,1.1443 -1.227,1.9132 -1.8331,2.9105 -0.34323,0.5647 -0.6928,1.4113 0.0174,1.8708 0.85163,0.5511 2.52187,-0.3501 3.35139,-0.6602 3.10722,-1.1616 6.09667,-1.2508 9.26042,-2.0044 m 0,-62.9708 c -1.86774,0.6087 -4.53376,1.3983 -5.61932,3.1854 -1.23065,2.0259 2.9433,2.6656 1.85473,5.2812 -1.39613,3.3547 -5.27906,4.2557 -7.56267,6.6422 -1.47974,1.5464 -1.97865,4.1663 -0.58083,6.0301 1.94923,2.599 4.88432,0.1929 7.41018,0.3305 1.82536,0.099 3.17211,1.7927 4.49791,2.8722 m 0,-40.7458 c -2.27298,0 -4.37668,0.3412 -6.61459,0.5053 -1.09449,0.08 -2.42586,-0.2177 -3.43856,0.2958 -1.48271,0.7519 -2.53186,2.8367 -1.02016,4.09 2.67628,2.2188 7.86532,-0.5484 10.80873,-0.9223 m 0.26458,-82.814608 c -2.21652,3.6209 -3.13044,7.751201 -5.65547,11.112501 -1.57006,2.09 -4.77653,3.8905 -5.5489,6.349997 -0.71648,2.2815 0.66438,4.3752 0.78619,6.6146 0.12149,2.2332 -1.01121,5.0059 -0.19333,7.1437 0.99443,2.5992 3.45187,2.3631 5.58443,3.1732 1.821,0.6917 2.99694,1.5723 5.02708,1.5893 m -9.26042,117.21041 c 0.4418,0.6249 1.07532,1.3255 1.13693,2.1167 0.0566,0.7265 -0.55441,1.3489 -0.12433,2.0323 0.92855,1.4756 4.08519,-0.6274 5.33741,-0.7868 0.47275,-0.06 1.73937,0.1688 1.84226,-0.5242 0.1582,-1.0655 -1.74344,-1.1242 -2.36757,-1.3413 -2.04742,-0.7122 -3.49275,-3.1548 -5.8247,-1.4967 m 8.99584,-71.9666 -8.73126,0.5291 c 1.99741,1.737 6.35366,0.4417 8.73126,0 m 0.26458,17.1979 c -0.64471,1.6843 -0.41521,3.7385 -1.2088,5.2917 -1.24923,2.445 -3.51941,3.5033 -5.39518,5.3164 -0.80066,0.7739 -2.41593,2.3971 -1.59851,3.5982 0.80982,1.1899 6.14287,0.3142 7.67333,0.3458 m 0.52916,-25.4 c -2.00186,0.4766 -5.59612,-0.1152 -7.02493,1.6265 -0.94815,1.1558 -0.0434,2.4902 0.95095,3.2289 1.89928,1.411 3.96398,1.2279 6.07398,0.4363 m -0.26458,157.1625 c -0.84876,-0.5593 -1.69741,-1.0505 -2.64583,-1.4246 -4.19665,-1.6551 -5.95996,1.5275 -3.11867,4.864 1.74402,2.048 3.47342,2.4382 6.02908,2.1168 m 0,-254.000008 c -4.4732,8.390701 -9.76202,23.266198 0,30.162498 m 0,57.41461 c -1.51135,0.1193 -3.16222,0.1639 -4.23333,1.3229 l 4.23333,0.7938 m 0,-85.195807 c -2.78997,4.5585 -5.95648,14.397397 0,17.726997 m 0,81.49171 -2.64583,3.4396 2.64583,0.2646 m 0,-97.366707 c -1.14154,2.9814 -1.54334,5.522997 0,8.466697"
       id="path7" /></g><style
     type="text/css"
     id="style1">
	.st0{display:none;}
	.st1{display:inline;fill:#0D3252;}
	.st2{display:none;opacity:0.5;}
	.st3{display:inline;fill:#7DC242;}
	.st4{fill:none;stroke:#7DC242;stroke-width:8;stroke-linecap:round;stroke-linejoin:round;stroke-miterlimit:10;}
	.st5{fill:none;stroke:#0D3252;stroke-width:8;stroke-linecap:round;stroke-linejoin:round;stroke-miterlimit:10;}
	.st6{fill:#7DC242;stroke:#0D3252;stroke-width:8;stroke-linecap:round;stroke-linejoin:round;stroke-miterlimit:10;}
	.st7{fill:#0D3252;}
	.st8{display:inline;}
	.st9{fill:#FFFFFF;}
	.st10{fill:none;stroke:#7DC242;stroke-width:8;stroke-linejoin:bevel;stroke-miterlimit:10;}
	.st11{fill:#7DC242;}
</style><style
     type="text/css"
     id="style1-9">
	.st0{display:none;}
	.st1{display:inline;fill:#0D3252;}
	.st2{display:none;opacity:0.5;}
	.st3{display:inline;fill:#7DC242;}
	.st4{fill:none;stroke:#7DC242;stroke-width:8;stroke-linecap:round;stroke-linejoin:round;stroke-miterlimit:10;}
	.st5{fill:none;stroke:#0D3252;stroke-width:8;stroke-linecap:round;stroke-linejoin:round;stroke-miterlimit:10;}
	.st6{fill:#7DC242;stroke:#0D3252;stroke-width:8;stroke-linecap:round;stroke-linejoin:round;stroke-miterlimit:10;}
	.st7{fill:#0D3252;}
	.st8{display:inline;}
	.st9{fill:#FFFFFF;}
	.st10{fill:none;stroke:#7DC242;stroke-width:8;stroke-linejoin:bevel;stroke-miterlimit:10;}
	.st11{fill:#7DC242;}
</style></svg>
