<?xml version="1.0" encoding="UTF-8" standalone="no"?>
<!-- Created with Inkscape (http://www.inkscape.org/) -->

<svg
   width="16.46509mm"
   height="15.481209mm"
   viewBox="0 0 16.46509 15.481209"
   version="1.1"
   id="svg1"
   xml:space="preserve"
   xmlns="http://www.w3.org/2000/svg"
   xmlns:svg="http://www.w3.org/2000/svg"><defs
     id="defs1" /><g
     id="layer1"
     transform="translate(-23.379089,-138.88127)"><path
       style="fill:#000000;stroke:#000000;stroke-width:0.1;stroke-dasharray:none;stroke-opacity:1"
       d="m 23.599556,154.29335 c -0.02813,-0.0101 -0.07799,-0.0418 -0.110806,-0.0704 -0.05639,-0.0491 -0.05966,-0.37509 -0.05966,-5.94417 v -5.89218 l 0.07881,-0.0516 c 0.04334,-0.0284 0.622516,-0.18138 1.287047,-0.33996 0.664531,-0.15858 1.851431,-0.44254 2.637557,-0.63103 0.786126,-0.18848 1.474147,-0.3427 1.528935,-0.3427 0.05479,0 1.190288,0.26055 2.523331,0.579 1.333044,0.31846 2.428689,0.57404 2.434766,0.56796 0.0061,-0.006 -0.04134,-0.12472 -0.105374,-0.26364 -0.185331,-0.40208 -0.23804,-0.6221 -0.240191,-1.00265 -0.0023,-0.40877 0.08695,-0.72487 0.296057,-1.0484 0.381284,-0.58992 0.998009,-0.9252 1.696512,-0.9223 1.043895,0.004 1.888638,0.80012 1.965246,1.85137 0.01177,0.16148 7.42e-4,0.34051 -0.02992,0.48584 -0.0267,0.12657 -0.04349,0.23014 -0.03731,0.23014 0.0062,0 0.458337,-0.1074 1.00479,-0.23866 0.546452,-0.13126 1.042699,-0.23866 1.10277,-0.23866 0.06251,0 0.133352,0.0267 0.165646,0.0624 0.05204,0.0575 0.05642,0.51891 0.05642,5.94411 0,5.55841 -0.0033,5.88473 -0.05966,5.93569 -0.03573,0.0323 -1.144172,0.31341 -2.762935,0.70074 l -2.70327,0.64681 -2.6233,-0.62727 c -1.442814,-0.34499 -2.647904,-0.62726 -2.677976,-0.62726 -0.03007,0 -1.215539,0.27698 -2.634369,0.61551 -1.418831,0.33854 -2.602706,0.62101 -2.630833,0.62771 -0.02813,0.007 -0.07415,0.004 -0.102282,-0.006 z m 13.165929,-1.08702 c 1.375134,-0.33008 2.508919,-0.60539 2.519522,-0.61181 0.03267,-0.0198 -0.03287,-0.51879 -0.106601,-0.81164 -0.08258,-0.328 -0.325862,-0.84575 -0.470942,-1.00224 -0.212141,-0.22884 -0.466201,-0.10711 -0.719843,0.34489 -0.285009,0.5079 -0.636466,0.78714 -0.98914,0.7859 -0.252202,-8.9e-4 -0.366928,-0.067 -0.73302,-0.42251 -0.336396,-0.32665 -0.446585,-0.37563 -0.694747,-0.30881 -0.130831,0.0352 -0.202314,0.10168 -0.478594,0.4449 -0.146916,0.18251 -0.370341,0.28752 -0.543371,0.25539 -0.0684,-0.0127 -0.224522,-0.0756 -0.346941,-0.13977 -0.206048,-0.10801 -0.37531,-0.22807 -1.107085,-0.78524 -0.43111,-0.32825 -0.407218,-0.3238 -0.590217,-0.10992 -0.08581,0.10029 -0.257792,0.28591 -0.382188,0.41248 -0.255045,0.25951 -0.339395,0.2838 -0.504158,0.14516 l -0.100989,-0.085 -0.02049,0.0765 c -0.01127,0.042 -0.02085,0.11481 -0.02129,0.16169 -0.0012,0.1229 -0.14571,0.41093 -0.260048,0.51813 -0.215579,0.20212 -0.472433,0.23987 -1.000191,0.14699 -0.18387,-0.0324 -0.300271,-0.0389 -0.321094,-0.0181 -0.06233,0.0623 0.0478,0.31361 0.212021,0.48375 l 0.158844,0.16457 1.97745,0.47425 c 1.087597,0.26084 1.987668,0.47568 2.000158,0.47743 0.01249,0.002 1.147818,-0.26689 2.522953,-0.59697 z m -10.395795,-0.0492 2.343959,-0.55959 v -5.5177 c 0,-5.2394 -0.003,-5.51676 -0.05966,-5.49889 -0.03282,0.0103 -1.110611,0.27013 -2.395101,0.57729 l -2.335436,0.55848 -0.0091,0.80969 c -0.0086,0.76277 -0.0057,0.80829 0.05114,0.78544 0.03316,-0.0133 0.183029,-0.032 0.333043,-0.0414 0.251541,-0.0158 0.287074,-0.01 0.456933,0.0801 0.267304,0.14115 0.385424,0.33012 0.492942,0.78864 0.04757,0.20287 0.102197,0.41016 0.121392,0.46065 0.0587,0.15437 0.300793,0.387 0.485426,0.46643 0.369901,0.15912 0.758092,0.12541 1.273105,-0.11057 0.665758,-0.30506 1.026705,-0.15404 1.162857,0.48652 0.0656,0.30861 0.0471,0.96302 -0.03615,1.27852 -0.140346,0.53195 -0.449327,0.9187 -0.905477,1.13338 -0.312086,0.14688 -0.318064,0.16144 -0.195662,0.47628 0.109888,0.28266 0.109772,0.8898 -2.27e-4,1.18373 -0.294278,0.78635 -0.902472,1.26196 -2.173263,1.6995 -0.623131,0.21455 -0.689674,0.24198 -0.912013,0.37601 l -0.161947,0.0976 v 0.52951 c 0,0.48718 0.0048,0.52833 0.05967,0.51476 0.03281,-0.008 1.114446,-0.26657 2.403624,-0.57434 z m 3.057552,-0.62045 c -0.115863,-0.40399 0.07351,-0.77661 0.420193,-0.82677 0.08244,-0.0119 0.262127,0.002 0.417489,0.032 0.572119,0.1111 0.682794,0.0592 0.734809,-0.34439 0.01654,-0.12835 0.03058,-0.31407 0.03119,-0.4127 10e-4,-0.16857 -0.01087,-0.19413 -0.198728,-0.42617 -0.610943,-0.75463 -0.97119,-1.5014 -1.015454,-2.10497 -0.03522,-0.48026 0.149665,-1.03396 0.470421,-1.40881 0.51669,-0.60384 1.397983,-0.84161 2.148354,-0.57962 0.680541,0.23761 1.162863,0.78379 1.312147,1.48589 0.123362,0.58019 -0.07038,1.26346 -0.576589,2.03345 l -0.188338,0.28648 0.24351,0.1754 c 0.133931,0.0965 0.356327,0.26289 0.494215,0.36983 0.137887,0.10694 0.264461,0.19443 0.281275,0.19443 0.01778,0 0.03057,-1.13448 0.03057,-2.71047 0,-1.85348 -0.01121,-2.71047 -0.03545,-2.71047 -0.0195,0 -0.09237,0.0289 -0.161946,0.0643 -0.235486,0.11962 -0.686766,0.2426 -0.890253,0.2426 -0.233412,0 -0.34323,-0.0677 -0.66979,-0.41284 -0.267704,-0.28294 -0.34343,-0.41185 -0.421174,-0.71696 -0.08223,-0.32273 -0.146649,-1.27978 -0.136089,-2.02192 l 0.0082,-0.57762 -1.156623,-0.2768 C 29.933039,141.7383 29.370367,141.60288 29.3188,141.5896 l -0.09376,-0.0241 v 5.52137 c 0,5.22978 0.0032,5.5222 0.05966,5.53697 0.156806,0.041 0.1759,0.0293 0.142519,-0.0871 z m -4.592505,-0.79602 c 0.294941,-0.10048 0.632471,-0.23121 0.750067,-0.2905 0.616376,-0.31078 0.990078,-0.70288 1.131435,-1.18714 0.07854,-0.26908 0.0671,-0.46302 -0.04968,-0.84197 -0.167219,-0.54263 -0.09733,-0.72153 0.374424,-0.9584 0.340134,-0.17079 0.47307,-0.29086 0.609162,-0.55024 0.142044,-0.27072 0.188293,-0.50804 0.18686,-0.95884 -0.0013,-0.40067 -0.05399,-0.62763 -0.15475,-0.6663 -0.02516,-0.01 -0.164724,0.0374 -0.310142,0.10461 -0.969656,0.448 -1.87575,0.29509 -2.336072,-0.39425 -0.108918,-0.1631 -0.153875,-0.28223 -0.227884,-0.60383 -0.10157,-0.44136 -0.156637,-0.56392 -0.278261,-0.61934 -0.110329,-0.0503 -0.192481,-0.0467 -0.425222,0.0186 l -0.198277,0.0556 v 3.62464 3.62463 l 0.196041,-0.0873 c 0.107822,-0.048 0.437355,-0.16953 0.732295,-0.27002 z m 12.404705,-0.44625 c 0.07638,-0.069 0.218341,-0.25644 0.315467,-0.41652 0.09713,-0.16008 0.231473,-0.34645 0.298549,-0.41414 0.271392,-0.27391 0.683544,-0.36622 0.96905,-0.21705 0.120191,0.0628 0.330392,0.28588 0.44974,0.4773 0.03158,0.0507 0.04106,-0.74806 0.04262,-3.59144 0.0017,-3.0508 -0.0056,-3.65658 -0.04409,-3.65658 -0.02535,0 -0.09823,0.0351 -0.161946,0.0781 -0.08739,0.0589 -0.166103,0.17944 -0.320432,0.49081 -0.217206,0.43821 -0.285569,0.53468 -0.432904,0.61087 -0.129257,0.0668 -0.267665,0.0594 -0.459215,-0.0247 -0.211923,-0.093 -0.573035,-0.10077 -0.818929,-0.0176 -0.231142,0.0782 -0.523789,0.26953 -0.812411,0.53109 -0.127928,0.11593 -0.279869,0.23533 -0.337646,0.26533 -0.214086,0.11116 -0.466898,0.0541 -0.735031,-0.16599 -0.140548,-0.11536 -0.354726,-0.12935 -0.546259,-0.0357 l -0.119329,0.0583 v 3.05109 3.05109 l 0.07407,0.0105 c 0.05763,0.008 0.105415,-0.0356 0.215302,-0.19743 0.247329,-0.3642 0.593126,-0.53887 0.994741,-0.50246 0.290873,0.0264 0.48054,0.13533 0.794394,0.45633 0.333558,0.34115 0.410894,0.3605 0.63427,0.15869 z m -5.178375,-0.6949 c 0.56934,-0.62723 1.048063,-1.3998 1.17035,-1.88874 0.17853,-0.71382 -0.156729,-1.41585 -0.828006,-1.73385 -0.216313,-0.10247 -0.25131,-0.10859 -0.621306,-0.10859 -0.376817,0 -0.401334,0.005 -0.629799,0.11617 -0.451801,0.22078 -0.751563,0.62623 -0.836856,1.13191 -0.03285,0.19476 -0.03054,0.28148 0.01332,0.49957 0.06632,0.32977 0.34656,0.90055 0.642736,1.30908 0.233991,0.32276 0.770847,0.94931 0.813409,0.94931 0.01466,0 0.138929,-0.12368 0.276152,-0.27486 z m -0.600403,-1.42833 c -0.628385,-0.25326 -0.781947,-1.07222 -0.2852,-1.521 0.456827,-0.41271 1.14874,-0.28385 1.42302,0.26503 0.300231,0.60082 -0.08888,1.26785 -0.764573,1.31068 -0.149516,0.009 -0.25084,-0.005 -0.373247,-0.0547 z m 0.57668,-0.51864 c 0.297412,-0.23394 0.181588,-0.68558 -0.188552,-0.73523 -0.430382,-0.0577 -0.64546,0.44924 -0.310656,0.73226 0.123366,0.10429 0.368551,0.10575 0.499208,0.003 z m 1.118673,-3.28697 c 0.267878,-0.0694 0.568019,-0.20645 0.926689,-0.4231 0.611471,-0.36934 0.98222,-0.40199 1.381547,-0.12166 0.08438,0.0592 0.171825,0.11884 0.194316,0.13245 0.02481,0.015 0.131929,-0.0577 0.272351,-0.185 0.304637,-0.27608 0.585842,-0.46429 0.879397,-0.58858 0.201311,-0.0852 0.296141,-0.10356 0.597291,-0.11536 0.295661,-0.0116 0.391732,-0.002 0.551809,0.0542 l 0.193823,0.0682 0.0478,-0.0741 c 0.02629,-0.0408 0.117557,-0.22199 0.202813,-0.40272 0.222399,-0.47145 0.347126,-0.58072 0.870399,-0.7625 0.03218,-0.0112 0.04262,-0.18202 0.04262,-0.69776 0,-0.37562 -0.01151,-0.68309 -0.02557,-0.68325 -0.07514,-9.1e-4 -2.072819,0.4922 -2.081504,0.51379 -0.0057,0.0141 -0.09772,0.16648 -0.204563,0.33867 -0.249857,0.40264 -0.681584,0.94681 -1.057151,1.33247 -0.39959,0.41032 -0.404943,0.41014 -0.829905,-0.0282 -0.177255,-0.18283 -0.430544,-0.4692 -0.562863,-0.63638 l -0.240582,-0.30396 -1.03503,-0.24838 c -0.569267,-0.1366 -1.039368,-0.24403 -1.044669,-0.23873 -0.03809,0.0381 -0.04502,0.7318 -0.01299,1.29975 0.04517,0.8009 0.08296,1.0663 0.178446,1.25348 0.06886,0.13497 0.466042,0.57039 0.520306,0.57039 0.01524,0 0.121087,-0.0242 0.235219,-0.0538 z m 2.963774,-2.53499 c 0.294784,-0.36782 0.522296,-0.71552 0.677047,-1.0347 0.203226,-0.41917 0.245711,-0.59639 0.229808,-0.95858 -0.0114,-0.25955 -0.03123,-0.34802 -0.120963,-0.53967 -0.545755,-1.16554 -2.166588,-1.16621 -2.711801,-0.001 -0.08134,0.17383 -0.108917,0.28678 -0.12101,0.49567 -0.02124,0.36694 0.03267,0.58804 0.251234,1.03025 0.212609,0.43017 0.481438,0.81633 0.91629,1.3162 l 0.304599,0.35015 0.185888,-0.20244 c 0.102239,-0.11134 0.277247,-0.31643 0.388908,-0.45576 z m -0.945337,-1.10542 c -0.347897,-0.16235 -0.547853,-0.49992 -0.522112,-0.88145 0.03474,-0.51489 0.383947,-0.84296 0.898975,-0.84456 0.522631,-0.002 0.899027,0.35964 0.900912,0.86469 10e-4,0.27734 -0.05609,0.44173 -0.217041,0.62458 -0.271983,0.30899 -0.70082,0.4047 -1.060734,0.23674 z m 0.545852,-0.44618 c 0.228517,-0.0955 0.318299,-0.37572 0.188549,-0.58852 -0.127148,-0.20853 -0.370295,-0.27019 -0.574506,-0.14568 -0.280387,0.17095 -0.257493,0.60469 0.03872,0.73354 0.139462,0.0607 0.203336,0.0608 0.347237,6.6e-4 z"
       id="path8" /></g></svg>
