<?xml version="1.0" encoding="UTF-8" standalone="no"?>
<!-- Created with Inkscape (http://www.inkscape.org/) -->

<svg
   width="16.521795mm"
   height="17.05538mm"
   viewBox="0 0 16.521795 17.05538"
   version="1.1"
   id="svg1"
   xml:space="preserve"
   xmlns="http://www.w3.org/2000/svg"
   xmlns:svg="http://www.w3.org/2000/svg"><defs
     id="defs1" /><g
     id="layer1"
     transform="translate(159.53092,105.37562)"><path
       style="fill:#000000;stroke-width:0.131743"
       d="m -154.53719,-88.361781 c -0.21631,-0.06802 -0.43462,-0.20601 -0.57932,-0.366171 -0.0703,-0.0778 -0.12779,-0.153203 -0.12779,-0.167559 0,-0.01436 -0.0709,-0.06369 -0.15747,-0.109641 -0.22299,-0.118294 -0.38797,-0.314708 -0.44822,-0.53361 -0.0279,-0.101442 -0.1812,-1.097627 -0.34062,-2.213743 -0.15942,-1.116116 -0.2998,-2.018039 -0.31195,-2.004273 -0.0121,0.01377 -0.22122,0.903423 -0.46461,1.977017 -0.54945,2.423718 -0.52017,2.317276 -0.69097,2.511323 -0.15854,0.180104 -0.26395,0.242496 -0.49854,0.295068 -0.47284,0.105965 -0.96701,-0.249367 -1.04197,-0.749216 -0.0158,-0.104998 0.0849,-0.705706 0.37998,-2.267712 0.22078,-1.168683 0.40925,-2.158101 0.41884,-2.19871 0.0165,-0.06984 0.005,-0.07367 -0.21737,-0.07076 -0.38168,0.005 -0.70029,-0.188927 -0.84929,-0.516919 -0.0595,-0.131085 -0.0637,-0.286484 -0.0644,-2.389864 -6.6e-4,-1.913702 0.007,-2.2804 0.0528,-2.455486 0.14882,-0.571363 0.64785,-1.070383 1.21921,-1.219203 0.16764,-0.0437 0.45017,-0.0536 1.52306,-0.0536 h 1.31724 v -0.34857 c 0,-0.19171 -0.007,-0.34857 -0.0146,-0.34857 -0.008,0 -0.092,0.0389 -0.18662,0.0864 -0.78529,0.39443 -1.77543,-0.003 -2.10273,-0.84489 -0.11013,-0.28313 -0.11011,-0.77937 3e-5,-1.06256 0.39592,-1.01789 1.64678,-1.31899 2.47385,-0.59549 l 0.17747,0.15524 0.11577,-0.0883 c 0.0637,-0.0486 0.19333,-0.12406 0.28813,-0.16777 0.17088,-0.0788 0.18706,-0.0796 1.87155,-0.0897 l 1.69918,-0.0103 0.0541,-0.10457 c 0.0898,-0.17373 0.23966,-0.24063 0.53922,-0.24077 l 0.26196,-1.4e-4 0.0609,-0.17156 c 0.0755,-0.21259 0.31856,-0.46937 0.54035,-0.57085 0.2272,-0.10397 0.62318,-0.10467 0.84848,-0.001 0.23974,0.10977 0.42652,0.29702 0.53303,0.53436 l 0.094,0.20955 0.25076,1.3e-4 c 0.28506,1.5e-4 0.44098,0.0703 0.54013,0.24307 l 0.0587,0.10232 1.6908,0.0102 1.6908,0.0102 0.2193,0.10127 c 0.27569,0.1273 0.53124,0.39707 0.63248,0.66768 l 0.0724,0.19358 -0.009,7.01297 -0.009,7.012974 -0.0904,0.191712 c -0.11449,0.242724 -0.33053,0.458462 -0.58355,0.582732 l -0.19744,0.09698 -5.24597,0.0067 c -4.27268,0.0054 -5.27322,-0.0019 -5.39285,-0.03952 z m 10.56134,-0.439808 c 0.16485,-0.04578 0.35714,-0.212099 0.44553,-0.385357 0.0663,-0.129981 0.0676,-0.270723 0.0669,-7.061827 -7.4e-4,-6.665127 -0.003,-6.934607 -0.0652,-7.071097 -0.0817,-0.17988 -0.28249,-0.34645 -0.47652,-0.39531 -0.0975,-0.0245 -0.70472,-0.0379 -1.72121,-0.0379 h -1.57056 v 0.34857 0.34857 l 1.31585,7.7e-4 c 1.483,8.5e-4 1.50621,0.004 1.70332,0.26286 l 0.10053,0.13179 0.01,6.311824 c 0.005,3.471501 9.3e-4,6.362336 -0.0101,6.424078 -0.0268,0.15 -0.17432,0.318931 -0.34699,0.397361 -0.13433,0.06102 -0.35163,0.06403 -4.6821,0.06475 -4.84374,7.91e-4 -4.67321,0.0064 -4.85453,-0.157742 -0.0511,-0.0462 -0.0606,-0.03801 -0.0968,0.08285 -0.0573,0.191337 -0.22516,0.408013 -0.38814,0.501089 -0.077,0.044 -0.1402,0.08997 -0.14034,0.102168 -2.7e-4,0.02026 0.15055,0.09882 0.27858,0.145126 0.10424,0.0377 10.29507,0.02546 10.43189,-0.01254 z m -10.80024,-0.62346 c 0.13385,-0.08823 0.19131,-0.197112 0.19283,-0.365341 6.6e-4,-0.0753 -0.15562,-1.21364 -0.34733,-2.529653 l -0.34857,-2.392754 v -2.351274 c 0,-2.071672 0.006,-2.360486 0.0543,-2.428743 l 0.0543,-0.07747 h 2.09056 c 2.30569,0 2.2675,0.0034 2.40114,-0.215759 0.1328,-0.217827 0.0638,-0.488987 -0.15352,-0.603037 -0.0968,-0.0508 -0.45153,-0.0552 -3.71471,-0.0457 l -3.60769,0.0105 -0.16559,0.0765 c -0.23115,0.10675 -0.53,0.400794 -0.64466,0.634272 l -0.096,0.195529 -0.01,2.270593 -0.01,2.270593 0.0892,0.106066 c 0.10458,0.124285 0.29012,0.194945 0.43076,0.164054 0.12814,-0.02814 0.27564,-0.182759 0.31918,-0.334584 0.0203,-0.07063 0.0342,-0.820788 0.0342,-1.842049 0,-1.554264 0.006,-1.729142 0.0577,-1.786648 0.0583,-0.0644 0.20634,-0.08422 0.27695,-0.03707 0.1118,0.07465 0.1185,0.182399 0.11798,1.896877 -3.9e-4,1.346916 -0.0111,1.764264 -0.0492,1.928136 -0.0268,0.115028 -0.25541,1.301652 -0.50808,2.636941 l -0.45939,2.4278 0.0682,0.154123 c 0.11879,0.268543 0.42039,0.343059 0.65179,0.161038 0.0513,-0.04036 0.10799,-0.112046 0.12596,-0.15931 0.018,-0.04726 0.30849,-1.296132 0.64561,-2.775263 0.33712,-1.479129 0.63588,-2.725463 0.6639,-2.769628 0.028,-0.04417 0.0736,-0.08899 0.10128,-0.09962 0.0863,-0.0331 0.22527,0.02146 0.26103,0.102451 0.0188,0.04261 0.21218,1.309699 0.42972,2.815762 0.21754,1.506063 0.41437,2.773516 0.43741,2.816562 0.10527,0.19669 0.4194,0.271912 0.61023,0.14612 z m 10.09573,-0.525949 c 0.0663,-0.03547 0.0674,-0.142813 0.0674,-6.307879 0,-6.165063 -0.001,-6.272403 -0.0674,-6.307873 -0.043,-0.023 -0.53441,-0.0361 -1.35598,-0.0361 h -1.28856 l -0.073,0.12371 c -0.1341,0.22729 -0.14084,0.22808 -1.86111,0.21719 -1.47873,-0.009 -1.5448,-0.0126 -1.63396,-0.0795 -0.0511,-0.0383 -0.11866,-0.11285 -0.15011,-0.16557 l -0.0572,-0.0959 h -1.29371 c -1.15489,0 -1.30054,0.006 -1.35745,0.0577 -0.0582,0.0527 -0.0637,0.12681 -0.0637,0.854 v 0.7963 h 1.20411 1.20411 l 0.27468,-0.22358 c 0.4706,-0.38305 1.03859,-0.6126 1.65366,-0.66834 0.24662,-0.0223 0.26283,-0.0192 0.34874,0.0667 l 0.0901,0.0901 v 1.33403 1.334041 l 0.94114,0.943423 c 0.72819,0.729964 0.94113,0.963105 0.94113,1.030414 0,0.108927 -0.24617,0.354542 -0.55004,0.548796 -0.47324,0.302528 -1.01597,0.459741 -1.58348,0.45868 -0.38287,-6.58e-4 -0.67672,-0.05759 -1.05674,-0.204528 -1.07826,-0.416924 -1.82913,-1.50545 -1.82913,-2.651665 v -0.280325 h -0.81914 -0.81914 v 4.53737 c 0,4.173155 0.005,4.542487 0.0577,4.601114 0.0553,0.06112 0.24168,0.06375 4.53369,0.06375 3.01876,0 4.49795,-0.01175 4.54343,-0.03608 z m -7.66309,-0.849607 c -0.24909,-0.0813 -0.46718,-0.269499 -0.60955,-0.526017 -0.11218,-0.202115 -0.11191,-0.702059 5.2e-4,-0.913032 0.10168,-0.190837 0.29134,-0.37247 0.49232,-0.471491 0.22014,-0.108459 0.61378,-0.110243 0.8462,-0.0038 0.79093,0.362103 0.79225,1.517476 0.002,1.866981 -0.20247,0.08956 -0.53617,0.111179 -0.7316,0.04739 z m 0.52496,-0.452009 c 0.15493,-0.06629 0.29036,-0.222325 0.33441,-0.385279 0.13928,-0.515297 -0.49658,-0.93076 -0.90218,-0.589469 -0.14607,0.122909 -0.20892,0.257558 -0.20892,0.447601 0,0.416492 0.40031,0.688188 0.77669,0.527147 z m 1.31473,0.08285 c -0.0384,-0.03834 -0.0697,-0.108927 -0.0697,-0.156857 0,-0.04793 0.0314,-0.118513 0.0697,-0.156855 0.0684,-0.06843 0.11619,-0.06972 2.59684,-0.06972 2.48065,0 2.52841,0.0013 2.59684,0.06972 0.0947,0.09473 0.0908,0.260109 -0.008,0.329164 -0.0684,0.0479 -0.37302,0.05426 -2.59684,0.05426 -2.47289,0 -2.52066,-0.0013 -2.58908,-0.06971 z m 0.0697,-0.860757 c -0.14548,-0.05199 -0.1831,-0.245845 -0.0697,-0.359236 0.0684,-0.06844 0.11619,-0.06971 2.60886,-0.06971 2.41563,0 2.54196,0.0031 2.59685,0.06374 0.0782,0.08646 0.0727,0.234993 -0.012,0.319682 -0.0685,0.06847 -0.11431,0.06967 -2.5707,0.06696 -1.37554,-0.0015 -2.52451,-0.01116 -2.55327,-0.02144 z m -2.0813,-1.787863 c -0.2471,-0.124567 -0.36829,-0.252485 -0.48994,-0.517114 -0.15745,-0.342519 -0.0741,-0.811005 0.19538,-1.098635 0.22135,-0.236223 0.59292,-0.361667 0.90087,-0.304136 0.1756,0.03281 0.255,0.106126 0.255,0.235479 0,0.150411 -0.11077,0.216149 -0.35514,0.210761 -0.37362,-0.0082 -0.58499,0.16976 -0.61378,0.51686 -0.0193,0.233075 0.081,0.426585 0.27882,0.537765 0.12457,0.07001 0.16702,0.07531 0.4289,0.05349 0.28775,-0.02397 0.29125,-0.02329 0.35141,0.06854 0.0463,0.07064 0.053,0.114938 0.028,0.185822 -0.0459,0.130628 -0.19783,0.193588 -0.50168,0.207941 -0.23668,0.01118 -0.28191,0.002 -0.47788,-0.09677 z m 1.99956,-0.308249 c -0.0762,-0.08419 -0.0733,-0.225023 0.006,-0.296851 0.0581,-0.05257 0.28952,-0.05769 2.60887,-0.05769 2.4214,0 2.54792,0.0031 2.60281,0.06374 0.0762,0.08419 0.0733,0.225021 -0.006,0.29685 -0.0581,0.05257 -0.28952,0.05769 -2.60887,0.05769 -2.4214,0 -2.54792,-0.0031 -2.60281,-0.06374 z m -1.72298,-0.39893 c -0.20626,-0.207645 -0.25184,-0.27353 -0.25184,-0.364021 0,-0.117636 0.10076,-0.219013 0.21768,-0.219013 0.0345,0 0.13338,0.06512 0.21973,0.144714 l 0.157,0.144714 0.2911,-0.284141 c 0.31095,-0.303507 0.40911,-0.343805 0.52515,-0.215583 0.13006,0.143709 0.0868,0.227961 -0.33388,0.649807 -0.2973,0.298147 -0.418,0.397055 -0.48451,0.397055 -0.0637,0 -0.15941,-0.0713 -0.34043,-0.253532 z m 1.73501,-0.51332 c -0.0817,-0.08167 -0.0899,-0.202993 -0.0203,-0.298335 0.0447,-0.06122 0.10252,-0.06872 0.60763,-0.07874 0.52577,-0.01043 0.56241,-0.0069 0.6303,0.061 0.0892,0.08918 0.0933,0.251217 0.008,0.328104 -0.0536,0.04851 -0.15062,0.05769 -0.60999,0.05769 -0.49978,0 -0.55219,-0.0059 -0.61597,-0.06971 z m 2.21881,0.006 c -0.0846,-0.09347 -0.0742,-0.269295 0.0198,-0.335134 0.067,-0.04693 0.26715,-0.05426 1.48142,-0.05426 1.35747,0 1.40625,0.0023 1.47366,0.06972 0.0871,0.0871 0.0901,0.249624 0.006,0.325737 -0.0571,0.05171 -0.21201,0.05769 -1.49345,0.05769 -1.3408,0 -1.43329,-0.004 -1.48739,-0.06374 z m 1.08388,-2.340639 c -1.04314,-1.053318 -1.06446,-1.081386 -0.94787,-1.247838 l 0.0543,-0.07747 h 1.44458 c 1.39811,0 1.44683,0.0022 1.5143,0.06971 0.0851,0.08513 0.089,0.228715 0.0174,0.639688 -0.0954,0.546908 -0.32673,1.032153 -0.67969,1.425585 -0.29887,0.333142 -0.23419,0.370471 -1.40294,-0.809679 z m 1.271,0.241095 c 0.16322,-0.239033 0.30008,-0.574767 0.35789,-0.877978 l 0.0449,-0.235284 h -0.94478 -0.94477 l 0.64382,0.656676 c 0.35411,0.361173 0.65952,0.654305 0.67869,0.651408 0.0192,-0.0029 0.0931,-0.09057 0.16429,-0.194822 z m -2.77386,-1.917502 -0.0918,-0.07224 v -1.418841 c 0,-1.67093 -0.021,-1.57413 0.34183,-1.57318 0.62977,0.002 1.32761,0.28751 1.86072,0.76227 0.499,0.44439 0.86028,1.20007 0.92182,1.928161 0.0214,0.253294 0.0183,0.269369 -0.068,0.355681 l -0.0904,0.0904 h -1.39116 c -1.35462,0 -1.39357,-0.0019 -1.483,-0.07224 z m 2.56381,-0.502895 c -0.0227,-0.217968 -0.12627,-0.532656 -0.26351,-0.800726 -0.33673,-0.65776 -1.04708,-1.16952 -1.79086,-1.29021 l -0.14814,-0.024 v 1.11898 1.118974 l 1.1067,-0.0092 1.10671,-0.0092 z m -8.12819,4.479115 v -4.043402 h -0.27886 -0.27885 l -0.001,2.169843 -0.001,2.169843 0.26959,1.873561 c 0.14828,1.030457 0.27441,1.873559 0.28029,1.873559 0.006,0 0.0107,-1.819531 0.0107,-4.043402 z m 5.52482,-1.411543 c 0.24631,-0.05139 0.79966,-0.304648 0.95626,-0.437654 l 0.0848,-0.07205 -0.89525,-0.895753 -0.89526,-0.895753 v -1.263318 -1.26331 h -0.1202 c -0.24586,0 -1.05118,0.32396 -1.08884,0.438 -0.006,0.0179 0.0474,0.0639 0.11852,0.10228 0.49778,0.26845 0.56639,1.025585 0.12783,1.410649 -0.21147,0.185672 -0.33341,0.220694 -0.82846,0.237941 l -0.44916,0.01565 0.0193,0.370443 c 0.028,0.538667 0.1675,0.920002 0.49655,1.357727 0.54795,0.728942 1.54371,1.089245 2.4739,0.895152 z m -5.52482,-5.235128 c 0,-0.77004 0.005,-0.83583 0.0739,-0.97829 0.0445,-0.0919 0.13017,-0.18997 0.21524,-0.24629 l 0.14132,-0.0936 1.37074,-0.0102 1.37074,-0.0102 v -0.34834 -0.34833 l -1.66442,0.01 -1.66442,0.01 -0.16493,0.097 c -0.21841,0.12839 -0.25046,0.19334 -0.20348,0.41241 0.0724,0.33759 0.0346,0.69717 -0.10319,0.98243 -0.0602,0.12463 -0.0687,0.21652 -0.0687,0.7456 v 0.60345 h 0.34857 0.34857 z m -1.54738,-0.19563 c 0.8064,-0.40933 0.79883,-1.5467 -0.013,-1.9459 -0.13329,-0.0655 -0.22212,-0.0812 -0.46136,-0.0815 -0.25366,-3.2e-4 -0.32167,0.013 -0.47278,0.0923 -0.46085,0.24194 -0.69954,0.77546 -0.56066,1.25319 0.18858,0.64866 0.92085,0.97987 1.50776,0.68196 z m 8.05764,-1.49403 0.009,-0.68523 -0.36986,-0.0119 c -0.3393,-0.0109 -0.37537,-0.0187 -0.43644,-0.0942 -0.0366,-0.0453 -0.0666,-0.12824 -0.0666,-0.18439 0,-0.23905 -0.22174,-0.48701 -0.48205,-0.53907 -0.33845,-0.0677 -0.70309,0.2293 -0.70309,0.57265 0,0.18046 -0.1025,0.23156 -0.49157,0.24508 l -0.34499,0.012 v 0.69426 0.69425 l 1.43784,-0.009 1.43785,-0.009 z"
       id="path10" /></g></svg>
