<?xml version="1.0" encoding="UTF-8" standalone="no"?>
<!-- Created with Inkscape (http://www.inkscape.org/) -->

<svg
   width="17.078838mm"
   height="17.054979mm"
   viewBox="0 0 17.078838 17.054979"
   version="1.1"
   id="svg1"
   xml:space="preserve"
   xmlns="http://www.w3.org/2000/svg"
   xmlns:svg="http://www.w3.org/2000/svg"><defs
     id="defs1" /><g
     id="layer1"
     transform="translate(59.908462,-63.738864)"><path
       style="fill:#000000;stroke-width:0.101122"
       d="m -51.836036,80.775442 c -0.634943,-0.068 -1.005063,-0.185032 -2.352451,-0.743863 -0.619512,-0.256944 -1.130516,-0.467171 -1.135565,-0.467171 -0.005,0 -0.0195,0.04879 -0.03211,0.108411 -0.01261,0.05963 -0.05395,0.142185 -0.09186,0.183465 l -0.06893,0.07505 h -2.195754 -2.195755 v -0.283535 -0.283536 h 2.001426 2.001427 v -1.701212 -1.701213 h -2.001427 -2.001426 v -0.283535 -0.283535 h 2.180392 c 2.155335,0 2.181402,8.09e-4 2.268283,0.06913 0.04834,0.03802 0.08789,0.09807 0.08789,0.133428 0,0.05906 0.02649,0.06433 0.325231,0.06479 0.363742,5.06e-4 1.237062,0.0552 1.354923,0.08478 0.06218,0.0156 0.272629,-0.131033 1.124542,-0.78356 0.990717,-0.758843 1.095906,-0.827661 1.456674,-0.952991 0.02921,-0.01015 0.0417,-0.104701 0.0417,-0.315746 v -0.301261 h -0.261521 c -0.885917,0 -1.655448,-0.552162 -1.929285,-1.38432 -0.07856,-0.238736 -0.08815,-0.320745 -0.09099,-0.778248 l -0.0032,-0.511391 0.09359,-0.0807 c 0.08919,-0.0769 0.11516,-0.0807 0.551723,-0.0807 0.299526,0 0.52696,0.0175 0.656943,0.05054 0.261679,0.06652 0.631532,0.249302 0.804542,0.39761 0.0763,0.06541 0.147603,0.118924 0.158446,0.118924 0.01084,0 0.01972,-0.255182 0.01972,-0.567071 v -0.56707 h 0.283535 0.283535 v 0.282198 0.282198 l 0.208482,-0.157773 c 0.408428,-0.309087 0.748555,-0.407057 1.408007,-0.405562 0.638335,0.0014 0.652108,0.01461 0.651216,0.622191 -0.0011,0.743583 -0.163663,1.182896 -0.596822,1.612795 -0.149249,0.148127 -0.337924,0.295686 -0.459554,0.359409 -0.272467,0.142747 -0.663862,0.239898 -0.966486,0.239898 h -0.244843 v 0.596092 0.596093 l 0.150654,0.04218 c 0.08286,0.0232 0.214203,0.08256 0.291874,0.131914 0.07767,0.04935 0.941558,0.702019 1.919748,1.450367 l 1.778526,1.360633 0.270567,-0.106918 c 0.342493,-0.135341 0.556793,-0.158947 0.800307,-0.08816 0.522528,0.151903 0.862195,0.751186 0.713952,1.259646 -0.06911,0.237024 -0.221512,0.47095 -0.38309,0.587997 -0.141528,0.102523 -4.583425,1.810657 -5.090987,1.957743 -0.503975,0.146046 -1.277413,0.216024 -1.785835,0.161576 z m 1.080995,-0.594231 c 0.186462,-0.02769 0.442217,-0.07985 0.568343,-0.11592 0.126127,-0.03607 1.26498,-0.459984 2.530785,-0.942034 1.591276,-0.605997 2.329756,-0.902813 2.39315,-0.961873 0.05043,-0.04698 0.11038,-0.147809 0.133225,-0.224063 0.08098,-0.270276 -0.110424,-0.559741 -0.395228,-0.597722 -0.104576,-0.01395 -0.317705,0.06604 -1.389193,0.521358 -0.696115,0.295807 -1.34908,0.563677 -1.451033,0.595266 -0.16589,0.0514 -0.378164,0.05744 -2.02001,0.05744 h -1.834641 l -0.0097,-0.275195 -0.0097,-0.275196 h 1.711121 c 1.01306,0 1.757437,-0.01328 1.824653,-0.03256 0.332639,-0.0954 0.421413,-0.476603 0.167643,-0.719871 l -0.102413,-0.09817 -1.390529,-0.01938 c -1.544753,-0.02153 -1.431095,-0.0059 -2.040991,-0.280839 -0.9001,-0.405771 -1.772692,-0.581638 -2.893729,-0.583215 l -0.375268,-5.06e-4 8.09e-4,1.359303 8.09e-4,1.359302 1.282079,0.529479 c 1.253084,0.517505 1.676364,0.661043 2.117789,0.718154 0.352559,0.04561 0.81884,0.0402 1.182013,-0.01372 z m 3.340104,-2.720138 c 0.219452,-0.09274 0.408855,-0.179054 0.420898,-0.191804 0.02818,-0.02984 -3.298271,-2.572937 -3.465204,-2.649176 -0.155462,-0.071 -0.502109,-0.07717 -0.658735,-0.01173 -0.06255,0.02613 -0.482937,0.329833 -0.934192,0.674885 l -0.820464,0.627367 0.359852,0.121 c 0.197919,0.06655 0.464928,0.16938 0.593353,0.228511 0.594992,0.273952 0.410817,0.24886 1.968069,0.26813 1.393293,0.01724 1.40189,0.01778 1.563058,0.09712 0.32297,0.158991 0.556755,0.50525 0.566832,0.839534 0.0027,0.0906 0.0055,0.164737 0.0062,0.164758 7.08e-4,1.9e-5 0.180834,-0.07585 0.400285,-0.168588 z m -3.654547,-4.759889 c -0.0035,-0.665302 -0.292898,-1.170445 -0.819662,-1.430786 -0.22205,-0.109743 -0.280954,-0.123762 -0.580682,-0.138194 l -0.333564,-0.01606 5.76e-4,0.179585 c 0.0029,0.889639 0.613939,1.522775 1.475473,1.528754 l 0.258517,0.0018 z m 1.230708,-0.504826 c 0.273834,-0.08523 0.46063,-0.200204 0.644343,-0.396609 0.261098,-0.279134 0.393893,-0.628348 0.393893,-1.035826 V 70.55023 l -0.325231,0.01327 c -0.277123,0.0113 -0.357305,0.02839 -0.542053,0.115538 -0.316071,0.149089 -0.541023,0.36734 -0.690636,0.670061 -0.113266,0.229176 -0.125829,0.282144 -0.137838,0.581134 l -0.01321,0.328973 h 0.234407 c 0.135907,0 0.319256,-0.02641 0.436328,-0.06284 z m -1.230047,-3.054696 v -0.284884 h 0.284885 0.284884 l -0.0097,0.275196 -0.0097,0.275196 -0.275196,0.0097 -0.275196,0.0097 z m 3.784516,-0.0999 c -0.04503,-0.04503 -0.08188,-0.102718 -0.08188,-0.12819 0,-0.03717 -0.129416,-0.0508 -0.655703,-0.06902 -0.662468,-0.02294 -1.156239,-0.07664 -1.569939,-0.170726 -0.323707,-0.07362 -0.918365,-0.27427 -1.21014,-0.408321 -0.614784,-0.28245 -0.424419,-0.25604 -1.984748,-0.275349 -1.373448,-0.017 -1.404034,-0.01883 -1.555351,-0.09338 -0.326462,-0.160842 -0.558093,-0.500337 -0.572349,-0.838873 -0.0041,-0.09776 -0.02132,-0.163999 -0.04051,-0.156012 -0.01835,0.0076 -0.443034,0.188332 -0.943752,0.401553 -0.500717,0.213219 -0.984983,0.40489 -1.076147,0.425933 -0.522938,0.120708 -1.083395,-0.266816 -1.200298,-0.829939 -0.0799,-0.384849 0.10898,-0.851536 0.429239,-1.060596 0.142708,-0.09316 4.641257,-1.813749 5.049887,-1.931465 0.462099,-0.133119 0.74569,-0.169131 1.32696,-0.168506 0.931785,10e-4 1.175454,0.06565 2.829467,0.75064 0.616875,0.255472 1.133245,0.464495 1.147489,0.464495 0.01424,0 0.0259,-0.04992 0.0259,-0.110935 0,-0.07283 0.02652,-0.135848 0.0772,-0.183464 l 0.0772,-0.07253 h 2.19108 2.19108 v 0.283536 0.283535 h -2.001427 -2.001426 v 1.701213 1.701212 h 2.001426 2.001427 v 0.283536 0.283534 h -2.186407 -2.186407 z m -0.09856,-2.115139 V 65.58021 l -1.284248,-0.532203 c -0.706337,-0.292711 -1.422793,-0.568199 -1.592125,-0.612196 -0.733959,-0.190699 -1.448519,-0.195694 -2.166397,-0.01514 -0.435164,0.109447 -4.942509,1.838109 -5.048879,1.936352 -0.05087,0.04698 -0.111178,0.147809 -0.134024,0.224063 -0.081,0.270337 0.110611,0.560018 0.395228,0.597529 0.104394,0.01376 0.325033,-0.06906 1.424455,-0.534655 0.71551,-0.303014 1.37598,-0.570797 1.467712,-0.595074 0.128602,-0.03403 0.582992,-0.04414 1.984748,-0.04414 h 1.817962 l 0.0097,0.275196 0.0097,0.275196 -1.7109,1.82e-4 c -1.064082,1.12e-4 -1.757381,0.0131 -1.833846,0.03433 -0.18501,0.05138 -0.294019,0.200492 -0.294019,0.402172 0,0.141013 0.01642,0.182646 0.114135,0.289315 l 0.114135,0.124599 1.395274,0.01925 c 0.996147,0.01374 1.433442,0.03148 1.528703,0.06202 0.07339,0.02352 0.298164,0.117916 0.499508,0.209759 0.916833,0.41821 1.761684,0.590058 2.852881,0.580293 l 0.450321,-0.004 z"
       id="path9" /></g></svg>
