<?xml version="1.0" encoding="UTF-8" standalone="no"?>
<!-- Created with Inkscape (http://www.inkscape.org/) -->

<svg
   width="16.386112mm"
   height="17.155106mm"
   viewBox="0 0 16.386112 17.155106"
   version="1.1"
   id="svg1"
   xml:space="preserve"
   xmlns="http://www.w3.org/2000/svg"
   xmlns:svg="http://www.w3.org/2000/svg"><defs
     id="defs1" /><g
     id="layer1"
     transform="translate(3.5928231,-122.91416)"><path
       style="fill:#000000;stroke:#000000;stroke-width:0.1;stroke-dasharray:none;stroke-opacity:1"
       d="m 4.7045168,139.98076 c -0.32798,-0.0892 -0.57476,-0.30947 -0.73769,-0.65859 -0.0719,-0.15396 -0.0917,-0.25172 -0.0921,-0.45301 l -4e-4,-0.25668 h -3.42646 c -3.01261,0 -3.4423,-0.007 -3.55761,-0.0548 -0.16691,-0.0697 -0.28051,-0.17601 -0.36568,-0.34209 -0.0655,-0.12774 -0.0674,-0.31439 -0.0674,-6.78313 v -6.65176 l 0.0824,-0.15604 c 0.0541,-0.10243 0.1413,-0.19252 0.25383,-0.26225 l 0.17142,-0.10621 1.24809,-0.0101 1.2481,-0.0101 0.0733,-0.12425 c 0.11459,-0.19422 0.30246,-0.26091 0.73761,-0.26185 l 0.36289,-8e-4 v -0.19242 c 0,-0.10583 0.0169,-0.23726 0.0376,-0.29208 0.0559,-0.14822 0.24335,-0.32579 0.3857,-0.36534 0.069,-0.0192 0.52827,-0.0349 1.02057,-0.0351 0.97383,-2.7e-4 1.04221,0.011 1.21805,0.19902 0.12676,0.13557 0.17042,0.26199 0.17042,0.49346 v 0.19242 l 0.36289,8e-4 c 0.43514,9.4e-4 0.62301,0.0676 0.7376,0.26185 l 0.0733,0.12425 1.2481,0.0101 1.24809,0.0101 0.17142,0.10621 c 0.11254,0.0697 0.19974,0.15982 0.25384,0.26225 l 0.0824,0.15604 v 3.69413 c 0,2.03178 0.0119,3.69413 0.0266,3.69412 0.0146,-1e-5 0.11036,-0.0319 0.2128,-0.0708 0.23616,-0.0898 0.59982,-0.0937 0.83893,-0.009 0.3849,0.13627 0.39488,0.15121 2.2484702,3.37036 0.93557,1.6248 1.71677,3.01086 1.73602,3.08014 0.0519,0.18684 0.0428,0.53866 -0.0185,0.71232 -0.0971,0.2752 -0.30732,0.51051 -0.57292,0.64127 l -0.23905,0.1177 -3.5057502,0.007 c -2.69183,0.005 -3.54315,-0.003 -3.66682,-0.037 z m 7.2707802,-0.47869 c 0.25435,-0.15812 0.40255,-0.49994 0.33913,-0.7822 -0.0382,-0.16999 -3.3223802,-5.88138 -3.4792502,-6.05061 -0.14511,-0.15655 -0.29443,-0.21705 -0.53569,-0.21705 -0.20613,0 -0.40955,0.0783 -0.51965,0.20008 -0.10248,0.11332 -3.42766,5.89997 -3.46865,6.03633 -0.0918,0.30545 0.0849,0.67903 0.39559,0.83618 l 0.15881,0.0803 3.48728,-0.01 3.4872802,-0.01 z m -4.0009202,-0.44821 c -0.11245,-0.056 -0.21799,-0.14455 -0.28133,-0.23595 -0.09,-0.12991 -0.10136,-0.17664 -0.10136,-0.41785 0,-0.24121 0.0113,-0.28794 0.10136,-0.41785 0.27471,-0.39641 0.86176,-0.42955 1.1804,-0.0666 0.2443,0.27824 0.24626,0.6655 0.005,0.95815 -0.22442,0.27207 -0.57802,0.34253 -0.90393,0.18013 z m 0.55824,-0.43866 c 0.0706,-0.0706 0.10348,-0.13893 0.10348,-0.21514 0,-0.16097 -0.16588,-0.31864 -0.33522,-0.31864 -0.18179,0 -0.30205,0.1269 -0.30205,0.31872 0,0.2968 0.32222,0.42663 0.53379,0.21506 z m -0.43063,-1.3819 c -0.15757,-0.0477 -0.27985,-0.14771 -0.37104,-0.30332 -0.0765,-0.13063 -0.10391,-0.27936 -0.21097,-1.14704 -0.0677,-0.54832 -0.12266,-1.07197 -0.12223,-1.16368 10e-4,-0.31395 0.19861,-0.61434 0.50265,-0.76585 0.22941,-0.11431 0.57172,-0.12473 0.78881,-0.024 0.27767,0.12884 0.49664,0.42457 0.53338,0.72035 0.0104,0.084 -0.0423,0.62486 -0.11928,1.22266 -0.13391,1.04044 -0.14107,1.07596 -0.24269,1.20373 -0.18758,0.23586 -0.49028,0.33846 -0.75863,0.25714 z m 0.38526,-0.47181 c 0.0665,-0.0708 0.092,-0.21011 0.20626,-1.1251 0.12874,-1.03137 0.12956,-1.04599 0.0659,-1.18022 -0.0862,-0.18159 -0.2366,-0.26887 -0.46368,-0.26904 -0.28382,-2.7e-4 -0.47422,0.19474 -0.47358,0.48491 1.3e-4,0.074 0.0546,0.56424 0.12091,1.08944 0.10886,0.86187 0.12819,0.96105 0.19835,1.01786 0.10724,0.0868 0.25467,0.0792 0.34588,-0.0178 z m -4.28548,1.21581 c 0.0633,-0.11523 0.11506,-0.21835 0.11506,-0.22918 0,-0.0108 -1.50157,-0.0239 -3.33681,-0.029 -3.27354,-0.009 -3.33864,-0.0107 -3.43301,-0.0802 -0.21907,-0.16127 -0.20474,0.2736 -0.20474,-6.21164 0,-6.36936 -0.0103,-6.01011 0.17703,-6.1798 0.0726,-0.0658 0.14189,-0.072 0.98609,-0.0884 l 0.908,-0.0177 0.0105,-0.23898 0.0105,-0.23897 h -1.18925 -1.18926 l -0.0846,0.0845 c -0.0465,0.0465 -0.0942,0.13811 -0.10592,0.20357 -0.0118,0.0655 -0.0168,3.03193 -0.0112,6.59215 l 0.0102,6.47312 0.0993,0.0854 0.0993,0.0854 3.51186,-4.1e-4 3.51186,-4e-4 z m 1.26066,-2.18828 0.87269,-1.51351 -0.009,-4.35468 -0.009,-4.35467 h -4.26617 -4.26616 l -0.009,5.86819 -0.009,5.86819 h 3.41142 3.41142 z m -6.54469,0.82307 c -0.18135,-0.0641 -0.35653,-0.25449 -0.40714,-0.44245 -0.026,-0.0965 -0.0359,-0.46851 -0.0287,-1.0797 l 0.011,-0.93243 0.1067,-0.15173 c 0.20345,-0.28929 0.22826,-0.29525 1.28009,-0.30771 0.62308,-0.007 0.97631,0.002 1.07853,0.03 0.19178,0.0516 0.3995,0.25506 0.45142,0.44206 0.0523,0.1883 0.0523,1.82813 0,2.01643 -0.0501,0.18047 -0.2588,0.38916 -0.43927,0.43926 -0.21855,0.0607 -1.87352,0.0496 -2.05262,-0.0137 z m 2.01963,-0.45857 0.0869,-0.0869 v -0.88831 -0.88832 l -0.0869,-0.0869 -0.0869,-0.0869 h -0.88832 -0.88831 l -0.0869,0.0869 -0.0869,0.0869 v 0.88832 0.88831 l 0.0869,0.0869 0.0869,0.0869 h 0.88831 0.88832 z m -1.53569,-0.6351 c -0.26961,-0.27805 -0.30184,-0.36289 -0.18301,-0.48173 0.10721,-0.1072 0.19871,-0.0865 0.38423,0.0871 l 0.16876,0.15787 0.35126,-0.35259 c 0.37214,-0.37353 0.47315,-0.4224 0.59493,-0.28783 0.12293,0.13583 0.0783,0.21346 -0.39431,0.68608 -0.56539,0.56539 -0.56005,0.56428 -0.92186,0.19115 z m 2.83489,0.33135 c -0.12596,-0.0506 -0.17293,-0.18893 -0.10128,-0.29827 l 0.0589,-0.09 h 0.87879 c 0.8064,0 0.88363,0.005 0.93739,0.0647 0.10145,0.11211 0.0718,0.24377 -0.0718,0.3194 -0.0938,0.0494 -1.58047,0.0529 -1.702,0.004 z m -0.10128,-1.04465 c -0.0741,-0.11308 -0.0234,-0.24861 0.11228,-0.3002 0.0539,-0.0205 0.64466,-0.0345 1.44315,-0.0342 1.4974,5.4e-4 1.52061,0.004 1.54018,0.20617 0.0218,0.2258 0.0763,0.21816 -1.55486,0.21816 h -1.48181 z m -3.34593,-1.9941 c -0.28686,-0.18192 -0.29647,-0.22625 -0.29647,-1.36782 0,-1.11531 4.1e-4,-1.11747 0.2776,-1.3416 l 0.13598,-0.10996 0.96154,-0.0108 c 0.52885,-0.006 1.01427,-0.001 1.07872,0.0109 0.15738,0.0291 0.37903,0.23595 0.44891,0.41891 0.0481,0.12601 0.0553,0.29308 0.0463,1.08642 -0.0121,1.07992 -0.0251,1.13522 -0.30701,1.31402 l -0.15995,0.10144 h -1.01285 -1.01284 z m 2.16728,-0.38929 c 0.0625,-0.0772 0.0676,-0.1501 0.0676,-0.95998 0,-0.83302 -0.004,-0.88102 -0.0734,-0.96968 l -0.0734,-0.0933 h -0.91537 -0.91536 l -0.0734,0.0933 c -0.0697,0.0886 -0.0734,0.13685 -0.0734,0.95301 0,0.47285 0.0103,0.88669 0.023,0.91966 0.053,0.1382 0.20173,0.1583 1.10425,0.14923 0.85812,-0.009 0.86201,-0.009 0.92935,-0.0922 z m -1.54953,-0.61821 c -0.27615,-0.27615 -0.31849,-0.38424 -0.1945,-0.49645 0.1076,-0.0974 0.22124,-0.0706 0.38571,0.0908 l 0.1522,0.14937 0.32709,-0.32249 c 0.31007,-0.30571 0.43361,-0.4011 0.51949,-0.4011 0.0668,0 0.17934,0.13916 0.17934,0.22177 0,0.1165 -0.90728,1.01737 -1.02461,1.01737 -0.059,0 -0.16585,-0.0804 -0.34472,-0.25925 z m 2.75009,0.25925 c -0.0934,-0.0934 -0.0893,-0.16173 0.0161,-0.26714 l 0.0869,-0.0869 h 0.8336 c 0.78639,0 0.83761,0.004 0.90441,0.0708 0.0884,0.0884 0.091,0.21855 0.006,0.29545 -0.0565,0.0511 -0.1739,0.0586 -0.9205,0.0586 -0.80855,0 -0.85967,-0.004 -0.92657,-0.0708 z m 0.028,-0.92936 c -0.0965,-0.0759 -0.10642,-0.18439 -0.0261,-0.28651 l 0.074,-0.0941 h 1.62601 c 1.5788,0 1.62806,0.002 1.69682,0.0708 0.0389,0.0389 0.0708,0.10267 0.0708,0.14162 0,0.0389 -0.0319,0.10267 -0.0708,0.14161 -0.0687,0.0687 -0.11802,0.0708 -1.69262,0.0708 -1.24382,0 -1.63493,-0.0103 -1.67811,-0.0443 z m -3.30437,-2.00491 c -0.17827,-0.081 -0.32139,-0.24756 -0.37101,-0.43185 -0.0239,-0.0886 -0.0341,-0.48024 -0.0275,-1.05165 0.0121,-1.04973 0.0263,-1.10901 0.30699,-1.28703 l 0.15995,-0.10144 h 1.00348 c 0.9298,0 1.01357,0.005 1.14072,0.07 0.15047,0.0768 0.25195,0.20142 0.31479,0.38667 0.0522,0.15381 0.0554,1.80846 0.004,1.99394 -0.0471,0.16976 -0.18434,0.33132 -0.35552,0.41865 -0.12487,0.0637 -0.21181,0.0692 -1.08422,0.0685 -0.84357,-6.7e-4 -0.96429,-0.008 -1.09154,-0.0658 z m 2.07002,-0.45158 c 0.0697,-0.0887 0.0734,-0.13666 0.0734,-0.96968 0,-0.81015 -0.005,-0.88272 -0.0677,-0.95998 l -0.0677,-0.0836 h -0.92676 -0.92675 l -0.0677,0.0836 c -0.0626,0.0773 -0.0677,0.14983 -0.0677,0.95998 0,0.83302 0.004,0.88101 0.0734,0.96968 l 0.0734,0.0933 h 0.91536 0.91537 z m -1.52386,-0.60323 c -0.15354,-0.14942 -0.27916,-0.29947 -0.27916,-0.33344 0,-0.10894 0.0428,-0.17836 0.13073,-0.21177 0.10431,-0.0397 0.23068,0.019 0.3805,0.17656 l 0.10408,0.10947 0.35988,-0.35414 c 0.37936,-0.37331 0.47621,-0.42043 0.59479,-0.2894 0.12363,0.13661 0.079,0.2129 -0.41196,0.70384 -0.25981,0.25981 -0.49946,0.47055 -0.53512,0.47055 -0.0355,0 -0.1902,-0.12225 -0.34374,-0.27167 z m 2.73211,0.2484 c -0.0803,-0.10212 -0.0704,-0.21062 0.0261,-0.28651 0.0415,-0.0326 0.28165,-0.0443 0.91492,-0.0443 0.84714,0 0.85935,10e-4 0.91373,0.0787 0.0742,0.1059 0.0694,0.19029 -0.0157,0.27535 -0.0669,0.0669 -0.11802,0.0708 -0.91793,0.0708 h -0.84713 z m 0.0142,-0.94873 c -0.10126,-0.10126 -0.1074,-0.15131 -0.0318,-0.25926 l 0.0551,-0.0787 h 1.65997 1.65997 l 0.0551,0.0787 c 0.0756,0.10795 0.0695,0.158 -0.0318,0.25926 l -0.0869,0.0869 h -1.59639 -1.59639 z m 5.03222,5.39039 c 0.042,-0.0805 0.0498,-0.70364 0.0498,-3.93982 0,-4.11513 0.004,-4.0285 -0.17169,-4.12232 -0.0471,-0.0252 -0.47172,-0.0382 -1.24375,-0.0382 h -1.17228 l 0.0105,0.23897 0.0105,0.23898 0.90801,0.0177 c 0.8442,0.0165 0.9135,0.0227 0.98608,0.0884 0.18552,0.16806 0.17701,-0.037 0.17742,4.27334 l 4e-4,4.01125 0.19761,-0.33634 c 0.10868,-0.18499 0.22003,-0.37936 0.24744,-0.43194 z m -2.95949,-8.00755 c 0,-0.27911 -0.0136,-0.41406 -0.0443,-0.43944 -0.0243,-0.0201 -0.23916,-0.042 -0.47737,-0.0486 -0.43195,-0.0119 -0.43341,-0.0123 -0.54437,-0.12331 -0.0997,-0.0998 -0.11309,-0.13847 -0.12887,-0.37174 -0.0274,-0.40438 0.0249,-0.3843 -1.00018,-0.3843 -1.02033,0 -0.97498,-0.0165 -0.99789,0.36251 -0.0155,0.25674 -0.0873,0.39695 -0.24465,0.47781 -0.0522,0.0268 -0.23638,0.0439 -0.47631,0.0443 -0.25643,4e-4 -0.40586,0.0152 -0.4337,0.043 -0.028,0.028 -0.0425,0.17859 -0.0425,0.44255 v 0.40006 h 2.19504 2.19504 z"
       id="path11" /></g></svg>
