<?xml version="1.0" encoding="UTF-8" standalone="no"?>
<!-- Created with Inkscape (http://www.inkscape.org/) -->

<svg
   width="13.230328mm"
   height="16.926979mm"
   viewBox="0 0 13.230328 16.926979"
   version="1.1"
   id="svg1"
   xml:space="preserve"
   xmlns="http://www.w3.org/2000/svg"
   xmlns:svg="http://www.w3.org/2000/svg"><defs
     id="defs1" /><g
     id="layer1"
     transform="translate(-62.260732,-70.526191)"><path
       style="fill:#000000"
       d="m 67.436724,87.413947 c -0.18279,-0.0654 -0.29618,-0.16985 -1.1982,-1.10363 l -0.89778,-0.92938 -0.20031,-0.0209 c -0.1647,-0.0172 -0.32577,-0.0672 -0.47,-0.14583 -0.0117,-0.006 -0.0267,0.10964 -0.0335,0.25781 -0.0189,0.41683 0.0463,0.3952 -1.1907,0.3952 h -1.0231 l -0.0812,-0.0812 -0.0812,-0.0812 v -2.74806 -2.74806 l 0.0812,-0.0812 0.0812,-0.0812 h 1.02827 1.02826 l 0.0812,0.0812 c 0.0725,0.0725 0.0812,0.10911 0.0812,0.34312 v 0.26194 l 0.14056,-0.0703 c 0.13476,-0.0674 0.19224,-0.0707 1.3936,-0.0797 1.54994,-0.0117 1.44109,-0.0368 1.94298,0.44814 l 0.36026,0.34805 0.35567,-0.34684 c 0.28566,-0.27858 0.38885,-0.35787 0.52425,-0.40284 0.15101,-0.0502 0.34054,-0.055 1.8184,-0.0465 1.60614,0.009 1.65355,0.0113 1.79038,0.0797 l 0.14056,0.0703 v -0.26194 c 0,-0.23401 0.009,-0.27059 0.0812,-0.34312 l 0.0812,-0.0812 h 1.02827 1.02827 l 0.0817,0.0817 0.0817,0.0817 -0.009,2.76546 -0.009,2.76546 -0.0781,0.0632 c -0.0731,0.0592 -0.14316,0.0632 -1.10118,0.0632 h -1.0231 l -0.0812,-0.0812 c -0.0727,-0.0727 -0.0812,-0.10892 -0.0812,-0.34615 v -0.26497 l -0.11681,0.0689 c -0.0713,0.0421 -0.19981,0.0756 -0.32997,0.086 l -0.21316,0.0171 0.0989,0.12484 c 0.27598,0.34845 0.2541,0.80332 -0.0534,1.11084 -0.2575,0.2575 -0.63787,0.30649 -0.98596,0.12698 -0.089,-0.0459 -0.16399,-0.0793 -0.1667,-0.0743 -0.0623,0.11504 -0.22096,0.276 -0.34238,0.34737 -0.22341,0.13133 -0.546,0.13099 -0.80008,-8.3e-4 -0.16723,-0.0868 -0.18033,-0.0888 -0.21046,-0.0331 -0.0673,0.12459 -0.28686,0.30141 -0.43824,0.35299 -0.32483,0.11068 -0.6141,0.038 -0.89903,-0.22575 l -0.1924,-0.17813 -0.0771,0.14541 c -0.17095,0.32225 -0.60488,0.49244 -0.94513,0.37068 z m 0.43637,-0.56826 c 0.0809,-0.0696 0.0928,-0.10331 0.0928,-0.26287 v -0.18305 l -0.40515,-0.40981 c -0.40831,-0.41301 -0.44571,-0.47466 -0.3846,-0.63393 0.0318,-0.0828 0.2053,-0.15888 0.30548,-0.13395 0.0535,0.0133 0.39635,0.32889 0.88332,0.81298 0.71266,0.70846 0.80721,0.79123 0.90378,0.79123 0.14735,0 0.3012,-0.15339 0.3012,-0.3003 0,-0.0939 -0.0664,-0.17412 -0.5457,-0.65881 -0.55327,-0.55952 -0.58828,-0.61124 -0.52516,-0.77573 0.0318,-0.0828 0.2053,-0.15888 0.30548,-0.13395 0.0535,0.0133 0.39635,0.32888 0.88331,0.81298 0.71267,0.70846 0.80721,0.79123 0.90379,0.79123 0.14735,0 0.3012,-0.15339 0.3012,-0.3003 0,-0.0939 -0.0664,-0.17412 -0.5457,-0.65882 -0.45707,-0.46223 -0.54554,-0.56748 -0.54466,-0.648 0.002,-0.16939 0.16545,-0.30137 0.32449,-0.2618 0.0541,0.0135 0.3939,0.32609 0.8838,0.8131 0.71267,0.70846 0.80721,0.79123 0.90378,0.79123 0.1485,0 0.3012,-0.15332 0.3012,-0.30243 0,-0.0995 -0.11672,-0.22594 -1.33063,-1.44121 l -1.33064,-1.33214 h -0.27749 -0.27749 l -0.30699,0.29349 c -0.41446,0.39623 -0.64707,0.47485 -1.02443,0.34627 -0.30504,-0.10394 -0.54555,-0.44431 -0.54555,-0.77205 0,-0.28116 0.086,-0.4217 0.54228,-0.8866 l 0.432,-0.44012 -0.33321,-0.32883 -0.33322,-0.32882 h -1.19818 -1.19818 l -0.19598,0.18693 -0.19598,0.18694 v 1.47012 1.47012 l 0.15248,0.17022 c 0.1926,0.21501 0.21809,0.22912 0.46031,0.25479 0.10965,0.0116 0.25297,0.0466 0.31847,0.0777 0.072,0.0342 0.47025,0.42322 1.00778,0.98455 0.48878,0.51043 0.91805,0.94863 0.95393,0.97378 0.0983,0.0689 0.23431,0.0551 0.33806,-0.0341 z m -3.7602,-3.88893 v -2.38125 h -0.66145 -0.66146 v 2.38125 2.38125 h 0.66146 0.66145 z m 10.84792,0 v -2.38125 h -0.66146 -0.66146 v 2.38125 2.38125 h 0.66146 0.66146 z m -2.04807,1.66515 0.19598,-0.18694 v -1.47821 -1.47821 l -0.19598,-0.18694 -0.19598,-0.18693 h -1.59758 -1.59757 l -0.93496,0.93495 c -0.84764,0.84764 -0.93496,0.94518 -0.93496,1.04434 0,0.14863 0.15259,0.30274 0.29975,0.30274 0.0896,0 0.15643,-0.0488 0.42422,-0.31005 0.17481,-0.17053 0.35034,-0.3268 0.39007,-0.34727 0.11058,-0.057 0.91767,-0.0489 1.02908,0.0102 0.0491,0.0261 0.54314,0.50234 1.09782,1.05833 l 1.00853,1.0109 h 0.4078 0.4078 z m -7.19934,-4.45006 c -0.26057,-0.24018 -0.27759,-0.30022 -0.27759,-0.97892 v -0.59146 l -0.66973,-0.32223 c -0.70687,-0.3401 -0.79962,-0.40088 -0.87243,-0.57174 -0.0621,-0.14567 -0.0622,-0.89707 -2.3e-4,-1.04547 0.0589,-0.14099 0.22521,-0.27866 0.36927,-0.30568 0.20164,-0.0378 0.15116,-0.12232 -0.2209,-0.36973 -0.45036,-0.29947 -0.45806,-0.31535 -0.45806,-0.94368 0,-0.39183 -0.011,-0.51119 -0.0549,-0.59583 l -0.0549,-0.10584 -0.12788,0.26458 c -0.31231,0.64616 -0.51335,1.49328 -0.5455,2.29857 -0.0311,0.77929 0.0674,1.45205 0.32576,2.22484 0.11441,0.34219 0.1268,0.40688 0.0933,0.4876 -0.0564,0.13615 -0.20566,0.18939 -0.34488,0.123 -0.0969,-0.0462 -0.12189,-0.0893 -0.22838,-0.3936 -0.8666,-2.4767 -0.2199,-5.1904 1.66421,-6.98336 2.65643,-2.52794 6.8223,-2.43501 9.33775,0.2083 0.94774,0.99592 1.52506,2.15964 1.7641,3.556 0.0788,0.46044 0.0787,1.55904 -2.7e-4,2.01603 -0.12056,0.69787 -0.36018,1.47212 -0.48919,1.58065 -0.13234,0.11133 -0.32231,0.0612 -0.39031,-0.10291 -0.0357,-0.0861 -0.0249,-0.14317 0.0949,-0.50127 0.44114,-1.31939 0.44301,-2.62547 0.006,-3.93358 -0.42414,-1.26858 -1.30386,-2.40033 -2.44885,-3.15043 l -0.24634,-0.16137 -0.0451,0.0861 c -0.0399,0.0762 -0.0369,0.10297 0.0266,0.2341 0.10052,0.20763 0.069,0.33145 -0.18047,0.70884 -0.20202,0.30562 -0.20866,0.32254 -0.22471,0.57269 -0.0198,0.30933 -0.0681,0.38825 -0.33457,0.54742 l -0.18772,0.11213 v 0.17726 0.17726 h 0.68479 0.68479 l 0.25005,0.11734 0.25004,0.11734 0.22512,-0.11734 c 0.19565,-0.10198 0.2556,-0.11734 0.45799,-0.11734 0.28238,0 0.44803,0.0794 0.55217,0.26472 0.057,0.10142 0.07,0.18035 0.07,0.4239 0,0.43422 -0.0672,0.56563 -0.36758,0.71854 -0.14254,0.0726 -0.15375,0.0879 -0.16999,0.23201 -0.0186,0.16536 -0.0896,0.28356 -0.23579,0.39277 -0.0723,0.054 -0.15191,0.0706 -0.38347,0.0796 l -0.2922,0.0114 -0.0692,0.1666 c -0.0586,0.14112 -0.0692,0.23505 -0.0692,0.61408 v 0.44748 l 0.33899,0.44826 c 0.18645,0.24655 0.36442,0.4934 0.39549,0.54857 0.076,0.13494 0.0834,0.72907 0.0104,0.8333 -0.10328,0.14745 -0.36804,0.12219 -0.44297,-0.0423 -0.0206,-0.0451 -0.0374,-0.19079 -0.0374,-0.32374 v -0.24175 l -0.35161,-0.4595 c -0.19339,-0.25272 -0.37199,-0.50739 -0.39688,-0.56592 -0.0323,-0.0759 -0.0453,-0.26596 -0.0453,-0.66321 v -0.55678 l 0.12803,-0.26284 c 0.19535,-0.40105 0.30796,-0.47781 0.70095,-0.47781 h 0.22935 v -0.0971 c 0,-0.2225 0.12062,-0.39062 0.37207,-0.51862 l 0.1571,-0.08 v -0.18135 c 0,-0.17831 -0.002,-0.18134 -0.0965,-0.18134 -0.0531,0 -0.20522,0.0521 -0.33807,0.11576 -0.29996,0.14375 -0.41583,0.14517 -0.68989,0.008 l -0.21497,-0.10723 -0.7501,-0.0168 c -0.6914,-0.0154 -0.75724,-0.0221 -0.84132,-0.085 -0.18554,-0.1387 -0.22672,-0.23004 -0.23931,-0.53077 -0.006,-0.15399 -0.002,-0.33106 0.01,-0.3935 0.0287,-0.15316 0.15914,-0.30019 0.3537,-0.39878 l 0.16106,-0.0816 v -0.19953 c 0,-0.22298 0.029,-0.29255 0.27345,-0.65543 l 0.16451,-0.24422 -0.0536,-0.11244 c -0.0739,-0.15499 -0.0677,-0.38286 0.0148,-0.54466 0.0376,-0.0738 0.062,-0.14067 0.054,-0.14861 -0.0365,-0.0365 -0.59785,-0.24819 -0.85515,-0.32248 -1.15677,-0.33398 -2.30885,-0.33291 -3.44278,0.003 -0.15916,0.0472 -0.28939,0.099 -0.28939,0.11506 0,0.0161 0.0331,0.0919 0.0736,0.16851 0.0633,0.11975 0.0753,0.20247 0.0858,0.5909 l 0.0122,0.45165 0.11168,0.0209 c 0.13115,0.0246 0.29449,0.15299 0.36286,0.2852 0.0782,0.15122 0.0637,0.49429 -0.0267,0.62947 -0.081,0.12126 -0.96442,0.80099 -1.13927,0.87663 -0.0714,0.0309 -0.23739,0.046 -0.50437,0.046 h -0.39866 v 0.33173 0.33172 l 0.30592,0.19705 0.30593,0.19706 0.27894,3.9e-4 c 0.49094,6.8e-4 0.69671,0.17551 0.69671,0.59193 v 0.20221 h 0.33449 c 0.28526,0 0.35392,0.0109 0.46644,0.0742 0.13444,0.0756 0.2574,0.26069 0.2574,0.38755 0,0.0635 0.0199,0.0675 0.33449,0.0675 0.3957,0 0.55635,0.0659 0.66111,0.27128 0.0889,0.17421 0.0922,0.97587 0.005,1.15086 -0.0394,0.0789 -0.20773,0.22931 -0.52911,0.47275 l -0.47129,0.35699 v 0.33059 c 0,0.3789 -0.0421,0.49417 -0.25609,0.70118 -0.17456,0.16886 -0.33456,0.19668 -0.45255,0.0787 -0.12775,-0.12775 -0.11361,-0.25711 0.0472,-0.43155 l 0.13229,-0.14352 v -0.32203 c 0,-0.45919 0.0164,-0.48465 0.58293,-0.90634 l 0.47256,-0.35173 0.001,-0.339 10e-4,-0.339 h -0.31526 c -0.19144,0 -0.35766,-0.0177 -0.42322,-0.0451 -0.14,-0.0585 -0.27861,-0.22493 -0.30515,-0.36643 l -0.021,-0.11194 -0.35835,-0.0111 c -0.29939,-0.009 -0.37335,-0.0223 -0.44956,-0.0793 -0.17346,-0.12968 -0.22466,-0.23238 -0.23857,-0.47857 l -0.013,-0.23046 h -0.27903 c -0.32127,0 -0.33806,-0.007 -0.83283,-0.33853 -0.45643,-0.306 -0.47721,-0.35023 -0.46237,-0.98416 0.009,-0.40167 0.0192,-0.46999 0.0789,-0.54986 0.15501,-0.20732 0.21086,-0.22618 0.72276,-0.24411 l 0.47217,-0.0165 0.4176,-0.31419 c 0.46141,-0.34715 0.51878,-0.43702 0.30463,-0.47719 -0.14406,-0.027 -0.31037,-0.16469 -0.36928,-0.30569 -0.03,-0.0718 -0.0451,-0.2474 -0.0451,-0.52376 0,-0.35804 -0.01,-0.43513 -0.0702,-0.55503 -0.0386,-0.0766 -0.0743,-0.14392 -0.0793,-0.14963 -0.0165,-0.0188 -0.4911,0.23096 -0.72693,0.3826 -0.37895,0.24368 -0.74996,0.54797 -1.08718,0.89168 -0.317,0.32311 -0.71484,0.81874 -0.71514,0.89094 -8e-5,0.021 0.0631,0.16982 0.1404,0.33073 l 0.14056,0.29256 0.0106,0.50641 0.0106,0.50641 0.32117,0.20775 c 0.17665,0.11427 0.34968,0.25101 0.3845,0.30388 0.0778,0.11812 0.10509,0.42616 0.052,0.58706 -0.0492,0.14905 -0.23037,0.30962 -0.38133,0.33794 l -0.11647,0.0219 v 0.32195 0.32195 l 0.67772,0.32546 c 0.67768,0.32544 0.80863,0.41349 0.87461,0.58812 0.0198,0.0525 0.0352,0.33921 0.0352,0.65776 v 0.56466 l 0.1323,0.14352 c 0.18026,0.19556 0.17938,0.36642 -0.002,0.46041 -0.14684,0.0759 -0.21947,0.0587 -0.3815,-0.0907 z"
       id="path1" /></g></svg>
