<?xml version="1.0" encoding="UTF-8" standalone="no"?>
<!-- Created with Inkscape (http://www.inkscape.org/) -->

<svg
   width="15.146403mm"
   height="17.054869mm"
   viewBox="0 0 15.146403 17.054869"
   version="1.1"
   id="svg1"
   xml:space="preserve"
   xmlns="http://www.w3.org/2000/svg"
   xmlns:svg="http://www.w3.org/2000/svg"><defs
     id="defs1" /><g
     id="layer1"
     transform="translate(-37.351706,-121.54585)"><path
       style="fill:#000000;stroke:#000000;stroke-width:0.128;stroke-dasharray:none;stroke-opacity:1"
       d="m 37.489556,138.48563 c -0.0896,-0.0628 -0.0968,-0.18583 -0.0261,-0.45131 0.10838,-0.40718 0.41558,-0.83159 0.76358,-1.0549 l 0.17035,-0.10932 v -0.31311 c 0,-0.91147 0.55098,-1.78047 1.327,-2.09295 0.0999,-0.0402 0.448594,-0.19744 0.90488,-0.19754 l 0.15826,-4e-5 0.059,-0.20072 c 0.0324,-0.11039 0.12967,-0.30396 0.21606,-0.43015 0,0 0.243571,-0.38158 0.65757,-0.55575 0.165702,-0.0697 0.52789,-0.16788 0.72013,-0.16877 l 0.12713,-6.4e-4 v -0.50193 -0.50193 l -0.25092,-0.0422 c -0.32465,-0.0546 -0.56299,-0.17563 -0.78025,-0.39639 -0.26715,-0.27145 -0.42369,-0.63844 -0.42594,-0.99858 -9e-4,-0.14934 -0.004,-0.15393 -0.15839,-0.21732 -0.42362,-0.17424 -0.65598,-0.58034 -0.65598,-1.14645 0,-0.33003 0.0739,-0.63367 0.217,-0.89219 l 0.10955,-0.19784 -0.20944,-0.20549 c -0.54073,-0.53052 -0.67593,-1.35138 -0.33378,-2.02658 0.12516,-0.24698 0.42132,-0.54471 0.67021,-0.67375 l 0.20977,-0.10876 9e-4,-0.30858 c 10e-4,-0.3556 0.066,-0.55859 0.26614,-0.8313 0.15074,-0.20534 0.46479,-0.42169 0.69088,-0.47592 0.16401,-0.0393 0.16748,-0.0429 0.1877,-0.19041 0.0588,-0.42891 0.40651,-0.72408 0.85492,-0.7257 0.27841,-0.001 0.50181,0.0815 0.67592,0.24968 l 0.14439,0.13946 0.19432,-0.0787 c 0.10687,-0.0433 0.25678,-0.0894 0.33312,-0.10241 0.12677,-0.0216 0.14108,-0.0347 0.16517,-0.15065 0.0693,-0.33337 0.35149,-0.67452 0.68038,-0.82243 0.17199,-0.0774 0.25872,-0.0949 0.46563,-0.0942 0.3039,0.001 0.48801,0.0634 0.73284,0.24826 l 0.17763,0.13411 0.19282,-0.0883 c 0.48776,-0.22331 1.11848,0.0575 1.29018,0.57446 0.041,0.12341 0.0512,0.23307 0.0372,0.40005 l -0.0193,0.23003 0.1589,0.053 c 0.0874,0.0292 0.23517,0.11068 0.32841,0.18118 0.53064,0.40126 0.66406,1.29909 0.29985,2.01783 -0.0462,0.0912 -0.0792,0.16932 -0.0733,0.17355 0.006,0.004 0.0658,0.0407 0.13302,0.0811 0.30934,0.18582 0.57441,0.58957 0.76078,1.15882 0.0787,0.24046 0.0948,0.34992 0.0972,0.6611 0.003,0.34063 -0.005,0.39055 -0.092,0.57635 -0.0522,0.11187 -0.16858,0.27969 -0.25866,0.37292 l -0.16377,0.16952 -0.0194,0.33903 c -0.0209,0.36599 -0.13213,0.8095 -0.28283,1.12807 -0.11644,0.24612 -0.40659,0.52845 -0.75129,0.73104 -0.42142,0.24767 -0.60369,0.30338 -1.04817,0.32036 l -0.3814,0.0146 v 0.84931 0.84932 l 0.18785,0.19695 c 0.19286,0.20219 0.33219,0.45722 0.37314,0.68298 0.023,0.12675 0.0243,0.12769 0.14641,0.1017 0.0678,-0.0144 0.22562,-0.0241 0.35078,-0.0215 0.28352,0.006 0.60178,0.14443 0.79949,0.34816 0.13356,0.13763 0.13556,0.13835 0.21146,0.0769 0.405718,-0.23589 0.402444,-0.22646 0.78024,-0.26722 0.434243,0.0284 0.461534,0.0393 0.87218,0.25934 0.269281,0.14432 0.53425,0.4831 0.68631,0.79906 0.15373,0.31945 0.2197,0.56051 0.27374,1.00033 l 0.0396,0.32227 0.13474,0.0846 c 0.19708,0.12368 0.50141,0.4629 0.62665,0.69848 0.20757,0.39044 0.26941,0.86185 0.16096,1.22704 -0.0566,0.19072 -0.14162,0.26238 -0.27227,0.22959 -0.12761,-0.032 -0.16253,-0.13258 -0.11495,-0.33093 0.0627,-0.26143 0.0267,-0.61767 -0.0868,-0.85815 -0.11807,-0.25016 -0.4734,-0.61521 -0.71141,-0.73087 -0.15438,-0.075 -0.21675,-0.0849 -0.61794,-0.0984 -0.069,-0.002 -0.15284,-0.16018 -0.12746,-0.24014 0.0311,-0.098 0.22813,-0.17473 0.41924,-0.16328 l 0.15665,0.009 -0.011,-0.15118 c -0.0463,-0.63555 -0.45119,-1.32046 -0.91529,-1.54837 -0.39714,-0.19502 -0.90344,-0.0989 -1.20697,0.22915 -0.10387,0.11227 -0.14678,0.13591 -0.23129,0.12745 -0.0862,-0.009 -0.12443,-0.0446 -0.2257,-0.21238 -0.24741,-0.40978 -0.64614,-0.51909 -1.11758,-0.30637 -0.19967,0.0901 -0.22258,0.0936 -0.30513,0.0473 -0.0842,-0.0472 -0.0895,-0.0655 -0.093,-0.32024 -0.003,-0.2189 -0.0203,-0.30228 -0.0909,-0.43944 -0.38031,-0.73868 -1.31305,-0.8279 -2.30087,-0.22008 -0.22834,0.14049 -0.29171,0.13178 -0.49347,-0.0679 -0.14629,-0.14477 -0.19044,-0.1695 -0.30241,-0.16939 -0.15892,1.3e-4 -0.31207,0.0883 -0.43633,0.25126 -0.1076,0.14107 -0.20484,0.15509 -0.43148,0.0622 -0.0994,-0.0408 -0.23504,-0.0591 -0.43294,-0.0587 -0.25204,5.1e-4 -0.31666,0.014 -0.51535,0.10762 -0.34259,0.16137 -0.61168,0.46427 -0.70667,0.79548 -0.0252,0.088 -0.0184,0.0945 0.15668,0.14956 0.20671,0.065 0.26015,0.1133 0.26015,0.23502 0,0.20034 -0.12224,0.22324 -0.54983,0.10299 -0.57137,-0.16069 -1.28248,0.0464 -1.74399,0.50794 -0.38021,0.38021 -0.56743,0.87485 -0.53414,1.41119 0.005,0.0857 0.0111,0.0884 0.1327,0.0601 0.0699,-0.0162 0.22318,-0.0299 0.34057,-0.0303 0.18343,-6.4e-4 0.22542,0.0112 0.29875,0.0845 0.0628,0.0628 0.0792,0.10533 0.0621,0.16103 -0.0429,0.14008 -0.0832,0.16048 -0.31706,0.16048 -0.42313,0 -0.77581,0.13299 -1.06162,0.40033 -0.21198,0.19828 -0.30913,0.36527 -0.39622,0.68101 -0.099,0.35896 -0.19613,0.44431 -0.36833,0.3237 z m 5.66222,-5.59106 c 0.0756,-0.0647 0.18864,-0.13455 0.25119,-0.15519 l 0.11373,-0.0375 v -1.2353 -1.2353 l -0.15282,-0.18762 c -0.31839,-0.39089 -0.44073,-0.76582 -0.41416,-1.26923 l 0.017,-0.32208 -0.13531,-0.0848 c -0.39734,-0.24887 -0.70355,-0.92026 -0.70355,-1.54257 0,-0.67892 0.35037,-1.39334 0.87371,-1.78152 l 0.11207,-0.0831 -0.0549,-0.15256 c -0.16777,-0.46656 -0.0603,-1.10426 0.25634,-1.52062 0.13438,-0.17672 0.13639,-0.18324 0.0766,-0.24927 -0.16267,-0.17975 -0.49136,-0.22027 -0.69169,-0.0853 -0.16905,0.11393 -0.20439,0.20644 -0.17961,0.47026 0.0247,0.26265 0.0123,0.27592 -0.29206,0.31465 -0.24831,0.0316 -0.43629,0.11879 -0.59216,0.27466 -0.25162,0.25162 -0.3421,0.61389 -0.23689,0.9484 0.084,0.26706 0.0536,0.30726 -0.33729,0.44565 -0.23919,0.0847 -0.52844,0.36444 -0.65081,0.62942 -0.0879,0.19042 -0.0983,0.2489 -0.0979,0.55201 3.9e-4,0.29422 0.0122,0.36421 0.0893,0.52956 0.11048,0.2368 0.29705,0.44704 0.52848,0.5955 0.2138,0.13715 0.25601,0.24406 0.14929,0.37808 -0.26399,0.33153 -0.37507,0.63251 -0.37657,1.02038 -0.001,0.33254 0.0665,0.51184 0.25665,0.67879 0.1615,0.1418 0.26582,0.13626 0.33902,-0.018 0.10788,-0.22735 0.29292,-0.27247 0.4065,-0.0991 0.0488,0.0744 0.0448,0.0949 -0.0594,0.31103 -0.32255,0.66879 0.0459,1.38691 0.76353,1.48827 l 0.16484,0.0233 -0.0145,-0.62314 -0.0145,-0.62315 -0.22918,-0.53842 c -0.24533,-0.57636 -0.25847,-0.66936 -0.10447,-0.73952 0.16842,-0.0767 0.22462,-0.008 0.46995,0.57107 0.28053,0.66265 0.29599,0.78148 0.29046,2.23249 -0.005,1.21075 -0.004,1.23745 0.0215,1.23745 0.011,0 0.0819,-0.053 0.15749,-0.11766 z m 1.55315,-0.11883 c 0.18972,-0.0928 0.39664,-0.17839 0.45982,-0.19024 l 0.11488,-0.0215 v -0.61061 -0.61061 l -0.0763,0.0554 c -0.37512,0.2722 -0.61152,0.36342 -1.00013,0.38594 l -0.27969,0.0162 v 0.44829 0.44829 l 0.1346,0.0607 c 0.074,0.0334 0.16031,0.0891 0.19172,0.1238 0.0314,0.0347 0.069,0.0631 0.0836,0.0631 0.0146,0 0.18174,-0.0759 0.37146,-0.16868 z m 1.62569,-1.70765 c 0,-1.89007 -0.0522,-1.69159 0.68609,-2.60733 0.18691,-0.23182 0.28815,-0.33056 0.33894,-0.33056 0.0878,0 0.22937,0.12588 0.22937,0.20393 0,0.0311 -0.1675,0.26759 -0.37221,0.5256 -0.24449,0.30815 -0.38887,0.52231 -0.42078,0.62413 -0.0614,0.196 -0.0961,0.69208 -0.0678,0.96862 l 0.0217,0.21199 0.16424,0.0195 c 0.39327,0.0466 0.91959,-0.14216 1.34038,-0.48065 0.34994,-0.28152 0.51845,-0.73271 0.55208,-1.47824 l 0.0198,-0.43921 0.1323,-0.0693 c 0.0793,-0.0415 0.17959,-0.14049 0.25028,-0.24686 0.0982,-0.14772 0.12081,-0.2168 0.13473,-0.41139 0.0213,-0.29784 -0.0569,-0.6588 -0.21362,-0.9858 -0.22591,-0.47139 -0.42967,-0.67981 -0.6646,-0.67981 -0.15072,0 -0.26629,-0.0826 -0.26629,-0.19024 0,-0.0466 0.0609,-0.18575 0.13544,-0.30925 0.25521,-0.42314 0.36004,-0.87047 0.27624,-1.17869 -0.0648,-0.23825 -0.245,-0.4974 -0.42173,-0.60641 -0.14022,-0.0865 -0.1939,-0.0998 -0.38987,-0.0969 -0.16357,0.003 -0.24388,-0.0116 -0.2866,-0.0503 -0.0644,-0.0583 -0.0806,-0.22949 -0.025,-0.26386 0.0729,-0.0451 0.16903,-0.2919 0.16903,-0.434 0,-0.43516 -0.55234,-0.6865 -0.9008,-0.40991 -0.22182,0.17607 -0.24692,0.18925 -0.31774,0.16678 -0.0383,-0.0122 -0.1159,-0.0894 -0.17248,-0.1716 -0.18826,-0.27364 -0.50087,-0.39541 -0.81909,-0.31907 -0.13969,0.0335 -0.21486,0.0797 -0.35077,0.21564 -0.17567,0.17566 -0.25304,0.35585 -0.25304,0.58929 0,0.14037 -0.0875,0.19845 -0.33612,0.22308 -0.26159,0.0259 -0.52136,0.13882 -0.70852,0.30791 -0.3914,0.3536 -0.5244,0.98992 -0.29953,1.43295 0.14107,0.27794 0.12808,0.32195 -0.14891,0.50444 -0.76406,0.50336 -1.03953,1.54607 -0.61625,2.33262 0.0932,0.17326 0.31878,0.4272 0.37942,0.4272 0.0182,0 0.0566,-0.0456 0.0854,-0.10125 0.0899,-0.17386 0.25594,-0.33948 0.34032,-0.33948 0.0705,0 0.21931,0.138 0.21931,0.20341 0,0.0136 -0.0614,0.11454 -0.13644,0.22427 -0.50082,0.73235 -0.27133,1.68702 0.49901,2.07588 0.34314,0.17322 0.66792,0.20417 1.03592,0.0987 l 0.12713,-0.0364 v -0.36399 c 0,-0.41498 -0.0202,-0.49442 -0.35984,-1.41663 -0.11908,-0.32329 -0.2165,-0.62351 -0.2165,-0.66715 0,-0.0436 0.024,-0.10333 0.0533,-0.13263 0.0645,-0.0645 0.22968,-0.07 0.28005,-0.009 0.0201,0.0242 0.17053,0.40941 0.33435,0.85605 l 0.29785,0.81206 0.0101,1.61886 0.0101,1.61885 0.14284,0.004 c 0.0786,0.002 0.18861,0.0157 0.24455,0.0299 0.0559,0.0142 0.13604,0.0277 0.17799,0.0299 l 0.0763,0.004 z m -0.28818,-2.29188 c -0.10846,-0.0444 -0.16096,-0.12254 -0.47673,-0.70958 -0.28688,-0.53334 -0.29666,-0.55865 -0.24891,-0.64415 0.0624,-0.11177 0.22906,-0.13782 0.30867,-0.0483 0.0298,0.0335 0.14929,0.23642 0.26552,0.45086 0.33541,0.61882 0.27229,0.58104 0.50979,0.3051 0.16232,-0.1886 0.2237,-0.2373 0.2991,-0.2373 0.10732,0 0.20708,0.0915 0.20708,0.18996 0,0.0769 -0.43741,0.61762 -0.55037,0.68035 -0.0873,0.0485 -0.21456,0.0538 -0.31415,0.013 z m -1.3853,2.48985 c 0.27383,-0.1331 0.69048,-0.57033 0.61521,-0.64561 -0.007,-0.007 -0.0731,0.003 -0.1459,0.0231 -0.20405,0.0563 -0.77747,0.0199 -1.00798,-0.064 l -0.19494,-0.071 v 0.44253 0.44252 l 0.26744,-0.0155 c 0.203,-0.0118 0.31534,-0.0388 0.46617,-0.11206 z m 2.15489,7.0282 c -0.056,-0.056 -0.0511,-0.2816 0.009,-0.39722 0.0272,-0.0525 0.18064,-0.21466 0.34105,-0.36029 0.16041,-0.14563 0.30654,-0.2926 0.32473,-0.32659 0.0391,-0.0731 -0.007,-0.1785 -0.0918,-0.21115 -0.0845,-0.0324 -0.21653,0.069 -0.21653,0.1663 0,0.10851 -0.13803,0.20171 -0.25518,0.17231 -0.30265,-0.076 -0.0881,-0.63016 0.28265,-0.72998 0.35852,-0.0965 0.69231,0.16416 0.69231,0.54071 0,0.2171 -0.0673,0.32906 -0.35424,0.58913 l -0.24688,0.22379 0.26032,3.8e-4 c 0.28463,3.8e-4 0.36688,0.0423 0.36688,0.18684 0,0.16535 -0.0667,0.18647 -0.58894,0.18647 -0.32999,0 -0.49524,-0.0128 -0.52307,-0.0407 z m -3.41858,-0.64039 c -0.20028,-0.058 -0.42537,-0.2422 -0.535,-0.43771 l -0.10456,-0.18647 v -0.94927 -0.94928 l 0.10525,-0.18556 c 0.26117,-0.46046 0.83712,-0.59548 1.2823,-0.30061 0.1623,0.1075 0.32453,0.33811 0.32453,0.4613 0,0.0998 -0.0894,0.17744 -0.20421,0.17744 -0.0772,0 -0.11906,-0.0311 -0.19975,-0.14839 -0.17367,-0.25243 -0.4473,-0.31517 -0.70059,-0.16064 -0.19965,0.1218 -0.21765,0.21307 -0.21765,1.10348 0,0.88465 0.0155,0.97028 0.19925,1.10113 0.23899,0.17018 0.56682,0.0968 0.73123,-0.16364 0.0697,-0.11043 0.10749,-0.13852 0.18631,-0.13852 0.20717,0 0.26741,0.19815 0.12427,0.4088 -0.20327,0.29914 -0.65295,0.46603 -0.99138,0.36794 z m 2.07265,0.005 c -0.23392,-0.057 -0.45353,-0.23717 -0.58103,-0.47683 -0.0559,-0.10515 -0.0644,-0.21906 -0.0744,-1.00013 -0.0133,-1.04048 0.005,-1.1625 0.20345,-1.38845 0.16394,-0.18625 0.2718,-0.24676 0.52237,-0.29308 0.40128,-0.0742 0.80336,0.10851 0.97212,0.44168 l 0.0932,0.18407 v 0.95628 0.95627 l -0.0945,0.18186 c -0.18578,0.35761 -0.62073,0.54071 -1.04126,0.43833 z m 0.47498,-0.42394 c 0.0643,-0.0268 0.14762,-0.0993 0.18525,-0.16104 0.064,-0.10496 0.0684,-0.16925 0.0684,-0.99369 0,-0.82444 -0.004,-0.88873 -0.0684,-0.99369 -0.12495,-0.20495 -0.40689,-0.26469 -0.66333,-0.14055 -0.23933,0.11585 -0.25117,0.16934 -0.25117,1.13424 0,0.70491 0.009,0.8558 0.0554,0.95417 0.10209,0.21513 0.41559,0.30845 0.6738,0.20056 z"
       id="path6" /></g></svg>
