<?xml version="1.0" encoding="UTF-8" standalone="no"?>
<!-- Created with Inkscape (http://www.inkscape.org/) -->

<svg
   width="14.287504mm"
   height="16.933382mm"
   viewBox="0 0 14.287504 16.933382"
   version="1.1"
   id="svg1"
   xml:space="preserve"
   xmlns="http://www.w3.org/2000/svg"
   xmlns:svg="http://www.w3.org/2000/svg"><defs
     id="defs1" /><g
     id="layer1"
     transform="translate(-42.798038,-149.70059)"><path
       style="fill:#000000;stroke-width:1.03938"
       d="m 48.387613,166.59468 c -0.197395,-0.0654 -0.319845,-0.16992 -1.293942,-1.10405 L 46.124154,164.5609 45.907839,164.54 c -0.17785,-0.0172 -0.351801,-0.0672 -0.507555,-0.14588 -0.01263,-0.006 -0.02883,0.10968 -0.03618,0.25791 -0.02041,0.41698 0.05,0.39534 -1.285838,0.39534 h -1.10485 l -0.08769,-0.0812 -0.08769,-0.0812 v -2.74909 -2.74909 l 0.08769,-0.0812 0.08769,-0.0812 h 1.110433 1.110418 l 0.08769,0.0812 c 0.07829,0.0725 0.08769,0.10915 0.08769,0.34325 v 0.26204 l 0.15179,-0.0703 c 0.145528,-0.0674 0.207602,-0.0707 1.504957,-0.0797 1.673786,-0.0117 1.556239,-0.0368 2.098232,0.44831 l 0.389047,0.34818 0.38409,-0.34697 c 0.308497,-0.27868 0.419921,-0.358 0.56614,-0.40299 0.163076,-0.0502 0.367751,-0.055 1.963699,-0.0465 1.734479,0.009 1.785677,0.0113 1.933441,0.0797 l 0.151791,0.0703 v -0.26204 c 0,-0.2341 0.0097,-0.27069 0.08769,-0.34325 l 0.08769,-0.0812 h 1.110433 1.110433 l 0.08823,0.0817 0.08823,0.0817 -0.0097,2.7665 -0.0097,2.7665 -0.08434,0.0632 c -0.07894,0.0592 -0.154599,0.0632 -1.18917,0.0632 h -1.10485 l -0.08769,-0.0812 c -0.07851,-0.0727 -0.08769,-0.10896 -0.08769,-0.34628 v -0.26506 l -0.126144,0.0689 c -0.077,0.0421 -0.215775,0.0756 -0.356335,0.086 l -0.230193,0.0171 0.106798,0.12489 c 0.298032,0.34858 0.274404,0.80362 -0.05767,1.11125 -0.278076,0.2576 -0.688839,0.30661 -1.064743,0.12703 -0.09611,-0.0459 -0.177094,-0.0793 -0.180021,-0.0743 -0.06728,0.11509 -0.238615,0.27611 -0.369737,0.3475 -0.241262,0.13138 -0.589628,0.13104 -0.864011,-8.3e-4 -0.180591,-0.0868 -0.194738,-0.0888 -0.227276,-0.0331 -0.07268,0.12464 -0.309782,0.30152 -0.473257,0.35312 -0.350786,0.11072 -0.66317,0.038 -0.970868,-0.22583 l -0.207773,-0.1782 -0.08326,0.14547 c -0.18461,0.32237 -0.653214,0.49262 -1.020651,0.37081 z m 0.471238,-0.56848 c 0.08736,-0.0696 0.10022,-0.10335 0.10022,-0.26297 v -0.18312 l -0.437524,-0.40996 c -0.440935,-0.41316 -0.481324,-0.47484 -0.41533,-0.63417 0.03434,-0.0828 0.221704,-0.15894 0.329888,-0.134 0.05777,0.0133 0.428021,0.32902 0.953902,0.81329 0.769606,0.70872 0.871711,0.79152 0.975997,0.79152 0.159124,0 0.325267,-0.15344 0.325267,-0.30041 0,-0.0939 -0.07171,-0.17418 -0.589304,-0.65906 -0.597479,-0.55973 -0.635286,-0.61146 -0.567124,-0.77602 0.03434,-0.0828 0.221706,-0.15894 0.329891,-0.134 0.05777,0.0133 0.42802,0.32901 0.95389,0.81329 0.769616,0.70872 0.871709,0.79153 0.976008,0.79153 0.159123,0 0.325266,-0.15345 0.325266,-0.30042 0,-0.0939 -0.07171,-0.17418 -0.589303,-0.65906 -0.493593,-0.46241 -0.589132,-0.5677 -0.588182,-0.64825 0.0022,-0.16945 0.178671,-0.30148 0.350419,-0.2619 0.05842,0.0135 0.425374,0.32622 0.954419,0.81341 0.769617,0.70873 0.871711,0.79153 0.975998,0.79153 0.160365,0 0.325267,-0.15338 0.325267,-0.30255 0,-0.0995 -0.126047,-0.22602 -1.436955,-1.44175 l -1.436963,-1.33264 h -0.299663 -0.299664 l -0.331519,0.2936 c -0.447578,0.39638 -0.698775,0.47503 -1.106287,0.3464 -0.329415,-0.10398 -0.589143,-0.44447 -0.589143,-0.77234 0,-0.28126 0.09287,-0.42186 0.585612,-0.88693 l 0.466518,-0.44029 -0.359834,-0.32895 -0.359846,-0.32894 h -1.293921 -1.29392 l -0.21164,0.187 -0.21164,0.18701 v 1.47067 1.47067 l 0.164664,0.17029 c 0.20799,0.21509 0.235516,0.2292 0.497091,0.25488 0.118412,0.0116 0.273184,0.0466 0.343917,0.0777 0.07775,0.0342 0.507825,0.42338 1.088307,0.98492 0.527836,0.51062 0.991406,0.94899 1.030154,0.97414 0.106159,0.0689 0.253033,0.0551 0.365072,-0.0341 z m -4.060658,-3.89039 v -2.38214 h -0.714298 -0.714313 v 2.38214 2.38215 h 0.714313 0.714298 z m 11.714722,0 v -2.38214 h -0.714314 -0.714313 v 2.38214 2.38215 h 0.714313 0.714314 z m -2.21171,1.66578 0.21164,-0.18701 v -1.47877 -1.47876 l -0.21164,-0.18701 -0.211651,-0.187 h -1.725223 -1.725235 l -1.009668,0.9353 c -0.915371,0.84796 -1.009667,0.94553 -1.009667,1.04473 0,0.14869 0.164782,0.30285 0.323701,0.30285 0.09676,0 0.168929,-0.0488 0.458117,-0.31016 0.188779,-0.1706 0.378345,-0.32692 0.421239,-0.3474 0.119415,-0.057 0.990996,-0.0489 1.111309,0.0102 0.05302,0.0261 0.586538,0.50253 1.18554,1.05873 l 1.089116,1.01128 h 0.440387 0.440384 z m -7.774613,-4.45173 c -0.281391,-0.24027 -0.299771,-0.30033 -0.299771,-0.97929 v -0.59168 l -0.723244,-0.32235 c -0.763353,-0.34023 -0.863515,-0.40103 -0.942142,-0.57196 -0.06706,-0.14572 -0.06717,-0.8974 -2.49e-4,-1.04586 0.06361,-0.14104 0.243206,-0.27876 0.398777,-0.30579 0.217751,-0.0378 0.163239,-0.12237 -0.238551,-0.36987 -0.486341,-0.29958 -0.494656,-0.31547 -0.494656,-0.94404 0,-0.39197 -0.01188,-0.51138 -0.05929,-0.59605 l -0.05929,-0.10588 -0.138098,0.26468 c -0.337266,0.6464 -0.55437,1.49384 -0.589089,2.29943 -0.03359,0.77958 0.07278,1.4526 0.351791,2.22568 0.123552,0.34232 0.136932,0.40703 0.100759,0.48778 -0.06091,0.1362 -0.222094,0.18946 -0.372438,0.12305 -0.104639,-0.0462 -0.13163,-0.0893 -0.246629,-0.39375 -0.935846,-2.47763 -0.237471,-5.19235 1.797183,-6.98598 2.868692,-2.52889 7.367436,-2.43592 10.083882,0.20838 1.023469,0.99629 1.64692,2.16045 1.90506,3.55733 0.0851,0.46061 0.08499,1.55963 -2.91e-4,2.01679 -0.130194,0.69813 -0.38896,1.47267 -0.528279,1.58124 -0.142914,0.11137 -0.348064,0.0612 -0.421497,-0.10295 -0.03855,-0.0861 -0.02689,-0.14322 0.102479,-0.50146 0.476389,-1.31988 0.478408,-2.62645 0.0065,-3.93505 -0.458032,-1.26906 -1.408045,-2.40123 -2.644526,-3.15161 l -0.266024,-0.16143 -0.0487,0.0861 c -0.04309,0.0762 -0.03985,0.10301 0.02873,0.23419 0.108552,0.2077 0.07451,0.33157 -0.19489,0.7091 -0.218162,0.30574 -0.225333,0.32266 -0.242665,0.57291 -0.02138,0.30944 -0.07354,0.38839 -0.361303,0.54762 l -0.202721,0.11217 v 0.17733 0.17733 h 0.739509 0.739508 l 0.27003,0.11738 0.27002,0.11739 0.243108,-0.11739 c 0.211283,-0.10202 0.276023,-0.11738 0.494585,-0.11738 0.304944,0 0.48383,0.0794 0.596291,0.26482 0.06155,0.10145 0.07559,0.18041 0.07559,0.42406 0,0.43438 -0.07257,0.56584 -0.396952,0.7188 -0.15393,0.0726 -0.166036,0.0879 -0.183574,0.2321 -0.02009,0.16542 -0.09676,0.28367 -0.254629,0.39292 -0.07808,0.054 -0.164049,0.0706 -0.414112,0.0796 l -0.315549,0.0114 -0.07473,0.16667 c -0.06328,0.14117 -0.07473,0.23513 -0.07473,0.61431 v 0.44764 l 0.366079,0.44843 c 0.201347,0.24664 0.393539,0.49359 0.42709,0.54878 0.08207,0.13499 0.09007,0.72934 0.01123,0.83361 -0.111532,0.14751 -0.397448,0.12224 -0.478364,-0.0423 -0.02225,-0.0451 -0.04039,-0.19086 -0.04039,-0.32386 v -0.24184 l -0.379704,-0.45967 c -0.208843,-0.25281 -0.401714,-0.50758 -0.428594,-0.56613 -0.03488,-0.0759 -0.04892,-0.26606 -0.04892,-0.66346 v -0.55699 l 0.13826,-0.26294 c 0.21096,-0.4012 0.332568,-0.47799 0.75696,-0.47799 h 0.247676 v -0.0971 c 0,-0.22259 0.130258,-0.39077 0.4018,-0.51882 l 0.169653,-0.08 v -0.18142 c 0,-0.17837 -0.0022,-0.1814 -0.104209,-0.1814 -0.05734,0 -0.221618,0.0521 -0.365084,0.1158 -0.323927,0.1438 -0.449056,0.14522 -0.745014,0.008 l -0.232148,-0.10727 -0.810037,-0.0168 c -0.746645,-0.0154 -0.817746,-0.0221 -0.908546,-0.085 -0.200365,-0.13875 -0.244835,-0.23012 -0.25843,-0.53097 -0.0065,-0.15404 -0.0022,-0.33118 0.0108,-0.39364 0.03099,-0.15322 0.171855,-0.30031 0.381961,-0.39893 l 0.17393,-0.0816 v -0.19961 c 0,-0.22306 0.03132,-0.29266 0.2953,-0.65567 l 0.177655,-0.24432 -0.05788,-0.11248 c -0.07981,-0.15505 -0.07311,-0.383 0.01598,-0.54486 0.0406,-0.0738 0.06695,-0.14073 0.05832,-0.14867 -0.03942,-0.0365 -0.645621,-0.24828 -0.923481,-0.3226 -1.249201,-0.3341 -2.493338,-0.33303 -3.717875,0.003 -0.171878,0.0472 -0.312514,0.099 -0.312514,0.11511 0,0.0161 0.03574,0.0919 0.07948,0.16857 0.06836,0.11979 0.08132,0.20254 0.09266,0.59112 l 0.01317,0.45182 0.120615,0.0209 c 0.141629,0.0246 0.318009,0.15304 0.391854,0.2853 0.08445,0.15128 0.06879,0.49448 -0.02883,0.62971 -0.08747,0.12131 -1.041482,0.80129 -1.230303,0.87696 -0.0771,0.0309 -0.256359,0.046 -0.544661,0.046 h -0.430525 v 0.33185 0.33185 l 0.330363,0.19712 0.330388,0.19713 0.301228,3.9e-4 c 0.530168,6.8e-4 0.75238,0.17558 0.75238,0.59216 v 0.20228 h 0.361217 c 0.308054,0 0.3822,0.0109 0.503712,0.0742 0.145182,0.0756 0.277967,0.26079 0.277967,0.38769 0,0.0635 0.02149,0.0675 0.361218,0.0675 0.427318,0 0.600805,0.0659 0.713936,0.27138 0.096,0.17428 0.09957,0.97624 0.0054,1.15129 -0.04255,0.0789 -0.224329,0.2294 -0.571389,0.47293 l -0.508948,0.35712 v 0.33072 c 0,0.37904 -0.04546,0.49435 -0.276552,0.70144 -0.188509,0.16893 -0.361294,0.19676 -0.488712,0.0787 -0.137957,-0.1278 -0.122688,-0.25721 0.05097,-0.43171 l 0.142861,-0.14357 v -0.32216 c 0,-0.45936 0.01771,-0.48483 0.629508,-0.90668 l 0.51032,-0.35186 0.0011,-0.33912 0.0011,-0.33913 h -0.340454 c -0.206738,0 -0.386239,-0.0177 -0.457038,-0.0451 -0.151187,-0.0585 -0.300872,-0.22501 -0.329533,-0.36657 l -0.02268,-0.11198 -0.386984,-0.0111 c -0.323313,-0.009 -0.403183,-0.0223 -0.485481,-0.0793 -0.187322,-0.12973 -0.242612,-0.23247 -0.257633,-0.47875 l -0.01404,-0.23055 H 47.05964 c -0.346941,0 -0.365073,-0.007 -0.899378,-0.33865 -0.492901,-0.30612 -0.515341,-0.35037 -0.499315,-0.98453 0.0097,-0.40182 0.02073,-0.47017 0.0852,-0.55007 0.167397,-0.2074 0.227709,-0.22627 0.780513,-0.2442 l 0.509898,-0.0165 0.450968,-0.31431 c 0.498279,-0.34728 0.560233,-0.43718 0.328972,-0.47736 -0.155572,-0.027 -0.335171,-0.16476 -0.398787,-0.30581 -0.0324,-0.0718 -0.0487,-0.24749 -0.0487,-0.52396 0,-0.35817 -0.0108,-0.43529 -0.07581,-0.55523 -0.04168,-0.0766 -0.08024,-0.14398 -0.08564,-0.14969 -0.01782,-0.0188 -0.530342,0.23105 -0.785016,0.38274 -0.40923,0.24377 -0.809886,0.54818 -1.174051,0.89202 -0.342319,0.32323 -0.771953,0.81904 -0.772277,0.89127 -8.6e-5,0.021 0.06814,0.16989 0.151612,0.33086 l 0.151792,0.29267 0.01145,0.5066 0.01145,0.5066 0.346832,0.20782 c 0.190766,0.11432 0.377621,0.25111 0.415225,0.304 0.08402,0.11816 0.113486,0.42632 0.05615,0.58728 -0.05313,0.1491 -0.248777,0.30973 -0.4118,0.33806 l -0.125777,0.0219 v 0.32207 0.32207 l 0.731874,0.32559 c 0.73183,0.32556 0.873243,0.41364 0.944496,0.58834 0.02138,0.0525 0.03801,0.33933 0.03801,0.658 v 0.56488 l 0.142872,0.14357 c 0.194663,0.19563 0.193713,0.36656 -0.0022,0.46058 -0.158573,0.0759 -0.237008,0.0587 -0.411984,-0.0907 z"
       id="path1" /></g></svg>
