<?xml version="1.0" encoding="UTF-8" standalone="no"?>
<!-- Created with Inkscape (http://www.inkscape.org/) -->

<svg
   width="17.24461mm"
   height="16.926907mm"
   viewBox="0 0 17.24461 16.926907"
   version="1.1"
   id="svg1"
   xml:space="preserve"
   xmlns="http://www.w3.org/2000/svg"
   xmlns:svg="http://www.w3.org/2000/svg"><defs
     id="defs1" /><g
     id="layer1"
     transform="translate(-14.844917,-121.16066)"><path
       style="fill:#000000;stroke-width:0.127292"
       d="m 21.261227,137.39549 c -1.22593,-0.41124 -2.0884,-0.68372 -2.13864,-0.67566 -0.0463,0.007 -0.87558,0.29601 -1.84282,0.64129 -0.96723,0.34528 -1.80978,0.62778 -1.87232,0.62778 -0.18149,0 -0.39547,-0.13325 -0.48459,-0.30177 l -0.0775,-0.14665 7.6e-4,-4.26357 c 7.7e-4,-4.08506 0.003,-4.26934 0.0634,-4.40161 0.0345,-0.0759 0.10614,-0.16863 0.15923,-0.20602 0.1229,-0.0865 2.26528,-0.85155 2.38466,-0.85155 0.23232,0 0.34174,0.32545 0.16036,0.47694 -0.0551,0.0461 -0.53064,0.23266 -1.14474,0.44924 l -1.05042,0.37048 -3.9e-4,4.15098 c -2.5e-4,2.28304 0.005,4.15098 0.0106,4.15098 0.0233,0 3.39165,-1.20908 3.42389,-1.22901 0.0226,-0.0139 0.0345,-0.8796 0.0352,-2.55349 0.001,-2.72822 -0.007,-2.6114 0.17849,-2.68178 0.10384,-0.0395 0.21383,-0.007 0.30016,0.089 0.0546,0.0606 0.0593,0.24415 0.0673,2.60275 l 0.009,2.53754 1.85213,0.61749 c 1.01867,0.33962 1.86361,0.61749 1.87763,0.61749 0.014,0 0.0255,-1.16435 0.0255,-2.58744 v -2.58744 l 0.078,-0.0732 c 0.10681,-0.10035 0.29109,-0.0981 0.38769,0.005 l 0.0732,0.0779 v 2.58272 c 0,1.4205 0.0115,2.58272 0.0255,2.58272 0.014,0 0.85895,-0.27787 1.87762,-0.61749 l 1.85214,-0.61749 0.008,-2.52311 c 0.006,-1.82879 0.0187,-2.54352 0.0469,-2.59728 0.0809,-0.15419 0.31134,-0.16457 0.44161,-0.0199 0.0546,0.0606 0.0593,0.24429 0.0674,2.6056 l 0.009,2.54038 1.71764,0.61423 c 0.94471,0.33782 1.72144,0.61441 1.72607,0.61464 0.005,2.6e-4 0.008,-1.86752 0.008,-4.15056 l -2.6e-4,-4.15098 -0.8502,-0.30058 c -1.23819,-0.43775 -1.36735,-0.48938 -1.42296,-0.56877 -0.12297,-0.17556 0.008,-0.42731 0.22174,-0.42731 0.12838,0 2.26644,0.7557 2.39415,0.84622 0.0494,0.035 0.12134,0.1289 0.15997,0.20871 0.0701,0.14476 0.0702,0.1555 0.0702,4.40647 v 4.26135 l -0.0776,0.14665 c -0.10358,0.19588 -0.31521,0.31302 -0.52867,0.29265 -0.0834,-0.008 -0.94187,-0.29711 -1.90781,-0.64258 -0.96593,-0.34546 -1.7769,-0.62811 -1.80215,-0.62811 -0.0252,0 -0.97771,0.31069 -2.11658,0.69042 -1.39787,0.4661 -2.11453,0.68957 -2.20569,0.68779 -0.0803,-0.002 -0.96697,-0.28172 -2.18946,-0.69181 z m 1.41453,-5.97454 c -0.74013,-0.15177 -1.44137,-0.50868 -1.96182,-0.99849 -0.1522,-0.14324 -0.17682,-0.18397 -0.17682,-0.29252 0,-0.089 0.0243,-0.15045 0.0827,-0.20878 0.13801,-0.138 0.25065,-0.11163 0.53059,0.12421 0.45306,0.38169 0.92196,0.63413 1.44119,0.77587 0.2523,0.0689 0.35822,0.0779 0.8925,0.0757 0.5597,-0.002 0.62949,-0.009 0.90934,-0.0944 0.55091,-0.16703 0.97516,-0.40727 1.42547,-0.80721 0.20727,-0.18408 0.33213,-0.20411 0.46211,-0.0741 0.0598,0.0598 0.0827,0.11937 0.0827,0.21554 0,0.11871 -0.0206,0.15164 -0.19282,0.30909 -0.55866,0.51058 -1.2725,0.86237 -2.01136,0.99121 -0.40654,0.0709 -1.09608,0.0634 -1.48372,-0.0161 z m -3.82758,-1.12411 c -0.23867,-0.0853 -0.4619,-0.33187 -0.53339,-0.58925 -0.0555,-0.19996 -0.0422,-1.59903 0.0177,-1.85305 0.11949,-0.50695 0.4071,-0.85547 1.01748,-1.23295 0.42622,-0.2636 0.42636,-0.2795 0.002,-0.28339 l -0.25849,-0.002 -0.0783,0.14157 c -0.30792,0.55669 -1.13886,0.55839 -1.46532,0.003 l -0.0949,-0.1614 -0.0168,-1.43137 -0.0168,-1.43137 -1.01039,-0.0168 c -0.96428,-0.0161 -1.01576,-0.0202 -1.12825,-0.0903 -0.36235,-0.22569 -0.51793,-0.62816 -0.3978,-1.02911 0.0528,-0.17613 0.29381,-0.44027 0.47331,-0.51867 0.12976,-0.0567 0.26271,-0.0636 1.39796,-0.073 l 1.25455,-0.0104 v -0.18558 c 0,-0.22447 0.033,-0.29347 0.16711,-0.349 0.21875,-0.0906 0.40544,0.0939 0.40544,0.40063 v 0.1339 l 1.23772,0.0103 c 1.17227,0.01 1.24575,0.014 1.38965,0.0806 0.32718,0.15145 0.50334,0.4274 0.50334,0.7885 0,0.26425 -0.0723,0.43776 -0.25552,0.613 -0.23299,0.22288 -0.26879,0.22898 -1.34169,0.22898 h -0.96095 v 0.43784 0.43783 h 0.21298 c 0.30017,0 0.79787,-0.0915 1.1342,-0.20863 0.15745,-0.0548 0.5515,-0.22577 0.87566,-0.3799 0.85426,-0.40617 1.20058,-0.50603 1.88605,-0.54383 0.74796,-0.0412 1.38793,0.10876 2.23654,0.52422 0.88386,0.43271 1.29954,0.5624 1.91548,0.59759 l 0.3631,0.0207 -0.009,-0.43451 -0.009,-0.43451 -0.99354,-0.0168 c -0.93638,-0.0159 -1.00129,-0.021 -1.12826,-0.0895 -0.30122,-0.16255 -0.43654,-0.39587 -0.43638,-0.75245 1.3e-4,-0.29522 0.0715,-0.46288 0.27197,-0.63889 0.25125,-0.2206 0.23921,-0.21889 1.62105,-0.23024 l 1.25455,-0.0103 v -0.19432 c 0,-0.1643 0.0132,-0.20669 0.0851,-0.27429 0.11096,-0.10424 0.29294,-0.10756 0.39332,-0.007 0.0536,0.0536 0.0766,0.12587 0.0873,0.27398 l 0.0146,0.20119 1.25067,0.0106 1.25067,0.0106 0.18086,0.10018 c 0.42334,0.23447 0.57428,0.70692 0.36349,1.13777 -0.0502,0.10268 -0.14402,0.22688 -0.20841,0.27599 -0.23795,0.18149 -0.2757,0.18687 -1.31156,0.18687 h -0.96095 v 1.34106 c 0,1.50889 -0.01,1.58906 -0.22694,1.82925 -0.18586,0.20573 -0.3524,0.27968 -0.63188,0.2806 -0.19848,6.4e-4 -0.26398,-0.0148 -0.41428,-0.0979 -0.17088,-0.0944 -0.37719,-0.32018 -0.37719,-0.4127 0,-0.0323 -0.0688,-0.0438 -0.26101,-0.0434 -0.4639,7.7e-4 -0.46374,0.008 0.007,0.30815 0.44573,0.2843 0.67984,0.50622 0.83414,0.7907 0.17115,0.31552 0.19484,0.48749 0.19403,1.40846 -6.4e-4,0.7434 -0.008,0.85929 -0.0621,0.97805 -0.19352,0.42451 -0.6492,0.62428 -1.07851,0.47281 -0.20547,-0.0725 -0.35097,-0.19767 -0.46136,-0.39689 l -0.0981,-0.17696 -0.0108,-0.74095 -0.0108,-0.74094 -0.8817,-0.55103 -0.88169,-0.55103 -0.31995,0.10598 c -0.55113,0.18256 -0.7727,0.21771 -1.36402,0.21636 -0.5921,-0.001 -0.82737,-0.0394 -1.35407,-0.21906 l -0.31,-0.10574 -0.88561,0.55333 -0.88562,0.55334 -0.0168,0.75671 c -0.0154,0.69292 -0.023,0.76806 -0.0895,0.89143 -0.20168,0.37375 -0.66123,0.55047 -1.06054,0.40782 z m 0.49486,-0.60837 c 0.0824,-0.0825 0.0827,-0.0845 0.0829,-0.78305 1.1e-4,-0.38521 0.0158,-0.75658 0.0349,-0.82528 0.0191,-0.0687 0.0774,-0.16721 0.12965,-0.21892 0.0522,-0.0517 0.4241,-0.29806 0.8264,-0.54745 0.40229,-0.24939 0.7376,-0.46341 0.74514,-0.4756 0.0145,-0.0235 -0.54684,-0.26793 -0.61327,-0.26707 -0.0783,0.001 -1.27791,0.78065 -1.38837,0.90233 -0.0626,0.069 -0.15354,0.20874 -0.20208,0.31062 -0.0857,0.17992 -0.0886,0.20686 -0.0995,0.93784 -0.006,0.41393 -0.002,0.78861 0.009,0.83263 0.0532,0.21214 0.32166,0.28776 0.47547,0.13395 z m 8.62405,-0.002 0.0848,-0.0848 -0.0106,-0.83297 c -0.01,-0.76709 -0.0162,-0.84528 -0.0825,-0.98865 -0.12302,-0.26604 -0.29618,-0.41678 -0.94619,-0.82365 -0.49866,-0.31213 -0.63965,-0.38587 -0.70598,-0.36922 -0.12065,0.0303 -0.54932,0.2257 -0.54855,0.25006 3.8e-4,0.0114 0.20875,0.1487 0.46309,0.30508 0.9728,0.59813 1.11124,0.69633 1.18476,0.84044 0.0634,0.12432 0.0691,0.19573 0.0691,0.86357 v 0.72804 l 0.0985,0.0984 c 0.12654,0.12654 0.2755,0.13171 0.39356,0.0137 z m -4.23043,-3.07888 c 0,-0.36985 0.0323,-0.46248 0.18314,-0.52552 0.12851,-0.0537 0.20026,-0.0393 0.31364,0.0627 0.0677,0.061 0.0758,0.0998 0.0758,0.3661 v 0.29788 l 0.0926,-0.0216 c 0.16098,-0.0375 0.59009,-0.21539 0.79989,-0.33164 0.74997,-0.41555 1.68048,-0.69164 2.33229,-0.692 l 0.24418,-1.3e-4 v -0.43783 -0.43783 l -0.22734,-2e-4 c -0.34801,-3.1e-4 -0.83981,-0.0859 -1.24043,-0.21576 l -0.36215,-0.11743 -0.095,0.0677 c -0.0523,0.0372 -0.20508,0.11821 -0.3396,0.18 -1.19267,0.54782 -3.37642,0.48192 -4.37241,-0.13193 l -0.18734,-0.11546 -0.28417,0.097 c -0.39069,0.13335 -0.76009,0.20519 -1.16826,0.22719 l -0.34521,0.0186 v 0.42785 0.42784 l 0.37889,0.0219 c 0.67796,0.0391 1.26796,0.22112 2.14766,0.66254 0.32416,0.16265 0.82537,0.36997 0.89445,0.36997 0.004,0 0.0129,-0.136 0.0194,-0.30222 0.0101,-0.25847 0.0226,-0.31307 0.0868,-0.37721 0.11056,-0.11051 0.29761,-0.10219 0.40084,0.0178 0.0716,0.0832 0.0798,0.12509 0.0798,0.40527 0,0.17186 0.0101,0.32257 0.0224,0.33492 0.0123,0.0123 0.14117,0.0225 0.28627,0.0225 h 0.26382 z m -5.26428,-0.35289 0.0945,-0.0813 v -1.35853 -1.35853 l -0.27785,-0.01 -0.27786,-0.01 v 1.35075 c 0,0.89135 0.0122,1.37355 0.0359,1.4178 0.0762,0.14242 0.28847,0.16704 0.42533,0.0493 z m 10.35285,-0.0176 0.0988,-0.0988 -0.009,-1.34096 -0.009,-1.34096 -0.27786,-0.01 -0.27785,-0.01 v 1.35894 c 0,1.4272 -8.9e-4,1.41792 0.15156,1.50132 0.11451,0.0626 0.21991,0.0431 0.32293,-0.06 z m -4.41498,-1.70426 c 0.15745,-0.0302 0.42938,-0.10082 0.60429,-0.15683 l 0.31801,-0.10183 -0.12786,-0.0772 c -0.16262,-0.0982 -0.59916,-0.27107 -0.84776,-0.33583 -0.80145,-0.20875 -1.68171,-0.12279 -2.43145,0.23743 l -0.32746,0.15733 0.14778,0.0666 c 0.19709,0.0888 0.75685,0.22503 1.07635,0.26192 0.36503,0.0422 1.24965,0.0134 1.5881,-0.0516 z m -3.3538,-1.73069 c 0.11974,-0.11251 0.11974,-0.29675 -10e-6,-0.40925 l -0.0869,-0.0817 h -2.68892 -2.68893 l -0.0869,0.0817 c -0.15312,0.14385 -0.0759,0.44473 0.12426,0.48446 0.0413,0.008 1.25982,0.013 2.70782,0.0107 l 2.63271,-0.004 z m 10.2355,0.0623 c 0.25053,-0.0696 0.28367,-0.40191 0.052,-0.5217 -0.0824,-0.0426 -0.469,-0.0483 -2.75989,-0.0405 l -2.66412,0.009 -0.0813,0.0945 c -0.0871,0.1013 -0.1035,0.22204 -0.0449,0.33145 0.0861,0.16093 0.0827,0.16073 2.80957,0.16193 1.7084,7.6e-4 2.60253,-0.0108 2.68862,-0.0347 z m -8.36128,7.44473 c -0.5681,-0.11924 -1.14902,-0.42576 -1.46066,-0.77072 -0.15114,-0.16728 -0.1645,-0.30292 -0.0419,-0.4255 0.13966,-0.13966 0.27181,-0.11353 0.52512,0.10385 0.86418,0.74158 2.08931,0.74206 3.01033,10e-4 0.25796,-0.20751 0.35903,-0.2312 0.50306,-0.1179 0.0954,0.0751 0.12075,0.24529 0.0548,0.36852 -0.0568,0.10615 -0.50587,0.43706 -0.78045,0.57512 -0.41283,0.20756 -0.68297,0.27138 -1.20636,0.28496 -0.25007,0.006 -0.52183,-0.002 -0.60392,-0.0195 z m 0.10275,-1.16366 c -0.34847,-0.0937 -0.7724,-0.36122 -0.85307,-0.53828 -0.0769,-0.16879 0.07,-0.38525 0.26138,-0.38525 0.0695,0 0.15269,0.0369 0.23782,0.1056 0.24815,0.20014 0.4702,0.28008 0.77084,0.27749 0.32117,-0.003 0.50072,-0.0631 0.74185,-0.24908 0.20855,-0.16089 0.34748,-0.176 0.47214,-0.0514 0.13306,0.13306 0.11324,0.28406 -0.0592,0.45147 -0.37824,0.36712 -1.04257,0.53171 -1.57172,0.3894 z"
       id="path5" /></g></svg>
